<svg width="1010" height="204" viewBox="0 0 1010 204" fill="none" xmlns="http://www.w3.org/2000/svg">
<g clip-path="url(#clip0_30_5)">
<path d="M413.3 128.5C420.2 128.5 427.1 128.5 434.1 128.5C437.7 128.5 439.5 130.1 439.4 133.7C439.4 137.6 439.4 141.4 439.4 145.3C439.4 148.6 440.4 151.7 444.4 151.8C448.4 151.8 449.9 148.9 450.1 145.3C450.3 141.1 450.8 136.8 449.9 132.8C449.3 130 447.3 126.7 445 125.1C440.2 121.7 434.7 119.2 429.4 116.5C424.2 113.9 418.9 111.6 413.7 109C400.2 102.5 391.7 92.2001 388.6 77.3001C384.3 56.1001 386.9 36.6001 401.4 19.7001C415.9 2.70008 442.7 -4.09993 464.2 3.70007C486.7 11.9001 502 32.7001 502.4 55.7001C502.4 60.4001 502.4 65.0001 502.4 69.7001C502.4 73.3001 500.7 74.9001 497.1 74.9001C483.3 74.9001 469.4 74.9001 455.6 74.9001C451.9 74.9001 450.3 73.2001 450.4 69.6001C450.4 65.6001 450.4 61.5001 450.2 57.5001C450 54.1001 448.6 51.3001 444.8 51.3001C440.9 51.3001 439.8 54.2001 439.6 57.6001C439.6 57.8001 439.6 57.9001 439.6 58.1001C438.5 74.9001 438.9 75.5001 454.3 82.7001C462.2 86.4001 470 90.2001 477.7 94.3001C491.6 101.7 499.6 113.2 501.7 128.9C504.3 148.8 502.5 167.7 488.2 183.2C471.8 200.9 451.5 206.9 428.5 200.2C405.8 193.6 392.1 177.7 388 154.3C386.8 147.7 387.2 140.8 386.9 134.1C386.7 129.9 388.8 128.4 392.8 128.5C399.7 128.6 406.6 128.5 413.6 128.5H413.3Z" fill="white"/>
<path d="M792.5 1.09988C792.5 8.29988 792.5 14.8999 792.5 21.4999C792.5 26.0999 792.3 30.6999 792.3 35.1999C792.3 41.8999 792.3 48.5999 792.3 55.2999C792.3 62.1999 792.1 68.9999 792.1 75.8999C792.1 79.8999 792.1 83.9999 792.5 87.9999C792.9 91.7999 795.5 93.3999 799.3 92.5999C802.4 91.8999 803.6 89.3999 803.6 86.3999C803.6 79.7999 803.7 73.1999 803.7 66.5999C803.7 59.8999 803.4 53.0999 803.4 46.3999C803.4 35.7999 803.6 25.1999 803.7 14.5999C803.7 10.7999 803.6 6.99988 803.3 3.29988C803.1 0.399884 805.2 0.999884 806.7 0.999884C815.3 0.999884 824 0.999884 832.6 0.999884C847.3 0.999884 862.1 0.999884 876.8 0.999884C880.1 0.999884 881.1 1.89988 881.1 5.29988C881 32.3999 881.1 59.3999 881.1 86.4999C881.1 100.8 881.1 115 881.1 129.3C881.1 153.1 881.1 177 881.1 200.8C881.1 201.5 880.9 202.3 880.7 203.5C866.3 203.5 852.1 203.5 837.9 203.5C835.7 203.5 835.1 203 835.2 200.5C835.6 192.6 835.6 184.7 835.5 176.8C835.5 169.5 835.1 162.2 835.1 154.8C835.1 146.4 835.1 138.1 835.1 129.7C835.1 122.5 834.6 115.4 835.1 108.2C835.4 104.2 833.5 102.9 830.6 102.3C827.2 101.6 824.7 103.8 824.5 107.3C824.1 114.4 823.8 121.5 823.5 128.6C823 139.5 822.5 150.4 822 161.2C821.5 172 821 182.7 820.5 193.5C820.3 196.8 820.1 200 819.8 203.5C806.1 203.5 792.9 203.5 779.7 203.5C777.2 203.5 775.8 203.2 775.7 200.2C775.4 191.1 774.7 182.1 774.3 173C773.8 164.1 773.4 155.2 773 146.2C772.4 133.4 771.9 120.6 771.4 107.9C771.3 104.2 769.2 102.1 765.5 102.3C762.1 102.4 760.7 104.3 760.6 108.2C760.5 115.3 760 122.5 760 129.6C760 137.2 760.5 144.9 760.5 152.5C760.5 157.9 760 163.4 760 168.9C760 174.1 760.3 179.3 760.4 184.5C760.4 190.8 760.4 197.1 760.4 203.3C755.1 203.3 750.7 203.3 746.3 203.3C738.3 203.3 730.3 203.1 722.3 203C721.5 203 720.7 202.8 719.9 202.9C714.7 203.4 714.7 203.4 714.6 198.3C714.5 173.6 714.4 148.9 714.3 124.2C714.3 85.3999 714.3 46.5999 714.3 7.79988C714.3 3.26655 716.566 0.999884 721.1 0.999884C743.5 0.999884 766 0.999884 788.4 0.999884C789.5 0.999884 790.7 1.09989 792.3 1.19989L792.5 1.09988Z" fill="white"/>
<path d="M196.8 203C196.8 174.1 196.8 145.4 196.8 116.7C196.8 113.3 196 110.6 192.2 110C188.1 109.4 185.6 111.4 185.6 115.6C185.6 125.3 185.6 135 185.5 144.7C185.4 159.2 185.1 173.8 185.1 188.3C185.1 193.2 185.5 198.1 185.8 203.2H131V0.99995H185.6C185.6 4.59995 185.6 8.39995 185.6 12.2C185.6 29.3 185.4 46.4 185.4 63.5C185.4 70.9 185.4 78.4 185.7 85.8C185.8 90.1 188.4 92.8 191.8 92.7C194.9 92.5 196.8 89.7999 196.8 85.3999C196.8 61.2999 196.8 37.1999 196.8 13.0999C196.8 9.99995 196.8 6.89995 196.8 3.79995C196.8 1.59995 197.6 0.699951 199.8 0.699951C215.9 0.699951 232 0.699951 248.1 0.699951C250.7 0.699951 251.1 1.99995 251.1 4.19995C251.1 15 251.5 25.8 251.5 36.5C251.5 48.2 251.2 59.9 251.2 71.7C251.2 79.5 251.8 87.2 251.8 95C251.8 104.6 251.3 114.2 251.2 123.9C251.1 139.5 251.1 155.1 251.2 170.7C251.2 180.8 251.5 191 251.5 201.1C251.5 202 250.1 203.7 249.4 203.7C232.2 203.8 215.1 203.7 197.9 203.7C197.7 203.7 197.4 203.5 196.9 203.2L196.8 203Z" fill="white"/>
<path d="M1001 177.5C991.9 190.5 980 199.6 964.4 202.6C945.8 206.2 928.5 202.3 913.9 189.7C902.6 179.9 895.4 167.6 894.2 152.4C893.7 145.5 893.8 138.5 893.8 131.5C893.8 120 894 108.5 894 96.9999C894 84.8999 894.6 72.7999 893.9 60.6999C893.3 50.8999 895.1 41.7999 899.4 33.2999C908.9 14.4999 924.2 3.39989 945.3 1.09989C960.1 -0.500114 973.9 1.99988 986.2 11.0999C995.5 17.8999 1002.5 26.7999 1006.6 37.2999C1009.8 45.5999 1010.8 54.5999 1010.3 63.7999C1009.8 72.7999 1010.2 81.7999 1010.2 90.8999C1010.2 104.2 1010.2 117.4 1010.2 130.7C1010.2 139.1 1010.2 147.5 1009.4 155.8C1008.8 160.8 1006.4 165.7 1004.9 170.6C1004.6 171.6 1002.3 176.1 1001.2 177.7L1001 177.5ZM946.9 147.6C947.4 149.5 949.6 151.5 951.5 152.2C952.6 152.6 955.2 150.9 956.2 149.5C957.2 148.1 957.2 145.9 957.3 144C957.4 132.5 957.5 120.9 957.5 109.4C957.5 99.1999 957.2 88.8999 957.1 78.6999C957.1 71.7999 956.9 64.8999 957.1 57.9999C957.1 54.2999 955.3 51.4999 952.1 51.2999C949.4 51.0999 946.8 54.0999 946.8 57.4999C946.6 72.0999 946.4 86.6999 946.3 101.3C946.3 113.4 946.3 144.5 947 147.7L946.9 147.6Z" fill="white"/>
<path d="M115.7 96.2C106.8 96.2 98.2997 96.2 89.8997 96.2C85.4997 96.2 81.0997 96.2 76.6997 96.2C73.6997 96.2 70.5997 96.2 67.5997 96.6C64.3997 97.1 63.1997 96.2 63.2997 92.8C63.4997 81.1 63.2997 69.4 63.2997 57.7C63.2997 53.8 61.6997 51.9 58.3997 51.9C54.8997 51.9 53.0997 54 53.0997 58C52.9997 65.8 52.5997 73.5 52.5997 81.3C52.5997 93.4 52.7997 105.6 52.8997 117.7C52.8997 126.5 52.6997 135.3 52.8997 144C52.8997 146.5 51.7997 149.8 55.0997 151.2C56.8997 151.9 59.3997 152.6 60.7997 151.9C62.1997 151.2 63.2997 148.6 63.3997 146.9C63.5997 135.3 63.3997 123.7 63.4997 112.1C63.4997 110.4 63.8997 108.7 64.0997 107.4H116.1C116.1 113.3 116.1 118.8 116.1 124.4C116.2 132.6 116.9 140.9 116.5 149C115.9 158.9 113 168.4 107.4 176.7C102.3 184.3 95.9997 190.8 88.0997 195.6C79.1997 200.9 69.5997 203.3 58.9997 203.5C41.5997 203.8 27.2997 197.4 15.5997 185.1C5.89974 175 0.299738 162.5 0.0997384 148.4C-0.200262 117.7 -0.20026 87 -0.0002601 56.3C-0.0002601 44.7 4.29974 34.3 11.0997 24.7C19.4997 12.8 30.7997 5.40001 44.7997 2.10001C53.4997 7.03335e-06 62.2997 -0.0999938 71.2997 1.90001C83.9997 4.60001 94.2997 10.9 102.4 20.4C109.7 29 114.9 39.1 115.8 50.6C116.5 59.5 115.8 68.4 116 77.3C116 83 116.4 88.6 116.4 94.3C116.4 95.1 115.9 95.9 115.8 96.1L115.7 96.2Z" fill="white"/>
<path d="M678.9 0.600098C687.6 68.3001 696.3 135.5 704.9 203.1H648.6C648.6 189.4 648.6 175.9 648.6 162.5C648.6 160.9 647.9 159.3 647.4 157.7C646.4 154.8 644 153.8 641.4 154.9C638.7 155.9 637.3 158.2 637.4 161.4C637.6 175 637.6 188.5 637.7 202.1C637.7 202.5 637.4 202.8 637.1 203.4C621.6 203.4 606.1 203.4 590.6 203.4C588.6 203.4 586.5 203.8 584.7 203.3C583.5 202.9 581.8 201.1 581.9 200.1C583.7 185.7 585.8 171.4 587.7 157.1C589.5 143 591.1 128.9 592.9 114.9C594.3 104.1 596.1 93.3001 597.5 82.5001C598.9 71.2001 600 59.8001 601.4 48.5001C603.2 35.0001 605.1 21.5001 607.1 8.0001C608.2 0.700097 608.4 0.700098 615.7 0.700098C635.4 0.700098 655.1 0.700098 674.8 0.700098C676 0.700098 677.2 0.700098 679 0.700098L678.9 0.600098ZM648.6 85.2001C648.6 79.5001 648.6 73.8001 648.6 68.1001C648.6 64.8001 648.7 61.5001 648.6 58.1001C648.4 54.0001 646 51.6001 642.6 51.7001C639.4 51.8001 637.5 54.3001 637.4 58.2001C637.4 62.5001 637.4 66.8001 637.4 71.1001C637.4 84.7001 637.4 98.2001 637.4 111.8C637.4 114.5 640.7 118.9 643 118.4C644.9 117.9 646.6 115.7 647.9 114C648.6 113.1 648.5 111.5 648.6 110.2C648.6 101.8 648.6 93.5001 648.6 85.1001V85.2001Z" fill="white"/>
<path d="M323.2 1.00001V203C305.8 203 288.6 203 271.3 203C269.5 203 268.2 203 268.4 200.2C268.9 194.6 268.8 189 268.8 183.4C268.7 172.6 268.3 161.8 268.2 151C268.1 142.1 268.2 133.1 268.2 124.2C268.2 115.3 268.3 106.4 268.3 97.5C268.3 88.6 268.2 79.8 268.3 70.9C268.3 63.8 268.8 56.7 268.8 49.6C268.8 41.2 268.4 32.8 268.4 24.4C268.4 17.3 268.5 10.3 268.8 3.20001C268.8 2.40001 270.2 1.00001 271 1.00001C282.4 0.900011 293.8 1.00001 305.2 1.00001C311.1 1.00001 316.9 1.00001 323.3 1.00001H323.2Z" fill="white"/>
<path d="M568.7 1.00001V203C551.3 203 534.1 203 516.8 203C515 203 513.7 203 513.9 200.2C514.4 194.6 514.3 189 514.3 183.4C514.2 172.6 513.8 161.8 513.7 151C513.6 142.1 513.7 133.1 513.7 124.2C513.7 115.3 513.8 106.4 513.8 97.5C513.8 88.6 513.7 79.8 513.8 70.9C513.8 63.8 514.3 56.7 514.3 49.6C514.3 41.2 513.9 32.8 513.9 24.4C513.9 17.3 514 10.3 514.3 3.20001C514.3 2.40001 515.7 1.00001 516.5 1.00001C527.9 0.900011 539.3 1.00001 550.7 1.00001C556.6 1.00001 562.4 1.00001 568.8 1.00001H568.7Z" fill="white"/>
</g>
<defs>
<clipPath id="clip0_30_5">
<rect width="1010" height="204" fill="white"/>
</clipPath>
</defs>
</svg>
