<svg width="944" height="204" viewBox="0 0 944 204" fill="none" xmlns="http://www.w3.org/2000/svg">
<g clip-path="url(#clip0_31_59)">
<path d="M254.5 1.3999C270.6 1.3999 286.1 1.3999 301.6 1.3999C308 1.3999 314.3 1.3999 320.7 1.3999C323.3 1.3999 324.4 2.0999 324.6 4.8999C325.2 14.7999 326.1 24.5999 326.8 34.4999C327.5 44.9999 327.8 55.4999 328.6 66.0999C329.2 73.9999 330.2 81.8999 330.9 89.7999C331.1 92.1999 331 94.5999 331.2 96.8999C331.3 99.5999 334.2 102.3 336.7 102.3C338.9 102.3 342.1 98.7999 342 96.2999C341.8 88.2999 341.5 80.1999 341.5 72.1999C341.5 56.1999 341.9 40.2999 342 24.2999C342 17.6999 341.6 11.0999 341.4 4.5999C341.4 2.8999 341.4 1.3999 343.7 1.3999C359.2 1.3999 374.7 1.3999 390.7 1.3999V202.9H321.5C321.2 199.9 320.8 196.6 320.6 193.4C319.6 181 318.7 168.6 317.8 156.3C317.2 147.7 317.1 139.1 316.5 130.6C316.2 125.7 315.3 120.7 314.8 115.8C314.5 113.3 314.4 110.8 314.4 108.3C314.4 104.8 312.6 102.5 309.3 102.4C306.4 102.3 303.1 104.9 303.1 107.7C303.1 115.2 303 122.6 303.1 130.1C303.2 139.2 303.7 148.3 303.8 157.5C303.9 171.6 303.8 185.7 303.8 199.8C303.8 202.3 303.6 203.3 300.4 203.2C286.7 202.8 273 202.3 259.4 203.2C253.8 203.5 254.4 201.4 254.4 197.9C254.4 133.9 254.4 69.7999 254.4 5.7999V1.7999L254.5 1.3999Z" fill="white"/>
<path d="M232.7 177.9C223.6 190.9 211.7 200 196.1 203C177.5 206.6 160.2 202.7 145.6 190.1C134.3 180.3 127.1 168 125.9 152.8C125.4 145.9 125.5 138.9 125.5 131.9C125.5 120.4 125.7 108.9 125.7 97.4C125.7 85.3 126.3 73.2 125.6 61.1C125 51.3 126.8 42.2 131.1 33.7C140.6 14.9 155.9 3.80003 177 1.50003C191.8 -0.0999673 205.6 2.40003 217.9 11.5C227.2 18.3 234.2 27.2 238.3 37.7C241.5 46 242.5 55 242 64.2C241.5 73.2 241.9 82.2 241.9 91.3C241.9 104.6 241.9 117.8 241.9 131.1C241.9 139.5 241.9 147.9 241.1 156.2C240.5 161.2 238.1 166.1 236.6 171C236.3 172 234 176.5 232.9 178.1L232.7 177.9ZM178.6 148C179.1 149.9 181.3 151.9 183.2 152.6C184.3 153 186.9 151.3 187.9 149.9C188.9 148.5 188.9 146.3 189 144.4C189.1 132.9 189.2 121.3 189.2 109.8C189.2 99.6 188.9 89.3 188.8 79.1C188.8 72.2 188.6 65.3 188.8 58.4C188.8 54.7 187 51.9 183.8 51.7C181.1 51.5 178.5 54.5 178.5 57.9C178.3 72.5 178.1 87.1 178 101.7C178 113.8 178 144.9 178.7 148.1L178.6 148Z" fill="white"/>
<path d="M115.4 96.8001C106.5 96.8001 97.9999 96.8001 89.5999 96.8001C85.1999 96.8001 80.7999 96.8001 76.3999 96.8001C73.3999 96.8001 70.2999 96.8001 67.2999 97.2001C64.0999 97.7001 62.8999 96.8001 62.9999 93.4001C63.1999 81.7001 62.9999 70.0001 62.9999 58.3001C62.9999 54.4001 61.3999 52.5001 58.0999 52.5001C54.5999 52.5001 52.7999 54.6001 52.7999 58.6001C52.6999 66.4001 52.2999 74.1001 52.2999 81.9001C52.2999 94.0001 52.4999 106.2 52.5999 118.3C52.5999 127.1 52.3999 135.9 52.5999 144.6C52.5999 147.1 51.4999 150.4 54.7999 151.8C56.5999 152.5 59.0999 153.2 60.4999 152.5C61.8999 151.8 62.9999 149.2 63.0999 147.5C63.2999 135.9 63.0999 124.3 63.1999 112.7C63.1999 111 63.5999 109.3 63.7999 108H115.8C115.8 113.9 115.8 119.4 115.8 125C115.9 133.2 116.6 141.5 116.2 149.6C115.6 159.5 112.7 169 107.1 177.3C102 184.9 95.6999 191.4 87.7999 196.2C78.8999 201.5 69.2999 203.9 58.6999 204.1C41.2999 204.4 26.9999 198 15.2999 185.7C5.59993 175.6 -6.63102e-05 163.1 -0.200066 149C-0.500066 118.3 -0.500065 87.6001 -0.300065 56.9001C-0.300065 45.3001 3.99993 34.9001 10.7999 25.3001C19.1999 13.4001 30.4999 6.0001 44.4999 2.7001C53.1999 0.600105 61.9999 0.500104 70.9999 2.5001C83.6999 5.2001 93.9999 11.5001 102.1 21.0001C109.4 29.6001 114.6 39.7001 115.5 51.2001C116.2 60.1001 115.5 69.0001 115.7 77.9001C115.7 83.6001 116.1 89.2001 116.1 94.9001C116.1 95.7001 115.6 96.5001 115.5 96.7001L115.4 96.8001Z" fill="white"/>
<path d="M609.2 0.100098C617.9 67.8001 626.6 135 635.2 202.6H578.9C578.9 188.9 578.9 175.4 578.9 162C578.9 160.4 578.2 158.8 577.7 157.2C576.7 154.3 574.3 153.3 571.7 154.4C569 155.4 567.6 157.7 567.7 160.9C567.9 174.5 567.9 188 568 201.6C568 202 567.7 202.3 567.4 202.9C551.9 202.9 536.4 202.9 520.9 202.9C518.9 202.9 516.8 203.3 515 202.8C513.8 202.4 512.1 200.6 512.2 199.6C514 185.2 516.1 170.9 518 156.6C519.8 142.5 521.4 128.4 523.2 114.4C524.6 103.6 526.4 92.8001 527.8 82.0001C529.2 70.7001 530.3 59.3001 531.7 48.0001C533.5 34.5001 535.4 21.0001 537.4 7.5001C538.5 0.200097 538.7 0.200098 546 0.200098C565.7 0.200098 585.399 0.200098 605.099 0.200098C606.299 0.200098 607.5 0.200098 609.3 0.200098L609.2 0.100098ZM578.9 84.7001C578.9 79.0001 578.9 73.3001 578.9 67.6001C578.9 64.3001 579 61.0001 578.9 57.6001C578.7 53.5001 576.3 51.1001 572.9 51.2001C569.7 51.3001 567.8 53.8001 567.7 57.7001C567.7 62.0001 567.7 66.3001 567.7 70.6001C567.7 84.2001 567.7 97.7001 567.7 111.3C567.7 114 571 118.4 573.3 117.9C575.2 117.4 576.9 115.2 578.2 113.5C578.9 112.6 578.8 111 578.9 109.7C578.9 101.3 578.9 93.0001 578.9 84.6001V84.7001Z" fill="white"/>
<path d="M488 202.9H434.3C434.2 201.5 433.9 199.9 433.9 198.3C433.9 152.7 433.9 107.2 433.9 61.6001C433.9 55.7001 433.8 55.5001 427.9 55.5001C419.2 55.5001 410.5 55.5001 401.5 55.5001C401.5 54.3001 401.3 53.4001 401.3 52.6001C401.3 36.7001 401.4 20.8001 401.3 4.9001C401.3 1.1001 402.8 0.600098 406 0.600098C416.3 0.800098 426.7 0.600097 437 0.800097C443 0.800097 448.9 1.6001 454.9 1.5001C462.7 1.5001 470.5 0.800098 478.3 0.700098C488.1 0.600098 497.9 0.700098 507.7 0.700098C511.3 0.700098 514.9 0.700098 518.4 0.700098C520.6 0.700098 521.5 1.5001 521.5 3.7001C521.4 15.9001 521.3 28.0001 521.2 40.2001C521.2 45.3001 521.2 50.4001 521.2 55.6001C513 55.6001 505.1 55.6001 497.2 55.6001C495.5 55.6001 493.8 56.0001 492.1 56.2001C488.9 56.5001 488.5 58.1001 488.5 61.2001C488.7 69.1001 488.2 77.0001 488 84.9001C488 89.6001 488 94.3001 488 99.0001C488.2 107.3 488.5 115.6 488.6 124C488.7 135.9 488.7 147.7 488.6 159.6C488.6 168.5 488 177.3 487.9 186.2C487.9 191.1 488.2 196 488.4 201C488.4 201.7 488.1 202.5 487.9 203.1L488 202.9Z" fill="white"/>
<path d="M710.9 202.9H657.2C657.1 201.5 656.8 199.9 656.8 198.3C656.8 152.7 656.8 107.2 656.8 61.6001C656.8 55.7001 656.7 55.5001 650.8 55.5001C642.1 55.5001 633.4 55.5001 624.4 55.5001C624.4 54.3001 624.2 53.4001 624.2 52.6001C624.2 36.7001 624.3 20.8001 624.2 4.9001C624.2 1.1001 625.7 0.600098 628.9 0.600098C639.2 0.800098 649.6 0.600097 659.9 0.800097C665.9 0.800097 671.8 1.6001 677.8 1.5001C685.6 1.5001 693.4 0.800098 701.2 0.700098C711 0.600098 720.8 0.700098 730.6 0.700098C734.2 0.700098 737.8 0.700098 741.3 0.700098C743.5 0.700098 744.4 1.5001 744.4 3.7001C744.3 15.9001 744.2 28.0001 744.1 40.2001C744.1 45.3001 744.1 50.4001 744.1 55.6001C735.9 55.6001 728 55.6001 720.1 55.6001C718.4 55.6001 716.7 56.0001 715 56.2001C711.8 56.5001 711.4 58.1001 711.4 61.2001C711.6 69.1001 711.1 77.0001 710.9 84.9001C710.9 89.6001 710.9 94.3001 710.9 99.0001C711.1 107.3 711.4 115.6 711.5 124C711.6 135.9 711.6 147.7 711.5 159.6C711.5 168.5 710.9 177.3 710.8 186.2C710.8 191.1 711.1 196 711.3 201C711.3 201.7 711 202.5 710.8 203.1L710.9 202.9Z" fill="white"/>
<path d="M839.6 202.9H785.9C785.8 201.5 785.5 199.9 785.5 198.3C785.5 152.7 785.5 107.2 785.5 61.6001C785.5 55.7001 785.4 55.5001 779.5 55.5001C770.8 55.5001 762.1 55.5001 753.1 55.5001C753.1 54.3001 752.9 53.4001 752.9 52.6001C752.9 36.7001 753 20.8001 752.9 4.9001C752.9 1.1001 754.4 0.600098 757.6 0.600098C767.9 0.800098 778.3 0.600097 788.6 0.800097C794.6 0.800097 800.5 1.6001 806.5 1.5001C814.3 1.5001 822.1 0.800098 829.9 0.700098C839.7 0.600098 849.5 0.700098 859.3 0.700098C862.9 0.700098 866.5 0.700098 870 0.700098C872.2 0.700098 873.1 1.5001 873.1 3.7001C873 15.9001 872.9 28.0001 872.8 40.2001C872.8 45.3001 872.8 50.4001 872.8 55.6001C864.6 55.6001 856.7 55.6001 848.8 55.6001C847.1 55.6001 845.4 56.0001 843.7 56.2001C840.5 56.5001 840.1 58.1001 840.1 61.2001C840.3 69.1001 839.8 77.0001 839.6 84.9001C839.6 89.6001 839.6 94.3001 839.6 99.0001C839.8 107.3 840.1 115.6 840.2 124C840.3 135.9 840.3 147.7 840.2 159.6C840.2 168.5 839.6 177.3 839.5 186.2C839.5 191.1 839.8 196 840 201C840 201.7 839.7 202.5 839.5 203.1L839.6 202.9Z" fill="white"/>
<path d="M943.6 0.600109V202.6C926.2 202.6 909 202.6 891.7 202.6C889.9 202.6 888.6 202.6 888.8 199.8C889.3 194.2 889.2 188.6 889.2 183C889.1 172.2 888.7 161.4 888.6 150.6C888.5 141.7 888.6 132.7 888.6 123.8C888.6 114.9 888.7 106 888.7 97.1001C888.7 88.2001 888.6 79.4001 888.7 70.5001C888.7 63.4001 889.2 56.3001 889.2 49.2001C889.2 40.8001 888.8 32.4001 888.8 24.0001C888.8 16.9001 888.9 9.90011 889.2 2.80011C889.2 2.00011 890.6 0.600109 891.4 0.600109C902.8 0.500109 914.2 0.600109 925.6 0.600109C931.5 0.600109 937.3 0.600109 943.7 0.600109H943.6Z" fill="white"/>
</g>
<defs>
<clipPath id="clip0_31_59">
<rect width="944" height="204" fill="white"/>
</clipPath>
</defs>
</svg>
