<svg width="945" height="205" viewBox="0 0 945 205" fill="none" xmlns="http://www.w3.org/2000/svg">
<mask id="path-1-inside-1_31_106" fill="white">
<path d="M255.5 1.3999C271.6 1.3999 287.1 1.3999 302.6 1.3999C309 1.3999 315.3 1.3999 321.7 1.3999C324.3 1.3999 325.4 2.0999 325.6 4.8999C326.2 14.7999 327.1 24.5999 327.8 34.4999C328.5 44.9999 328.8 55.4999 329.6 66.0999C330.2 73.9999 331.2 81.8999 331.9 89.7999C332.1 92.1999 332 94.5999 332.2 96.8999C332.3 99.5999 335.2 102.3 337.7 102.3C339.9 102.3 343.1 98.7999 343 96.2999C342.8 88.2999 342.5 80.1999 342.5 72.1999C342.5 56.1999 342.9 40.2999 343 24.2999C343 17.6999 342.6 11.0999 342.4 4.5999C342.4 2.8999 342.4 1.3999 344.7 1.3999C360.2 1.3999 375.7 1.3999 391.7 1.3999V202.9H322.5C322.2 199.9 321.8 196.6 321.6 193.4C320.6 181 319.7 168.6 318.8 156.3C318.2 147.7 318.1 139.1 317.5 130.6C317.2 125.7 316.3 120.7 315.8 115.8C315.5 113.3 315.4 110.8 315.4 108.3C315.4 104.8 313.6 102.5 310.3 102.4C307.4 102.3 304.1 104.9 304.1 107.7C304.1 115.2 304 122.6 304.1 130.1C304.2 139.2 304.7 148.3 304.8 157.5C304.9 171.6 304.8 185.7 304.8 199.8C304.8 202.3 304.6 203.3 301.4 203.2C287.7 202.8 274 202.3 260.4 203.2C254.8 203.5 255.4 201.4 255.4 197.9C255.4 133.9 255.4 69.7999 255.4 5.7999V1.7999L255.5 1.3999Z"/>
<path d="M233.7 177.9C224.6 190.9 212.7 200 197.1 203C178.5 206.6 161.2 202.7 146.6 190.1C135.3 180.3 128.1 168 126.9 152.8C126.4 145.9 126.5 138.9 126.5 131.9C126.5 120.4 126.7 108.9 126.7 97.4C126.7 85.3 127.3 73.2 126.6 61.1C126 51.3 127.8 42.2 132.1 33.7C141.6 14.9 156.9 3.80003 178 1.50003C192.8 -0.0999674 206.6 2.40003 218.9 11.5C228.2 18.3 235.2 27.2 239.3 37.7C242.5 46 243.5 55 243 64.2C242.5 73.2 242.9 82.2 242.9 91.3C242.9 104.6 242.9 117.8 242.9 131.1C242.9 139.5 242.9 147.9 242.1 156.2C241.5 161.2 239.1 166.1 237.6 171C237.3 172 235 176.5 233.9 178.1L233.7 177.9ZM179.6 148C180.1 149.9 182.3 151.9 184.2 152.6C185.3 153 187.9 151.3 188.9 149.9C189.9 148.5 189.9 146.3 190 144.4C190.1 132.9 190.2 121.3 190.2 109.8C190.2 99.6 189.9 89.3 189.8 79.1C189.8 72.2 189.6 65.3 189.8 58.4C189.8 54.7 188 51.9 184.8 51.7C182.1 51.5 179.5 54.5 179.5 57.9C179.3 72.5 179.1 87.1 179 101.7C179 113.8 179 144.9 179.7 148.1L179.6 148Z"/>
<path d="M116.4 96.8001C107.5 96.8001 98.9999 96.8001 90.5999 96.8001C86.1999 96.8001 81.7999 96.8001 77.3999 96.8001C74.3999 96.8001 71.2999 96.8001 68.2999 97.2001C65.0999 97.7001 63.8999 96.8001 63.9999 93.4001C64.1999 81.7001 63.9999 70.0001 63.9999 58.3001C63.9999 54.4001 62.3999 52.5001 59.0999 52.5001C55.5999 52.5001 53.7999 54.6001 53.7999 58.6001C53.6999 66.4001 53.2999 74.1001 53.2999 81.9001C53.2999 94.0001 53.4999 106.2 53.5999 118.3C53.5999 127.1 53.3999 135.9 53.5999 144.6C53.5999 147.1 52.4999 150.4 55.7999 151.8C57.5999 152.5 60.0999 153.2 61.4999 152.5C62.8999 151.8 63.9999 149.2 64.0999 147.5C64.2999 135.9 64.0999 124.3 64.1999 112.7C64.1999 111 64.5999 109.3 64.7999 108H116.8C116.8 113.9 116.8 119.4 116.8 125C116.9 133.2 117.6 141.5 117.2 149.6C116.6 159.5 113.7 169 108.1 177.3C103 184.9 96.6999 191.4 88.7999 196.2C79.8999 201.5 70.2999 203.9 59.6999 204.1C42.2999 204.4 27.9999 198 16.2999 185.7C6.59993 175.6 0.999934 163.1 0.799934 149C0.499934 118.3 0.499935 87.6001 0.699935 56.9001C0.699935 45.3001 4.99993 34.9001 11.7999 25.3001C20.1999 13.4001 31.4999 6.0001 45.4999 2.7001C54.1999 0.600105 62.9999 0.500104 71.9999 2.5001C84.6999 5.2001 94.9999 11.5001 103.1 21.0001C110.4 29.6001 115.6 39.7001 116.5 51.2001C117.2 60.1001 116.5 69.0001 116.7 77.9001C116.7 83.6001 117.1 89.2001 117.1 94.9001C117.1 95.7001 116.6 96.5001 116.5 96.7001L116.4 96.8001Z"/>
<path d="M610.2 0.100098C618.9 67.8001 627.6 135 636.2 202.6H579.9C579.9 188.9 579.9 175.4 579.9 162C579.9 160.4 579.2 158.8 578.7 157.2C577.7 154.3 575.3 153.3 572.7 154.4C570 155.4 568.6 157.7 568.7 160.9C568.9 174.5 568.9 188 569 201.6C569 202 568.7 202.3 568.4 202.9C552.9 202.9 537.4 202.9 521.9 202.9C519.9 202.9 517.8 203.3 516 202.8C514.8 202.4 513.1 200.6 513.2 199.6C515 185.2 517.1 170.9 519 156.6C520.8 142.5 522.4 128.4 524.2 114.4C525.6 103.6 527.399 92.8001 528.799 82.0001C530.199 70.7001 531.3 59.3001 532.7 48.0001C534.5 34.5001 536.4 21.0001 538.4 7.5001C539.5 0.200097 539.7 0.200098 547 0.200098C566.7 0.200098 586.399 0.200098 606.099 0.200098C607.299 0.200098 608.499 0.200098 610.299 0.200098L610.2 0.100098ZM579.9 84.7001C579.9 79.0001 579.9 73.3001 579.9 67.6001C579.9 64.3001 580 61.0001 579.9 57.6001C579.7 53.5001 577.3 51.1001 573.9 51.2001C570.7 51.3001 568.8 53.8001 568.7 57.7001C568.7 62.0001 568.7 66.3001 568.7 70.6001C568.7 84.2001 568.7 97.7001 568.7 111.3C568.7 114 571.999 118.4 574.299 117.9C576.199 117.4 577.9 115.2 579.2 113.5C579.9 112.6 579.8 111 579.9 109.7C579.9 101.3 579.9 93.0001 579.9 84.6001V84.7001Z"/>
<path d="M489 202.9H435.3C435.2 201.5 434.9 199.9 434.9 198.3C434.9 152.7 434.9 107.2 434.9 61.6001C434.9 55.7001 434.8 55.5001 428.9 55.5001C420.2 55.5001 411.5 55.5001 402.5 55.5001C402.5 54.3001 402.3 53.4001 402.3 52.6001C402.3 36.7001 402.4 20.8001 402.3 4.9001C402.3 1.1001 403.8 0.600098 407 0.600098C417.3 0.800098 427.7 0.600097 438 0.800097C444 0.800097 449.9 1.6001 455.9 1.5001C463.7 1.5001 471.5 0.800098 479.3 0.700098C489.1 0.600098 498.9 0.700098 508.7 0.700098C512.3 0.700098 515.9 0.700098 519.4 0.700098C521.6 0.700098 522.5 1.5001 522.5 3.7001C522.4 15.9001 522.3 28.0001 522.2 40.2001C522.2 45.3001 522.2 50.4001 522.2 55.6001C514 55.6001 506.1 55.6001 498.2 55.6001C496.5 55.6001 494.8 56.0001 493.1 56.2001C489.9 56.5001 489.5 58.1001 489.5 61.2001C489.7 69.1001 489.2 77.0001 489 84.9001C489 89.6001 489 94.3001 489 99.0001C489.2 107.3 489.5 115.6 489.6 124C489.7 135.9 489.7 147.7 489.6 159.6C489.6 168.5 489 177.3 488.9 186.2C488.9 191.1 489.2 196 489.4 201C489.4 201.7 489.1 202.5 488.9 203.1L489 202.9Z"/>
<path d="M711.9 202.9H658.2C658.1 201.5 657.8 199.9 657.8 198.3C657.8 152.7 657.8 107.2 657.8 61.6001C657.8 55.7001 657.7 55.5001 651.8 55.5001C643.1 55.5001 634.4 55.5001 625.4 55.5001C625.4 54.3001 625.2 53.4001 625.2 52.6001C625.2 36.7001 625.3 20.8001 625.2 4.9001C625.2 1.1001 626.7 0.600098 629.9 0.600098C640.2 0.800098 650.6 0.600097 660.9 0.800097C666.9 0.800097 672.8 1.6001 678.8 1.5001C686.6 1.5001 694.4 0.800098 702.2 0.700098C712 0.600098 721.8 0.700098 731.6 0.700098C735.2 0.700098 738.8 0.700098 742.3 0.700098C744.5 0.700098 745.4 1.5001 745.4 3.7001C745.3 15.9001 745.2 28.0001 745.1 40.2001C745.1 45.3001 745.1 50.4001 745.1 55.6001C736.9 55.6001 729 55.6001 721.1 55.6001C719.4 55.6001 717.7 56.0001 716 56.2001C712.8 56.5001 712.4 58.1001 712.4 61.2001C712.6 69.1001 712.1 77.0001 711.9 84.9001C711.9 89.6001 711.9 94.3001 711.9 99.0001C712.1 107.3 712.4 115.6 712.5 124C712.6 135.9 712.6 147.7 712.5 159.6C712.5 168.5 711.9 177.3 711.8 186.2C711.8 191.1 712.1 196 712.3 201C712.3 201.7 712 202.5 711.8 203.1L711.9 202.9Z"/>
<path d="M840.6 202.9H786.9C786.8 201.5 786.5 199.9 786.5 198.3C786.5 152.7 786.5 107.2 786.5 61.6001C786.5 55.7001 786.4 55.5001 780.5 55.5001C771.8 55.5001 763.1 55.5001 754.1 55.5001C754.1 54.3001 753.9 53.4001 753.9 52.6001C753.9 36.7001 754 20.8001 753.9 4.9001C753.9 1.1001 755.4 0.600098 758.6 0.600098C768.9 0.800098 779.3 0.600097 789.6 0.800097C795.6 0.800097 801.5 1.6001 807.5 1.5001C815.3 1.5001 823.1 0.800098 830.9 0.700098C840.7 0.600098 850.5 0.700098 860.3 0.700098C863.9 0.700098 867.5 0.700098 871 0.700098C873.2 0.700098 874.1 1.5001 874.1 3.7001C874 15.9001 873.9 28.0001 873.8 40.2001C873.8 45.3001 873.8 50.4001 873.8 55.6001C865.6 55.6001 857.7 55.6001 849.8 55.6001C848.1 55.6001 846.4 56.0001 844.7 56.2001C841.5 56.5001 841.1 58.1001 841.1 61.2001C841.3 69.1001 840.8 77.0001 840.6 84.9001C840.6 89.6001 840.6 94.3001 840.6 99.0001C840.8 107.3 841.1 115.6 841.2 124C841.3 135.9 841.3 147.7 841.2 159.6C841.2 168.5 840.6 177.3 840.5 186.2C840.5 191.1 840.8 196 841 201C841 201.7 840.7 202.5 840.5 203.1L840.6 202.9Z"/>
<path d="M944.6 0.600109V202.6C927.2 202.6 910 202.6 892.7 202.6C890.9 202.6 889.6 202.6 889.8 199.8C890.3 194.2 890.2 188.6 890.2 183C890.1 172.2 889.7 161.4 889.6 150.6C889.5 141.7 889.6 132.7 889.6 123.8C889.6 114.9 889.7 106 889.7 97.1001C889.7 88.2001 889.6 79.4001 889.7 70.5001C889.7 63.4001 890.2 56.3001 890.2 49.2001C890.2 40.8001 889.8 32.4001 889.8 24.0001C889.8 16.9001 889.9 9.90011 890.2 2.80011C890.2 2.00011 891.6 0.600109 892.4 0.600109C903.8 0.500109 915.2 0.600109 926.6 0.600109C932.5 0.600109 938.3 0.600109 944.7 0.600109H944.6Z"/>
</mask>
<path d="M255.5 1.3999C271.6 1.3999 287.1 1.3999 302.6 1.3999C309 1.3999 315.3 1.3999 321.7 1.3999C324.3 1.3999 325.4 2.0999 325.6 4.8999C326.2 14.7999 327.1 24.5999 327.8 34.4999C328.5 44.9999 328.8 55.4999 329.6 66.0999C330.2 73.9999 331.2 81.8999 331.9 89.7999C332.1 92.1999 332 94.5999 332.2 96.8999C332.3 99.5999 335.2 102.3 337.7 102.3C339.9 102.3 343.1 98.7999 343 96.2999C342.8 88.2999 342.5 80.1999 342.5 72.1999C342.5 56.1999 342.9 40.2999 343 24.2999C343 17.6999 342.6 11.0999 342.4 4.5999C342.4 2.8999 342.4 1.3999 344.7 1.3999C360.2 1.3999 375.7 1.3999 391.7 1.3999V202.9H322.5C322.2 199.9 321.8 196.6 321.6 193.4C320.6 181 319.7 168.6 318.8 156.3C318.2 147.7 318.1 139.1 317.5 130.6C317.2 125.7 316.3 120.7 315.8 115.8C315.5 113.3 315.4 110.8 315.4 108.3C315.4 104.8 313.6 102.5 310.3 102.4C307.4 102.3 304.1 104.9 304.1 107.7C304.1 115.2 304 122.6 304.1 130.1C304.2 139.2 304.7 148.3 304.8 157.5C304.9 171.6 304.8 185.7 304.8 199.8C304.8 202.3 304.6 203.3 301.4 203.2C287.7 202.8 274 202.3 260.4 203.2C254.8 203.5 255.4 201.4 255.4 197.9C255.4 133.9 255.4 69.7999 255.4 5.7999V1.7999L255.5 1.3999Z" stroke="white" mask="url(#path-1-inside-1_31_106)"/>
<path d="M233.7 177.9C224.6 190.9 212.7 200 197.1 203C178.5 206.6 161.2 202.7 146.6 190.1C135.3 180.3 128.1 168 126.9 152.8C126.4 145.9 126.5 138.9 126.5 131.9C126.5 120.4 126.7 108.9 126.7 97.4C126.7 85.3 127.3 73.2 126.6 61.1C126 51.3 127.8 42.2 132.1 33.7C141.6 14.9 156.9 3.80003 178 1.50003C192.8 -0.0999674 206.6 2.40003 218.9 11.5C228.2 18.3 235.2 27.2 239.3 37.7C242.5 46 243.5 55 243 64.2C242.5 73.2 242.9 82.2 242.9 91.3C242.9 104.6 242.9 117.8 242.9 131.1C242.9 139.5 242.9 147.9 242.1 156.2C241.5 161.2 239.1 166.1 237.6 171C237.3 172 235 176.5 233.9 178.1L233.7 177.9ZM179.6 148C180.1 149.9 182.3 151.9 184.2 152.6C185.3 153 187.9 151.3 188.9 149.9C189.9 148.5 189.9 146.3 190 144.4C190.1 132.9 190.2 121.3 190.2 109.8C190.2 99.6 189.9 89.3 189.8 79.1C189.8 72.2 189.6 65.3 189.8 58.4C189.8 54.7 188 51.9 184.8 51.7C182.1 51.5 179.5 54.5 179.5 57.9C179.3 72.5 179.1 87.1 179 101.7C179 113.8 179 144.9 179.7 148.1L179.6 148Z" stroke="white" mask="url(#path-1-inside-1_31_106)"/>
<path d="M116.4 96.8001C107.5 96.8001 98.9999 96.8001 90.5999 96.8001C86.1999 96.8001 81.7999 96.8001 77.3999 96.8001C74.3999 96.8001 71.2999 96.8001 68.2999 97.2001C65.0999 97.7001 63.8999 96.8001 63.9999 93.4001C64.1999 81.7001 63.9999 70.0001 63.9999 58.3001C63.9999 54.4001 62.3999 52.5001 59.0999 52.5001C55.5999 52.5001 53.7999 54.6001 53.7999 58.6001C53.6999 66.4001 53.2999 74.1001 53.2999 81.9001C53.2999 94.0001 53.4999 106.2 53.5999 118.3C53.5999 127.1 53.3999 135.9 53.5999 144.6C53.5999 147.1 52.4999 150.4 55.7999 151.8C57.5999 152.5 60.0999 153.2 61.4999 152.5C62.8999 151.8 63.9999 149.2 64.0999 147.5C64.2999 135.9 64.0999 124.3 64.1999 112.7C64.1999 111 64.5999 109.3 64.7999 108H116.8C116.8 113.9 116.8 119.4 116.8 125C116.9 133.2 117.6 141.5 117.2 149.6C116.6 159.5 113.7 169 108.1 177.3C103 184.9 96.6999 191.4 88.7999 196.2C79.8999 201.5 70.2999 203.9 59.6999 204.1C42.2999 204.4 27.9999 198 16.2999 185.7C6.59993 175.6 0.999934 163.1 0.799934 149C0.499934 118.3 0.499935 87.6001 0.699935 56.9001C0.699935 45.3001 4.99993 34.9001 11.7999 25.3001C20.1999 13.4001 31.4999 6.0001 45.4999 2.7001C54.1999 0.600105 62.9999 0.500104 71.9999 2.5001C84.6999 5.2001 94.9999 11.5001 103.1 21.0001C110.4 29.6001 115.6 39.7001 116.5 51.2001C117.2 60.1001 116.5 69.0001 116.7 77.9001C116.7 83.6001 117.1 89.2001 117.1 94.9001C117.1 95.7001 116.6 96.5001 116.5 96.7001L116.4 96.8001Z" stroke="white" mask="url(#path-1-inside-1_31_106)"/>
<path d="M610.2 0.100098C618.9 67.8001 627.6 135 636.2 202.6H579.9C579.9 188.9 579.9 175.4 579.9 162C579.9 160.4 579.2 158.8 578.7 157.2C577.7 154.3 575.3 153.3 572.7 154.4C570 155.4 568.6 157.7 568.7 160.9C568.9 174.5 568.9 188 569 201.6C569 202 568.7 202.3 568.4 202.9C552.9 202.9 537.4 202.9 521.9 202.9C519.9 202.9 517.8 203.3 516 202.8C514.8 202.4 513.1 200.6 513.2 199.6C515 185.2 517.1 170.9 519 156.6C520.8 142.5 522.4 128.4 524.2 114.4C525.6 103.6 527.399 92.8001 528.799 82.0001C530.199 70.7001 531.3 59.3001 532.7 48.0001C534.5 34.5001 536.4 21.0001 538.4 7.5001C539.5 0.200097 539.7 0.200098 547 0.200098C566.7 0.200098 586.399 0.200098 606.099 0.200098C607.299 0.200098 608.499 0.200098 610.299 0.200098L610.2 0.100098ZM579.9 84.7001C579.9 79.0001 579.9 73.3001 579.9 67.6001C579.9 64.3001 580 61.0001 579.9 57.6001C579.7 53.5001 577.3 51.1001 573.9 51.2001C570.7 51.3001 568.8 53.8001 568.7 57.7001C568.7 62.0001 568.7 66.3001 568.7 70.6001C568.7 84.2001 568.7 97.7001 568.7 111.3C568.7 114 571.999 118.4 574.299 117.9C576.199 117.4 577.9 115.2 579.2 113.5C579.9 112.6 579.8 111 579.9 109.7C579.9 101.3 579.9 93.0001 579.9 84.6001V84.7001Z" stroke="white" mask="url(#path-1-inside-1_31_106)"/>
<path d="M489 202.9H435.3C435.2 201.5 434.9 199.9 434.9 198.3C434.9 152.7 434.9 107.2 434.9 61.6001C434.9 55.7001 434.8 55.5001 428.9 55.5001C420.2 55.5001 411.5 55.5001 402.5 55.5001C402.5 54.3001 402.3 53.4001 402.3 52.6001C402.3 36.7001 402.4 20.8001 402.3 4.9001C402.3 1.1001 403.8 0.600098 407 0.600098C417.3 0.800098 427.7 0.600097 438 0.800097C444 0.800097 449.9 1.6001 455.9 1.5001C463.7 1.5001 471.5 0.800098 479.3 0.700098C489.1 0.600098 498.9 0.700098 508.7 0.700098C512.3 0.700098 515.9 0.700098 519.4 0.700098C521.6 0.700098 522.5 1.5001 522.5 3.7001C522.4 15.9001 522.3 28.0001 522.2 40.2001C522.2 45.3001 522.2 50.4001 522.2 55.6001C514 55.6001 506.1 55.6001 498.2 55.6001C496.5 55.6001 494.8 56.0001 493.1 56.2001C489.9 56.5001 489.5 58.1001 489.5 61.2001C489.7 69.1001 489.2 77.0001 489 84.9001C489 89.6001 489 94.3001 489 99.0001C489.2 107.3 489.5 115.6 489.6 124C489.7 135.9 489.7 147.7 489.6 159.6C489.6 168.5 489 177.3 488.9 186.2C488.9 191.1 489.2 196 489.4 201C489.4 201.7 489.1 202.5 488.9 203.1L489 202.9Z" stroke="white" mask="url(#path-1-inside-1_31_106)"/>
<path d="M711.9 202.9H658.2C658.1 201.5 657.8 199.9 657.8 198.3C657.8 152.7 657.8 107.2 657.8 61.6001C657.8 55.7001 657.7 55.5001 651.8 55.5001C643.1 55.5001 634.4 55.5001 625.4 55.5001C625.4 54.3001 625.2 53.4001 625.2 52.6001C625.2 36.7001 625.3 20.8001 625.2 4.9001C625.2 1.1001 626.7 0.600098 629.9 0.600098C640.2 0.800098 650.6 0.600097 660.9 0.800097C666.9 0.800097 672.8 1.6001 678.8 1.5001C686.6 1.5001 694.4 0.800098 702.2 0.700098C712 0.600098 721.8 0.700098 731.6 0.700098C735.2 0.700098 738.8 0.700098 742.3 0.700098C744.5 0.700098 745.4 1.5001 745.4 3.7001C745.3 15.9001 745.2 28.0001 745.1 40.2001C745.1 45.3001 745.1 50.4001 745.1 55.6001C736.9 55.6001 729 55.6001 721.1 55.6001C719.4 55.6001 717.7 56.0001 716 56.2001C712.8 56.5001 712.4 58.1001 712.4 61.2001C712.6 69.1001 712.1 77.0001 711.9 84.9001C711.9 89.6001 711.9 94.3001 711.9 99.0001C712.1 107.3 712.4 115.6 712.5 124C712.6 135.9 712.6 147.7 712.5 159.6C712.5 168.5 711.9 177.3 711.8 186.2C711.8 191.1 712.1 196 712.3 201C712.3 201.7 712 202.5 711.8 203.1L711.9 202.9Z" stroke="white" mask="url(#path-1-inside-1_31_106)"/>
<path d="M840.6 202.9H786.9C786.8 201.5 786.5 199.9 786.5 198.3C786.5 152.7 786.5 107.2 786.5 61.6001C786.5 55.7001 786.4 55.5001 780.5 55.5001C771.8 55.5001 763.1 55.5001 754.1 55.5001C754.1 54.3001 753.9 53.4001 753.9 52.6001C753.9 36.7001 754 20.8001 753.9 4.9001C753.9 1.1001 755.4 0.600098 758.6 0.600098C768.9 0.800098 779.3 0.600097 789.6 0.800097C795.6 0.800097 801.5 1.6001 807.5 1.5001C815.3 1.5001 823.1 0.800098 830.9 0.700098C840.7 0.600098 850.5 0.700098 860.3 0.700098C863.9 0.700098 867.5 0.700098 871 0.700098C873.2 0.700098 874.1 1.5001 874.1 3.7001C874 15.9001 873.9 28.0001 873.8 40.2001C873.8 45.3001 873.8 50.4001 873.8 55.6001C865.6 55.6001 857.7 55.6001 849.8 55.6001C848.1 55.6001 846.4 56.0001 844.7 56.2001C841.5 56.5001 841.1 58.1001 841.1 61.2001C841.3 69.1001 840.8 77.0001 840.6 84.9001C840.6 89.6001 840.6 94.3001 840.6 99.0001C840.8 107.3 841.1 115.6 841.2 124C841.3 135.9 841.3 147.7 841.2 159.6C841.2 168.5 840.6 177.3 840.5 186.2C840.5 191.1 840.8 196 841 201C841 201.7 840.7 202.5 840.5 203.1L840.6 202.9Z" stroke="white" mask="url(#path-1-inside-1_31_106)"/>
<path d="M944.6 0.600109V202.6C927.2 202.6 910 202.6 892.7 202.6C890.9 202.6 889.6 202.6 889.8 199.8C890.3 194.2 890.2 188.6 890.2 183C890.1 172.2 889.7 161.4 889.6 150.6C889.5 141.7 889.6 132.7 889.6 123.8C889.6 114.9 889.7 106 889.7 97.1001C889.7 88.2001 889.6 79.4001 889.7 70.5001C889.7 63.4001 890.2 56.3001 890.2 49.2001C890.2 40.8001 889.8 32.4001 889.8 24.0001C889.8 16.9001 889.9 9.90011 890.2 2.80011C890.2 2.00011 891.6 0.600109 892.4 0.600109C903.8 0.500109 915.2 0.600109 926.6 0.600109C932.5 0.600109 938.3 0.600109 944.7 0.600109H944.6Z" stroke="white" mask="url(#path-1-inside-1_31_106)"/>
</svg>
