<svg width="469" height="153" viewBox="0 0 469 153" fill="none" xmlns="http://www.w3.org/2000/svg">
<path d="M378.275 76.0377C378.254 51.2772 378.317 26.5168 378.233 1.7564C378.228 0.527238 378.759 0.00119644 379.952 0.00119644C390.171 0.00119644 415.494 0.00119611 418.015 0.0168214C419.353 0.0220294 419.692 0.52203 419.66 1.58974C419.541 5.57411 419.41 54.9439 419.541 58.9387C419.608 60.9387 419.561 62.9543 419.822 64.9283C420.16 67.5064 422.067 69.0897 424.254 68.897C425.718 68.7668 427.582 66.2356 427.598 64.2252C427.645 57.8397 427.666 51.4491 427.676 45.0585C427.645 30.6418 427.77 16.2199 427.613 1.80328C427.608 0.605364 428.009 -0.0144289 429.405 0.00119644C438.723 0.100155 463.468 0.00119644 466.52 0.00119644C468.249 0.00119644 468.504 0.86578 468.504 2.07411C468.494 8.52203 468.39 14.9699 468.395 21.4179C468.4 25.0481 468.619 28.6731 468.619 32.3033C468.624 36.7616 468.447 41.2252 468.468 45.6835C468.483 49.6158 468.738 53.5481 468.754 57.4804C468.53 79.2408 468.619 101.006 468.66 122.767C468.712 131.814 468.509 140.866 468.78 149.913C468.837 151.6 467.973 152.126 466.4 152.111C459.384 152.053 452.369 152.079 445.358 152.022C441.041 151.991 430.66 151.98 429.738 152.001C427.999 152.032 427.4 151.512 427.462 149.824C427.634 145.282 427.676 140.741 427.671 136.194C427.671 119.585 427.619 107.163 427.608 90.5481C427.608 86.9908 427.926 82.4074 423.869 82.272C420.832 82.1679 419.358 85.0325 419.296 86.8658C419.212 89.2147 419.348 109.001 419.421 116.532C419.447 120.84 419.733 145.501 419.442 150.058C419.332 151.746 418.671 152.111 417.462 152.105C405.421 152.017 393.384 151.835 381.343 152.069C378.436 152.111 378.311 152.043 378.311 149.293V76.0377H378.275ZM329.551 65.2356H329.52C329.52 58.7564 329.53 52.2772 329.509 45.7981C329.509 45.1783 329.572 40.9543 326.28 40.9543C322.895 40.9543 322.192 42.9074 321.931 45.0064C321.744 46.4908 321.942 56.871 321.827 60.4439C321.77 62.3189 321.723 76.871 321.744 84.2877C321.749 85.9543 322.671 89.3658 325.629 89.3658C328.936 89.3658 329.598 86.496 329.572 84.2616C329.515 77.9231 329.551 71.5793 329.551 65.2356ZM364.999 104.428C365.478 107.616 369.676 139.418 369.994 142.496C370.265 145.074 370.582 147.652 370.863 150.23C370.999 151.465 370.744 152.137 369.181 152.095C356.462 151.819 343.728 152.163 331.004 152.043C330.442 152.038 329.41 151.517 329.395 150.522C329.28 144.621 329.457 138.715 329.504 132.814C329.535 128.98 329.686 125.142 329.457 121.319C329.369 119.855 329.577 115.444 324.775 116.314C323.16 116.605 322.556 117.689 322.244 118.673C320.801 123.256 321.363 142.366 321.436 143.71C321.509 145.262 321.504 146.824 321.488 148.381C321.598 152.095 321.598 152.147 317.676 152.131C306.129 152.137 294.577 151.84 283.03 152.032C281.181 152.069 280.285 151.267 280.525 149.506C281.061 145.538 281.712 141.59 282.238 137.621C283.884 123.71 286.046 109.871 287.457 95.9335C290.848 70.8189 293.942 45.6679 297.27 20.5429C297.905 15.3918 298.447 10.2304 299.108 5.07932C299.265 3.82411 299.895 2.96995 301.468 2.99599C317.775 3.23036 334.082 3.04286 350.39 3.1939C350.999 3.19911 352.015 4.01161 352.124 4.58974C353.275 11.2981 356.416 33.897 357.004 38.4491C357.436 41.8345 363.447 93.9231 364.999 104.428ZM0.0145205 83.0012C0.0145205 71.2772 0.0561872 59.5533 -0.00631281 47.8345C-0.0323541 42.5637 0.0561868 37.3293 1.42598 32.1939C4.32702 21.3502 10.4104 12.7772 19.8426 6.67828C30.2541 -0.0560945 41.6291 -1.56651 53.4729 1.55849C62.3791 3.91265 69.6812 9.01682 75.327 16.371C82.3687 25.5429 85.1239 36.0116 84.4104 47.7095C83.952 55.2304 84.1656 62.7668 84.5979 70.2877C84.6708 71.6106 84.3687 72.0741 83.1343 72.0741C75.952 72.0689 68.7697 72.1314 61.5874 72.1679C56.7072 72.1939 51.8322 72.2095 46.952 72.2512C46.0979 72.2564 45.7749 71.897 45.7749 71.0741C45.7906 66.1054 45.7958 61.1314 45.7801 56.1627C45.7645 51.4752 45.7541 46.7877 45.6708 42.1002C45.6343 39.9595 44.1604 38.4387 42.3374 38.4543C40.327 38.4752 38.7697 40.0377 38.7645 42.2043C38.7437 49.3814 38.7697 56.5533 38.7801 63.7304C38.7854 74.4699 38.7854 85.2095 38.801 95.9491C38.8114 100.595 38.8426 105.236 38.8843 109.881C38.9051 112.168 40.4051 113.715 42.4989 113.678C44.4104 113.647 45.9208 111.918 45.9104 109.762C45.8583 100.194 45.8218 90.621 45.7541 81.0533C45.7437 79.9231 46.1343 79.4647 47.3114 79.4595C57.8218 79.4179 68.327 79.3397 78.8374 79.272C80.2437 79.2668 81.6551 79.3554 83.0562 79.272C84.2541 79.1939 84.6499 79.6835 84.6447 80.8137C84.6187 86.1158 84.6187 91.4127 84.6291 96.7147C84.6604 107.788 84.7072 118.855 84.7437 129.923C84.7593 135.881 84.4885 144.558 84.5197 150.517C84.5249 151.579 84.1708 152.006 83.0354 152.001C73.3635 151.986 63.6968 152.027 54.0301 152.032H53.9885C53.1551 152.012 52.6135 151.074 53.0249 150.355C53.0301 150.35 53.0301 150.345 53.0354 150.345C55.9676 145.319 58.2124 137.277 58.7072 131.423C58.7333 131.069 58.7801 130.72 58.8687 130.376C59.5145 127.923 58.3218 125.647 56.2385 125.272C54.2385 124.907 52.3843 126.454 51.9051 128.762C51.4676 130.861 51.1551 133.032 50.3635 135.006C46.6551 144.303 39.9051 150.183 29.9572 151.777C21.3895 153.147 13.8843 150.564 7.79577 144.303C2.33744 138.689 0.0249365 131.861 0.139521 124.079C0.23327 117.986 0.10827 111.887 0.103062 105.788C0.0874369 98.1939 0.0978539 90.5949 0.0978539 83.0012H0.0145205ZM140.015 95.2825C139.916 100.142 139.546 104.996 139.363 109.861C139.291 111.704 137.676 113.543 135.843 113.626C135.765 113.631 135.686 113.631 135.603 113.626C135.52 113.631 135.442 113.631 135.363 113.626C133.525 113.543 131.91 111.704 131.843 109.861C131.66 104.996 131.285 100.142 131.186 95.2825C131.098 91.1887 131.108 78.1314 131.202 75.7095C131.285 73.371 131.358 49.8033 131.379 41.8033C131.384 40.1158 133.358 38.3814 135.145 38.4074C135.296 38.4074 135.447 38.4179 135.603 38.4439C135.754 38.4179 135.91 38.4074 136.061 38.4074C137.848 38.3814 139.817 40.1158 139.827 41.8033C139.848 49.8033 139.916 73.371 140.004 75.7095C140.098 78.1314 140.103 91.1887 140.015 95.2825ZM179.733 57.0272C179.775 53.5272 179.884 50.1366 179.884 46.8241C179.884 37.5533 179.009 28.9283 173.155 20.3241C164.983 7.28766 150.608 0.0428631 135.603 0.00119644C120.598 0.0428631 106.223 7.28766 98.051 20.3241C92.1968 28.9283 91.3166 37.5533 91.3166 46.8241C91.3166 50.1366 91.4312 53.5272 91.4676 57.0272C91.6499 74.8293 91.4104 92.6418 91.3739 110.444C91.4781 119.361 94.4937 127.449 99.8895 134.433C108.572 146.355 121.817 152.241 135.603 152.131C149.39 152.241 162.629 146.355 171.317 134.433C176.712 127.449 179.728 119.361 179.832 110.444C179.796 92.6418 179.556 74.8293 179.733 57.0272ZM232.363 54.3606H232.317C232.317 50.0533 232.332 45.746 232.311 41.4387C232.301 39.2981 230.582 37.2877 228.827 37.2981C226.686 37.3085 225.072 39.0897 225.077 41.4595C225.108 49.9283 225.145 58.397 225.186 66.8658C225.202 69.2929 226.681 70.9335 228.738 71.0324C230.343 71.1106 232.478 69.4231 232.4 66.9908C232.275 62.7877 232.363 58.5689 232.363 54.3606ZM185.608 76.2668C185.608 66.5272 185.629 56.7929 185.603 47.0481C185.582 38.1366 185.488 29.2252 185.462 20.3085C185.447 14.2095 185.509 8.10536 185.473 2.0012C185.462 0.662655 185.983 0.214738 187.28 0.219946C194.353 0.235572 201.431 0.225155 208.504 0.183488C214.608 0.152237 220.712 0.0949461 226.817 0.00640478C237.337 -0.149845 246.916 2.54286 255.249 9.17307C265.837 17.5897 271.473 28.6054 272.442 42.0064C272.874 48.022 271.379 53.7616 268.968 59.2199C263.546 71.4699 254.525 79.8918 241.77 84.2147C240.994 84.4804 240.171 84.6158 239.4 84.9074C237.379 85.6783 236.343 87.7043 236.952 89.5741C237.572 91.47 239.692 92.4908 241.754 91.9856C247.754 90.5272 253.067 87.4439 258.598 84.8814C260.53 83.9856 262.431 83.0116 264.327 82.0377C265.337 81.522 265.858 81.772 266.03 82.9074C266.624 86.9283 267.254 90.9491 267.848 94.9752C269.009 102.881 270.15 110.793 271.296 118.699C272.749 128.715 274.202 138.736 275.64 148.751C276.072 151.782 276.046 151.777 272.983 151.788C261.056 151.829 249.134 151.881 237.207 151.928C237.16 151.928 237.113 151.923 237.061 151.923C234.207 151.923 234.212 151.871 234.025 149.038C233.457 140.288 232.848 131.538 232.249 122.793C231.916 117.96 231.572 113.126 231.238 108.298C231.218 108.006 231.212 107.715 231.181 107.428C230.916 104.933 229.494 103.335 227.603 103.407C225.405 103.491 223.9 105.246 223.89 107.788C223.879 109.871 223.905 111.954 223.926 114.038C224.035 125.616 224.15 137.189 224.259 148.767C224.291 151.975 224.291 151.892 220.983 151.897C213.322 151.907 205.666 152.006 198.004 152.058C194.561 152.085 191.119 152.053 187.676 152.131C186.478 152.157 185.905 151.866 185.905 150.532C185.905 145.157 185.796 139.782 185.77 134.407C185.733 126.991 185.733 119.579 185.728 112.168C185.723 100.199 185.728 88.2356 185.728 76.2668H185.608Z" fill="white"/>
</svg>
