<svg width="153" height="470" viewBox="0 0 153 470" fill="none" xmlns="http://www.w3.org/2000/svg">
<path d="M76.3658 91.1789C51.6053 91.1997 26.8449 91.1372 2.08451 91.2206C0.855347 91.2258 0.329305 90.6945 0.329305 89.5018C0.329304 79.2831 0.329303 53.9602 0.344928 51.4393C0.350136 50.1008 0.850137 49.7622 1.91784 49.7935C5.90222 49.9133 55.272 50.0435 59.2668 49.9133C61.2668 49.8456 63.2824 49.8924 65.2564 49.632C67.8345 49.2935 69.4178 47.3872 69.2251 45.1997C69.0949 43.7362 66.5637 41.8716 64.5533 41.856C58.1678 41.8091 51.7772 41.7883 45.3866 41.7779C30.9699 41.8091 16.5481 41.6841 2.13139 41.8404C0.93347 41.8456 0.313677 41.4445 0.329303 40.0487C0.428261 30.731 0.329301 5.98619 0.329301 2.93411C0.329301 1.20494 1.19388 0.949734 2.40222 0.949734C8.85013 0.960149 15.298 1.06432 21.746 1.05911C25.3762 1.0539 29.0012 0.835149 32.6314 0.835149C37.0897 0.829941 41.5533 1.00702 46.0116 0.98619C49.9439 0.970566 53.8762 0.715357 57.8085 0.699731C79.5689 0.923689 101.335 0.835146 123.095 0.793478C132.142 0.741395 141.194 0.944518 150.241 0.673686C151.928 0.616393 152.454 1.48098 152.439 3.05389C152.381 10.0695 152.407 17.0851 152.35 24.0956C152.319 28.4133 152.308 38.7935 152.329 39.7154C152.361 41.4549 151.84 42.0539 150.152 41.9914C145.611 41.8195 141.069 41.7779 136.522 41.7831C119.913 41.7831 107.491 41.8351 90.8762 41.8456C87.3189 41.8456 82.7356 41.5279 82.6001 45.5851C82.496 48.6216 85.3606 50.0956 87.1939 50.1581C89.5429 50.2414 109.329 50.106 116.861 50.0331C121.168 50.007 145.829 49.7206 150.387 50.0122C152.074 50.1216 152.439 50.7831 152.433 51.9914C152.345 64.0331 152.163 76.0695 152.397 88.1112C152.439 91.0174 152.371 91.1424 149.621 91.1424L76.3658 91.1424L76.3658 91.1789ZM65.5637 139.903L65.5637 139.934C59.0845 139.934 52.6053 139.924 46.1262 139.945C45.5064 139.945 41.2824 139.882 41.2824 143.174C41.2824 146.559 43.2356 147.262 45.3345 147.523C46.8189 147.71 57.1991 147.512 60.772 147.627C62.647 147.684 77.1991 147.731 84.6158 147.71C86.2824 147.705 89.6939 146.783 89.6939 143.825C89.6939 140.517 86.8241 139.856 84.5897 139.882C78.2512 139.939 71.9074 139.903 65.5637 139.903ZM104.756 104.455C107.944 103.976 139.746 99.7779 142.824 99.4601C145.402 99.1893 147.98 98.8716 150.558 98.5904C151.793 98.4549 152.465 98.7101 152.423 100.273C152.147 112.991 152.491 125.726 152.371 138.45C152.366 139.012 151.845 140.043 150.85 140.059C144.949 140.174 139.043 139.997 133.142 139.95C129.308 139.918 125.47 139.767 121.647 139.997C120.183 140.085 115.772 139.877 116.642 144.679C116.933 146.293 118.017 146.898 119.001 147.21C123.585 148.653 142.694 148.09 144.038 148.017C145.59 147.945 147.152 147.95 148.71 147.965C152.423 147.856 152.475 147.856 152.46 151.778C152.465 163.325 152.168 174.877 152.361 186.424C152.397 188.273 151.595 189.168 149.835 188.929C145.866 188.392 141.918 187.741 137.949 187.215C124.038 185.57 110.199 183.408 96.2616 181.997C71.147 178.606 45.996 175.512 20.871 172.184C15.7199 171.549 10.5585 171.007 5.40743 170.346C4.15223 170.189 3.29806 169.559 3.3241 167.986C3.55847 151.679 3.37097 135.372 3.52201 119.064C3.52722 118.455 4.33972 117.439 4.91785 117.33C11.6262 116.179 34.2251 113.038 38.7772 112.45C42.1626 112.017 94.2512 106.007 104.756 104.455ZM83.3293 469.439C71.6054 469.439 59.8814 469.398 48.1627 469.46C42.8918 469.486 37.6574 469.398 32.522 468.028C21.6783 465.127 13.1054 459.044 7.0064 449.611C0.272029 439.2 -1.23839 427.825 1.88661 415.981C4.24078 407.075 9.34494 399.773 16.6991 394.127C25.871 387.085 36.3397 384.33 48.0377 385.043C55.5585 385.502 63.0949 385.288 70.6158 384.856C71.9387 384.783 72.4022 385.085 72.4022 386.32C72.397 393.502 72.4595 400.684 72.496 407.866C72.522 412.747 72.5377 417.622 72.5793 422.502C72.5845 423.356 72.2252 423.679 71.4022 423.679C66.4335 423.663 61.4595 423.658 56.4908 423.674C51.8033 423.689 47.1158 423.7 42.4283 423.783C40.2877 423.82 38.7668 425.293 38.7824 427.116C38.8033 429.127 40.3658 430.684 42.5324 430.689C49.7095 430.71 56.8814 430.684 64.0585 430.674C74.7981 430.668 85.5377 430.668 96.2772 430.653C100.923 430.642 105.564 430.611 110.21 430.57C112.496 430.549 114.043 429.049 114.006 426.955C113.975 425.043 112.246 423.533 110.09 423.543C100.522 423.596 90.9491 423.632 81.3814 423.7C80.2512 423.71 79.7929 423.32 79.7877 422.142C79.746 411.632 79.6679 401.127 79.6002 390.616C79.5949 389.21 79.6835 387.799 79.6002 386.398C79.522 385.2 80.0116 384.804 81.1418 384.809C86.4439 384.835 91.7408 384.835 97.0429 384.825C108.116 384.793 119.183 384.747 130.251 384.71C136.21 384.695 144.887 384.965 150.845 384.934C151.907 384.929 152.335 385.283 152.329 386.418C152.314 396.09 152.355 405.757 152.361 415.424L152.361 415.465C152.34 416.299 151.402 416.84 150.683 416.429C150.678 416.424 150.673 416.424 150.673 416.418C145.647 413.486 137.605 411.241 131.751 410.747C131.397 410.721 131.048 410.674 130.704 410.585C128.251 409.939 125.975 411.132 125.6 413.215C125.236 415.215 126.782 417.07 129.09 417.549C131.189 417.986 133.361 418.299 135.335 419.09C144.631 422.799 150.512 429.549 152.105 439.497C153.475 448.064 150.892 455.57 144.631 461.658C139.017 467.116 132.189 469.429 124.407 469.314C118.314 469.221 112.215 469.346 106.116 469.351C98.522 469.366 90.9231 469.356 83.3293 469.356L83.3293 469.439ZM95.6106 329.439C100.47 329.538 105.324 329.908 110.189 330.09C112.032 330.163 113.871 331.778 113.954 333.611C113.96 333.689 113.96 333.767 113.954 333.851C113.96 333.934 113.96 334.012 113.954 334.09C113.871 335.929 112.032 337.543 110.189 337.611C105.324 337.793 100.47 338.168 95.6106 338.267C91.5168 338.356 78.4595 338.346 76.0377 338.252C73.6991 338.169 50.1314 338.096 42.1314 338.075C40.4439 338.07 38.7095 336.096 38.7356 334.309C38.7356 334.158 38.746 334.007 38.772 333.851C38.746 333.7 38.7356 333.544 38.7356 333.392C38.7095 331.606 40.4439 329.637 42.1314 329.627C50.1314 329.606 73.6991 329.538 76.0376 329.45C78.4595 329.356 91.5168 329.351 95.6106 329.439ZM57.3554 289.721C53.8554 289.679 50.4647 289.57 47.1522 289.57C37.8814 289.57 29.2564 290.445 20.6522 296.299C7.61577 304.471 0.370982 318.846 0.329316 333.851C0.370983 348.856 7.61578 363.231 20.6522 371.403C29.2564 377.257 37.8814 378.137 47.1522 378.137C50.4647 378.137 53.8554 378.023 57.3554 377.986C75.1574 377.804 92.97 378.044 110.772 378.08C119.689 377.976 127.777 374.96 134.762 369.564C146.683 360.882 152.569 347.637 152.46 333.851C152.569 320.064 146.683 306.825 134.762 298.137C127.777 292.741 119.689 289.726 110.772 289.622C92.9699 289.658 75.1574 289.898 57.3554 289.721ZM54.6887 237.09L54.6887 237.137C50.3814 237.137 46.0741 237.122 41.7668 237.142C39.6262 237.153 37.6158 238.872 37.6262 240.627C37.6366 242.767 39.4179 244.382 41.7876 244.377C50.2564 244.346 58.7251 244.309 67.1939 244.267C69.621 244.252 71.2616 242.773 71.3606 240.715C71.4387 239.111 69.7512 236.976 67.3189 237.054C63.1158 237.179 58.897 237.09 54.6887 237.09ZM76.5949 283.846C66.8554 283.846 57.121 283.825 47.3762 283.851C38.4647 283.872 29.5533 283.965 20.6366 283.991C14.5376 284.007 8.43348 283.945 2.32931 283.981C0.990772 283.991 0.542855 283.471 0.548063 282.174C0.563688 275.101 0.553271 268.023 0.511604 260.95C0.480353 254.846 0.423061 248.741 0.33452 242.637C0.17827 232.116 2.87098 222.538 9.50119 214.205C17.9179 203.616 28.9335 197.981 42.3345 197.012C48.3501 196.58 54.0897 198.075 59.5481 200.486C71.7981 205.908 80.2199 214.929 84.5429 227.684C84.8085 228.46 84.9439 229.283 85.2356 230.054C86.0064 232.075 88.0324 233.111 89.9022 232.502C91.7981 231.882 92.8189 229.762 92.3137 227.7C90.8554 221.7 87.772 216.387 85.2095 210.856C84.3137 208.924 83.3397 207.023 82.3658 205.127C81.8501 204.116 82.1001 203.596 83.2356 203.424C87.2564 202.83 91.2772 202.2 95.3033 201.606C103.21 200.445 111.121 199.304 119.027 198.158C129.043 196.705 139.064 195.252 149.079 193.814C152.111 193.382 152.105 193.408 152.116 196.471C152.157 208.398 152.21 220.32 152.256 232.247C152.256 232.293 152.251 232.34 152.251 232.392C152.251 235.247 152.199 235.241 149.366 235.429C140.616 235.997 131.866 236.606 123.121 237.205C118.288 237.538 113.454 237.882 108.626 238.215C108.335 238.236 108.043 238.241 107.756 238.273C105.262 238.538 103.663 239.96 103.736 241.851C103.819 244.049 105.574 245.554 108.116 245.564C110.199 245.575 112.282 245.549 114.366 245.528C125.944 245.418 137.517 245.304 149.095 245.195C152.303 245.163 152.22 245.163 152.225 248.471C152.236 256.132 152.335 263.788 152.387 271.45C152.413 274.892 152.381 278.335 152.46 281.778C152.486 282.976 152.194 283.549 150.861 283.549C145.486 283.549 140.111 283.658 134.736 283.684C127.319 283.721 119.907 283.721 112.496 283.726C100.527 283.731 88.5637 283.726 76.5949 283.726L76.5949 283.846Z" fill="white"/>
</svg>
