<svg width="376" height="255" viewBox="0 0 376 255" fill="none" xmlns="http://www.w3.org/2000/svg">
<g clip-path="url(#clip0_33_64)">
<path d="M293.547 1.02979C298.304 1.02979 302.85 1.02979 307.42 1.02979C309.295 1.02979 311.169 1.02979 313.044 1.02979C313.817 1.02979 314.145 1.21725 314.192 2.06085C314.356 4.96656 314.637 7.87228 314.825 10.778C315.036 13.8712 315.129 16.9878 315.364 20.081C315.528 22.4243 315.832 24.7442 316.043 27.0641C316.114 27.7671 316.09 28.47 316.114 29.173C316.161 29.9698 317.004 30.7665 317.731 30.7665C318.387 30.7665 319.301 29.7354 319.301 29.009C319.254 26.6423 319.137 24.2755 319.16 21.9088C319.16 17.1987 319.277 12.4886 319.301 7.77854C319.301 5.83359 319.183 3.91207 319.113 1.96711C319.113 1.45158 319.113 1.02979 319.793 1.02979C324.362 1.02979 328.908 1.02979 333.665 1.02979V60.4329H313.278C313.185 59.5425 313.091 58.5817 312.997 57.6209C312.716 53.9654 312.411 50.3332 312.177 46.6776C312.013 44.1469 311.966 41.6161 311.802 39.0853C311.708 37.6324 311.45 36.1796 311.286 34.7267C311.216 34.0003 311.169 33.2504 311.169 32.5006C311.193 31.4695 310.654 30.7899 309.67 30.7431C308.802 30.6962 307.842 31.4929 307.842 32.3131C307.842 34.5158 307.818 36.7185 307.842 38.8978C307.889 41.5926 308.006 44.264 308.029 46.9588C308.076 51.1065 308.029 55.2776 308.029 59.4253C308.029 60.1517 307.959 60.4563 307.022 60.4329C302.991 60.3157 298.961 60.1752 294.93 60.4095C293.29 60.5032 293.477 59.8705 293.477 58.8395C293.477 39.9523 293.477 21.0886 293.477 2.20144V1.02979H293.547Z" fill="white"/>
<path d="M354.824 29.0327C354.824 25.2834 354.824 21.6512 354.824 17.9957C354.824 16.6365 354.215 15.7461 353.325 15.7695C352.294 15.7695 351.778 16.6131 351.778 18.0894C351.778 23.5259 351.708 28.9858 351.661 34.4223C351.661 37.4218 351.661 40.4212 351.661 43.4441C351.661 44.7095 352.364 45.5296 353.301 45.5062C354.309 45.4828 354.801 44.897 354.824 43.7019C354.824 40.2337 354.871 36.7422 354.824 33.2741C354.824 32.2196 355.176 32.0321 356.137 32.0321C359.441 32.079 362.745 32.0321 366.072 32.0321C367.455 32.0321 368.814 32.0321 370.29 32.0321C370.29 34.2817 370.29 36.4141 370.29 38.57C370.29 44.9204 370.29 51.2708 370.29 57.6212C370.29 57.9258 370.314 58.2304 370.361 58.5116C370.454 59.1209 370.29 59.3552 369.611 59.3552C366.518 59.3318 363.424 59.3552 360.331 59.3552C359.535 59.3552 358.738 59.3552 357.754 59.3552C358.035 58.6522 358.339 58.0195 358.55 57.3868C359.136 55.4887 359.745 53.5907 360.261 51.6691C360.448 50.9661 359.511 49.9585 358.738 49.8882C357.871 49.8179 357.051 50.5209 356.957 51.4114C356.371 56.5667 352.083 60.2457 347.068 60.3629C342.264 60.48 337.882 57.2462 336.734 53.0283C336.429 51.9503 336.312 50.8021 336.312 49.6773C336.289 39.0387 336.265 28.4234 336.312 17.7848C336.312 12.4186 338.421 8.05998 342.639 4.66217C346.693 1.40496 351.263 0.420763 356.301 1.17063C358.808 1.54556 361.105 2.38915 363.214 3.86544C365.346 5.36517 367.057 7.26325 368.228 9.48941C369.751 12.3951 370.548 15.5352 370.337 18.9095C370.15 21.909 370.29 24.9084 370.314 27.9079C370.314 28.7515 370.22 29.0093 369.166 28.9155C367.08 28.7281 364.971 28.9389 362.862 28.9624C360.542 28.9858 358.199 29.0093 355.879 29.0327C355.551 29.0327 355.223 28.9858 354.895 28.9624L354.824 29.0327Z" fill="white"/>
<path d="M291.555 0.983551V60.457C286.423 60.457 281.362 60.457 276.277 60.457C275.738 60.457 275.363 60.457 275.433 59.6134C275.574 57.9731 275.55 56.3093 275.55 54.669C275.504 51.4821 275.41 48.3186 275.363 45.1317C275.34 42.5072 275.363 39.8592 275.363 37.2347C275.363 34.6102 275.386 31.9857 275.386 29.3611C275.386 26.7601 275.34 24.1355 275.386 21.5345C275.386 19.4489 275.55 17.3633 275.55 15.2544C275.55 12.7704 275.433 10.31 275.41 7.82604C275.41 5.74049 275.457 3.67837 275.527 1.59281C275.527 1.35848 275.949 0.936684 276.183 0.936684C279.534 0.913251 282.885 0.936684 286.236 0.936684C287.97 0.936684 289.704 0.936684 291.579 0.936684L291.555 0.983551Z" fill="white"/>
<path d="M176.334 33.1098C177.389 38.1948 177.693 43.1861 178.982 47.943C178.935 48.3648 178.795 48.7866 178.841 49.185C179.287 52.5828 179.732 55.9572 180.294 59.3316C180.482 60.4329 179.943 60.3158 179.287 60.3158C174.764 60.3158 170.218 60.3158 165.695 60.3158C165.156 60.3158 164.641 60.3861 163.938 60.4329C163.821 60.058 163.61 59.5893 163.586 59.1441C163.446 56.7305 163.352 54.3403 163.212 51.9267C163.024 49.0444 162.86 46.1387 162.555 43.2798C162.485 42.6471 161.946 41.8504 161.384 41.5223C161.032 41.3114 160.189 41.7567 159.697 42.0847C159.439 42.2488 159.345 42.8346 159.345 43.233C159.345 47.8727 159.345 52.5125 159.345 57.1523C159.345 57.9256 159.462 58.6989 159.462 59.4956C159.462 60.1283 159.415 60.5267 158.478 60.4095C156.931 60.222 155.361 60.3392 153.791 60.3392C150.511 60.3392 147.23 60.3392 143.949 60.3861C143.106 60.3861 143.106 59.9174 143.129 59.3784C143.176 57.7381 143.317 56.0743 143.317 54.434C143.317 52.3016 143.2 50.1457 143.2 48.0133C143.2 43.3267 143.2 38.6166 143.2 33.93C143.2 27.0875 143.153 20.2216 143.153 13.3791C143.153 9.60634 143.153 5.85703 143.153 2.08428C143.153 1.21725 143.528 1.05322 144.277 1.05322C149.808 1.12352 155.338 1.26412 160.868 1.14696C163.469 1.10009 166 1.24069 168.39 2.24832C171.015 3.34967 173.217 5.0603 175.092 7.23958C176.662 9.06737 177.717 11.1295 178.443 13.3556C179.029 15.2303 179.146 17.1518 178.982 19.1671C178.724 22.3774 177.506 25.1191 175.678 27.6265C173.428 30.6962 170.429 32.7818 166.773 33.8831C166.375 34.0003 165.859 34.0706 165.602 34.3518C165.18 34.7501 164.641 35.336 164.664 35.8281C164.688 36.5311 165.227 37.3512 166.117 37.1638C167.758 36.7888 169.374 36.3202 170.944 35.7109C172.725 35.0079 174.413 34.094 176.358 33.1801L176.334 33.1098ZM162.602 22.1197C162.602 20.4325 162.602 18.7687 162.602 17.0815C162.602 16.2145 161.852 15.3475 161.126 15.3006C160.423 15.2772 159.345 16.1911 159.345 16.9878C159.345 20.409 159.392 23.8303 159.486 27.2515C159.486 28.2357 160.329 28.9856 161.267 28.845C162.157 28.7044 162.649 28.1186 162.626 27.1344C162.602 25.4472 162.626 23.7834 162.626 22.0962L162.602 22.1197Z" fill="white"/>
<path d="M273.254 22.5417C270.981 22.5417 268.754 22.5417 266.552 22.5417C263.81 22.5417 261.092 22.5183 258.35 22.5417C257.413 22.5417 257.249 22.1434 257.296 21.3467C257.366 19.9172 257.436 18.4644 257.413 17.0349C257.413 15.957 256.593 15.2306 255.655 15.254C254.858 15.2775 254.202 16.0742 254.155 17.1287C254.132 18.1363 254.179 19.1674 254.085 20.175C253.921 21.8856 254.765 22.9635 256.171 23.6431C257.624 24.3695 259.147 24.9319 260.576 25.6584C263.81 27.3456 267.325 28.6344 269.809 31.5167C271.379 33.3444 272.246 35.43 272.785 37.7733C273.441 40.679 273.488 43.5847 273.09 46.4905C272.879 48.0136 272.246 49.4899 271.707 50.9428C270.606 53.9188 268.543 56.1684 266.06 58.0196C264.021 59.5428 261.724 60.5504 259.264 61.0659C254.999 61.9564 250.875 61.3002 247.126 59.1444C242.978 56.7542 240.096 53.3798 238.783 48.576C238.08 45.9984 238.174 43.4676 238.057 40.8899C238.033 40.2338 237.846 39.4136 238.174 38.9918C238.432 38.6638 239.346 38.8512 239.955 38.8278C242.72 38.7809 245.462 38.7106 248.227 38.6872C249.797 38.6872 251.39 38.7106 252.96 38.6638C253.827 38.6169 254.226 38.7106 254.132 39.7886C253.991 41.1946 254.132 42.6474 254.155 44.0534C254.155 45.0142 254.858 45.8109 255.726 45.9046C256.499 45.9749 257.366 45.2251 257.413 44.2877C257.483 42.7646 257.577 41.218 257.389 39.7183C257.202 38.2888 255.913 37.6093 254.741 37C252.164 35.6878 249.609 34.3755 246.962 33.2038C242.111 31.048 239.158 27.4862 238.408 22.1668C237.752 17.5973 237.776 13.0982 240.166 8.9505C243.165 3.7952 247.524 0.514554 253.617 -0.0478429C257.085 -0.375907 260.482 -0.188442 263.693 1.54561C266.341 2.97504 268.497 4.89656 270.184 7.28674C272.574 10.6611 273.605 14.4807 273.277 18.6518C273.183 19.8469 273.277 21.042 273.277 22.448L273.254 22.5417Z" fill="white"/>
<path d="M141.09 44.2874V60.4798H138.442C130.662 60.4798 122.859 60.4798 115.079 60.4798C114.119 60.4798 113.697 60.4798 113.814 59.1675C114.048 56.7539 113.884 54.2934 113.908 51.8329C113.908 45.6231 113.908 39.4133 113.908 33.227C113.908 23.1038 113.908 12.9573 113.908 2.83413C113.908 1.00634 113.908 0.982906 115.736 0.959473C118.477 0.959473 121.195 0.959473 123.937 0.959473C127.452 0.959473 130.967 0.959473 134.506 0.959473C136.45 0.959473 138.372 0.959473 140.317 0.959473C141.067 0.959473 141.231 1.10007 141.184 1.9671C141.067 5.15401 141.137 8.31749 141.137 11.5044C141.137 13.3322 141.137 15.1834 141.137 17.1518C137.622 17.1518 134.271 17.1284 130.897 17.1987C130.545 17.1987 129.983 17.7845 129.936 18.1594C129.795 19.2608 129.866 20.409 129.889 21.5338C129.889 22.1196 130.1 22.5649 130.827 22.5883C132.209 22.6352 133.615 22.7523 134.998 22.7758C136.357 22.7992 137.716 22.7758 139.239 22.7758C139.239 24.5801 139.239 26.2907 139.239 28.0014C139.239 31.0945 139.239 34.1877 139.239 37.2575C139.239 38.2651 139.075 38.8275 137.763 38.7338C135.747 38.5697 133.709 38.6869 131.67 38.6869C130.006 38.6869 129.866 38.8509 129.842 40.4444C129.842 41.6395 129.842 42.8346 129.842 44.2874H141.09Z" fill="white"/>
<path d="M207.945 60.527H192.105C192.058 60.1286 191.987 59.66 191.987 59.1679C191.987 45.7407 191.987 32.29 191.987 18.8628C191.987 17.1053 191.941 17.0819 190.23 17.0819C187.652 17.0819 185.098 17.0819 182.45 17.0819C182.427 16.7304 182.403 16.4726 182.403 16.2148C182.403 11.5282 182.427 6.84157 182.38 2.15493C182.38 1.05357 182.825 0.866109 183.762 0.889542C186.809 0.936408 189.855 0.889542 192.901 0.959841C194.659 0.983274 196.416 1.19417 198.174 1.17074C200.47 1.17074 202.767 0.959841 205.063 0.912975C207.945 0.866109 210.828 0.912975 213.71 0.912975C214.765 0.912975 215.819 0.912975 216.874 0.912975C217.53 0.912975 217.787 1.14731 217.787 1.80344C217.741 5.38871 217.741 8.97399 217.717 12.5593C217.717 14.059 217.717 15.5587 217.717 17.0819C215.304 17.0819 212.984 17.0819 210.664 17.0819C210.172 17.0819 209.656 17.2225 209.164 17.2459C208.203 17.3162 208.086 17.8083 208.11 18.7222C208.18 21.0421 208.016 23.3854 207.969 25.7053C207.945 27.0878 207.969 28.4704 207.969 29.853C208.016 32.3134 208.11 34.7505 208.133 37.211C208.156 40.7025 208.18 44.2175 208.133 47.7091C208.11 50.3336 207.969 52.9347 207.945 55.5592C207.945 57.012 208.039 58.4649 208.086 59.9177C208.086 60.1286 207.992 60.363 207.945 60.5504V60.527Z" fill="white"/>
<path d="M38.1494 60.433C38.2197 59.6363 38.29 59.1442 38.29 58.6521C38.29 43.4205 38.29 28.2124 38.29 12.9808C38.29 9.32524 38.3134 5.66966 38.2666 2.03752C38.2666 1.24079 38.5243 1.00646 39.2508 1.02989C42.9766 1.12362 46.6791 1.21736 50.405 1.24079C52.9826 1.26422 55.5837 1.02989 58.1614 1.26422C60.036 1.45169 61.9341 2.01408 63.6447 2.81081C68.3782 4.9901 71.3308 8.85657 72.8071 13.7775C73.3226 15.5116 73.3695 17.4097 73.4164 19.2375C73.5101 22.8696 73.4398 26.5018 73.4398 30.1339C73.4398 33.7661 73.4398 38.8276 73.4398 43.1862C73.4398 47.7322 71.7526 51.5987 68.6829 54.8794C66.363 57.3633 63.5744 59.1911 60.2235 59.9175C58.3254 60.3159 56.357 60.3393 54.412 60.3862C49.8426 60.4565 45.2965 60.433 40.7271 60.433C39.86 60.433 38.993 60.433 38.1494 60.433ZM57.5052 30.7432C57.5052 26.2909 57.5052 21.8386 57.5052 17.4097C57.5052 16.2615 56.8491 15.371 56.0524 15.371C54.9041 15.371 54.248 16.1209 54.2246 17.4566C54.2246 18.9094 54.1308 20.3623 54.1543 21.8151C54.1543 26.8533 54.2011 31.8914 54.2246 36.9295C54.2246 39.2729 54.2246 41.5927 54.2246 43.9361C54.2246 45.3186 54.8807 46.0216 56.0289 46.0216C57.06 46.0216 57.5052 45.3889 57.5052 43.9829C57.5052 39.5775 57.5052 35.172 57.5052 30.7666V30.7432Z" fill="white"/>
<path d="M28.518 0.936035C31.0722 20.8074 33.603 40.5616 36.1572 60.386H19.6134C19.6134 56.3555 19.6134 52.3953 19.6134 48.4585C19.6134 47.9899 19.4259 47.5212 19.2619 47.0525C18.9573 46.209 18.2777 45.9278 17.481 46.209C16.6843 46.5136 16.2859 47.1697 16.3093 48.107C16.3796 52.0907 16.3796 56.0743 16.4031 60.058C16.4031 60.1751 16.3093 60.2689 16.239 60.4563C11.693 60.4563 7.14696 60.4563 2.57748 60.4563C1.99166 60.4563 1.38239 60.5735 0.843429 60.4095C0.491931 60.3157 -0.000165516 59.7533 0.0232677 59.4721C0.538798 55.2542 1.17149 51.0596 1.73389 46.8416C2.27285 42.7174 2.71808 38.5697 3.25705 34.4455C3.67884 31.2586 4.19437 28.1185 4.61617 24.9316C5.03797 21.6041 5.3426 18.2766 5.7644 14.9491C6.27993 10.9889 6.86576 7.00523 7.45159 3.04502C7.75622 0.936035 7.80309 0.936035 9.93551 0.936035C15.7235 0.936035 21.4881 0.936035 27.2761 0.936035C27.6276 0.936035 27.9791 0.936035 28.518 0.936035ZM19.6134 25.7752C19.6134 24.088 19.6134 22.4243 19.6134 20.7371C19.6134 19.7529 19.6603 18.7921 19.6134 17.8079C19.5431 16.5894 18.8635 15.8864 17.8559 15.9333C16.9186 15.9801 16.3562 16.6831 16.3328 17.8548C16.3328 19.1202 16.3328 20.3856 16.3328 21.651C16.3328 25.6346 16.3328 29.6183 16.3328 33.6019C16.3328 34.3986 17.2935 35.6875 17.9731 35.5234C18.5355 35.3828 19.0276 34.7501 19.4259 34.2346C19.6368 33.9768 19.6134 33.5082 19.6134 33.1332C19.6134 30.6727 19.6134 28.2123 19.6134 25.7752Z" fill="white"/>
<path d="M104.113 60.4802C101.793 60.4802 99.8246 60.4802 97.8328 60.4802C96.3565 60.4802 94.9037 60.4334 93.4274 60.4568C91.2715 60.4568 89.1157 60.5271 86.9598 60.574C85.9053 60.574 84.8274 60.6443 83.7729 60.574C83.5386 60.574 83.1636 60.199 83.1402 59.9647C82.7184 56.9652 82.3435 53.9658 81.9451 50.9429C81.5467 47.9435 81.1249 44.944 80.7266 41.9446C80.1407 37.2579 79.5783 32.5713 78.9925 27.8847C78.5239 24.1354 78.0083 20.4095 77.5162 16.6602C76.8835 11.8329 76.2508 7.02913 75.6181 2.20189C75.5713 1.80353 75.5478 1.4286 75.4775 0.819336C77.4225 0.819336 79.2737 0.819336 81.1249 0.819336C84.101 0.819336 87.0535 0.819336 90.0295 0.819336C90.8028 0.819336 91.1075 0.983368 91.1309 1.8504C91.1778 6.25583 91.3184 10.6378 91.4121 15.0433C91.4824 18.2536 91.5058 21.464 91.5996 24.6743C91.6699 26.9708 91.9276 29.2672 91.9979 31.5637C92.0682 33.9773 91.9979 36.3909 92.0448 38.828C92.0682 40.562 92.1385 42.2961 92.2557 44.0067C92.3026 44.9206 92.865 45.3424 93.8023 45.3424C94.7396 45.3424 95.3489 44.8737 95.3723 44.0301C95.4426 41.8743 95.3723 39.695 95.3723 37.5391C95.3723 36.2034 95.5363 34.8678 95.5598 33.5321C95.5832 32.1026 95.5598 30.6966 95.5598 29.2672C95.5598 28.7986 95.5832 28.3065 95.6301 27.8378C95.7238 26.5021 95.841 25.1899 95.8878 23.8542C95.9816 21.464 96.0519 19.0972 96.0753 16.707C96.0753 14.4809 95.9581 12.2313 96.0519 10.0051C96.1456 7.0057 96.3799 4.00625 96.5674 0.936502H111.822C109.245 20.8547 106.667 40.7261 104.113 60.4334V60.4802Z" fill="white"/>
<path d="M235.971 0.983551V60.457C230.839 60.457 225.778 60.457 220.693 60.457C220.154 60.457 219.779 60.457 219.849 59.6134C219.99 57.9731 219.966 56.3093 219.966 54.669C219.92 51.4821 219.826 48.3186 219.779 45.1317C219.756 42.5072 219.779 39.8592 219.779 37.2347C219.779 34.6102 219.802 31.9857 219.802 29.3611C219.802 26.7601 219.756 24.1355 219.802 21.5345C219.802 19.4489 219.966 17.3633 219.966 15.2544C219.966 12.7704 219.849 10.31 219.826 7.82604C219.826 5.74049 219.873 3.67837 219.943 1.59281C219.943 1.35848 220.365 0.936684 220.599 0.936684C223.95 0.913251 227.301 0.936684 230.652 0.936684C232.386 0.936684 234.12 0.936684 235.995 0.936684L235.971 0.983551Z" fill="white"/>
</g>
<g clip-path="url(#clip1_33_64)">
<path d="M200.682 65.5972C205.439 65.5972 209.985 65.5972 214.555 65.5972C216.429 65.5972 218.304 65.5972 220.179 65.5972C220.952 65.5972 221.28 65.7846 221.327 66.6282C221.491 69.5339 221.772 72.4397 221.96 75.3454C222.17 78.4386 222.264 81.5552 222.499 84.6483C222.663 86.9917 222.967 89.3116 223.178 91.6314C223.248 92.3344 223.225 93.0374 223.248 93.7404C223.295 94.5372 224.139 95.3339 224.865 95.3339C225.521 95.3339 226.435 94.3028 226.435 93.5764C226.388 91.2096 226.271 88.8429 226.295 86.4761C226.295 81.7661 226.412 77.056 226.435 72.3459C226.435 70.401 226.318 68.4795 226.248 66.5345C226.248 66.019 226.248 65.5972 226.927 65.5972C231.497 65.5972 236.043 65.5972 240.8 65.5972V125H220.413C220.319 124.11 220.226 123.149 220.132 122.188C219.851 118.533 219.546 114.901 219.312 111.245C219.148 108.714 219.101 106.183 218.937 103.653C218.843 102.2 218.585 100.747 218.421 99.2941C218.351 98.5677 218.304 97.8178 218.304 97.0679C218.327 96.0369 217.788 95.3573 216.804 95.3104C215.937 95.2636 214.976 96.0603 214.976 96.8805C214.976 99.0832 214.953 101.286 214.976 103.465C215.023 106.16 215.141 108.831 215.164 111.526C215.211 115.674 215.164 119.845 215.164 123.993C215.164 124.719 215.094 125.024 214.156 125C210.126 124.883 206.095 124.743 202.065 124.977C200.424 125.071 200.612 124.438 200.612 123.407C200.612 104.52 200.612 85.656 200.612 66.7688V65.5972H200.682Z" fill="white"/>
<path d="M298.305 65.5972C303.062 65.5972 307.608 65.5972 312.178 65.5972C314.052 65.5972 315.927 65.5972 317.802 65.5972C318.575 65.5972 318.903 65.7846 318.95 66.6282C319.114 69.5339 319.395 72.4397 319.583 75.3454C319.794 78.4386 319.887 81.5552 320.122 84.6483C320.286 86.9917 320.59 89.3116 320.801 91.6314C320.871 92.3344 320.848 93.0374 320.871 93.7404C320.918 94.5372 321.762 95.3339 322.488 95.3339C323.144 95.3339 324.058 94.3028 324.058 93.5764C324.012 91.2096 323.894 88.8429 323.918 86.4761C323.918 81.7661 324.035 77.056 324.058 72.3459C324.058 70.401 323.941 68.4795 323.871 66.5345C323.871 66.019 323.871 65.5972 324.55 65.5972C329.12 65.5972 333.666 65.5972 338.423 65.5972V125H318.036C317.942 124.11 317.849 123.149 317.755 122.188C317.474 118.533 317.169 114.901 316.935 111.245C316.771 108.714 316.724 106.183 316.56 103.653C316.466 102.2 316.208 100.747 316.044 99.2941C315.974 98.5677 315.927 97.8178 315.927 97.0679C315.95 96.0369 315.412 95.3573 314.427 95.3104C313.56 95.2636 312.6 96.0603 312.6 96.8805C312.6 99.0832 312.576 101.286 312.6 103.465C312.646 106.16 312.764 108.831 312.787 111.526C312.834 115.674 312.787 119.845 312.787 123.993C312.787 124.719 312.717 125.024 311.779 125C307.749 124.883 303.718 124.743 299.688 124.977C298.048 125.071 298.235 124.438 298.235 123.407C298.235 104.52 298.235 85.656 298.235 66.7688V65.5972H298.305Z" fill="white"/>
<path d="M359.629 93.5528C359.629 89.6864 359.629 85.9136 359.629 82.1409C359.629 80.7349 358.996 79.821 358.082 79.821C357.028 79.821 356.489 80.7115 356.466 82.2112C356.466 87.8352 356.395 93.4591 356.348 99.0831C356.348 102.2 356.348 105.293 356.348 108.409C356.348 109.722 357.075 110.565 358.059 110.542C359.09 110.518 359.629 109.909 359.629 108.667C359.629 105.082 359.676 101.473 359.629 97.888C359.629 96.8101 359.981 96.5992 360.965 96.6226C364.386 96.6695 367.807 96.6226 371.228 96.646C372.658 96.646 374.064 96.646 375.587 96.646C375.587 98.9659 375.587 101.192 375.587 103.395C375.587 109.956 375.587 116.541 375.587 123.102C375.587 123.407 375.61 123.711 375.657 124.016C375.751 124.649 375.587 124.906 374.884 124.883C371.697 124.86 368.487 124.883 365.276 124.883C364.456 124.883 363.613 124.883 362.605 124.883C362.91 124.157 363.214 123.5 363.425 122.844C364.034 120.876 364.644 118.908 365.206 116.916C365.394 116.189 364.433 115.135 363.636 115.088C362.746 115.018 361.902 115.744 361.808 116.658C361.199 121.977 356.77 125.797 351.568 125.914C346.6 126.031 342.078 122.704 340.882 118.322C340.578 117.197 340.437 116.025 340.437 114.854C340.414 103.863 340.39 92.8733 340.437 81.8831C340.437 76.3295 342.617 71.8303 346.975 68.3153C351.17 64.9644 355.88 63.9333 361.105 64.7066C363.706 65.0815 366.073 65.972 368.252 67.4951C370.455 69.0417 372.213 71.0101 373.431 73.33C375.001 76.3295 375.821 79.5867 375.61 83.0782C375.423 86.1714 375.564 89.288 375.587 92.3812C375.587 93.2482 375.493 93.506 374.415 93.4122C372.259 93.2248 370.057 93.4357 367.901 93.4591C365.487 93.4825 363.074 93.506 360.683 93.5294C360.355 93.5294 360.004 93.4825 359.676 93.4591L359.629 93.5528Z" fill="white"/>
<path d="M86.4453 65.503C90.5695 65.503 94.7172 65.503 98.8883 65.503C101.138 65.503 103.364 65.503 105.614 65.4796C108.965 65.4093 111.87 66.5575 114.518 68.5025C117.846 70.963 119.767 74.3608 120.423 78.3679C121.642 86.0305 117.119 92.873 109.949 95.3569C109.082 95.6616 108.144 95.7787 107.254 95.9193C106.434 96.0599 105.262 97.1144 105.332 97.7002C105.45 98.4501 106.481 99.2937 107.441 99.1062C109.222 98.7782 110.933 98.2392 112.69 97.8408C113.206 97.7237 113.886 97.6065 114.284 97.8408C118.736 100.629 121.126 104.59 121.337 109.932C121.431 112.791 120.869 115.463 119.345 117.759C118.197 119.493 116.604 120.993 115.01 122.352C113.089 123.992 110.605 124.484 108.144 124.812C107.348 124.93 106.504 124.766 105.684 124.812C104.184 124.859 102.684 124.976 101.161 125C96.8262 125.023 92.5145 125 88.1793 125C87.7575 125 87.3123 125.141 86.914 125.07C86.7031 125.023 86.3516 124.672 86.3516 124.484C86.3516 115.72 86.3516 106.98 86.3516 98.2158C86.3516 87.4131 86.3516 76.6104 86.3281 65.7842C86.3281 65.7139 86.3984 65.6436 86.4453 65.503ZM102.286 80.6175C102.286 82.3749 102.286 84.1324 102.286 85.8899C102.286 86.7804 103.177 87.5537 104.044 87.5068C104.887 87.4599 105.59 86.6866 105.567 85.8196C105.567 84.7183 105.543 83.6169 105.543 82.5155C105.543 80.2894 105.543 78.0867 105.543 75.8605C105.543 74.8295 104.817 73.9156 103.973 73.9156C102.989 73.9156 102.263 74.7357 102.263 75.8136C102.263 77.4071 102.263 79.0006 102.263 80.6175H102.286ZM102.286 110.26C102.286 111.948 102.286 113.611 102.286 115.299C102.286 116.353 103.013 117.056 104.02 117.056C105.075 117.056 105.567 116.494 105.567 115.322C105.567 112.041 105.567 108.761 105.567 105.457C105.567 104.426 104.887 103.699 103.997 103.699C102.989 103.699 102.286 104.402 102.286 105.48C102.286 107.074 102.286 108.69 102.286 110.284V110.26Z" fill="white"/>
<path d="M296.313 65.55V125.023C291.181 125.023 286.12 125.023 281.035 125.023C280.496 125.023 280.121 125.023 280.191 124.18C280.332 122.539 280.308 120.876 280.308 119.235C280.261 116.048 280.168 112.885 280.121 109.698C280.097 107.074 280.121 104.426 280.121 101.801C280.121 99.1766 280.144 96.5521 280.144 93.9275C280.144 91.3265 280.097 88.7019 280.144 86.1009C280.144 84.0153 280.308 81.9298 280.308 79.8208C280.308 77.3368 280.191 74.8764 280.168 72.3924C280.168 70.3069 280.215 68.2448 280.285 66.1592C280.285 65.9249 280.707 65.5031 280.941 65.5031C284.292 65.4797 287.643 65.5031 290.994 65.5031C292.728 65.5031 294.462 65.5031 296.337 65.5031L296.313 65.55Z" fill="white"/>
<path d="M156.511 97.6767C157.565 102.762 157.87 107.753 159.159 112.51C159.112 112.932 158.971 113.354 159.018 113.752C159.463 117.15 159.909 120.524 160.471 123.898C160.659 125 160.12 124.883 159.463 124.883C154.941 124.883 150.395 124.883 145.872 124.883C145.333 124.883 144.818 124.953 144.115 125C143.998 124.625 143.787 124.156 143.763 123.711C143.623 121.297 143.529 118.907 143.388 116.494C143.201 113.611 143.037 110.706 142.732 107.847C142.662 107.214 142.123 106.417 141.56 106.089C141.209 105.878 140.365 106.324 139.873 106.652C139.616 106.816 139.522 107.401 139.522 107.8C139.522 112.44 139.522 117.079 139.522 121.719C139.522 122.492 139.639 123.266 139.639 124.062C139.639 124.695 139.592 125.094 138.655 124.976C137.108 124.789 135.538 124.906 133.968 124.906C130.687 124.906 127.407 124.906 124.126 124.953C123.283 124.953 123.283 124.484 123.306 123.945C123.353 122.305 123.493 120.641 123.493 119.001C123.493 116.868 123.376 114.713 123.376 112.58C123.376 107.894 123.376 103.184 123.376 98.4969C123.376 91.6544 123.329 84.7885 123.329 77.946C123.329 74.1732 123.329 70.4239 123.329 66.6512C123.329 65.7841 123.704 65.6201 124.454 65.6201C129.984 65.6904 135.515 65.831 141.045 65.7138C143.646 65.667 146.177 65.8076 148.567 66.8152C151.192 67.9166 153.394 69.6272 155.269 71.8065C156.839 73.6343 157.893 75.6964 158.62 77.9225C159.206 79.7972 159.323 81.7187 159.159 83.734C158.901 86.9443 157.683 89.686 155.855 92.1934C153.605 95.2631 150.606 97.3487 146.95 98.45C146.552 98.5672 146.036 98.6375 145.778 98.9187C145.357 99.317 144.818 99.9029 144.841 100.395C144.865 101.098 145.404 101.918 146.294 101.731C147.934 101.356 149.551 100.887 151.121 100.278C152.902 99.5748 154.589 98.6609 156.534 97.747L156.511 97.6767ZM142.779 86.6866C142.779 84.9994 142.779 83.3356 142.779 81.6484C142.779 80.7814 142.029 79.9144 141.303 79.8675C140.6 79.8441 139.522 80.758 139.522 81.5547C139.522 84.9759 139.569 88.3972 139.662 91.8184C139.662 92.8026 140.506 93.5525 141.443 93.4119C142.334 93.2713 142.826 92.6854 142.802 91.7013C142.779 90.0141 142.802 88.3503 142.802 86.6631L142.779 86.6866Z" fill="white"/>
<path d="M242.792 125C242.862 124.204 242.933 123.712 242.933 123.219C242.933 107.988 242.933 92.7798 242.933 77.5482C242.933 73.8926 242.956 70.237 242.909 66.6049C242.909 65.8082 243.167 65.5738 243.893 65.5973C247.619 65.691 251.322 65.7847 255.048 65.8082C257.625 65.8316 260.226 65.5973 262.804 65.8316C264.679 66.0191 266.577 66.5815 268.287 67.3782C273.021 69.5575 275.973 73.424 277.45 78.3449C277.965 80.079 278.012 81.9771 278.059 83.8049C278.153 87.437 278.082 91.0691 278.082 94.7013C278.082 98.3334 278.082 103.395 278.082 107.754C278.082 112.3 276.395 116.166 273.325 119.447C271.006 121.931 268.217 123.758 264.866 124.485C262.968 124.883 261 124.907 259.055 124.954C254.485 125.024 249.939 125 245.37 125C244.503 125 243.636 125 242.792 125ZM262.148 95.3106C262.148 90.8582 262.148 86.4059 262.148 81.9771C262.148 80.8288 261.492 79.9384 260.695 79.9384C259.547 79.9384 258.891 80.6882 258.867 82.0239C258.867 83.4768 258.773 84.9297 258.797 86.3825C258.797 91.4206 258.844 96.4588 258.867 101.497C258.867 103.84 258.867 106.16 258.867 108.503C258.867 109.886 259.523 110.589 260.672 110.589C261.703 110.589 262.148 109.956 262.148 108.55C262.148 104.145 262.148 99.7394 262.148 95.334V95.3106Z" fill="white"/>
<path d="M191.029 65.5034C193.583 85.3748 196.114 105.129 198.668 124.953H182.124C182.124 120.923 182.124 116.963 182.124 113.026C182.124 112.557 181.937 112.089 181.773 111.62C181.468 110.776 180.788 110.495 179.992 110.776C179.195 111.081 178.797 111.737 178.82 112.674C178.89 116.658 178.89 120.642 178.914 124.625C178.914 124.743 178.82 124.836 178.75 125.024C174.204 125.024 169.658 125.024 165.088 125.024C164.502 125.024 163.893 125.141 163.354 124.977C163.003 124.883 162.511 124.321 162.534 124.04C163.05 119.822 163.682 115.627 164.245 111.409C164.784 107.285 165.229 103.137 165.768 99.0129C166.19 95.826 166.705 92.6859 167.127 89.499C167.549 86.1715 167.853 82.844 168.275 79.5165C168.791 75.5563 169.377 71.5726 169.962 67.6124C170.267 65.5034 170.314 65.5034 172.47 65.5034C178.258 65.5034 184.022 65.5034 189.81 65.5034C190.162 65.5034 190.513 65.5034 191.052 65.5034H191.029ZM182.124 90.3426C182.124 88.6554 182.124 86.9916 182.124 85.3045C182.124 84.3203 182.171 83.3595 182.124 82.3753C182.054 81.1568 181.374 80.4538 180.367 80.5007C179.429 80.5475 178.867 81.2505 178.844 82.4222C178.844 83.6876 178.844 84.953 178.844 86.2184C178.844 90.202 178.844 94.1856 178.844 98.1693C178.844 98.966 179.804 100.255 180.484 100.091C181.046 99.9502 181.538 99.3175 181.937 98.802C182.148 98.5442 182.124 98.0755 182.124 97.7006C182.124 95.2401 182.124 92.7796 182.124 90.3426Z" fill="white"/>
</g>
<g clip-path="url(#clip2_33_64)">
<path d="M279.746 189.661C277.028 189.661 274.45 189.661 271.872 189.661C269.763 189.661 267.631 189.543 265.522 189.52C264.913 189.52 264.28 189.754 263.694 189.637C263.319 189.567 262.757 189.122 262.733 188.794C262.195 184.857 261.773 180.897 261.257 176.936C260.742 173.046 260.156 169.157 259.664 165.267C259.195 161.588 258.773 157.909 258.328 154.23C257.953 151.183 257.625 148.137 257.227 145.091C256.828 142.068 256.407 139.045 255.961 136.022C255.727 134.382 255.446 132.741 255.211 131.101C255.141 130.585 255.047 129.953 255.938 129.976C261.187 129.976 266.436 129.976 271.826 129.976C271.826 132.296 271.826 134.546 271.826 136.795C271.826 141.529 271.849 146.262 271.849 150.996C271.849 153.691 271.779 156.409 271.849 159.104C271.849 159.736 272.154 160.463 272.529 160.978C272.739 161.26 273.489 161.424 273.841 161.283C274.333 161.095 274.989 160.557 275.012 160.135C275.13 157.604 275.059 155.097 275.059 152.566C275.059 150.597 275.059 148.629 275.059 146.661C275.036 144.177 274.919 141.693 274.895 139.209C274.895 136.983 274.966 134.757 275.012 132.53C275.012 131.71 275.012 130.89 275.012 130.07H289.635C289.635 131.827 289.635 133.608 289.635 135.389C289.635 139.092 289.564 142.794 289.564 146.497C289.564 150.785 289.564 155.05 289.611 159.338C289.611 160.557 290.267 161.424 291.181 161.424C292.189 161.424 292.892 160.603 292.892 159.361C292.892 150.105 292.892 140.849 292.892 131.593C292.892 131.171 292.822 130.773 292.775 130.211C293.15 130.14 293.548 130.023 293.947 130.023C298.657 130.023 303.39 130.023 308.1 130C309.178 130 309.389 130.468 309.272 131.335C308.873 134.194 308.452 137.076 308.077 139.935C307.702 142.911 307.35 145.887 306.975 148.863C306.6 151.839 306.179 154.839 305.78 157.815C305.335 161.072 304.843 164.306 304.445 167.563C303.999 171.195 303.648 174.851 303.179 178.483C302.968 180.194 302.546 181.881 302.289 183.615C302.054 185.232 301.961 186.872 301.773 188.489C301.679 189.192 301.679 189.731 300.508 189.684C296.641 189.497 292.751 189.567 288.885 189.567C287.69 189.567 286.495 189.731 285.3 189.707C285.018 189.707 284.526 189.215 284.503 188.934C284.362 185.396 284.315 181.857 284.198 178.319C284.105 175.343 283.941 172.367 283.8 169.391C283.753 168.219 283.003 167.258 282.206 167.282C281.199 167.329 280.472 168.594 280.496 169.813C280.566 171.547 280.472 173.281 280.402 175.015C280.402 175.648 280.238 176.28 280.215 176.913C280.121 179.936 280.074 182.935 279.957 185.958C279.91 187.2 279.793 188.442 279.723 189.731L279.746 189.661Z" fill="white"/>
<path d="M340.789 130.024C344.913 130.024 349.061 130.024 353.232 130.024C355.482 130.024 357.708 130.024 359.957 130C363.308 129.93 366.214 131.078 368.862 133.023C372.19 135.483 374.111 138.881 374.767 142.888C375.986 150.551 371.463 157.394 364.293 159.877C363.425 160.182 362.488 160.299 361.598 160.44C360.778 160.58 359.606 161.635 359.676 162.221C359.793 162.971 360.824 163.814 361.785 163.627C363.566 163.299 365.277 162.76 367.034 162.361C367.55 162.244 368.229 162.127 368.628 162.361C373.08 165.15 375.47 169.11 375.681 174.453C375.775 177.312 375.212 179.983 373.689 182.28C372.541 184.014 370.948 185.513 369.354 186.872C367.433 188.513 364.949 189.005 362.488 189.333C361.691 189.45 360.848 189.286 360.028 189.333C358.528 189.38 357.028 189.497 355.505 189.52C351.17 189.544 346.858 189.52 342.523 189.52C342.101 189.52 341.656 189.661 341.258 189.591C341.047 189.544 340.695 189.192 340.695 189.005C340.695 180.241 340.695 171.5 340.695 162.736C340.695 151.934 340.695 141.131 340.672 130.305C340.672 130.234 340.742 130.164 340.789 130.024ZM356.606 145.138C356.606 146.895 356.606 148.653 356.606 150.41C356.606 151.301 357.497 152.074 358.364 152.027C359.208 151.98 359.911 151.207 359.887 150.34C359.887 149.239 359.864 148.137 359.864 147.036C359.864 144.81 359.864 142.607 359.864 140.381C359.864 139.35 359.137 138.436 358.294 138.436C357.309 138.436 356.583 139.256 356.583 140.334C356.583 141.928 356.583 143.521 356.583 145.138H356.606ZM356.63 174.781C356.63 176.468 356.63 178.132 356.63 179.819C356.63 180.874 357.356 181.577 358.364 181.577C359.418 181.577 359.911 181.014 359.911 179.843C359.911 176.562 359.911 173.281 359.911 169.977C359.911 168.946 359.231 168.22 358.34 168.22C357.333 168.22 356.63 168.923 356.63 170.001C356.63 171.594 356.63 173.211 356.63 174.804V174.781Z" fill="white"/>
<path d="M338.61 173.375V189.567H335.962C328.182 189.567 320.379 189.567 312.599 189.567C311.638 189.567 311.216 189.567 311.334 188.255C311.568 185.841 311.404 183.381 311.427 180.92C311.427 174.711 311.427 168.501 311.427 162.314C311.427 152.191 311.427 142.045 311.427 131.922C311.427 130.094 311.427 130.07 313.255 130.047C315.997 130.047 318.715 130.047 321.457 130.047C324.972 130.047 328.487 130.047 332.025 130.047C333.97 130.047 335.892 130.047 337.836 130.047C338.586 130.047 338.75 130.187 338.704 131.055C338.586 134.241 338.657 137.405 338.657 140.592C338.657 142.42 338.657 144.271 338.657 146.239C335.142 146.239 331.791 146.216 328.416 146.286C328.065 146.286 327.502 146.872 327.456 147.247C327.315 148.348 327.385 149.496 327.409 150.621C327.409 151.207 327.62 151.652 328.346 151.676C329.729 151.723 331.135 151.84 332.517 151.863C333.876 151.887 335.235 151.863 336.759 151.863C336.759 153.668 336.759 155.378 336.759 157.089C336.759 160.182 336.759 163.275 336.759 166.345C336.759 167.353 336.595 167.915 335.282 167.821C333.267 167.657 331.228 167.774 329.19 167.774C327.526 167.774 327.385 167.938 327.362 169.532C327.362 170.727 327.362 171.922 327.362 173.375H338.61Z" fill="white"/>
</g>
<g clip-path="url(#clip3_33_64)">
<path d="M279.957 194.638C284.714 194.638 289.26 194.638 293.829 194.638C295.704 194.638 297.578 194.638 299.453 194.638C300.226 194.638 300.554 194.826 300.601 195.669C300.765 198.575 301.047 201.481 301.234 204.386C301.445 207.48 301.539 210.596 301.773 213.689C301.937 216.033 302.242 218.353 302.453 220.672C302.523 221.375 302.499 222.078 302.523 222.781C302.57 223.578 303.413 224.375 304.14 224.375C304.796 224.375 305.71 223.344 305.71 222.617C305.663 220.251 305.546 217.884 305.569 215.517C305.569 210.807 305.686 206.097 305.71 201.387C305.71 199.442 305.593 197.52 305.522 195.576C305.522 195.06 305.522 194.638 306.202 194.638C310.771 194.638 315.317 194.638 320.074 194.638V254.041H299.687C299.594 253.151 299.5 252.19 299.406 251.229C299.125 247.574 298.82 243.942 298.586 240.286C298.422 237.755 298.375 235.224 298.211 232.694C298.117 231.241 297.86 229.788 297.696 228.335C297.625 227.609 297.578 226.859 297.578 226.109C297.602 225.078 297.063 224.398 296.079 224.351C295.212 224.305 294.251 225.101 294.251 225.921C294.251 228.124 294.227 230.327 294.251 232.506C294.298 235.201 294.415 237.872 294.438 240.567C294.485 244.715 294.438 248.886 294.438 253.034C294.438 253.76 294.368 254.065 293.431 254.041C289.4 253.924 285.37 253.784 281.339 254.018C279.699 254.112 279.886 253.479 279.886 252.448C279.886 233.561 279.886 214.697 279.886 195.81V194.638H279.957Z" fill="white"/>
<path d="M210.173 237.896V254.088H207.525C199.745 254.088 191.942 254.088 184.162 254.088C183.202 254.088 182.78 254.088 182.897 252.776C183.131 250.362 182.967 247.902 182.991 245.441C182.991 239.232 182.991 233.022 182.991 226.835C182.991 216.712 182.991 206.566 182.991 196.443C182.991 194.615 182.991 194.591 184.819 194.568C187.56 194.568 190.278 194.568 193.02 194.568C196.535 194.568 200.05 194.568 203.589 194.568C205.533 194.568 207.455 194.568 209.4 194.568C210.15 194.568 210.314 194.708 210.267 195.575C210.15 198.762 210.22 201.926 210.22 205.113C210.22 206.941 210.22 208.792 210.22 210.76C206.705 210.76 203.354 210.737 199.98 210.807C199.628 210.807 199.066 211.393 199.019 211.768C198.878 212.869 198.949 214.017 198.972 215.142C198.972 215.728 199.183 216.173 199.91 216.197C201.292 216.244 202.698 216.361 204.081 216.384C205.44 216.408 206.799 216.384 208.322 216.384C208.322 218.189 208.322 219.899 208.322 221.61C208.322 224.703 208.322 227.796 208.322 230.866C208.322 231.873 208.158 232.436 206.846 232.342C204.83 232.178 202.792 232.295 200.753 232.295C199.089 232.295 198.949 232.459 198.925 234.053C198.925 235.248 198.925 236.443 198.925 237.896H210.173Z" fill="white"/>
<path d="M277.872 237.896V254.088H275.224C267.444 254.088 259.64 254.088 251.861 254.088C250.9 254.088 250.478 254.088 250.595 252.776C250.83 250.362 250.666 247.902 250.689 245.441C250.689 239.232 250.689 233.022 250.689 226.835C250.689 216.712 250.689 206.566 250.689 196.443C250.689 194.615 250.689 194.591 252.517 194.568C255.258 194.568 257.977 194.568 260.718 194.568C264.233 194.568 267.748 194.568 271.287 194.568C273.232 194.568 275.153 194.568 277.098 194.568C277.848 194.568 278.012 194.708 277.965 195.575C277.848 198.762 277.918 201.926 277.918 205.113C277.918 206.941 277.918 208.792 277.918 210.76C274.403 210.76 271.052 210.737 267.678 210.807C267.327 210.807 266.764 211.393 266.717 211.768C266.577 212.869 266.647 214.017 266.67 215.142C266.67 215.728 266.881 216.173 267.608 216.197C268.99 216.244 270.396 216.361 271.779 216.384C273.138 216.408 274.497 216.384 276.02 216.384C276.02 218.189 276.02 219.899 276.02 221.61C276.02 224.703 276.02 227.796 276.02 230.866C276.02 231.873 275.856 232.436 274.544 232.342C272.529 232.178 270.49 232.295 268.451 232.295C266.788 232.295 266.647 232.459 266.624 234.053C266.624 235.248 266.624 236.443 266.624 237.896H277.872Z" fill="white"/>
<path d="M347.655 254.135H331.815C331.768 253.737 331.697 253.268 331.697 252.776C331.697 239.349 331.697 225.898 331.697 212.471C331.697 210.713 331.651 210.69 329.94 210.69C327.362 210.69 324.808 210.69 322.16 210.69C322.137 210.338 322.113 210.081 322.113 209.823C322.113 205.136 322.137 200.449 322.09 195.763C322.09 194.661 322.535 194.474 323.472 194.497C326.519 194.544 329.565 194.497 332.611 194.568C334.369 194.591 336.126 194.802 337.884 194.779C340.18 194.779 342.477 194.568 344.773 194.521C347.655 194.474 350.538 194.521 353.42 194.521C354.474 194.521 355.529 194.521 356.583 194.521C357.24 194.521 357.497 194.755 357.497 195.411C357.451 198.997 357.451 202.582 357.427 206.167C357.427 207.667 357.427 209.167 357.427 210.69C355.013 210.69 352.694 210.69 350.374 210.69C349.882 210.69 349.366 210.83 348.874 210.854C347.913 210.924 347.796 211.416 347.819 212.33C347.89 214.65 347.726 216.993 347.679 219.313C347.655 220.696 347.679 222.078 347.679 223.461C347.726 225.921 347.819 228.358 347.843 230.819C347.866 234.31 347.89 237.825 347.843 241.317C347.819 243.941 347.679 246.543 347.655 249.167C347.655 250.62 347.749 252.073 347.796 253.526C347.796 253.737 347.702 253.971 347.655 254.158V254.135Z" fill="white"/>
<path d="M240.894 254.088C238.574 254.088 236.606 254.088 234.614 254.088C233.138 254.088 231.685 254.041 230.209 254.064C228.053 254.064 225.897 254.135 223.741 254.181C222.687 254.181 221.609 254.252 220.554 254.181C220.32 254.181 219.945 253.806 219.921 253.572C219.5 250.573 219.125 247.573 218.726 244.55C218.328 241.551 217.906 238.551 217.508 235.552C216.922 230.865 216.36 226.179 215.774 221.492C215.305 217.743 214.79 214.017 214.297 210.268C213.665 205.44 213.032 200.637 212.399 195.809C212.353 195.411 212.329 195.036 212.259 194.427C214.204 194.427 216.055 194.427 217.906 194.427C220.882 194.427 223.835 194.427 226.811 194.427C227.584 194.427 227.889 194.591 227.912 195.458C227.959 199.863 228.1 204.245 228.193 208.651C228.264 211.861 228.287 215.071 228.381 218.282C228.451 220.578 228.709 222.875 228.779 225.171C228.849 227.585 228.779 229.998 228.826 232.435C228.849 234.169 228.92 235.903 229.037 237.614C229.084 238.528 229.646 238.95 230.584 238.95C231.521 238.95 232.13 238.481 232.154 237.638C232.224 235.482 232.154 233.302 232.154 231.147C232.154 229.811 232.318 228.475 232.341 227.139C232.364 225.71 232.341 224.304 232.341 222.875C232.341 222.406 232.364 221.914 232.411 221.445C232.505 220.11 232.622 218.797 232.669 217.462C232.763 215.071 232.833 212.705 232.857 210.314C232.857 208.088 232.739 205.839 232.833 203.613C232.927 200.613 233.161 197.614 233.349 194.544H248.604C246.026 214.462 243.448 234.333 240.894 254.041V254.088Z" fill="white"/>
<path d="M375.681 194.591V254.064C370.549 254.064 365.488 254.064 360.403 254.064C359.864 254.064 359.489 254.064 359.559 253.221C359.7 251.58 359.676 249.917 359.676 248.276C359.63 245.089 359.536 241.926 359.489 238.739C359.465 236.115 359.489 233.467 359.489 230.842C359.489 228.218 359.512 225.593 359.512 222.969C359.512 220.367 359.465 217.743 359.512 215.142C359.512 213.056 359.676 210.971 359.676 208.862C359.676 206.378 359.559 203.917 359.536 201.433C359.536 199.348 359.583 197.286 359.653 195.2C359.653 194.966 360.075 194.544 360.309 194.544C363.66 194.521 367.011 194.544 370.362 194.544C372.096 194.544 373.83 194.544 375.705 194.544L375.681 194.591Z" fill="white"/>
</g>
<defs>
<clipPath id="clip0_33_64">
<rect width="375.657" height="59.5672" fill="white" transform="translate(0 0.936035)"/>
</clipPath>
<clipPath id="clip1_33_64">
<rect width="289.4" height="59.5203" fill="white" transform="translate(86.2578 65.5034)"/>
</clipPath>
<clipPath id="clip2_33_64">
<rect width="120.447" height="59.5203" fill="white" transform="translate(255.211 130.023)"/>
</clipPath>
<clipPath id="clip3_33_64">
<rect width="192.855" height="59.5203" fill="white" transform="translate(182.803 194.544)"/>
</clipPath>
</defs>
</svg>
