<svg width="684" height="204" viewBox="0 0 684 204" fill="none" xmlns="http://www.w3.org/2000/svg">
<g clip-path="url(#clip0_31_52)">
<path d="M603.3 109.9C606.9 127.3 611.7 163.3 611.9 164.7C613.5 176.3 614.9 187.8 616.9 199.3C617.5 203.1 615.7 202.7 613.5 202.7C598 202.7 582.6 202.7 567.1 202.7C565.3 202.7 563.5 202.9 561.1 203.1C560.7 201.8 560 200.3 559.9 198.7C559.4 190.5 559.1 182.3 558.6 174.1C558 164.2 557.4 154.4 556.3 144.6C556.1 142.4 554.2 139.7 552.3 138.6C551.1 137.9 548.2 139.4 546.5 140.5C545.6 141.1 545.3 143.1 545.3 144.4C545.3 160.2 545.3 176.1 545.3 191.9C545.3 194.6 545.7 197.2 545.7 199.9C545.7 202.1 545.5 203.4 542.3 203C537 202.4 531.7 202.7 526.3 202.7C515.1 202.7 503.9 202.7 492.7 202.8C489.9 202.8 489.8 201.2 489.9 199.3C490.1 193.7 490.5 188.1 490.5 182.4C490.5 175.1 490.1 167.8 490.1 160.5C490.1 144.5 490.1 128.5 490.1 112.4C490.1 89 490 65.7 489.9 42.3C489.9 29.5 489.9 16.6 489.9 3.79996C489.9 0.799959 491.2 0.199959 493.8 0.299959C512.7 0.499959 531.6 0.99996 550.4 0.69996C559.3 0.49996 567.9 0.999959 576 4.39996C585 8.09996 592.4 14 598.8 21.4C604.2 27.6 607.8 34.6 610.2 42.3C612.2 48.7 612.6 55.2 612.1 62.1C611.2 73 607 82.4 600.8 90.9C593.1 101.4 582.9 108.5 570.4 112.3C569 112.7 567.3 112.9 566.4 113.9C565 115.3 563.2 117.3 563.2 118.9C563.3 121.3 565.1 124.1 568.1 123.4C573.7 122.1 579.2 120.5 584.5 118.4C590.5 116 596.3 112.9 603 109.8L603.3 109.9ZM556.5 72.5C556.5 66.8 556.5 61 556.5 55.3C556.5 52.4 553.9 49.4 551.4 49.3C549 49.2 545.3 52.4 545.3 55C545.3 66.7 545.5 78.4 545.8 90C545.8 93.4 548.7 95.9 551.9 95.5C555 95.1 556.6 93 556.5 89.7C556.4 84 556.5 78.2 556.5 72.5Z" fill="white"/>
<path d="M469.1 177.7C460 190.7 448.1 199.8 432.5 202.8C413.9 206.4 396.6 202.5 382 189.9C370.7 180.1 363.5 167.8 362.3 152.6C361.8 145.7 361.9 138.7 361.9 131.7C361.9 120.2 362.1 108.7 362.1 97.2001C362.1 85.1001 362.7 73.0001 362 60.9001C361.4 51.1001 363.2 42.0001 367.5 33.5001C377 14.7001 392.3 3.60008 413.4 1.30008C428.2 -0.299919 442 2.20008 454.3 11.3001C463.6 18.1001 470.6 27.0001 474.7 37.5001C477.9 45.8001 478.9 54.8001 478.4 64.0001C477.9 73.0001 478.3 82.0001 478.3 91.1001C478.3 104.4 478.3 117.6 478.3 130.9C478.3 139.3 478.3 147.7 477.5 156C476.9 161 474.5 165.9 473 170.8C472.7 171.8 470.4 176.3 469.3 177.9L469.1 177.7ZM415 147.9C415.5 149.8 417.7 151.8 419.6 152.5C420.7 152.9 423.3 151.2 424.3 149.8C425.3 148.4 425.3 146.2 425.4 144.3C425.5 132.8 425.6 121.2 425.6 109.7C425.6 99.5001 425.3 89.2001 425.2 79.0001C425.2 72.1001 425 65.2001 425.2 58.3001C425.2 54.6001 423.4 51.8001 420.2 51.6001C417.5 51.4001 414.9 54.4001 414.9 57.8001C414.7 72.4001 414.5 87.0001 414.4 101.6C414.4 113.7 414.4 144.8 415.1 148L415 147.9Z" fill="white"/>
<path d="M203.3 0.800049C212 68.3 220.6 135.4 229.3 202.7H173.1C173.1 189 173.1 175.6 173.1 162.2C173.1 160.6 172.4 159 171.9 157.4C170.9 154.5 168.5 153.5 165.9 154.6C163.2 155.6 161.9 157.9 161.9 161.1C162.1 174.6 162.1 188.2 162.2 201.7C162.2 202.1 161.9 202.4 161.6 203C146.2 203 130.7 203 115.2 203C113.2 203 111.1 203.4 109.3 202.9C108.1 202.5 106.4 200.7 106.5 199.7C108.3 185.4 110.4 171.1 112.3 156.8C114.1 142.8 115.6 128.7 117.5 114.7C118.9 103.9 120.7 93.2001 122.1 82.4001C123.5 71.1001 124.5 59.8 126 48.5C127.8 35 129.7 21.5 131.7 8.10005C132.8 0.800048 133 0.900049 140.3 0.900049C159.9 0.900049 179.6 0.900049 199.2 0.900049C200.4 0.900049 201.6 0.900049 203.4 0.900049L203.3 0.800049ZM173.1 85.2C173.1 79.5 173.1 73.8001 173.1 68.1001C173.1 64.8001 173.2 61.5 173.1 58.2C172.9 54.1 170.5 51.7001 167.2 51.8001C164 51.9001 162.1 54.4001 162 58.3001C162 62.6001 162 66.9 162 71.2C162 84.7 162 98.3 162 111.8C162 114.5 165.3 118.9 167.5 118.4C169.4 117.9 171.1 115.8 172.4 114C173.1 113.1 173 111.5 173.1 110.3C173.1 102 173.1 93.6 173.1 85.3V85.2Z" fill="white"/>
<path d="M326.6 202.7C318.7 202.7 312 202.7 305.3 202.7C300.3 202.7 295.3 202.6 290.4 202.6C283.1 202.6 275.8 202.8 268.5 203C264.9 203 261.3 203.2 257.6 203C256.8 203 255.6 201.7 255.4 200.9C253.9 190.7 252.7 180.5 251.3 170.3C249.9 160.1 248.5 149.9 247.2 139.8C245.2 123.9 243.3 108 241.3 92.0999C239.7 79.3999 238 66.7 236.3 54C234.1 37.6 232 21.2999 229.8 4.89995C229.6 3.59995 229.5 2.19995 229.4 0.199951C236 0.199951 242.3 0.199951 248.6 0.199951C258.7 0.199951 268.7 0.199951 278.8 0.199951C281.5 0.199951 282.5 0.799951 282.5 3.69995C282.7 18.6 283.1 33.6 283.4 48.5C283.6 59.4 283.7 70.3 284.1 81.2C284.4 89 285.2 96.8 285.5 104.6C285.8 112.8 285.5 121 285.7 129.2C285.7 135.1 286 140.9 286.4 146.8C286.6 149.9 288.5 151.3 291.6 151.4C294.8 151.4 296.9 149.8 297 146.9C297.2 139.6 297 132.2 297 124.8C297 120.3 297.6 115.7 297.7 111.2C297.8 106.4 297.7 101.5 297.7 96.7C297.7 95.1 297.8 93.4999 297.9 91.8999C298.2 87.3999 298.6 82.8999 298.8 78.3999C299.1 70.2999 299.4 62.1999 299.4 54.1999C299.4 46.5999 299 39 299.3 31.4C299.6 21.2 300.4 11.1 301 0.599951H352.8C344.1 68.1999 335.3 135.7 326.7 202.6L326.6 202.7Z" fill="white"/>
<path d="M0.699997 202.7C0.699997 192.9 0.699997 183.7 0.699997 174.5C0.699997 164.6 0.699997 154.7 0.699997 144.8C0.699997 110.7 0.699997 76.6001 0.699997 42.5001C0.699997 37.3001 0.899997 32.1001 0.699997 26.9001C0.299997 19.1001 1.8 11.4001 0.900002 3.6001C0.900002 2.9001 2.8 1.2001 3.8 1.2001C14.6 1.0001 55.3 0.600098 55.3 0.600098C55.3 6.9001 55.3 12.5001 55.3 18.1001C55.3 29.0001 55.6 40.0001 55.5 50.9001C55.5 58.6001 55 66.3001 54.9 73.9001C54.9 79.7001 55.4 85.5001 55.5 91.3001C55.5 99.7001 55.4 108.1 55.4 116.6C55.4 121.7 55.3 126.9 55.6 132C56.4 141.8 49.7 152.7 40.3 156.4C38 157.3 36.4 161.3 37.5 163.6C38.8 166.5 42.9 167.6 46.3 166.1C53.4 162.9 59.4 158.3 63.5 151.6C64.9 149.4 66.5 148.3 69.3 148.4C76.4 148.6 83.6 148.7 90.8 148.6C92.9 148.6 93.7 149 93.6 151.2C93.4 157.2 93.3 163.2 93.3 169.2C93.3 177.5 93.4 185.8 93.7 194C94.1 203.3 93.7 203.4 84.7 203.1C72.4 202.7 60.1 202.8 47.8 202.8C32.3 202.8 16.7 202.8 0.5 202.8L0.699997 202.7Z" fill="white"/>
<path d="M683.4 0.90006V204.2C665.9 204.2 648.5 204.2 631.2 204.2C629.4 204.2 628.1 204.2 628.3 201.3C628.8 195.7 628.7 190 628.7 184.4C628.6 173.5 628.2 162.7 628.1 151.8C628 142.8 628.1 133.8 628.1 124.8C628.1 115.8 628.2 106.9 628.2 97.9001C628.2 89.0001 628.1 80.1001 628.2 71.1001C628.2 64.0001 628.7 56.8001 628.7 49.7001C628.7 41.2001 628.3 32.8001 628.3 24.3001C628.3 17.2001 628.4 10.1001 628.7 3.00006C628.7 2.20006 630.1 0.80006 630.9 0.80006C642.4 0.70006 653.8 0.80006 665.3 0.80006C671.2 0.80006 677.1 0.80006 683.5 0.80006L683.4 0.90006Z" fill="white"/>
</g>
<defs>
<clipPath id="clip0_31_52">
<rect width="684" height="204" fill="white"/>
</clipPath>
</defs>
</svg>
