<svg width="812" height="1805" viewBox="0 0 812 1805" fill="none" xmlns="http://www.w3.org/2000/svg">
<g clip-path="url(#clip0_33_130)">
<path d="M532.899 89.4C532.899 109.7 532.899 129.1 532.899 148.6C532.899 156.6 532.899 164.6 532.899 172.6C532.899 175.9 532.099 177.3 528.499 177.5C516.099 178.2 503.699 179.4 491.299 180.2C478.099 181.1 464.799 181.5 451.599 182.5C441.599 183.2 431.699 184.5 421.799 185.4C418.799 185.7 415.799 185.6 412.799 185.7C409.399 185.9 405.999 189.5 405.999 192.6C405.999 195.4 410.399 199.3 413.499 199.3C423.599 199.1 433.699 198.6 443.799 198.7C463.899 198.7 483.999 199.2 504.099 199.3C512.399 199.3 520.599 198.8 528.899 198.5C531.099 198.5 532.899 198.5 532.899 201.4C532.899 220.9 532.899 240.3 532.899 260.6L279.399 260.6L279.399 173.6C283.199 173.2 287.299 172.8 291.399 172.4C306.999 171.2 322.499 169.9 338.099 168.9C348.899 168.2 359.699 168 370.499 167.3C376.699 166.9 382.899 165.8 389.099 165.1C392.199 164.8 395.399 164.6 398.599 164.6C402.999 164.7 405.899 162.4 406.099 158.2C406.299 154.5 402.899 150.4 399.399 150.4C389.999 150.4 380.599 150.3 371.299 150.4C359.799 150.6 348.399 151.1 336.899 151.2C319.199 151.4 301.399 151.2 283.699 151.2C280.599 151.2 279.299 150.9 279.399 146.9C279.899 129.7 280.499 112.5 279.499 95.2999C279.099 88.2999 281.799 89.0999 286.199 89.0999C366.799 89.0999 447.299 89.1 527.899 89.1L532.899 89.1L532.899 89.4Z" fill="white"/>
<path d="M396 573.5C374.3 578 353 579.3 332.7 584.8C330.9 584.6 329.1 584 327.4 584.2C312.9 586.1 298.5 588 284.1 590.4C279.4 591.2 279.9 588.9 279.9 586.1C279.9 566.8 279.9 547.4 279.9 528.1C279.9 525.8 279.6 523.6 279.4 520.6C281 520.1 283 519.2 284.9 519.1C295.2 518.5 305.4 518.1 315.7 517.5C328 516.7 340.4 516 352.6 514.7C355.3 514.4 358.7 512.1 360.1 509.7C361 508.2 359.1 504.6 357.7 502.5C357 501.4 354.5 501 352.8 501C333 501 313.2 501 293.4 501C290.1 501 286.8 501.5 283.4 501.5C280.7 501.5 279 501.3 279.5 497.3C280.3 490.7 279.8 484 279.8 477.3C279.8 463.3 279.8 449.3 279.6 435.3C279.6 431.7 281.6 431.7 283.9 431.8C290.9 432 298 432.6 305 432.6C314.1 432.6 323.3 432.1 332.4 432.1C352.4 432.1 372.5 432.1 392.5 432.1C421.7 432.1 451 431.9 480.2 431.9C496.3 431.9 512.3 431.9 528.4 431.9C532.1 431.9 532.8 433.5 532.8 436.7C532.5 460.3 531.9 483.9 532.4 507.5C532.6 518.6 532 529.4 527.7 539.6C523 550.8 515.7 560.2 506.4 568.2C498.6 574.9 489.8 579.4 480.3 582.5C472.3 585 464.1 585.5 455.5 584.8C441.8 583.7 430.1 578.5 419.4 570.7C406.3 561.1 397.4 548.3 392.7 532.7C392.2 531 391.9 528.8 390.7 527.7C389 525.9 386.5 523.6 384.4 523.7C381.4 523.8 377.9 526.1 378.7 529.9C380.3 536.9 382.3 543.8 384.9 550.5C387.9 558.1 391.8 565.3 395.7 573.6L396 573.5ZM442.9 514.9C450.1 514.9 457.2 514.9 464.4 514.9C468.1 514.9 471.8 511.7 472 508.6C472.1 505.6 468.2 501 464.8 501C450.2 501 435.6 501.2 421 501.6C416.8 501.6 413.6 505.2 414.2 509.2C414.8 513 417.3 515.1 421.5 515C428.7 514.9 435.8 515 443 515L442.9 514.9Z" fill="white"/>
<path d="M396 740.7C374.3 745.2 353 746.5 332.7 752C330.9 751.8 329.1 751.2 327.4 751.4C312.9 753.3 298.5 755.2 284.1 757.6C279.4 758.4 279.9 756.1 279.9 753.3C279.9 734 279.9 714.6 279.9 695.3C279.9 693 279.6 690.8 279.4 687.8C281 687.3 283 686.4 284.9 686.3C295.2 685.7 305.4 685.3 315.7 684.7C328 683.9 340.4 683.2 352.6 681.9C355.3 681.6 358.7 679.3 360.1 676.9C361 675.4 359.1 671.8 357.7 669.7C357 668.6 354.5 668.2 352.8 668.2C333 668.2 313.2 668.2 293.4 668.2C290.1 668.2 286.8 668.7 283.4 668.7C280.7 668.7 279 668.5 279.5 664.5C280.3 657.9 279.8 651.2 279.8 644.5C279.8 630.5 279.8 616.5 279.6 602.5C279.6 598.9 281.6 598.9 283.9 599C290.9 599.2 298 599.8 305 599.8C314.1 599.8 323.3 599.3 332.4 599.3C352.4 599.3 372.5 599.3 392.5 599.3C421.7 599.3 451 599.1 480.2 599.1C496.3 599.1 512.3 599.1 528.4 599.1C532.1 599.1 532.8 600.7 532.8 603.9C532.5 627.5 531.9 651.1 532.4 674.7C532.6 685.8 532 696.6 527.7 706.8C523 718 515.7 727.4 506.4 735.4C498.6 742.1 489.8 746.6 480.3 749.7C472.3 752.2 464.1 752.7 455.5 752C441.8 750.9 430.1 745.7 419.4 737.9C406.3 728.3 397.4 715.5 392.7 699.9C392.2 698.2 391.9 696 390.7 694.9C389 693.1 386.5 690.8 384.4 690.9C381.4 691 377.9 693.3 378.7 697.1C380.3 704.1 382.3 711 384.9 717.7C387.9 725.3 391.8 732.5 395.7 740.8L396 740.7ZM442.9 682.2C450.1 682.2 457.2 682.2 464.4 682.2C468.1 682.2 471.8 679 472 675.9C472.1 672.9 468.2 668.3 464.8 668.3C450.2 668.3 435.6 668.5 421 668.9C416.8 668.9 413.6 672.5 414.2 676.5C414.8 680.3 417.3 682.4 421.5 682.3C428.7 682.2 435.8 682.3 443 682.3L442.9 682.2Z" fill="white"/>
<path d="M533.299 1374.1C533.299 1391.7 533.299 1409.4 533.299 1427.2C533.299 1436.8 533.299 1446.3 533.399 1455.9C533.699 1470.2 528.799 1482.6 520.499 1493.9C509.999 1508.1 495.499 1516.3 478.399 1519.1C445.699 1524.3 416.499 1505 405.899 1474.4C404.599 1470.7 404.099 1466.7 403.499 1462.9C402.899 1459.4 398.399 1454.4 395.899 1454.7C392.699 1455.2 389.099 1459.6 389.899 1463.7C391.299 1471.3 393.599 1478.6 395.299 1486.1C395.799 1488.3 396.299 1491.2 395.299 1492.9C383.399 1511.9 366.499 1522.1 343.699 1523C331.499 1523.4 320.099 1521 310.299 1514.5C302.899 1509.6 296.499 1502.8 290.699 1496C283.699 1487.8 281.599 1477.2 280.199 1466.7C279.699 1463.3 280.399 1459.7 280.199 1456.2C279.999 1449.8 279.499 1443.4 279.399 1436.9C279.299 1418.4 279.399 1400 279.399 1381.5C279.399 1379.7 278.799 1377.8 279.099 1376.1C279.299 1375.2 280.799 1373.7 281.599 1373.7C318.999 1373.7 356.299 1373.7 393.699 1373.7C439.799 1373.7 485.899 1373.7 532.099 1373.6C532.399 1373.6 532.699 1373.9 533.299 1374.1ZM468.799 1441.7C461.299 1441.7 453.799 1441.7 446.299 1441.7C442.499 1441.7 439.199 1445.5 439.399 1449.2C439.599 1452.8 442.899 1455.8 446.599 1455.7C451.299 1455.7 455.999 1455.6 460.699 1455.6C470.199 1455.6 479.599 1455.6 489.099 1455.6C493.499 1455.6 497.399 1452.5 497.399 1448.9C497.399 1444.7 493.899 1441.6 489.299 1441.6C482.499 1441.6 475.699 1441.6 468.799 1441.6L468.799 1441.7ZM342.299 1441.7C335.099 1441.7 327.999 1441.7 320.799 1441.7C316.299 1441.7 313.299 1444.8 313.299 1449.1C313.299 1453.6 315.699 1455.7 320.699 1455.7C334.699 1455.7 348.699 1455.7 362.799 1455.7C367.199 1455.7 370.299 1452.8 370.299 1449C370.299 1444.7 367.299 1441.7 362.699 1441.7C355.899 1441.7 348.999 1441.7 342.199 1441.7L342.299 1441.7Z" fill="white"/>
<path d="M441.099 1042.3C441.099 1032.6 441.099 1023.1 441.099 1013.7C441.099 1002 441.199 990.4 441.099 978.7C441.099 974.7 442.799 974 446.199 974.2C452.299 974.5 458.499 974.8 464.599 974.7C469.199 974.7 472.299 971.2 472.199 967.2C472.099 963.8 468.699 961 464.199 960.8C459.899 960.7 455.499 960.9 451.199 960.5C443.899 959.8 439.299 963.4 436.399 969.4C433.299 975.6 430.899 982.1 427.799 988.2C420.599 1002 415.099 1017 402.799 1027.6C394.999 1034.3 386.099 1038 376.099 1040.3C363.699 1043.1 351.299 1043.3 338.899 1041.6C332.399 1040.7 326.099 1038 319.899 1035.7C307.199 1031 297.599 1022.2 289.699 1011.6C283.199 1002.9 278.899 993.1 276.699 982.6C272.899 964.4 275.699 946.8 284.899 930.8C295.099 913.1 309.499 900.8 329.999 895.2C340.999 892.2 351.799 892.6 362.799 892.1C365.599 892 369.099 891.2 370.899 892.6C372.299 893.7 371.499 897.6 371.599 900.2C371.799 912 372.099 923.7 372.199 935.5C372.199 942.2 372.099 949 372.299 955.7C372.499 959.4 372.099 961.1 367.499 960.7C361.499 960.1 355.299 960.7 349.299 960.8C345.199 960.8 341.799 963.8 341.399 967.5C341.099 970.8 344.299 974.5 348.299 974.7C354.799 975 361.399 975.4 367.799 974.6C373.899 973.8 376.799 968.3 379.399 963.3C384.999 952.3 390.599 941.4 395.599 930.1C404.799 909.4 419.999 896.8 442.699 893.6C462.199 890.8 481.399 890.9 499.099 901.1C521.099 913.9 535.099 932.5 537.499 958.5C538.899 973.3 538.099 987.8 530.699 1001.5C524.599 1012.8 516.399 1022 506.199 1029.2C491.799 1039.4 475.499 1043.8 457.699 1042.4C452.599 1042 447.499 1042.4 441.499 1042.4L441.099 1042.3Z" fill="white"/>
<path d="M533.3 1332.4C448.5 1343.3 364.2 1354.1 279.6 1365L279.6 1294.4C296.8 1294.4 313.7 1294.4 330.5 1294.4C332.5 1294.4 334.5 1293.6 336.5 1292.9C340.1 1291.6 341.3 1288.7 340.1 1285.3C338.8 1281.9 336 1280.2 332 1280.3C315 1280.6 298 1280.6 281 1280.7C280.5 1280.7 280.1 1280.3 279.3 1280C279.3 1260.6 279.3 1241.2 279.3 1221.7C279.3 1219.2 278.8 1216.6 279.5 1214.3C279.9 1212.8 282.3 1210.7 283.5 1210.8C301.5 1213 319.4 1215.7 337.4 1218.1C355 1220.4 372.7 1222.3 390.3 1224.6C403.9 1226.4 417.3 1228.6 430.9 1230.4C445.1 1232.2 459.3 1233.5 473.5 1235.3C490.4 1237.5 507.4 1240 524.3 1242.5C533.3 1243.8 533.3 1244 533.3 1253.2C533.3 1277.9 533.3 1302.5 533.3 1327.2C533.3 1328.7 533.3 1330.2 533.3 1332.5L533.3 1332.4ZM427.3 1294.5C434.5 1294.5 441.6 1294.5 448.8 1294.5C453 1294.5 457.1 1294.7 461.3 1294.5C466.5 1294.2 469.5 1291.3 469.3 1287C469.1 1283 466.1 1280.6 461.1 1280.5C455.7 1280.5 450.3 1280.5 444.9 1280.5C427.9 1280.5 410.9 1280.5 393.9 1280.5C390.5 1280.5 385 1284.6 385.7 1287.5C386.3 1289.9 389 1292 391.2 1293.7C392.3 1294.6 394.3 1294.5 395.9 1294.5C406.4 1294.5 416.9 1294.5 427.3 1294.5Z" fill="white"/>
<path d="M348.299 882.9L279.199 882.9L279.199 871.599C279.199 838.399 279.199 805.1 279.199 771.9C279.199 767.8 279.199 765.999 284.799 766.499C295.099 767.499 305.599 766.8 316.099 766.9C342.599 766.9 369.099 766.9 395.499 766.9C438.699 766.9 481.999 766.9 525.199 766.9C532.999 766.9 533.099 766.9 533.199 774.7C533.199 786.4 533.199 798 533.199 809.7C533.199 824.7 533.199 839.699 533.199 854.799C533.199 863.099 533.199 871.299 533.199 879.599C533.199 882.799 532.599 883.499 528.899 883.299C515.299 882.799 501.799 883.099 488.199 883.099C480.399 883.099 472.499 883.099 464.099 883.099C464.099 868.099 464.199 853.8 463.899 839.4C463.899 837.9 461.399 835.499 459.799 835.299C455.099 834.699 450.199 834.999 445.399 835.099C442.899 835.099 440.999 835.999 440.899 839.099C440.699 844.999 440.199 851 440.099 856.9C439.999 862.7 440.099 868.499 440.099 874.999C432.399 874.999 425.099 874.999 417.799 874.999C404.599 874.999 391.399 874.999 378.299 874.999C373.999 874.999 371.599 874.299 371.999 868.699C372.699 860.099 372.199 851.399 372.199 842.699C372.199 835.599 371.499 835 364.699 834.9C359.599 834.9 354.499 834.9 348.299 834.9L348.299 882.9Z" fill="white"/>
<path d="M279 1160.3L279 1092.7C280.7 1092.5 282.7 1092.2 284.8 1092.2C342.1 1092.2 399.5 1092.2 456.8 1092.2C464.3 1092.2 464.4 1092 464.4 1084.7C464.4 1073.7 464.4 1062.8 464.4 1051.5C465.9 1051.4 467 1051.3 468.1 1051.3C488.1 1051.3 508.1 1051.4 528.1 1051.2C532.8 1051.2 533.6 1053.1 533.5 1057.1C533.3 1070.1 533.5 1083.1 533.2 1096.1C533.1 1103.6 532.2 1111.1 532.3 1118.6C532.3 1128.4 533.2 1138.2 533.4 1148C533.6 1160.3 533.4 1172.6 533.4 1184.9C533.4 1189.4 533.4 1193.9 533.4 1198.4C533.4 1201.2 532.4 1202.3 529.6 1202.3C514.3 1202.1 499 1202.1 483.7 1202C477.3 1202 470.9 1202 464.4 1202C464.4 1191.7 464.4 1181.8 464.4 1171.9C464.4 1169.8 463.8 1167.6 463.7 1165.5C463.4 1161.4 461.3 1160.9 457.4 1161C447.5 1161.3 437.5 1160.6 427.6 1160.4C421.7 1160.3 415.8 1160.4 409.9 1160.4C399.4 1160.6 389 1161 378.5 1161.1C363.6 1161.2 348.6 1161.3 333.7 1161.1C322.5 1161 311.4 1160.4 300.2 1160.3C294 1160.3 287.8 1160.7 281.6 1160.9C280.7 1160.9 279.7 1160.5 278.9 1160.3L279 1160.3Z" fill="white"/>
<path d="M279.599 1609.3C291.899 1609.3 303.399 1609.3 314.999 1609.3C327.499 1609.3 339.899 1609.3 352.399 1609.3C395.199 1609.3 437.999 1609.3 480.899 1609.3C487.399 1609.3 493.999 1609.6 500.499 1609.3C510.199 1608.8 519.999 1610.7 529.699 1609.6C530.599 1609.5 532.699 1612 532.699 1613.2C532.899 1626.7 532.799 1640.3 532.799 1653.8C531.599 1654.1 530.599 1654.4 528.899 1654.9C530.699 1655.4 531.699 1655.7 532.699 1656C533.199 1663.2 530.199 1670.4 533.399 1677.9C525.399 1677.9 518.399 1677.9 511.399 1677.9C497.699 1677.9 483.899 1678.3 470.199 1678.2C460.599 1678.2 450.899 1677.5 441.299 1677.5C433.999 1677.5 426.699 1678.1 419.399 1678.2C408.799 1678.2 398.199 1678 387.699 1678C381.299 1678 374.799 1677.8 368.399 1678.3C355.999 1679.2 342.399 1670.9 337.799 1659.1C336.699 1656.2 331.699 1654.2 328.799 1655.6C325.199 1657.2 323.699 1662.4 325.699 1666.7C329.799 1675.6 335.499 1683.1 343.999 1688.3C346.799 1690 348.099 1692.1 347.999 1695.6C347.699 1704.6 347.699 1713.6 347.799 1722.5C347.799 1725.1 347.299 1726.1 344.599 1726C337.099 1725.8 329.499 1725.6 321.999 1725.6C311.599 1725.6 301.199 1725.8 290.799 1726.2C279.099 1726.7 278.999 1726.3 279.299 1714.9C279.799 1699.5 279.699 1684 279.699 1668.5C279.699 1649 279.699 1629.5 279.699 1609.2L279.599 1609.3Z" fill="white"/>
<path d="M533.099 1804.1L279.299 1804.1C279.299 1782.2 279.299 1760.6 279.299 1738.9C279.299 1736.6 279.299 1735 282.899 1735.3C289.899 1735.9 296.999 1735.8 303.999 1735.8C317.599 1735.6 331.099 1735.2 344.699 1735C355.899 1734.9 367.199 1735 378.399 1735C389.599 1735 400.799 1735.1 411.999 1735.1C423.099 1735.1 434.299 1734.9 445.399 1735.1C454.299 1735.1 463.199 1735.8 472.199 1735.8C482.799 1735.8 493.299 1735.3 503.899 1735.2C512.799 1735.2 521.599 1735.4 530.499 1735.7C531.499 1735.7 533.299 1737.5 533.299 1738.5C533.399 1752.8 533.299 1767.1 533.299 1781.4C533.299 1788.8 533.299 1796.2 533.299 1804.2L533.099 1804.1Z" fill="white"/>
<path d="M533.099 1600.6L279.299 1600.6C279.299 1578.7 279.299 1557.1 279.299 1535.4C279.299 1533.1 279.299 1531.5 282.899 1531.8C289.899 1532.4 296.999 1532.3 303.999 1532.3C317.599 1532.1 331.099 1531.7 344.699 1531.5C355.899 1531.4 367.199 1531.5 378.399 1531.5C389.599 1531.5 400.799 1531.6 411.999 1531.6C423.099 1531.6 434.299 1531.4 445.399 1531.6C454.299 1531.6 463.199 1532.3 472.199 1532.3C482.799 1532.3 493.299 1531.8 503.899 1531.7C512.799 1531.7 521.599 1531.9 530.499 1532.2C531.499 1532.2 533.299 1534 533.299 1535C533.399 1549.3 533.299 1563.6 533.299 1577.9C533.299 1585.3 533.299 1592.7 533.299 1600.7L533.099 1600.6Z" fill="white"/>
<path d="M533.099 69.9003L279.299 69.9003C279.299 48.0003 279.299 26.4003 279.299 4.70029C279.299 2.40029 279.299 0.800294 282.899 1.10029C289.899 1.70029 296.999 1.60029 303.999 1.60029C317.599 1.4003 331.099 1.00029 344.699 0.800296C355.899 0.700296 367.199 0.800297 378.399 0.800297C389.599 0.800298 400.799 0.900298 411.999 0.900299C423.099 0.900299 434.299 0.7003 445.399 0.9003C454.299 0.900301 463.199 1.6003 472.199 1.6003C482.799 1.6003 493.299 1.1003 503.899 1.0003C512.799 1.0003 521.599 1.2003 530.499 1.5003C531.499 1.5003 533.299 3.3003 533.299 4.3003C533.399 18.6003 533.299 32.9003 533.299 47.2003C533.299 54.6003 533.299 62.0003 533.299 70.0003L533.099 69.9003Z" fill="white"/>
<path d="M533.3 390.7C448.5 401.6 364.2 412.4 279.6 423.3L279.6 352.7C296.8 352.7 313.7 352.7 330.5 352.7C332.5 352.7 334.5 351.9 336.5 351.2C340.1 349.9 341.3 347 340.1 343.6C338.8 340.2 336 338.5 332 338.6C315 338.9 298 338.9 281 339C280.5 339 280.1 338.6 279.3 338.3C279.3 318.9 279.3 299.5 279.3 280C279.3 277.5 278.8 274.9 279.5 272.6C279.9 271.1 282.3 269 283.5 269.1C301.5 271.3 319.4 274 337.4 276.4C355 278.7 372.7 280.6 390.3 282.9C403.9 284.7 417.3 286.9 430.9 288.7C445.1 290.5 459.3 291.8 473.5 293.6C490.4 295.8 507.4 298.3 524.3 300.8C533.3 302.1 533.3 302.3 533.3 311.5C533.3 336.2 533.3 360.8 533.3 385.5C533.3 387 533.3 388.5 533.3 390.8L533.3 390.7ZM427.3 352.8C434.5 352.8 441.6 352.8 448.8 352.8C453 352.8 457.1 353 461.3 352.8C466.5 352.5 469.5 349.6 469.3 345.3C469.1 341.3 466.1 338.9 461.1 338.8C455.7 338.8 450.3 338.8 444.9 338.8C427.9 338.8 410.9 338.8 393.9 338.8C390.5 338.8 385 342.9 385.7 345.8C386.3 348.2 389 350.3 391.2 352C392.3 352.9 394.3 352.8 395.9 352.8C406.4 352.8 416.9 352.8 427.3 352.8Z" fill="white"/>
</g>
<g clip-path="url(#clip1_33_130)">
<path d="M811.5 779.2C803.3 779.2 795.6 779.2 787.9 779.2C761 779.3 734.2 779.6 707.3 779.6C686.2 779.6 665.2 779.2 644.1 779.2C636.6 779.2 629.1 780.5 621.6 780.2C616.9 780 612.4 778 607.8 776.7C595.4 773.3 584.4 766.9 574.9 758.7C568.8 753.4 565.1 745.2 560.7 738.1C553.7 726.9 553.4 714.5 553.4 701.8C553.4 674.3 566.2 654.4 588.5 639.6C597.4 633.7 607.3 630.5 617.7 628.8C623.9 627.8 630.4 628.6 636.7 628.6C649.9 628.6 663 628.5 676.2 628.4C685.6 628.4 695.1 628.5 704.5 628.5C718.5 628.5 732.4 628.4 746.4 628.4C767.2 628.4 788 628.4 808.8 628.5C809.6 628.5 811 630.1 811 630.9C811.2 649.1 811.3 667.3 811.4 685.4C811.4 688.5 811.5 691.6 811 694.6C810.8 695.6 808.8 697 807.6 697C792.4 697.2 777.2 697.1 762 697.1C748.1 697.1 734.3 697.1 720.4 697.1C696.3 697.1 672.1 697.1 648 697.1C640.6 697.1 633.2 696.8 625.8 697.1C621.2 697.3 619.1 700.2 619.5 704.8C619.8 708.1 623.4 711.1 626.9 711.1C636.3 711 645.6 711 655 710.9C665.2 710.8 675.5 710.5 685.7 710.5C691.2 710.5 696.7 711.1 702.2 711.1C713.6 711.1 725.1 710.7 736.5 710.7C750.5 710.7 764.6 711 778.6 710.9C788 710.9 797.4 710.5 806.9 710.2C809.5 710.2 811.5 710.2 811.5 713.7C811.5 735.3 811.5 756.9 811.5 779.2Z" fill="white"/>
<path d="M557.6 788.8C561 789.1 563.1 789.4 565.2 789.4C630.2 789.4 695.1 789.4 760.1 789.4C775.7 789.4 791.3 789.5 806.8 789.3C810.2 789.3 811.2 790.4 811.1 793.5C810.7 809.4 810.3 825.2 810.2 841.1C810.1 852.1 811.1 863.2 810.1 874.2C809.3 882.2 806.9 890.3 803.5 897.6C794.2 917.8 777.7 930.4 756.7 936.7C749.3 938.9 741.2 939.1 733.4 939.3C717.9 939.7 702.4 939.4 686.9 939.4C671.4 939.4 649.8 939.4 631.2 939.4C611.8 939.4 595.3 932.2 581.3 919.1C570.7 909.2 562.9 897.3 559.8 883C558.1 874.9 558 866.5 557.8 858.2C557.5 838.7 557.6 819.3 557.6 799.8C557.6 796.1 557.6 792.4 557.6 788.8ZM684.3 871.4C703.3 871.4 722.3 871.4 741.2 871.4C746.1 871.4 749.9 868.6 749.9 865.2C749.9 860.3 746.7 857.5 741 857.4C734.8 857.4 728.6 857 722.4 857.1C700.9 857.1 679.4 857.3 657.9 857.4C647.9 857.4 638 857.4 628 857.4C622.1 857.4 619.1 860.2 619.1 865.1C619.1 869.5 621.8 871.4 627.8 871.4C646.6 871.4 665.4 871.4 684.2 871.4L684.3 871.4Z" fill="white"/>
<path d="M691.9 1258.4C691.9 1247.3 691.9 1236.7 691.9 1226.1C691.9 1220.6 691.9 1215.1 691.9 1209.5C691.9 1205.7 691.9 1201.9 691.4 1198.2C690.8 1194.2 691.9 1192.7 696.1 1192.8C710.7 1193 725.4 1192.8 740.1 1192.8C745 1192.8 747.4 1190.8 747.3 1186.6C747.3 1182.2 744.6 1180 739.7 1179.9C730 1179.8 720.3 1179.3 710.6 1179.3C695.4 1179.3 680.2 1179.6 665.1 1179.7C654.1 1179.7 643.1 1179.4 632.1 1179.6C629 1179.6 624.8 1178.2 623.1 1182.3C622.2 1184.5 621.3 1187.7 622.3 1189.5C623.2 1191.2 626.4 1192.7 628.6 1192.7C643.1 1193 657.6 1192.8 672.1 1192.9C674.2 1192.9 676.4 1193.5 678 1193.7L678 1258.8C670.6 1258.8 663.7 1258.8 656.8 1258.8C646.5 1258.9 636.2 1259.8 626 1259.3C613.6 1258.6 601.8 1254.9 591.3 1247.9C581.8 1241.6 573.6 1233.7 567.7 1223.8C561 1212.6 558 1200.6 557.8 1187.4C557.4 1165.6 565.5 1147.8 580.8 1133.1C593.5 1120.9 609 1113.9 626.7 1113.7C665.1 1113.3 703.5 1113.3 741.9 1113.6C756.4 1113.7 769.4 1119 781.4 1127.5C796.3 1138.1 805.5 1152.2 809.7 1169.6C812.3 1180.5 812.4 1191.4 810 1202.8C806.6 1218.6 798.8 1231.5 786.8 1241.7C776 1250.9 763.4 1257.4 749.1 1258.5C738 1259.4 726.8 1258.6 715.7 1258.7C708.6 1258.7 701.5 1259.1 694.4 1259.3C693.4 1259.3 692.4 1258.7 692.1 1258.5L691.9 1258.4Z" fill="white"/>
<path d="M811.5 587.2C726.7 598.1 642.4 608.9 557.8 619.8L557.8 549.2C575 549.2 591.9 549.2 608.7 549.2C610.7 549.2 612.7 548.4 614.7 547.7C618.3 546.4 619.5 543.5 618.3 540.1C617 536.7 614.2 535 610.2 535.1C593.2 535.4 576.2 535.4 559.2 535.5C558.7 535.5 558.3 535.1 557.5 534.8C557.5 515.4 557.5 496 557.5 476.5C557.5 474 557 471.4 557.7 469.1C558.1 467.6 560.5 465.5 561.7 465.6C579.7 467.8 597.6 470.5 615.6 472.9C633.2 475.2 650.9 477.1 668.5 479.4C682.1 481.2 695.5 483.4 709.1 485.2C723.3 487 737.5 488.3 751.7 490.1C768.6 492.3 785.6 494.8 802.5 497.3C811.5 498.6 811.5 498.8 811.5 507.9C811.5 532.6 811.5 557.2 811.5 581.9C811.5 583.4 811.5 584.9 811.5 587.2ZM705.5 549.2C712.7 549.2 719.8 549.2 727 549.2C731.2 549.2 735.3 549.4 739.5 549.2C744.7 548.9 747.7 546 747.5 541.7C747.3 537.7 744.3 535.3 739.3 535.2C733.9 535.2 728.5 535.2 723.1 535.2C706.1 535.2 689.1 535.2 672.1 535.2C668.7 535.2 663.2 539.3 663.9 542.2C664.5 544.6 667.2 546.7 669.4 548.4C670.5 549.3 672.5 549.2 674.1 549.2C684.6 549.2 695.1 549.2 705.5 549.2Z" fill="white"/>
<path d="M811.5 1069.6C726.7 1080.5 642.4 1091.3 557.8 1102.2L557.8 1031.6C575 1031.6 591.9 1031.6 608.7 1031.6C610.7 1031.6 612.7 1030.8 614.7 1030.1C618.3 1028.8 619.5 1025.9 618.3 1022.5C617 1019.1 614.2 1017.4 610.2 1017.5C593.2 1017.8 576.2 1017.8 559.2 1017.9C558.7 1017.9 558.3 1017.5 557.5 1017.2C557.5 997.8 557.5 978.4 557.5 958.9C557.5 956.4 557 953.8 557.7 951.5C558.1 950 560.5 947.9 561.7 948C579.7 950.2 597.6 952.9 615.6 955.3C633.2 957.6 650.9 959.5 668.5 961.8C682.1 963.6 695.5 965.8 709.1 967.6C723.3 969.4 737.5 970.7 751.7 972.5C768.6 974.7 785.6 977.2 802.5 979.7C811.5 981 811.5 981.2 811.5 990.4C811.5 1015.1 811.5 1039.7 811.5 1064.4C811.5 1065.9 811.5 1067.4 811.5 1069.7L811.5 1069.6ZM705.5 1031.7C712.7 1031.7 719.8 1031.7 727 1031.7C731.2 1031.7 735.3 1031.9 739.5 1031.7C744.7 1031.4 747.7 1028.5 747.5 1024.2C747.3 1020.2 744.3 1017.8 739.3 1017.7C733.9 1017.7 728.5 1017.7 723.1 1017.7C706.1 1017.7 689.1 1017.7 672.1 1017.7C668.7 1017.7 663.2 1021.8 663.9 1024.7C664.5 1027.1 667.2 1029.2 669.4 1030.9C670.5 1031.8 672.5 1031.7 674.1 1031.7C684.6 1031.7 695.1 1031.7 705.5 1031.7Z" fill="white"/>
<path d="M811.5 1339.6L557.7 1339.6C557.7 1317.7 557.7 1296.1 557.7 1274.4C557.7 1272.1 557.7 1270.5 561.3 1270.8C568.3 1271.4 575.4 1271.3 582.4 1271.3C596 1271.1 609.5 1270.7 623.1 1270.5C634.3 1270.4 645.6 1270.5 656.8 1270.5C668 1270.5 679.2 1270.6 690.4 1270.6C701.5 1270.6 712.7 1270.4 723.8 1270.6C732.7 1270.6 741.6 1271.3 750.6 1271.3C761.2 1271.3 771.7 1270.8 782.3 1270.7C791.2 1270.7 800 1270.9 808.9 1271.2C809.9 1271.2 811.7 1273 811.7 1274C811.8 1288.3 811.7 1302.6 811.7 1316.9C811.7 1324.3 811.7 1331.7 811.7 1339.7L811.5 1339.6Z" fill="white"/>
</g>
<g clip-path="url(#clip2_33_130)">
<path d="M254.471 294.047C254.471 298.804 254.471 303.35 254.471 307.92C254.471 309.795 254.471 311.669 254.471 313.544C254.471 314.317 254.283 314.645 253.44 314.692C250.534 314.856 247.628 315.137 244.722 315.325C241.629 315.536 238.513 315.629 235.42 315.864C233.076 316.028 230.756 316.332 228.436 316.543C227.733 316.614 227.03 316.59 226.327 316.614C225.531 316.661 224.734 317.504 224.734 318.231C224.734 318.887 225.765 319.801 226.491 319.801C228.858 319.754 231.225 319.637 233.592 319.66C238.302 319.66 243.012 319.777 247.722 319.801C249.667 319.801 251.588 319.683 253.533 319.613C254.049 319.613 254.471 319.613 254.471 320.293C254.471 324.862 254.471 329.408 254.471 334.165L195.068 334.165L195.068 313.778C195.958 313.684 196.919 313.591 197.88 313.497C201.535 313.216 205.167 312.911 208.823 312.677C211.354 312.513 213.884 312.466 216.415 312.302C217.868 312.208 219.321 311.95 220.774 311.786C221.5 311.716 222.25 311.669 223 311.669C224.031 311.693 224.711 311.154 224.757 310.17C224.804 309.302 224.008 308.342 223.187 308.342C220.985 308.342 218.782 308.318 216.603 308.342C213.908 308.389 211.236 308.506 208.542 308.529C204.394 308.576 200.223 308.529 196.075 308.529C195.349 308.529 195.044 308.459 195.068 307.522C195.185 303.491 195.325 299.461 195.091 295.43C194.997 293.79 195.63 293.977 196.661 293.977C215.548 293.977 234.412 293.977 253.299 293.977L254.471 293.977L254.471 294.047Z" fill="white"/>
<path d="M226.468 355.324C230.218 355.324 233.85 355.324 237.505 355.324C238.864 355.324 239.755 354.715 239.731 353.825C239.731 352.794 238.888 352.278 237.412 352.278C231.975 352.278 226.515 352.208 221.079 352.161C218.079 352.161 215.08 352.161 212.057 352.161C210.791 352.161 209.971 352.864 209.995 353.801C210.018 354.809 210.604 355.301 211.799 355.324C215.267 355.324 218.759 355.371 222.227 355.324C223.281 355.324 223.469 355.676 223.469 356.637C223.422 359.941 223.469 363.245 223.469 366.572C223.469 367.955 223.469 369.314 223.469 370.79C221.219 370.79 219.087 370.79 216.931 370.79C210.581 370.79 204.23 370.79 197.88 370.79C197.575 370.79 197.271 370.814 196.989 370.861C196.38 370.954 196.146 370.79 196.146 370.111C196.169 367.018 196.146 363.924 196.146 360.831C196.146 360.034 196.146 359.238 196.146 358.254C196.849 358.535 197.481 358.839 198.114 359.05C200.012 359.636 201.91 360.245 203.832 360.761C204.535 360.948 205.542 360.011 205.613 359.238C205.683 358.371 204.98 357.551 204.09 357.457C198.934 356.871 195.255 352.583 195.138 347.568C195.021 342.764 198.255 338.382 202.473 337.234C203.551 336.929 204.699 336.812 205.824 336.812C216.462 336.789 227.078 336.765 237.716 336.812C243.082 336.812 247.441 338.921 250.839 343.139C254.096 347.193 255.08 351.763 254.33 356.801C253.955 359.308 253.112 361.605 251.636 363.714C250.136 365.846 248.238 367.557 246.012 368.728C243.106 370.251 239.966 371.048 236.591 370.837C233.592 370.65 230.593 370.79 227.593 370.814C226.749 370.814 226.492 370.72 226.585 369.666C226.773 367.58 226.562 365.471 226.539 363.362C226.515 361.042 226.492 358.699 226.468 356.379C226.468 356.051 226.515 355.723 226.539 355.395L226.468 355.324Z" fill="white"/>
<path d="M254.517 292.056L195.044 292.056C195.044 286.924 195.044 281.862 195.044 276.777C195.044 276.238 195.044 275.863 195.887 275.934C197.527 276.074 199.191 276.051 200.832 276.051C204.018 276.004 207.182 275.91 210.369 275.863C212.993 275.84 215.641 275.863 218.266 275.863C220.89 275.863 223.515 275.887 226.139 275.887C228.74 275.887 231.365 275.84 233.966 275.887C236.052 275.887 238.137 276.051 240.246 276.051C242.73 276.051 245.191 275.934 247.674 275.91C249.76 275.91 251.822 275.957 253.908 276.027C254.142 276.027 254.564 276.449 254.564 276.684C254.587 280.035 254.564 283.385 254.564 286.736C254.564 288.471 254.564 290.205 254.564 292.079L254.517 292.056Z" fill="white"/>
<path d="M222.391 176.835C217.306 177.889 212.314 178.194 207.557 179.483C207.136 179.436 206.714 179.295 206.315 179.342C202.918 179.787 199.543 180.232 196.169 180.795C195.068 180.982 195.185 180.443 195.185 179.787C195.185 175.265 195.185 170.719 195.185 166.196C195.185 165.657 195.114 165.141 195.068 164.438C195.442 164.321 195.911 164.11 196.356 164.087C198.77 163.946 201.16 163.853 203.574 163.712C206.456 163.525 209.362 163.36 212.221 163.056C212.853 162.986 213.65 162.447 213.978 161.884C214.189 161.533 213.744 160.689 213.416 160.197C213.252 159.939 212.666 159.846 212.268 159.846C207.628 159.846 202.988 159.846 198.348 159.846C197.575 159.846 196.802 159.963 196.005 159.963C195.372 159.963 194.974 159.916 195.091 158.978C195.278 157.432 195.161 155.862 195.161 154.292C195.161 151.011 195.161 147.731 195.114 144.45C195.114 143.606 195.583 143.606 196.122 143.63C197.762 143.677 199.426 143.817 201.066 143.817C203.199 143.817 205.355 143.7 207.487 143.7C212.174 143.7 216.884 143.7 221.571 143.7C228.413 143.7 235.279 143.653 242.121 143.653C245.894 143.653 249.643 143.653 253.416 143.653C254.283 143.653 254.447 144.028 254.447 144.778C254.377 150.308 254.236 155.838 254.354 161.369C254.4 163.97 254.26 166.501 253.252 168.891C252.151 171.515 250.44 173.718 248.261 175.593C246.433 177.163 244.371 178.217 242.145 178.944C240.27 179.529 238.349 179.647 236.333 179.483C233.123 179.225 230.381 178.006 227.874 176.178C224.804 173.929 222.719 170.929 221.617 167.274C221.5 166.875 221.43 166.36 221.149 166.102C220.75 165.68 220.165 165.141 219.672 165.165C218.969 165.188 218.149 165.727 218.337 166.618C218.712 168.258 219.18 169.875 219.79 171.445C220.493 173.226 221.406 174.913 222.32 176.858L222.391 176.835ZM233.381 163.103C235.068 163.103 236.732 163.103 238.419 163.103C239.286 163.103 240.153 162.353 240.2 161.626C240.223 160.923 239.309 159.846 238.513 159.846C235.091 159.846 231.67 159.892 228.249 159.986C227.265 159.986 226.515 160.83 226.656 161.767C226.796 162.658 227.382 163.15 228.366 163.126C230.053 163.103 231.717 163.126 233.404 163.126L233.381 163.103Z" fill="white"/>
<path d="M232.959 273.754C232.959 271.481 232.959 269.255 232.959 267.052C232.959 264.31 232.982 261.592 232.959 258.851C232.959 257.913 233.357 257.749 234.154 257.796C235.583 257.866 237.036 257.937 238.466 257.913C239.543 257.913 240.27 257.093 240.246 256.156C240.223 255.359 239.426 254.703 238.372 254.656C237.364 254.633 236.333 254.679 235.325 254.586C233.615 254.422 232.537 255.265 231.857 256.671C231.131 258.124 230.569 259.647 229.842 261.077C228.155 264.31 226.866 267.825 223.984 270.309C222.156 271.879 220.07 272.746 217.727 273.285C214.821 273.941 211.916 273.988 209.01 273.59C207.487 273.379 206.011 272.746 204.558 272.207C201.582 271.106 199.332 269.044 197.481 266.56C195.958 264.521 194.95 262.225 194.435 259.764C193.544 255.5 194.2 251.375 196.356 247.626C198.746 243.478 202.121 240.596 206.924 239.284C209.502 238.581 212.033 238.675 214.611 238.557C215.267 238.534 216.087 238.346 216.509 238.675C216.837 238.932 216.649 239.846 216.673 240.455C216.72 243.221 216.79 245.962 216.813 248.727C216.813 250.297 216.79 251.891 216.837 253.461C216.884 254.328 216.79 254.726 215.712 254.633C214.306 254.492 212.853 254.633 211.447 254.656C210.486 254.656 209.69 255.359 209.596 256.226C209.526 256.999 210.275 257.866 211.213 257.913C212.736 257.983 214.282 258.077 215.782 257.89C217.212 257.702 217.891 256.413 218.5 255.242C219.813 252.664 221.125 250.11 222.297 247.462C224.452 242.611 228.014 239.659 233.334 238.909C237.903 238.253 242.402 238.276 246.55 240.666C251.705 243.666 254.986 248.024 255.548 254.117C255.876 257.585 255.689 260.983 253.955 264.193C252.525 266.841 250.604 268.997 248.214 270.684C244.839 273.074 241.02 274.106 236.849 273.777C235.654 273.684 234.458 273.777 233.052 273.777L232.959 273.754Z" fill="white"/>
<path d="M211.213 141.59L195.021 141.59L195.021 138.942C195.021 131.162 195.021 123.359 195.021 115.579C195.021 114.619 195.021 114.197 196.333 114.314C198.747 114.548 201.207 114.384 203.668 114.408C209.877 114.408 216.087 114.408 222.274 114.408C232.397 114.408 242.543 114.408 252.666 114.408C254.494 114.408 254.518 114.408 254.541 116.236C254.541 118.977 254.541 121.695 254.541 124.437C254.541 127.952 254.541 131.467 254.541 135.006C254.541 136.95 254.541 138.872 254.541 140.817C254.541 141.567 254.4 141.731 253.533 141.684C250.346 141.567 247.183 141.637 243.996 141.637C242.168 141.637 240.317 141.637 238.349 141.637C238.349 138.122 238.372 134.771 238.302 131.397C238.302 131.045 237.716 130.483 237.341 130.436C236.24 130.295 235.091 130.366 233.967 130.389C233.381 130.389 232.936 130.6 232.912 131.327C232.865 132.709 232.748 134.115 232.725 135.498C232.701 136.857 232.725 138.216 232.725 139.739C230.92 139.739 229.21 139.739 227.499 139.739C224.406 139.739 221.313 139.739 218.243 139.739C217.235 139.739 216.673 139.575 216.767 138.263C216.931 136.247 216.814 134.209 216.814 132.17C216.814 130.506 216.65 130.366 215.056 130.342C213.861 130.342 212.666 130.342 211.213 130.342L211.213 141.59Z" fill="white"/>
<path d="M194.974 208.446L194.974 192.605C195.372 192.558 195.841 192.488 196.333 192.488C209.76 192.488 223.211 192.488 236.638 192.488C238.396 192.488 238.419 192.441 238.419 190.73C238.419 188.153 238.419 185.599 238.419 182.951C238.771 182.927 239.028 182.904 239.286 182.904C243.973 182.904 248.659 182.927 253.346 182.88C254.447 182.88 254.635 183.326 254.611 184.263C254.565 187.309 254.611 190.356 254.541 193.402C254.518 195.159 254.307 196.917 254.33 198.674C254.33 200.971 254.541 203.267 254.588 205.564C254.635 208.446 254.588 211.328 254.588 214.211C254.588 215.265 254.588 216.32 254.588 217.374C254.588 218.03 254.354 218.288 253.698 218.288C250.112 218.241 246.527 218.241 242.942 218.218C241.442 218.218 239.942 218.218 238.419 218.218C238.419 215.804 238.419 213.484 238.419 211.164C238.419 210.672 238.279 210.157 238.255 209.665C238.185 208.704 237.693 208.587 236.779 208.61C234.459 208.68 232.116 208.516 229.796 208.469C228.413 208.446 227.031 208.469 225.648 208.469C223.188 208.516 220.75 208.61 218.29 208.633C214.798 208.657 211.283 208.68 207.792 208.633C205.167 208.61 202.566 208.469 199.942 208.446C198.489 208.446 197.036 208.54 195.583 208.587C195.372 208.587 195.138 208.493 194.951 208.446L194.974 208.446Z" fill="white"/>
<path d="M195.067 38.6494C195.864 38.7197 196.356 38.79 196.848 38.79C212.079 38.79 227.288 38.79 242.519 38.79C246.175 38.79 249.83 38.8134 253.462 38.7666C254.259 38.7666 254.494 39.0243 254.47 39.7508C254.376 43.4766 254.283 47.1791 254.259 50.905C254.236 53.4826 254.47 56.0837 254.236 58.6614C254.048 60.536 253.486 62.4341 252.689 64.1447C250.51 68.8782 246.643 71.8308 241.722 73.3071C239.988 73.8226 238.09 73.8695 236.263 73.9164C232.63 74.0101 228.998 73.9398 225.366 73.9398C221.734 73.9398 216.672 73.9398 212.314 73.9398C207.768 73.9398 203.901 72.2526 200.621 69.1829C198.137 66.863 196.309 64.0744 195.583 60.7235C195.184 58.8254 195.161 56.857 195.114 54.912C195.044 50.3426 195.067 45.7965 195.067 41.2271C195.067 40.36 195.067 39.493 195.067 38.6494ZM224.757 58.0052C229.209 58.0052 233.661 58.0052 238.09 58.0052C239.239 58.0052 240.129 57.3491 240.129 56.5524C240.129 55.4041 239.379 54.748 238.043 54.7246C236.591 54.7246 235.138 54.6308 233.685 54.6543C228.647 54.6543 223.609 54.7011 218.57 54.7246C216.227 54.7246 213.907 54.7246 211.564 54.7246C210.181 54.7246 209.478 55.3807 209.478 56.5289C209.478 57.56 210.111 58.0052 211.517 58.0052C215.923 58.0052 220.328 58.0052 224.733 58.0052L224.757 58.0052Z" fill="white"/>
<path d="M254.564 29.0175C234.693 31.5717 214.939 34.1025 195.114 36.6568L195.114 20.1129C199.145 20.1129 203.105 20.1129 207.042 20.1129C207.511 20.1129 207.979 19.9255 208.448 19.7614C209.292 19.4568 209.573 18.7772 209.292 17.9805C208.987 17.1838 208.331 16.7854 207.393 16.8088C203.41 16.8791 199.426 16.8791 195.443 16.9026C195.325 16.9026 195.232 16.8088 195.044 16.7385C195.044 12.1925 195.044 7.64647 195.044 3.07699C195.044 2.49116 194.927 1.8819 195.091 1.34294C195.185 0.99144 195.747 0.499344 196.028 0.522777C200.246 1.03831 204.441 1.671 208.659 2.2334C212.783 2.77236 216.931 3.21759 221.055 3.75656C224.242 4.17835 227.382 4.69389 230.569 5.11568C233.896 5.53748 237.224 5.84211 240.551 6.26391C244.512 6.77944 248.495 7.36527 252.455 7.9511C254.564 8.25573 254.564 8.3026 254.564 10.435C254.564 16.223 254.564 21.9876 254.564 27.7756C254.564 28.1271 254.564 28.4786 254.564 29.0175ZM229.725 20.1129C231.412 20.1129 233.076 20.1129 234.763 20.1129C235.748 20.1129 236.708 20.1598 237.693 20.1129C238.911 20.0426 239.614 19.3631 239.567 18.3554C239.52 17.4181 238.817 16.8557 237.646 16.8323C236.38 16.8323 235.115 16.8323 233.85 16.8323C229.866 16.8323 225.882 16.8323 221.899 16.8323C221.102 16.8323 219.813 17.793 219.977 18.4726C220.118 19.035 220.75 19.5271 221.266 19.9255C221.524 20.1364 221.992 20.1129 222.367 20.1129C224.828 20.1129 227.288 20.1129 229.725 20.1129Z" fill="white"/>
<path d="M195.021 104.613C195.021 102.293 195.021 100.325 195.021 98.3333C195.021 96.857 195.068 95.4041 195.044 93.9278C195.044 91.772 194.974 89.6161 194.927 87.4603C194.927 86.4058 194.857 85.3279 194.927 84.2734C194.927 84.039 195.302 83.6641 195.536 83.6407C198.536 83.2189 201.535 82.8439 204.558 82.4456C207.558 82.0472 210.557 81.6254 213.556 81.2271C218.243 80.6412 222.93 80.0788 227.616 79.493C231.366 79.0243 235.091 78.5088 238.841 78.0167C243.668 77.384 248.472 76.7513 253.299 76.1186C253.697 76.0718 254.072 76.0483 254.682 75.978C254.682 77.923 254.682 79.7742 254.682 81.6254C254.682 84.6014 254.682 87.554 254.682 90.53C254.682 91.3033 254.518 91.608 253.651 91.6314C249.245 91.6783 244.863 91.8189 240.458 91.9126C237.247 91.9829 234.037 92.0063 230.827 92.1001C228.53 92.1704 226.234 92.4281 223.937 92.4984C221.524 92.5687 219.11 92.4984 216.673 92.5453C214.939 92.5687 213.205 92.639 211.494 92.7562C210.58 92.8031 210.159 93.3654 210.159 94.3028C210.159 95.2401 210.627 95.8494 211.471 95.8728C213.627 95.9431 215.806 95.8728 217.962 95.8728C219.298 95.8728 220.633 96.0368 221.969 96.0603C223.398 96.0837 224.804 96.0603 226.234 96.0603C226.702 96.0603 227.195 96.0837 227.663 96.1306C228.999 96.2243 230.311 96.3415 231.647 96.3883C234.037 96.4821 236.404 96.5524 238.794 96.5758C241.02 96.5758 243.27 96.4586 245.496 96.5524C248.495 96.6461 251.495 96.8804 254.564 97.0679L254.564 112.323C234.646 109.745 214.775 107.168 195.068 104.613L195.021 104.613Z" fill="white"/>
<path d="M254.517 236.472L195.044 236.472C195.044 231.34 195.044 226.278 195.044 221.193C195.044 220.654 195.044 220.279 195.887 220.35C197.527 220.49 199.191 220.467 200.832 220.467C204.018 220.42 207.182 220.326 210.369 220.279C212.993 220.256 215.641 220.279 218.266 220.279C220.89 220.279 223.515 220.303 226.139 220.303C228.74 220.303 231.365 220.256 233.966 220.303C236.052 220.303 238.137 220.467 240.246 220.467C242.73 220.467 245.191 220.35 247.674 220.326C249.76 220.326 251.822 220.373 253.908 220.443C254.142 220.443 254.564 220.865 254.564 221.1C254.587 224.451 254.564 227.802 254.564 231.152C254.564 232.887 254.564 234.621 254.564 236.495L254.517 236.472Z" fill="white"/>
</g>
<g clip-path="url(#clip3_33_130)">
<path d="M189.903 201.182C189.903 205.939 189.903 210.485 189.903 215.054C189.903 216.929 189.903 218.804 189.903 220.678C189.903 221.451 189.716 221.78 188.872 221.826C185.967 221.99 183.061 222.272 180.155 222.459C177.062 222.67 173.945 222.764 170.852 222.998C168.509 223.162 166.189 223.467 163.869 223.678C163.166 223.748 162.463 223.724 161.76 223.748C160.963 223.795 160.167 224.638 160.167 225.365C160.167 226.021 161.198 226.935 161.924 226.935C164.291 226.888 166.658 226.771 169.024 226.794C173.734 226.794 178.444 226.911 183.155 226.935C185.1 226.935 187.021 226.818 188.966 226.747C189.482 226.747 189.903 226.747 189.903 227.427C189.903 231.996 189.903 236.542 189.903 241.299L130.5 241.299L130.5 220.913C131.391 220.819 132.351 220.725 133.312 220.631C136.968 220.35 140.6 220.045 144.255 219.811C146.786 219.647 149.317 219.6 151.848 219.436C153.301 219.342 154.754 219.085 156.206 218.921C156.933 218.85 157.683 218.804 158.433 218.804C159.464 218.827 160.143 218.288 160.19 217.304C160.237 216.437 159.44 215.476 158.62 215.476C156.417 215.476 154.215 215.453 152.035 215.476C149.34 215.523 146.669 215.64 143.974 215.663C139.827 215.71 135.655 215.663 131.508 215.663C130.781 215.663 130.477 215.593 130.5 214.656C130.617 210.625 130.758 206.595 130.524 202.564C130.43 200.924 131.063 201.111 132.094 201.111C150.981 201.111 169.845 201.111 188.732 201.111L189.903 201.111L189.903 201.182Z" fill="white"/>
<path d="M189.903 298.804C189.903 303.561 189.903 308.107 189.903 312.677C189.903 314.551 189.903 316.426 189.903 318.301C189.903 319.074 189.716 319.402 188.872 319.449C185.967 319.613 183.061 319.894 180.155 320.082C177.062 320.293 173.945 320.386 170.852 320.621C168.509 320.785 166.189 321.089 163.869 321.3C163.166 321.37 162.463 321.347 161.76 321.37C160.963 321.417 160.167 322.261 160.167 322.987C160.167 323.644 161.198 324.557 161.924 324.557C164.291 324.511 166.658 324.393 169.024 324.417C173.734 324.417 178.444 324.534 183.155 324.557C185.1 324.557 187.021 324.44 188.966 324.37C189.482 324.37 189.903 324.37 189.903 325.05C189.903 329.619 189.903 334.165 189.903 338.922L130.5 338.922L130.5 318.535C131.391 318.441 132.351 318.348 133.312 318.254C136.968 317.973 140.6 317.668 144.255 317.434C146.786 317.27 149.317 317.223 151.848 317.059C153.301 316.965 154.754 316.707 156.206 316.543C156.933 316.473 157.683 316.426 158.433 316.426C159.464 316.45 160.143 315.911 160.19 314.926C160.237 314.059 159.44 313.099 158.62 313.099C156.417 313.099 154.215 313.075 152.035 313.099C149.34 313.145 146.669 313.263 143.974 313.286C139.827 313.333 135.655 313.286 131.508 313.286C130.781 313.286 130.477 313.216 130.5 312.278C130.617 308.248 130.758 304.217 130.524 300.187C130.43 298.547 131.063 298.734 132.094 298.734C150.981 298.734 169.845 298.734 188.732 298.734L189.903 298.734L189.903 298.804Z" fill="white"/>
<path d="M161.947 360.129C165.814 360.129 169.586 360.129 173.359 360.129C174.765 360.129 175.679 359.496 175.679 358.582C175.679 357.527 174.789 356.988 173.289 356.965C167.665 356.965 162.041 356.895 156.417 356.848C153.3 356.848 150.207 356.848 147.091 356.848C145.778 356.848 144.935 357.574 144.958 358.558C144.982 359.59 145.591 360.129 146.833 360.129C150.418 360.129 154.027 360.175 157.612 360.129C158.69 360.129 158.901 360.48 158.877 361.464C158.831 364.885 158.877 368.307 158.854 371.728C158.854 373.157 158.854 374.563 158.854 376.087C156.534 376.087 154.308 376.087 152.105 376.087C145.544 376.087 138.959 376.087 132.398 376.087C132.093 376.087 131.789 376.11 131.484 376.157C130.851 376.251 130.594 376.087 130.617 375.384C130.64 372.197 130.617 368.986 130.617 365.776C130.617 364.956 130.617 364.112 130.617 363.105C131.343 363.409 132 363.714 132.656 363.925C134.624 364.534 136.592 365.143 138.584 365.706C139.311 365.893 140.365 364.932 140.412 364.136C140.482 363.245 139.756 362.402 138.842 362.308C133.523 361.699 129.703 357.27 129.586 352.067C129.469 347.1 132.796 342.577 137.178 341.382C138.303 341.077 139.475 340.937 140.646 340.937C151.637 340.913 162.627 340.89 173.617 340.937C179.171 340.937 183.67 343.116 187.185 347.475C190.536 351.669 191.567 356.379 190.793 361.605C190.418 364.206 189.528 366.573 188.005 368.752C186.458 370.955 184.49 372.712 182.17 373.931C179.171 375.501 175.913 376.321 172.422 376.11C169.329 375.922 166.212 376.063 163.119 376.087C162.252 376.087 161.994 375.993 162.088 374.915C162.275 372.759 162.064 370.556 162.041 368.4C162.017 365.987 161.994 363.573 161.971 361.183C161.971 360.855 162.017 360.503 162.041 360.175L161.947 360.129Z" fill="white"/>
<path d="M189.997 86.9448C189.997 91.069 189.997 95.2167 189.997 99.3878C189.997 101.637 189.997 103.864 190.02 106.113C190.091 109.464 188.942 112.37 186.998 115.018C184.537 118.345 181.139 120.267 177.132 120.923C169.469 122.141 162.627 117.619 160.143 110.448C159.838 109.581 159.721 108.644 159.581 107.753C159.44 106.933 158.386 105.762 157.8 105.832C157.05 105.949 156.206 106.98 156.394 107.941C156.722 109.722 157.261 111.432 157.659 113.19C157.776 113.705 157.893 114.385 157.659 114.783C154.871 119.236 150.91 121.626 145.568 121.837C142.709 121.931 140.037 121.368 137.741 119.845C136.007 118.697 134.507 117.103 133.148 115.51C131.508 113.588 131.016 111.104 130.688 108.644C130.57 107.847 130.734 107.004 130.688 106.183C130.641 104.684 130.524 103.184 130.5 101.661C130.477 97.3257 130.5 93.014 130.5 88.6789C130.5 88.2571 130.359 87.8118 130.43 87.4135C130.477 87.2026 130.828 86.8511 131.016 86.8511C139.78 86.8511 148.52 86.8511 157.284 86.8511C168.087 86.8511 178.89 86.8511 189.716 86.8276C189.786 86.8276 189.856 86.8979 189.997 86.9448ZM174.883 102.786C173.125 102.786 171.368 102.786 169.61 102.786C168.72 102.786 167.946 103.676 167.993 104.543C168.04 105.387 168.813 106.09 169.68 106.066C170.782 106.066 171.883 106.043 172.984 106.043C175.211 106.043 177.413 106.043 179.639 106.043C180.671 106.043 181.584 105.316 181.584 104.473C181.584 103.489 180.764 102.762 179.686 102.762C178.093 102.762 176.499 102.762 174.883 102.762L174.883 102.786ZM145.24 102.786C143.552 102.786 141.889 102.786 140.201 102.786C139.147 102.786 138.444 103.512 138.444 104.52C138.444 105.574 139.006 106.066 140.178 106.066C143.459 106.066 146.739 106.066 150.043 106.066C151.074 106.066 151.801 105.387 151.801 104.496C151.801 103.489 151.098 102.786 150.02 102.786C148.426 102.786 146.81 102.786 145.216 102.786L145.24 102.786Z" fill="white"/>
<path d="M189.951 296.813L130.477 296.813C130.477 291.681 130.477 286.62 130.477 281.535C130.477 280.996 130.477 280.621 131.321 280.691C132.961 280.832 134.625 280.808 136.265 280.808C139.452 280.761 142.615 280.668 145.802 280.621C148.427 280.597 151.075 280.621 153.699 280.621C156.324 280.621 158.948 280.644 161.573 280.644C164.174 280.644 166.799 280.597 169.4 280.644C171.485 280.644 173.571 280.808 175.68 280.808C178.164 280.808 180.624 280.691 183.108 280.668C185.194 280.668 187.256 280.715 189.341 280.785C189.576 280.785 189.997 281.207 189.997 281.441C190.021 284.792 189.997 288.143 189.997 291.494C189.997 293.228 189.997 294.962 189.997 296.837L189.951 296.813Z" fill="white"/>
<path d="M157.823 157.01C152.738 158.065 147.747 158.369 142.99 159.658C142.568 159.611 142.146 159.471 141.748 159.518C138.35 159.963 134.976 160.408 131.602 160.971C130.5 161.158 130.617 160.619 130.617 159.963C130.617 155.44 130.617 150.894 130.617 146.372C130.617 145.833 130.547 145.317 130.5 144.614C130.875 144.497 131.344 144.286 131.789 144.263C134.203 144.122 136.593 144.028 139.006 143.888C141.889 143.7 144.794 143.536 147.653 143.232C148.286 143.161 149.083 142.622 149.411 142.06C149.622 141.708 149.176 140.865 148.848 140.373C148.684 140.115 148.099 140.021 147.7 140.021C143.06 140.021 138.421 140.021 133.781 140.021C133.008 140.021 132.234 140.138 131.438 140.138C130.805 140.138 130.406 140.092 130.524 139.154C130.711 137.608 130.594 136.038 130.594 134.468C130.594 131.187 130.594 127.906 130.547 124.626C130.547 123.782 131.016 123.782 131.555 123.806C133.195 123.852 134.859 123.993 136.499 123.993C138.632 123.993 140.787 123.876 142.92 123.876C147.606 123.876 152.316 123.876 157.003 123.876C163.846 123.876 170.712 123.829 177.554 123.829C181.327 123.829 185.076 123.829 188.849 123.829C189.716 123.829 189.88 124.204 189.88 124.954C189.81 130.484 189.669 136.014 189.786 141.544C189.833 144.146 189.692 146.676 188.685 149.067C187.583 151.691 185.873 153.894 183.694 155.768C181.866 157.338 179.804 158.393 177.577 159.119C175.703 159.705 173.781 159.822 171.766 159.658C168.556 159.401 165.814 158.182 163.307 156.354C160.237 154.105 158.151 151.105 157.05 147.45C156.933 147.051 156.863 146.536 156.581 146.278C156.183 145.856 155.597 145.317 155.105 145.341C154.402 145.364 153.582 145.903 153.769 146.793C154.144 148.434 154.613 150.051 155.222 151.621C155.925 153.402 156.839 155.089 157.753 157.034L157.823 157.01ZM168.813 143.279C170.501 143.279 172.164 143.279 173.852 143.279C174.719 143.279 175.586 142.529 175.633 141.802C175.656 141.099 174.742 140.021 173.945 140.021C170.524 140.021 167.103 140.068 163.682 140.162C162.697 140.162 161.948 141.005 162.088 141.943C162.229 142.833 162.815 143.325 163.799 143.302C165.486 143.279 167.15 143.302 168.837 143.302L168.813 143.279Z" fill="white"/>
<path d="M130.501 243.292C131.297 243.362 131.789 243.433 132.281 243.433C147.513 243.433 162.721 243.433 177.953 243.433C181.608 243.433 185.264 243.456 188.896 243.409C189.693 243.409 189.927 243.667 189.904 244.393C189.81 248.119 189.716 251.822 189.693 255.548C189.669 258.125 189.904 260.726 189.669 263.304C189.482 265.179 188.92 267.077 188.123 268.787C185.943 273.521 182.077 276.473 177.156 277.95C175.422 278.465 173.524 278.512 171.696 278.559C168.064 278.653 164.432 278.582 160.8 278.582C157.168 278.582 152.106 278.582 147.747 278.582C143.201 278.582 139.335 276.895 136.054 273.825C133.57 271.506 131.743 268.717 131.016 265.366C130.618 263.468 130.594 261.5 130.547 259.555C130.477 254.985 130.501 250.439 130.501 245.87C130.501 245.003 130.501 244.136 130.501 243.292ZM160.19 262.648C164.643 262.648 169.095 262.648 173.524 262.648C174.672 262.648 175.563 261.992 175.563 261.195C175.563 260.047 174.813 259.391 173.477 259.367C172.024 259.367 170.571 259.273 169.118 259.297C164.08 259.297 159.042 259.344 154.004 259.367C151.661 259.367 149.341 259.367 146.998 259.367C145.615 259.367 144.912 260.023 144.912 261.172C144.912 262.203 145.545 262.648 146.951 262.648C151.356 262.648 155.762 262.648 160.167 262.648L160.19 262.648Z" fill="white"/>
<path d="M189.997 191.528C170.126 194.082 150.372 196.613 130.547 199.167L130.547 182.623C134.578 182.623 138.538 182.623 142.475 182.623C142.943 182.623 143.412 182.436 143.881 182.272C144.724 181.967 145.005 181.287 144.724 180.491C144.42 179.694 143.763 179.296 142.826 179.319C138.842 179.389 134.859 179.389 130.875 179.413C130.758 179.413 130.664 179.319 130.477 179.249C130.477 174.703 130.477 170.157 130.477 165.587C130.477 165.001 130.36 164.392 130.524 163.853C130.617 163.502 131.18 163.01 131.461 163.033C135.679 163.549 139.873 164.181 144.091 164.744C148.216 165.283 152.363 165.728 156.488 166.267C159.675 166.689 162.815 167.204 166.001 167.626C169.329 168.048 172.657 168.352 175.984 168.774C179.944 169.29 183.928 169.876 187.888 170.461C189.997 170.766 189.997 170.813 189.997 172.969C189.997 178.757 189.997 184.521 189.997 190.309C189.997 190.661 189.997 191.012 189.997 191.551L189.997 191.528ZM165.158 182.623C166.845 182.623 168.509 182.623 170.196 182.623C171.18 182.623 172.141 182.67 173.125 182.623C174.344 182.553 175.047 181.873 175 180.866C174.953 179.928 174.25 179.366 173.078 179.343C171.813 179.343 170.548 179.343 169.282 179.343C165.298 179.343 161.315 179.343 157.331 179.343C156.534 179.343 155.246 180.303 155.41 180.983C155.55 181.545 156.183 182.037 156.699 182.436C156.956 182.647 157.425 182.623 157.8 182.623C160.26 182.623 162.721 182.623 165.158 182.623Z" fill="white"/>
</g>
<g clip-path="url(#clip4_33_130)">
<path d="M65.8395 280.246C65.8395 277.527 65.8395 274.95 65.8395 272.372C65.8395 270.263 65.9566 268.131 65.9801 266.022C65.9801 265.412 65.7457 264.78 65.8629 264.194C65.9332 263.819 66.3784 263.256 66.7065 263.233C70.6433 262.694 74.6035 262.272 78.5637 261.757C82.4536 261.241 86.3435 260.655 90.2334 260.163C93.9124 259.695 97.5914 259.273 101.27 258.828C104.317 258.453 107.363 258.125 110.409 257.726C113.432 257.328 116.455 256.906 119.478 256.461C121.118 256.226 122.759 255.945 124.399 255.711C124.915 255.641 125.547 255.547 125.524 256.437C125.524 261.686 125.524 266.935 125.524 272.325C123.204 272.325 120.954 272.325 118.705 272.325C113.971 272.325 109.238 272.349 104.504 272.349C101.809 272.349 99.0911 272.278 96.3963 272.349C95.7636 272.349 95.0372 272.653 94.5217 273.028C94.2405 273.239 94.0764 273.989 94.217 274.34C94.4045 274.832 94.9435 275.489 95.3653 275.512C97.8961 275.629 100.403 275.559 102.934 275.559C104.903 275.559 106.871 275.559 108.839 275.559C111.323 275.535 113.807 275.418 116.291 275.395C118.517 275.395 120.743 275.465 122.97 275.512C123.79 275.512 124.61 275.512 125.43 275.512L125.43 290.134C123.673 290.134 121.892 290.134 120.111 290.134C116.408 290.134 112.706 290.064 109.003 290.064C104.715 290.064 100.45 290.064 96.162 290.111C94.9435 290.111 94.0764 290.767 94.0764 291.681C94.0764 292.689 94.8966 293.392 96.1386 293.392C105.395 293.392 114.651 293.392 123.907 293.392C124.329 293.392 124.727 293.321 125.289 293.274C125.36 293.649 125.477 294.048 125.477 294.446C125.477 299.156 125.477 303.89 125.5 308.6C125.5 309.678 125.032 309.888 124.165 309.771C121.306 309.373 118.424 308.951 115.565 308.576C112.589 308.201 109.613 307.85 106.637 307.475C103.661 307.1 100.661 306.678 97.6852 306.28C94.4279 305.835 91.1942 305.342 87.9369 304.944C84.3048 304.499 80.6492 304.147 77.0171 303.679C75.3065 303.468 73.6193 303.046 71.8852 302.788C70.2683 302.554 68.628 302.46 67.0111 302.273C66.3081 302.179 65.7692 302.179 65.816 301.007C66.0035 297.141 65.9332 293.251 65.9332 289.384C65.9332 288.189 65.7692 286.994 65.7926 285.799C65.7926 285.518 66.2847 285.026 66.5659 285.002C70.1043 284.862 73.6427 284.815 77.1811 284.698C80.1571 284.604 83.1331 284.44 86.1092 284.299C87.2808 284.253 88.2416 283.503 88.2181 282.706C88.1713 281.698 86.9059 280.972 85.6874 280.995C83.9533 281.066 82.2193 280.972 80.4852 280.902C79.8525 280.902 79.2198 280.738 78.5871 280.714C75.5642 280.62 72.5648 280.574 69.5419 280.456C68.2999 280.41 67.058 280.292 65.7692 280.222L65.8395 280.246Z" fill="white"/>
<path d="M125.476 341.29C125.476 345.414 125.476 349.561 125.476 353.733C125.476 355.982 125.476 358.208 125.5 360.458C125.57 363.809 124.422 366.715 122.477 369.362C120.017 372.69 116.619 374.612 112.612 375.268C104.949 376.486 98.1065 371.964 95.6226 364.793C95.3179 363.926 95.2008 362.989 95.0602 362.098C94.9196 361.278 93.8651 360.106 93.2792 360.177C92.5294 360.294 91.6858 361.325 91.8733 362.286C92.2013 364.067 92.7403 365.777 93.1386 367.535C93.2558 368.05 93.373 368.73 93.1386 369.128C90.3501 373.58 86.3899 375.971 81.0471 376.182C78.1883 376.275 75.5169 375.713 73.2204 374.19C71.4864 373.041 69.9867 371.448 68.6275 369.855C66.9872 367.933 66.4951 365.449 66.1671 362.989C66.0499 362.192 66.2139 361.348 66.1671 360.528C66.1202 359.028 66.003 357.529 65.9796 356.006C65.9562 351.67 65.9796 347.359 65.9796 343.024C65.9796 342.602 65.839 342.157 65.9093 341.758C65.9562 341.547 66.3077 341.196 66.4951 341.196C75.2591 341.196 83.9997 341.196 92.7637 341.196C103.566 341.196 114.369 341.196 125.195 341.172C125.266 341.172 125.336 341.243 125.476 341.29ZM110.362 357.107C108.605 357.107 106.847 357.107 105.09 357.107C104.199 357.107 103.426 357.997 103.473 358.864C103.52 359.708 104.293 360.411 105.16 360.388C106.261 360.388 107.363 360.364 108.464 360.364C110.69 360.364 112.893 360.364 115.119 360.364C116.15 360.364 117.064 359.638 117.064 358.794C117.064 357.81 116.244 357.083 115.166 357.083C113.572 357.083 111.979 357.083 110.362 357.083L110.362 357.107ZM80.7191 357.13C79.0319 357.13 77.3681 357.13 75.6809 357.13C74.6264 357.13 73.9234 357.857 73.9234 358.864C73.9234 359.919 74.4858 360.411 75.6575 360.411C78.9381 360.411 82.2188 360.411 85.5229 360.411C86.5539 360.411 87.2804 359.731 87.2804 358.841C87.2804 357.833 86.5774 357.13 85.4994 357.13C83.906 357.13 82.2891 357.13 80.6956 357.13L80.7191 357.13Z" fill="white"/>
<path d="M82.1252 339.11L65.9328 339.11L65.9328 336.462C65.9328 328.682 65.9328 320.879 65.9328 313.099C65.9328 312.138 65.9328 311.716 67.2451 311.834C69.6587 312.068 72.1192 311.904 74.5797 311.927C80.7895 311.927 86.9993 311.927 93.1856 311.927C103.309 311.927 113.455 311.927 123.578 311.927C125.406 311.927 125.43 311.927 125.453 313.755C125.453 316.497 125.453 319.215 125.453 321.957C125.453 325.472 125.453 328.987 125.453 332.525C125.453 334.47 125.453 336.392 125.453 338.336C125.453 339.086 125.313 339.25 124.445 339.204C121.259 339.086 118.095 339.157 114.908 339.157C113.08 339.157 111.229 339.157 109.261 339.157C109.261 335.642 109.284 332.291 109.214 328.916C109.214 328.565 108.628 328.002 108.253 327.956C107.152 327.815 106.004 327.885 104.879 327.909C104.293 327.909 103.848 328.12 103.824 328.846C103.777 330.229 103.66 331.635 103.637 333.017C103.613 334.376 103.637 335.735 103.637 337.259C101.832 337.259 100.122 337.259 98.4112 337.259C95.318 337.259 92.2249 337.259 89.1551 337.259C88.1475 337.259 87.5851 337.095 87.6788 335.782C87.8429 333.767 87.7257 331.728 87.7257 329.69C87.7257 328.026 87.5617 327.885 85.9682 327.862C84.7731 327.862 83.578 327.862 82.1252 327.862L82.1252 339.11Z" fill="white"/>
</g>
<g clip-path="url(#clip5_33_130)">
<path d="M60.8633 280.456C60.8633 285.213 60.8633 289.759 60.8633 294.329C60.8633 296.203 60.8633 298.078 60.8633 299.953C60.8633 300.726 60.6758 301.054 59.8322 301.101C56.9265 301.265 54.0208 301.546 51.1151 301.734C48.0219 301.944 44.9053 302.038 41.8121 302.272C39.4688 302.437 37.1489 302.741 34.829 302.952C34.126 303.022 33.423 302.999 32.72 303.022C31.9233 303.069 31.1266 303.913 31.1266 304.639C31.1266 305.295 32.1576 306.209 32.8841 306.209C35.2508 306.162 37.6176 306.045 39.9843 306.069C44.6944 306.069 49.4045 306.186 54.1145 306.209C56.0595 306.209 57.981 306.092 59.926 306.022C60.4415 306.022 60.8633 306.022 60.8633 306.701C60.8633 311.271 60.8633 315.817 60.8633 320.574L1.46015 320.574L1.46015 300.187C2.35061 300.093 3.31137 299.999 4.27213 299.906C7.92771 299.625 11.5599 299.32 15.2154 299.086C17.7462 298.922 20.277 298.875 22.8078 298.711C24.2606 298.617 25.7135 298.359 27.1664 298.195C27.8928 298.125 28.6426 298.078 29.3925 298.078C30.4236 298.101 31.1031 297.562 31.15 296.578C31.1969 295.711 30.4001 294.75 29.58 294.75C27.3773 294.75 25.1745 294.727 22.9952 294.75C20.3004 294.797 17.629 294.914 14.9342 294.938C10.7866 294.985 6.61545 294.938 2.46777 294.938C1.74135 294.938 1.43672 294.868 1.46015 293.93C1.57732 289.9 1.71791 285.869 1.48358 281.839C1.38985 280.198 2.02254 280.386 3.0536 280.386C21.9408 280.386 40.8045 280.386 59.6916 280.386L60.8633 280.386L60.8633 280.456Z" fill="white"/>
<path d="M17.6056 210.672L1.4133 210.672L1.4133 208.024C1.4133 200.245 1.4133 192.441 1.4133 184.661C1.4133 183.701 1.41331 183.279 2.72556 183.396C5.13918 183.63 7.59967 183.466 10.0602 183.49C16.2699 183.49 22.4797 183.49 28.6661 183.49C38.7892 183.49 48.9358 183.49 59.0589 183.49C60.8867 183.49 60.9102 183.49 60.9336 185.318C60.9336 188.059 60.9336 190.778 60.9336 193.519C60.9336 197.034 60.9336 200.549 60.9336 204.088C60.9336 206.033 60.9336 207.954 60.9336 209.899C60.9336 210.649 60.793 210.813 59.926 210.766C56.7391 210.649 53.5756 210.719 50.3887 210.719C48.5609 210.719 46.7096 210.719 44.7413 210.719C44.7413 207.204 44.7647 203.853 44.6944 200.479C44.6944 200.127 44.1086 199.565 43.7336 199.518C42.6323 199.377 41.484 199.448 40.3593 199.471C39.7734 199.471 39.3282 199.682 39.3048 200.409C39.2579 201.791 39.1407 203.197 39.1173 204.58C39.0939 205.939 39.1173 207.298 39.1173 208.821C37.3129 208.821 35.6023 208.821 33.8917 208.821C30.7985 208.821 27.7053 208.821 24.6356 208.821C23.628 208.821 23.0656 208.657 23.1593 207.345C23.3233 205.33 23.2062 203.291 23.2062 201.252C23.2062 199.588 23.0421 199.448 21.4487 199.424C20.2536 199.424 19.0585 199.424 17.6056 199.424L17.6056 210.672Z" fill="white"/>
<path d="M17.6056 278.371L1.4133 278.371L1.4133 275.723C1.4133 267.943 1.4133 260.14 1.4133 252.36C1.4133 251.399 1.41331 250.977 2.72556 251.094C5.13918 251.329 7.59967 251.165 10.0602 251.188C16.2699 251.188 22.4797 251.188 28.6661 251.188C38.7892 251.188 48.9358 251.188 59.0589 251.188C60.8867 251.188 60.9102 251.188 60.9336 253.016C60.9336 255.758 60.9336 258.476 60.9336 261.217C60.9336 264.732 60.9336 268.247 60.9336 271.786C60.9336 273.731 60.9336 275.652 60.9336 277.597C60.9336 278.347 60.793 278.511 59.926 278.464C56.7391 278.347 53.5756 278.417 50.3887 278.417C48.5609 278.417 46.7096 278.417 44.7413 278.417C44.7413 274.902 44.7647 271.551 44.6944 268.177C44.6944 267.826 44.1086 267.263 43.7336 267.216C42.6323 267.076 41.484 267.146 40.3593 267.169C39.7734 267.169 39.3282 267.38 39.3048 268.107C39.2579 269.489 39.1407 270.895 39.1173 272.278C39.0939 273.637 39.1173 274.996 39.1173 276.519C37.3129 276.519 35.6023 276.519 33.8917 276.519C30.7985 276.519 27.7053 276.519 24.6356 276.519C23.628 276.519 23.0656 276.355 23.1593 275.043C23.3233 273.028 23.2062 270.989 23.2062 268.95C23.2062 267.287 23.0421 267.146 21.4487 267.123C20.2536 267.123 19.0585 267.123 17.6056 267.123L17.6056 278.371Z" fill="white"/>
<path d="M1.36655 348.155L1.36655 332.314C1.76492 332.267 2.23358 332.197 2.72568 332.197C16.1529 332.197 29.6035 332.197 43.0308 332.197C44.7882 332.197 44.8117 332.15 44.8117 330.439C44.8117 327.862 44.8117 325.308 44.8117 322.66C45.1632 322.636 45.4209 322.613 45.6787 322.613C50.3653 322.613 55.052 322.636 59.7386 322.589C60.84 322.589 61.0274 323.035 61.004 323.972C60.9571 327.018 61.004 330.065 60.9337 333.111C60.9103 334.868 60.6994 336.626 60.7228 338.383C60.7228 340.68 60.9337 342.976 60.9806 345.273C61.0274 348.155 60.9806 351.037 60.9806 353.92C60.9806 354.974 60.9806 356.029 60.9806 357.083C60.9806 357.739 60.7462 357.997 60.0901 357.997C56.5048 357.95 52.9196 357.95 49.3343 357.927C47.8346 357.927 46.3348 357.927 44.8117 357.927C44.8117 355.513 44.8117 353.193 44.8117 350.873C44.8117 350.381 44.6711 349.866 44.6476 349.373C44.5773 348.413 44.0853 348.296 43.1714 348.319C40.8515 348.389 38.5082 348.225 36.1883 348.178C34.8057 348.155 33.4232 348.178 32.0406 348.178C29.5801 348.225 27.1431 348.319 24.6826 348.342C21.191 348.366 17.676 348.389 14.1845 348.342C11.56 348.319 8.9589 348.178 6.33439 348.155C4.88153 348.155 3.42867 348.249 1.97582 348.296C1.76492 348.296 1.53059 348.202 1.34312 348.155L1.36655 348.155Z" fill="white"/>
<path d="M1.41332 241.394C1.41332 239.074 1.41332 237.105 1.41332 235.114C1.41332 233.637 1.46019 232.184 1.43676 230.708C1.43676 228.552 1.36646 226.396 1.31959 224.241C1.31959 223.186 1.24929 222.108 1.31959 221.054C1.31959 220.819 1.69453 220.444 1.92886 220.421C4.92831 219.999 7.92775 219.624 10.9506 219.226C13.9501 218.827 16.9495 218.406 19.949 218.007C24.6356 217.422 29.3223 216.859 34.0089 216.273C37.7582 215.805 41.4841 215.289 45.2334 214.797C50.0606 214.164 54.8644 213.532 59.6917 212.899C60.09 212.852 60.465 212.829 61.0742 212.758C61.0742 214.703 61.0742 216.554 61.0742 218.406C61.0742 221.382 61.0742 224.334 61.0742 227.31C61.0742 228.084 60.9102 228.388 60.0432 228.412C55.6377 228.459 51.2557 228.599 46.8503 228.693C43.6399 228.763 40.4296 228.787 37.2192 228.88C34.9228 228.951 32.6263 229.208 30.3299 229.279C27.9163 229.349 25.5026 229.279 23.0656 229.326C21.3315 229.349 19.5975 229.419 17.8869 229.536C16.973 229.583 16.5512 230.146 16.5512 231.083C16.5512 232.02 17.0198 232.63 17.8634 232.653C20.0193 232.723 22.1986 232.653 24.3544 232.653C25.6901 232.653 27.0258 232.817 28.3615 232.841C29.7909 232.864 31.1969 232.841 32.6263 232.841C33.095 232.841 33.5871 232.864 34.0558 232.911C35.3914 233.005 36.7037 233.122 38.0394 233.169C40.4296 233.262 42.7963 233.333 45.1865 233.356C47.4127 233.356 49.6623 233.239 51.8884 233.333C54.8879 233.426 57.8873 233.661 60.9571 233.848L60.9571 249.103C41.0388 246.526 21.1675 243.948 1.46019 241.394L1.41332 241.394Z" fill="white"/>
<path d="M60.9095 376.181L1.43609 376.181C1.43609 371.049 1.43609 365.987 1.43609 360.902C1.43609 360.363 1.43609 359.988 2.27968 360.059C3.92001 360.199 5.58376 360.176 7.22408 360.176C10.411 360.129 13.5745 360.035 16.7614 359.988C19.3859 359.965 22.0339 359.988 24.6584 359.988C27.2829 359.988 29.9074 360.012 32.5319 360.012C35.133 360.012 37.7575 359.965 40.3586 360.012C42.4442 360.012 44.5297 360.176 46.6387 360.176C49.1226 360.176 51.5831 360.059 54.067 360.035C56.1526 360.035 58.2147 360.082 60.3003 360.152C60.5346 360.152 60.9564 360.574 60.9564 360.809C60.9798 364.16 60.9564 367.511 60.9564 370.861C60.9564 372.596 60.9564 374.33 60.9564 376.204L60.9095 376.181Z" fill="white"/>
</g>
<g clip-path="url(#clip6_33_130)">
<path d="M117.8 685.657C96.0996 690.157 74.7996 691.457 54.4996 696.957C52.6996 696.757 50.8996 696.157 49.1996 696.357C34.6996 698.257 20.2996 700.157 5.89961 702.557C1.19961 703.357 1.69961 701.057 1.69961 698.257C1.69961 678.957 1.69961 659.557 1.69961 640.257C1.69961 637.957 1.39961 635.757 1.19961 632.757C2.79961 632.257 4.79961 631.357 6.69961 631.257C16.9996 630.657 27.1996 630.257 37.4996 629.657C49.7996 628.857 62.1996 628.157 74.3996 626.857C77.0996 626.557 80.4996 624.257 81.8996 621.857C82.7996 620.357 80.8996 616.757 79.4996 614.657C78.7996 613.557 76.2996 613.157 74.5996 613.157C54.7996 613.157 34.9996 613.157 15.1996 613.157C11.8996 613.157 8.59961 613.657 5.19961 613.657C2.49961 613.657 0.799603 613.457 1.2996 609.457C2.0996 602.857 1.59961 596.157 1.59961 589.457C1.59961 575.457 1.59961 561.457 1.39961 547.457C1.39961 543.857 3.39962 543.857 5.69962 543.957C12.6996 544.157 19.7996 544.757 26.7996 544.757C35.8996 544.757 45.0996 544.257 54.1996 544.257C74.1996 544.257 94.2996 544.257 114.3 544.257C143.5 544.257 172.8 544.057 202 544.057C218.1 544.057 234.1 544.057 250.2 544.057C253.9 544.057 254.6 545.657 254.6 548.857C254.3 572.457 253.7 596.057 254.2 619.657C254.4 630.757 253.8 641.557 249.5 651.757C244.8 662.957 237.5 672.357 228.2 680.357C220.4 687.057 211.6 691.557 202.1 694.657C194.1 697.157 185.9 697.657 177.3 696.957C163.6 695.857 151.9 690.657 141.2 682.857C128.1 673.257 119.2 660.457 114.5 644.857C114 643.157 113.7 640.957 112.5 639.857C110.8 638.057 108.3 635.757 106.2 635.857C103.2 635.957 99.6996 638.257 100.5 642.057C102.1 649.057 104.1 655.957 106.7 662.657C109.7 670.257 113.6 677.457 117.5 685.757L117.8 685.657ZM164.7 627.057C171.9 627.057 179 627.057 186.2 627.057C189.9 627.057 193.6 623.857 193.8 620.757C193.9 617.757 190 613.157 186.6 613.157C172 613.157 157.4 613.357 142.8 613.757C138.6 613.757 135.4 617.357 136 621.357C136.6 625.157 139.1 627.257 143.3 627.157C150.5 627.057 157.6 627.157 164.8 627.157L164.7 627.057Z" fill="white"/>
<path d="M135.1 531.957C135.1 520.857 135.1 510.257 135.1 499.657C135.1 494.157 135.1 488.657 135.1 483.057C135.1 479.257 135.1 475.457 134.6 471.757C134 467.757 135.1 466.257 139.3 466.357C153.9 466.557 168.6 466.357 183.3 466.357C188.2 466.357 190.6 464.357 190.5 460.157C190.5 455.757 187.8 453.557 182.9 453.457C173.2 453.357 163.5 452.857 153.8 452.857C138.6 452.857 123.4 453.157 108.3 453.257C97.3001 453.257 86.3001 452.957 75.3001 453.157C72.2001 453.157 68.0001 451.757 66.3001 455.857C65.4001 458.057 64.5001 461.257 65.5001 463.057C66.4001 464.757 69.6001 466.257 71.8001 466.257C86.3001 466.557 100.8 466.357 115.3 466.457C117.4 466.457 119.6 467.057 121.2 467.257L121.2 532.357C113.8 532.357 106.9 532.357 100 532.357C89.7001 532.457 79.4001 533.357 69.2001 532.857C56.8001 532.157 45.0001 528.457 34.5001 521.457C25.0001 515.157 16.8001 507.257 10.9001 497.357C4.20013 486.157 1.20012 474.157 1.00012 460.957C0.60012 439.157 8.70012 421.357 24.0001 406.657C36.7001 394.457 52.2001 387.457 69.9001 387.257C108.3 386.857 146.7 386.857 185.1 387.157C199.6 387.257 212.6 392.557 224.6 401.057C239.4 411.557 248.6 425.657 252.8 443.157C255.4 454.057 255.5 464.957 253.1 476.357C249.7 492.157 241.9 505.057 229.9 515.257C219.1 524.457 206.5 530.957 192.2 532.057C181.1 532.957 169.9 532.157 158.8 532.257C151.7 532.257 144.6 532.657 137.5 532.857C136.5 532.857 135.5 532.257 135.2 532.057L135.1 531.957Z" fill="white"/>
<path d="M0.999598 1359.06C0.999598 1349.16 0.999599 1340.76 0.999599 1332.26C0.999599 1325.96 1.19961 1319.76 1.09961 1313.46C1.09961 1304.26 0.799607 1295.06 0.599607 1285.86C0.599607 1281.36 0.299608 1276.76 0.599608 1272.26C0.599608 1271.26 2.19961 1269.66 3.19961 1269.56C15.9996 1267.76 28.7996 1266.16 41.6996 1264.46C54.4996 1262.76 67.2996 1260.96 80.0996 1259.26C100.1 1256.76 120.1 1254.36 140.1 1251.86C156.1 1249.86 172 1247.66 188 1245.56C208.6 1242.86 229.1 1240.16 249.7 1237.46C251.4 1237.26 253 1237.16 255.6 1236.86C255.6 1245.16 255.6 1253.06 255.6 1260.96C255.6 1273.66 255.6 1286.26 255.6 1298.96C255.6 1302.26 254.9 1303.56 251.2 1303.66C232.4 1303.86 213.7 1304.46 194.9 1304.86C181.2 1305.16 167.5 1305.26 153.8 1305.66C144 1305.96 134.2 1307.06 124.4 1307.36C114.1 1307.66 103.8 1307.36 93.3996 1307.56C85.9996 1307.66 78.5996 1307.96 71.2996 1308.46C67.3996 1308.66 65.5996 1311.06 65.5996 1315.06C65.5996 1319.06 67.5996 1321.66 71.1996 1321.76C80.3996 1322.06 89.6996 1321.76 98.8996 1321.76C104.6 1321.76 110.3 1322.46 116 1322.56C122.1 1322.66 128.1 1322.56 134.2 1322.56C136.2 1322.56 138.3 1322.66 140.3 1322.86C146 1323.26 151.6 1323.76 157.3 1323.96C167.5 1324.36 177.6 1324.66 187.8 1324.76C197.3 1324.76 206.9 1324.26 216.4 1324.66C229.2 1325.06 242 1326.06 255.1 1326.86L255.1 1391.96C170.1 1380.96 85.2996 1369.96 1.19961 1359.06L0.999598 1359.06Z" fill="white"/>
<path d="M70.099 827.757L0.999018 827.757L0.999019 816.457C0.99902 783.257 0.999022 749.957 0.999023 716.757C0.999023 712.657 0.99903 710.857 6.59903 711.357C16.899 712.357 27.399 711.657 37.899 711.757C64.399 711.757 90.899 711.757 117.299 711.757C160.499 711.757 203.799 711.757 246.999 711.757C254.799 711.757 254.899 711.757 254.999 719.557C254.999 731.257 254.999 742.857 254.999 754.557C254.999 769.557 254.999 784.557 254.999 799.657C254.999 807.957 254.999 816.157 254.999 824.457C254.999 827.657 254.399 828.357 250.699 828.157C237.099 827.657 223.599 827.957 209.999 827.957C202.199 827.957 194.299 827.957 185.899 827.957C185.899 812.957 185.999 798.657 185.699 784.257C185.699 782.757 183.199 780.357 181.599 780.157C176.899 779.557 171.999 779.857 167.199 779.957C164.699 779.957 162.799 780.857 162.699 783.957C162.499 789.857 161.999 795.857 161.899 801.757C161.799 807.557 161.899 813.357 161.899 819.857C154.199 819.857 146.899 819.857 139.599 819.857C126.399 819.857 113.199 819.857 100.099 819.857C95.799 819.857 93.399 819.157 93.799 813.557C94.499 804.957 93.999 796.257 93.999 787.557C93.999 780.457 93.299 779.857 86.499 779.757C81.399 779.757 76.299 779.757 70.099 779.757L70.099 827.757Z" fill="white"/>
<path d="M0.799724 1108.56L0.799727 1040.96C2.49973 1040.76 4.49973 1040.46 6.59973 1040.46C63.8997 1040.46 121.3 1040.46 178.6 1040.46C186.1 1040.46 186.2 1040.26 186.2 1032.96C186.2 1021.96 186.2 1011.06 186.2 999.757C187.7 999.657 188.8 999.557 189.9 999.557C209.9 999.557 229.9 999.657 249.9 999.457C254.6 999.457 255.4 1001.36 255.3 1005.36C255.1 1018.36 255.3 1031.36 255 1044.36C254.9 1051.86 254 1059.36 254.1 1066.86C254.1 1076.66 255 1086.46 255.2 1096.26C255.4 1108.56 255.2 1120.86 255.2 1133.16C255.2 1137.66 255.2 1142.16 255.2 1146.66C255.2 1149.46 254.2 1150.56 251.4 1150.56C236.1 1150.36 220.8 1150.36 205.5 1150.26C199.1 1150.26 192.7 1150.26 186.2 1150.26C186.2 1139.96 186.2 1130.06 186.2 1120.16C186.2 1118.06 185.6 1115.86 185.5 1113.76C185.2 1109.66 183.1 1109.16 179.2 1109.26C169.3 1109.56 159.3 1108.86 149.4 1108.66C143.5 1108.56 137.6 1108.66 131.7 1108.66C121.2 1108.86 110.8 1109.26 100.3 1109.36C85.3997 1109.46 70.3997 1109.56 55.4997 1109.36C44.2997 1109.26 33.1997 1108.66 21.9997 1108.56C15.7997 1108.56 9.59973 1108.96 3.39973 1109.16C2.49973 1109.16 1.49973 1108.76 0.699733 1108.56L0.799724 1108.56Z" fill="white"/>
<path d="M254.899 1228.26L1.0991 1228.26C1.0991 1206.36 1.0991 1184.76 1.09911 1163.06C1.09911 1160.76 1.09911 1159.16 4.69911 1159.46C11.6991 1160.06 18.7991 1159.96 25.7991 1159.96C39.3991 1159.76 52.8991 1159.36 66.4991 1159.16C77.6991 1159.06 88.9991 1159.16 100.199 1159.16C111.399 1159.16 122.599 1159.26 133.799 1159.26C144.899 1159.26 156.099 1159.06 167.199 1159.26C176.099 1159.26 184.999 1159.96 193.999 1159.96C204.599 1159.96 215.099 1159.46 225.699 1159.36C234.599 1159.36 243.399 1159.56 252.299 1159.86C253.299 1159.86 255.099 1161.66 255.099 1162.66C255.199 1176.96 255.099 1191.26 255.099 1205.56C255.099 1212.96 255.099 1220.36 255.099 1228.36L254.899 1228.26Z" fill="white"/>
<path d="M254.899 1469.56L1.0991 1469.56C1.0991 1447.66 1.0991 1426.06 1.09911 1404.36C1.09911 1402.06 1.09911 1400.46 4.69911 1400.76C11.6991 1401.36 18.7991 1401.26 25.7991 1401.26C39.3991 1401.06 52.8991 1400.66 66.4991 1400.46C77.6991 1400.36 88.9991 1400.46 100.199 1400.46C111.399 1400.46 122.599 1400.56 133.799 1400.56C144.899 1400.56 156.099 1400.36 167.199 1400.56C176.099 1400.56 184.999 1401.26 193.999 1401.26C204.599 1401.26 215.099 1400.76 225.699 1400.66C234.599 1400.66 243.399 1400.86 252.299 1401.16C253.299 1401.16 255.099 1402.96 255.099 1403.96C255.199 1418.26 255.099 1432.56 255.099 1446.86C255.099 1454.26 255.099 1461.66 255.099 1469.66L254.899 1469.56Z" fill="white"/>
<path d="M255.1 958.257C170.3 969.157 85.9996 979.957 1.39961 990.857L1.39961 920.257C18.5996 920.257 35.4996 920.257 52.2996 920.257C54.2996 920.257 56.2996 919.457 58.2996 918.757C61.8996 917.457 63.0996 914.557 61.8996 911.157C60.5996 907.757 57.7996 906.057 53.7996 906.157C36.7996 906.457 19.7996 906.457 2.7996 906.557C2.2996 906.557 1.89961 906.157 1.09961 905.857C1.09961 886.457 1.09961 867.057 1.09961 847.557C1.09961 845.057 0.599606 842.457 1.29961 840.157C1.69961 838.657 4.09961 836.557 5.29961 836.657C23.2996 838.857 41.1996 841.557 59.1996 843.957C76.7996 846.257 94.4996 848.157 112.1 850.457C125.7 852.257 139.1 854.457 152.7 856.257C166.9 858.057 181.1 859.357 195.3 861.157C212.2 863.357 229.2 865.857 246.1 868.357C255.1 869.657 255.1 869.857 255.1 879.057C255.1 903.757 255.1 928.357 255.1 953.057C255.1 954.557 255.1 956.057 255.1 958.357L255.1 958.257ZM149.1 920.357C156.3 920.357 163.4 920.357 170.6 920.357C174.8 920.357 178.9 920.557 183.1 920.357C188.3 920.057 191.3 917.157 191.1 912.857C190.9 908.857 187.9 906.457 182.9 906.357C177.5 906.357 172.1 906.357 166.7 906.357C149.7 906.357 132.7 906.357 115.7 906.357C112.3 906.357 106.8 910.457 107.5 913.357C108.1 915.757 110.8 917.857 113 919.557C114.1 920.457 116.1 920.357 117.7 920.357C128.2 920.357 138.7 920.357 149.1 920.357Z" fill="white"/>
</g>
<defs>
<clipPath id="clip0_33_130">
<rect width="1804" height="254" fill="white" transform="translate(533.5 0.5) rotate(90)"/>
</clipPath>
<clipPath id="clip1_33_130">
<rect width="874" height="254" fill="white" transform="translate(811.5 465.5) rotate(90)"/>
</clipPath>
<clipPath id="clip2_33_130">
<rect width="375.657" height="59.5672" fill="white" transform="translate(254.564 0.5) rotate(90)"/>
</clipPath>
<clipPath id="clip3_33_130">
<rect width="289.4" height="59.5203" fill="white" transform="translate(189.997 86.7573) rotate(90)"/>
</clipPath>
<clipPath id="clip4_33_130">
<rect width="120.447" height="59.5203" fill="white" transform="translate(125.477 255.711) rotate(90)"/>
</clipPath>
<clipPath id="clip5_33_130">
<rect width="192.855" height="59.5203" fill="white" transform="translate(60.957 183.302) rotate(90)"/>
</clipPath>
<clipPath id="clip6_33_130">
<rect width="1083" height="255" fill="white" transform="translate(255.5 387.157) rotate(90)"/>
</clipPath>
</defs>
</svg>
