<svg width="1084" height="255" viewBox="0 0 1084 255" fill="none" xmlns="http://www.w3.org/2000/svg">
<g clip-path="url(#clip0_33_30)">
<path d="M299.157 137.7C303.657 159.4 304.957 180.7 310.457 201C310.257 202.8 309.657 204.6 309.857 206.3C311.757 220.8 313.657 235.2 316.057 249.6C316.857 254.3 314.557 253.8 311.757 253.8C292.457 253.8 273.057 253.8 253.757 253.8C251.457 253.8 249.257 254.1 246.257 254.3C245.757 252.7 244.857 250.7 244.757 248.8C244.157 238.5 243.757 228.3 243.157 218C242.357 205.7 241.657 193.3 240.357 181.1C240.057 178.4 237.757 175 235.357 173.6C233.857 172.7 230.257 174.6 228.157 176C227.057 176.7 226.657 179.2 226.657 180.9C226.657 200.7 226.657 220.5 226.657 240.3C226.657 243.6 227.157 246.9 227.157 250.3C227.157 253 226.957 254.7 222.957 254.2C216.357 253.4 209.657 253.9 202.957 253.9C188.957 253.9 174.957 253.9 160.957 254.1C157.357 254.1 157.357 252.1 157.457 249.8C157.657 242.8 158.257 235.7 158.257 228.7C158.257 219.6 157.757 210.4 157.757 201.3C157.757 181.3 157.757 161.2 157.757 141.2C157.757 112 157.557 82.7004 157.557 53.5004C157.557 37.4004 157.557 21.4004 157.557 5.30039C157.557 1.60039 159.157 0.900391 162.357 0.900391C185.957 1.20039 209.557 1.80039 233.157 1.30039C244.257 1.10039 255.057 1.70039 265.257 6.00039C276.457 10.7004 285.857 18.0004 293.857 27.3004C300.557 35.1004 305.057 43.9004 308.157 53.4004C310.657 61.4004 311.157 69.6004 310.457 78.2004C309.357 91.9004 304.157 103.6 296.357 114.3C286.757 127.4 273.957 136.3 258.357 141C256.657 141.5 254.457 141.8 253.357 143C251.557 144.7 249.257 147.2 249.357 149.3C249.457 152.3 251.757 155.8 255.557 155C262.557 153.4 269.457 151.4 276.157 148.8C283.757 145.8 290.957 141.9 299.257 138L299.157 137.7ZM240.557 90.8004C240.557 83.6004 240.557 76.5004 240.557 69.3004C240.557 65.6004 237.357 61.9004 234.257 61.7004C231.257 61.6004 226.657 65.5004 226.657 68.9004C226.657 83.5004 226.857 98.1004 227.257 112.7C227.257 116.9 230.857 120.1 234.857 119.5C238.657 118.9 240.757 116.4 240.657 112.2C240.557 105 240.657 97.9004 240.657 90.7004L240.557 90.8004Z" fill="white"/>
<path d="M145.457 120.4C134.357 120.4 123.757 120.4 113.157 120.4C107.657 120.4 102.157 120.4 96.5572 120.4C92.7572 120.4 88.9572 120.4 85.2572 120.9C81.2572 121.5 79.7572 120.4 79.8572 116.2C80.0572 101.6 79.8572 86.9004 79.8572 72.2004C79.8572 67.3004 77.8572 64.9004 73.6572 65.0004C69.2572 65.0004 67.0572 67.7004 66.9572 72.6004C66.8572 82.3004 66.3572 92.0004 66.3572 101.7C66.3572 116.9 66.6572 132.1 66.7572 147.2C66.7572 158.2 66.4572 169.2 66.6572 180.2C66.6572 183.3 65.2572 187.5 69.3572 189.2C71.5572 190.1 74.7572 191 76.5572 190C78.2572 189.1 79.7572 185.9 79.7572 183.7C80.0572 169.2 79.8572 154.7 79.9572 140.2C79.9572 138.1 80.5572 135.9 80.7572 134.3H145.857C145.857 141.7 145.857 148.6 145.857 155.5C145.957 165.8 146.857 176.1 146.357 186.3C145.657 198.7 141.957 210.5 134.957 221C128.657 230.5 120.757 238.7 110.857 244.6C99.6572 251.3 87.6572 254.3 74.4572 254.5C52.6572 254.9 34.8572 246.8 20.1572 231.5C7.9572 218.8 0.957203 203.3 0.757203 185.6C0.357203 147.2 0.357203 108.8 0.657203 70.4004C0.757203 55.9004 6.0572 42.9004 14.5572 30.9004C25.0572 16.1004 39.1572 6.90036 56.6572 2.70036C67.5572 0.100363 78.4572 0.000363231 89.8572 2.40036C105.657 5.80036 118.557 13.6004 128.757 25.6004C137.957 36.4004 144.457 49.0004 145.557 63.3004C146.457 74.4004 145.657 85.6004 145.757 96.7004C145.757 103.8 146.157 110.9 146.357 118C146.357 119 145.757 120 145.557 120.3L145.457 120.4Z" fill="white"/>
<path d="M972.557 254.5C962.657 254.5 954.257 254.5 945.757 254.5C939.457 254.5 933.257 254.3 926.957 254.4C917.757 254.4 908.557 254.7 899.357 254.9C894.857 254.9 890.257 255.2 885.757 254.9C884.757 254.9 883.157 253.3 883.057 252.3C881.257 239.5 879.657 226.7 877.957 213.8C876.257 201 874.457 188.2 872.757 175.4C870.257 155.4 867.857 135.4 865.357 115.4C863.357 99.4004 861.157 83.5004 859.057 67.5004C856.357 46.9004 853.657 26.4004 850.957 5.80039C850.757 4.10039 850.657 2.50039 850.357 -0.0996094C858.657 -0.0996094 866.557 -0.0996094 874.457 -0.0996094C887.157 -0.0996094 899.757 -0.0996094 912.457 -0.0996094C915.757 -0.0996094 917.057 0.600391 917.157 4.30039C917.357 23.1004 917.957 41.8004 918.357 60.6004C918.657 74.3004 918.757 88.0004 919.157 101.7C919.457 111.5 920.557 121.3 920.857 131.1C921.157 141.4 920.857 151.7 921.057 162.1C921.157 169.5 921.457 176.9 921.957 184.2C922.157 188.1 924.557 189.9 928.557 189.9C932.557 189.9 935.157 187.9 935.257 184.3C935.557 175.1 935.257 165.8 935.257 156.6C935.257 150.9 935.957 145.2 936.057 139.5C936.157 133.4 936.057 127.4 936.057 121.3C936.057 119.3 936.157 117.2 936.357 115.2C936.757 109.5 937.257 103.9 937.457 98.2004C937.857 88.0004 938.157 77.9004 938.257 67.7004C938.257 58.2004 937.757 48.6004 938.157 39.1004C938.557 26.3004 939.557 13.5004 940.357 0.400391H1005.46C994.457 85.4004 983.457 170.2 972.557 254.3V254.5Z" fill="white"/>
<path d="M441.257 185.4V254.5H429.957C396.757 254.5 363.457 254.5 330.257 254.5C326.157 254.5 324.357 254.5 324.857 248.9C325.857 238.6 325.157 228.1 325.257 217.6C325.257 191.1 325.257 164.6 325.257 138.2C325.257 95.0005 325.257 51.7005 325.257 8.50049C325.257 0.700488 325.257 0.600488 333.057 0.500488C344.757 0.500488 356.357 0.500488 368.057 0.500488C383.057 0.500488 398.057 0.500488 413.157 0.500488C421.457 0.500488 429.657 0.500488 437.957 0.500488C441.157 0.500488 441.857 1.10049 441.657 4.80049C441.157 18.4005 441.457 31.9005 441.457 45.5005C441.457 53.3005 441.457 61.2005 441.457 69.6005C426.457 69.6005 412.157 69.5005 397.757 69.8005C396.257 69.8005 393.857 72.3005 393.657 73.9005C393.057 78.6005 393.357 83.5005 393.457 88.3005C393.457 90.8005 394.357 92.7005 397.457 92.8005C403.357 93.0005 409.357 93.5005 415.257 93.6005C421.057 93.7005 426.857 93.6005 433.357 93.6005C433.357 101.3 433.357 108.6 433.357 115.9C433.357 129.1 433.357 142.3 433.357 155.4C433.357 159.7 432.657 162.1 427.057 161.7C418.457 161 409.757 161.5 401.057 161.5C393.957 161.5 393.357 162.2 393.257 169C393.257 174.1 393.257 179.2 393.257 185.4H441.257Z" fill="white"/>
<path d="M722.057 254.7H654.457C654.257 253 653.957 251 653.957 248.9C653.957 191.6 653.957 134.2 653.957 76.9003C653.957 69.4003 653.757 69.3003 646.457 69.3003C635.457 69.3003 624.557 69.3003 613.257 69.3003C613.157 67.8003 613.057 66.7003 613.057 65.6003C613.057 45.6003 613.157 25.6003 612.957 5.60026C612.957 0.900262 614.857 0.100262 618.857 0.200262C631.857 0.400262 644.857 0.200262 657.857 0.500262C665.357 0.600262 672.857 1.50026 680.357 1.40026C690.157 1.40026 699.957 0.500262 709.757 0.300262C722.057 0.100262 734.357 0.300262 746.657 0.300262C751.157 0.300262 755.657 0.300262 760.157 0.300262C762.957 0.300262 764.057 1.30026 764.057 4.10026C763.857 19.4003 763.857 34.7003 763.757 50.0003C763.757 56.4003 763.757 62.8003 763.757 69.3003C753.457 69.3003 743.557 69.3003 733.657 69.3003C731.557 69.3003 729.357 69.9003 727.257 70.0003C723.157 70.3003 722.657 72.4003 722.757 76.3003C723.057 86.2003 722.357 96.2003 722.157 106.1C722.057 112 722.157 117.9 722.157 123.8C722.357 134.3 722.757 144.7 722.857 155.2C722.957 170.1 723.057 185.1 722.857 200C722.757 211.2 722.157 222.3 722.057 233.5C722.057 239.7 722.457 245.9 722.657 252.1C722.657 253 722.257 254 722.057 254.8V254.7Z" fill="white"/>
<path d="M841.757 0.600401V254.4C819.857 254.4 798.257 254.4 776.557 254.4C774.257 254.4 772.657 254.4 772.957 250.8C773.557 243.8 773.457 236.7 773.457 229.7C773.257 216.1 772.857 202.6 772.657 189C772.557 177.8 772.657 166.5 772.657 155.3C772.657 144.1 772.757 132.9 772.757 121.7C772.757 110.6 772.557 99.4004 772.757 88.3004C772.757 79.4004 773.457 70.5004 773.457 61.5004C773.457 50.9004 772.957 40.4004 772.857 29.8004C772.857 20.9004 773.057 12.1004 773.357 3.2004C773.357 2.2004 775.157 0.400401 776.157 0.400401C790.457 0.300401 804.757 0.400401 819.057 0.400401C826.457 0.400401 833.857 0.400401 841.857 0.400401L841.757 0.600401Z" fill="white"/>
<path d="M1083.06 0.600401V254.4C1061.16 254.4 1039.56 254.4 1017.86 254.4C1015.56 254.4 1013.96 254.4 1014.26 250.8C1014.86 243.8 1014.76 236.7 1014.76 229.7C1014.56 216.1 1014.16 202.6 1013.96 189C1013.86 177.8 1013.96 166.5 1013.96 155.3C1013.96 144.1 1014.06 132.9 1014.06 121.7C1014.06 110.6 1013.86 99.4004 1014.06 88.3004C1014.06 79.4004 1014.76 70.5004 1014.76 61.5004C1014.76 50.9004 1014.26 40.4004 1014.16 29.8004C1014.16 20.9004 1014.36 12.1004 1014.66 3.2004C1014.66 2.2004 1016.46 0.400401 1017.46 0.400401C1031.76 0.300401 1046.06 0.400401 1060.36 0.400401C1067.76 0.400401 1075.16 0.400401 1083.16 0.400401L1083.06 0.600401Z" fill="white"/>
<path d="M571.757 0.400391C582.657 85.2004 593.457 169.5 604.357 254.1H533.757C533.757 236.9 533.757 220 533.757 203.2C533.757 201.2 532.957 199.2 532.257 197.2C530.957 193.6 528.057 192.4 524.657 193.6C521.257 194.9 519.557 197.7 519.657 201.7C519.957 218.7 519.957 235.7 520.057 252.7C520.057 253.2 519.657 253.6 519.357 254.4C499.957 254.4 480.557 254.4 461.057 254.4C458.557 254.4 455.957 254.9 453.657 254.2C452.157 253.8 450.057 251.4 450.157 250.2C452.357 232.2 455.057 214.3 457.457 196.3C459.757 178.7 461.657 161 463.957 143.4C465.757 129.8 467.957 116.4 469.757 102.8C471.557 88.6004 472.857 74.4004 474.657 60.2004C476.857 43.3004 479.357 26.3004 481.857 9.40039C483.157 0.400391 483.357 0.400391 492.557 0.400391C517.257 0.400391 541.857 0.400391 566.557 0.400391C568.057 0.400391 569.557 0.400391 571.857 0.400391H571.757ZM533.857 106.4C533.857 99.2004 533.857 92.1004 533.857 84.9004C533.857 80.7004 534.057 76.6004 533.857 72.4004C533.557 67.2004 530.657 64.2004 526.357 64.4004C522.357 64.6004 519.957 67.6004 519.857 72.6004C519.857 78.0004 519.857 83.4004 519.857 88.8004C519.857 105.8 519.857 122.8 519.857 139.8C519.857 143.2 523.957 148.7 526.857 148C529.257 147.4 531.357 144.7 533.057 142.5C533.957 141.4 533.857 139.4 533.857 137.8C533.857 127.3 533.857 116.8 533.857 106.4Z" fill="white"/>
</g>
<defs>
<clipPath id="clip0_33_30">
<rect width="1083" height="255" fill="white" transform="translate(0.657227)"/>
</clipPath>
</defs>
</svg>
