<svg width="874" height="254" viewBox="0 0 874 254" fill="none" xmlns="http://www.w3.org/2000/svg">
<g clip-path="url(#clip0_33_14)">
<path d="M313.7 0C313.7 8.2 313.7 15.9 313.7 23.6C313.8 50.5 314.1 77.3 314.1 104.2C314.1 125.3 313.7 146.3 313.7 167.4C313.7 174.9 315 182.4 314.7 189.9C314.5 194.6 312.5 199.1 311.2 203.7C307.8 216.1 301.4 227.1 293.2 236.6C287.9 242.7 279.7 246.4 272.6 250.8C261.4 257.8 249 258.1 236.3 258.1C208.8 258.1 188.9 245.3 174.1 223C168.2 214.1 165 204.2 163.3 193.8C162.3 187.6 163.1 181.1 163.1 174.8C163.1 161.6 163 148.5 162.9 135.3C162.9 125.9 163 116.4 163 107C163 93 162.9 79.1 162.9 65.1C162.9 44.3 162.9 23.5 163 2.7C163 1.9 164.6 0.5 165.4 0.5C183.6 0.3 201.8 0.2 219.9 0.1C223 0.1 226.1 0 229.1 0.5C230.1 0.7 231.5 2.7 231.5 3.9C231.7 19.1 231.6 34.3 231.6 49.5C231.6 63.4 231.6 77.2 231.6 91.1C231.6 115.2 231.6 139.4 231.6 163.5C231.6 170.9 231.3 178.3 231.6 185.7C231.8 190.3 234.7 192.4 239.3 192C242.6 191.7 245.6 188.1 245.6 184.6C245.5 175.2 245.5 165.9 245.4 156.5C245.3 146.3 245 136 245 125.8C245 120.3 245.6 114.8 245.6 109.3C245.6 97.9 245.2 86.4 245.2 75C245.2 61 245.5 46.9 245.4 32.9C245.4 23.5 245 14.1 244.7 4.6C244.7 2 244.7 0 248.2 0C269.8 0 291.4 0 313.7 0Z" fill="white"/>
<path d="M323.3 253.9C323.6 250.5 323.9 248.4 323.9 246.3C323.9 181.3 323.9 116.4 323.9 51.3998C323.9 35.7998 324 20.1998 323.8 4.69977C323.8 1.29977 324.9 0.299767 328 0.399767C343.9 0.799767 359.7 1.19977 375.6 1.29977C386.6 1.39977 397.7 0.399767 408.7 1.39977C416.7 2.19977 424.8 4.59977 432.1 7.99977C452.3 17.2998 464.9 33.7998 471.2 54.7998C473.4 62.1998 473.6 70.2998 473.8 78.0998C474.2 93.5998 473.9 109.1 473.9 124.6C473.9 140.1 473.9 161.7 473.9 180.3C473.9 199.7 466.7 216.2 453.6 230.2C443.7 240.8 431.8 248.6 417.5 251.7C409.4 253.4 401 253.5 392.7 253.7C373.2 254 353.8 253.9 334.3 253.9C330.6 253.9 326.9 253.9 323.3 253.9ZM405.9 127.2C405.9 108.2 405.9 89.1998 405.9 70.2998C405.9 65.3998 403.1 61.5998 399.7 61.5998C394.8 61.5998 392 64.7998 391.9 70.4998C391.9 76.6998 391.5 82.8998 391.6 89.0998C391.6 110.6 391.8 132.1 391.9 153.6C391.9 163.6 391.9 173.5 391.9 183.5C391.9 189.4 394.7 192.4 399.6 192.4C404 192.4 405.9 189.7 405.9 183.7C405.9 164.9 405.9 146.1 405.9 127.3V127.2Z" fill="white"/>
<path d="M792.9 119.6C781.8 119.6 771.2 119.6 760.6 119.6C755.1 119.6 749.6 119.6 744 119.6C740.2 119.6 736.4 119.6 732.7 120.1C728.7 120.7 727.2 119.6 727.3 115.4C727.5 100.8 727.3 86.1 727.3 71.4C727.3 66.5 725.3 64.1 721.1 64.2C716.7 64.2 714.5 66.9 714.4 71.8C714.3 81.5 713.8 91.2 713.8 100.9C713.8 116.1 714.1 131.3 714.2 146.4C714.2 157.4 713.9 168.4 714.1 179.4C714.1 182.5 712.7 186.7 716.8 188.4C719 189.3 722.2 190.2 724 189.2C725.7 188.3 727.2 185.1 727.2 182.9C727.5 168.4 727.3 153.9 727.4 139.4C727.4 137.3 728 135.1 728.2 133.5H793.3C793.3 140.9 793.3 147.8 793.3 154.7C793.4 165 794.3 175.3 793.8 185.5C793.1 197.9 789.4 209.7 782.4 220.2C776.1 229.7 768.2 237.9 758.3 243.8C747.1 250.5 735.1 253.5 721.9 253.7C700.1 254.1 682.3 246 667.6 230.7C655.4 218 648.4 202.5 648.2 184.8C647.8 146.4 647.8 108 648.1 69.6C648.2 55.1 653.5 42.1 662 30.1C672.6 15.2 686.7 5.99997 704.1 1.79997C715 -0.800027 725.9 -0.900027 737.3 1.49997C753.1 4.89997 766 12.7 776.2 24.7C785.4 35.5 791.9 48.1 793 62.4C793.9 73.5 793.1 84.7 793.2 95.8C793.2 102.9 793.6 110 793.8 117.1C793.8 118.1 793.2 119.1 793 119.4L792.9 119.6Z" fill="white"/>
<path d="M121.7 0C132.6 84.8 143.4 169.1 154.3 253.7H83.7001C83.7001 236.5 83.7001 219.6 83.7001 202.8C83.7001 200.8 82.9001 198.8 82.2001 196.8C80.9001 193.2 78.0001 192 74.6001 193.2C71.2001 194.5 69.5001 197.3 69.6001 201.3C69.9001 218.3 69.9001 235.3 70.0001 252.3C70.0001 252.8 69.6001 253.2 69.3001 254C49.9001 254 30.5001 254 11.0001 254C8.50012 254 5.90012 254.5 3.60012 253.8C2.10012 253.4 0.000122382 251 0.100122 249.8C2.30012 231.8 5.00012 213.9 7.40012 195.9C9.70012 178.3 11.6001 160.6 13.9001 143C15.7001 129.4 17.9001 116 19.7001 102.4C21.5001 88.2 22.8001 74 24.6001 59.8C26.8001 42.9 29.3001 25.9 31.8001 9C33.1001 0 33.3001 0 42.4001 0C67.1001 0 91.7001 0 116.4 0C117.9 0 119.4 0 121.7 0ZM83.7001 106C83.7001 98.8 83.7001 91.7 83.7001 84.5C83.7001 80.3 83.9001 76.2 83.7001 72C83.4001 66.8 80.5001 63.8 76.2001 64C72.2001 64.2 69.8001 67.2 69.7001 72.2C69.7001 77.6 69.7001 83 69.7001 88.4C69.7001 105.4 69.7001 122.4 69.7001 139.4C69.7001 142.8 73.8001 148.3 76.7001 147.6C79.1001 147 81.2001 144.3 82.9001 142.1C83.8001 141 83.7001 139 83.7001 137.4C83.7001 126.9 83.7001 116.4 83.7001 106Z" fill="white"/>
<path d="M604.1 0C615 84.8 625.8 169.1 636.7 253.7H566.1C566.1 236.5 566.1 219.6 566.1 202.8C566.1 200.8 565.3 198.8 564.6 196.8C563.3 193.2 560.4 192 557 193.2C553.6 194.5 551.9 197.3 552 201.3C552.3 218.3 552.3 235.3 552.4 252.3C552.4 252.8 552 253.2 551.7 254C532.3 254 512.9 254 493.4 254C490.9 254 488.3 254.5 486 253.8C484.5 253.4 482.4 251 482.5 249.8C484.7 231.8 487.4 213.9 489.8 195.9C492.1 178.3 494 160.6 496.3 143C498.1 129.4 500.3 116 502.1 102.4C503.9 88.2 505.2 74 507 59.8C509.2 42.9 511.7 25.9 514.2 9C515.5 0 515.7 0 524.9 0C549.6 0 574.2 0 598.9 0C600.4 0 601.9 0 604.2 0H604.1ZM566.2 106C566.2 98.8 566.2 91.7 566.2 84.5C566.2 80.3 566.4 76.2 566.2 72C565.9 66.8 563 63.8 558.7 64C554.7 64.2 552.3 67.2 552.2 72.2C552.2 77.6 552.2 83 552.2 88.4C552.2 105.4 552.2 122.4 552.2 139.4C552.2 142.8 556.3 148.3 559.2 147.6C561.6 147 563.7 144.3 565.4 142.1C566.3 141 566.2 139 566.2 137.4C566.2 126.9 566.2 116.4 566.2 106Z" fill="white"/>
<path d="M874.099 -0.000184461V253.8C852.199 253.8 830.6 253.8 808.9 253.8C806.6 253.8 805 253.8 805.3 250.2C805.9 243.2 805.8 236.1 805.8 229.1C805.6 215.5 805.2 202 805 188.4C804.9 177.2 805 165.9 805 154.7C805 143.5 805.099 132.3 805.099 121.1C805.099 110 804.899 98.7998 805.099 87.6998C805.099 78.7998 805.8 69.8998 805.8 60.8998C805.8 50.2998 805.3 39.7998 805.2 29.1998C805.2 20.2998 805.4 11.4998 805.7 2.59982C805.7 1.59982 807.5 -0.200184 808.5 -0.200184C822.8 -0.300184 837.1 -0.200184 851.4 -0.200184C858.8 -0.200184 866.2 -0.200184 874.2 -0.200184L874.099 -0.000184461Z" fill="white"/>
</g>
<defs>
<clipPath id="clip0_33_14">
<rect width="874" height="254" fill="white"/>
</clipPath>
</defs>
</svg>
