<svg width="1804" height="254" viewBox="0 0 1804 254" fill="none" xmlns="http://www.w3.org/2000/svg">
<g clip-path="url(#clip0_33_46)">
<path d="M88.9 0.600098C109.2 0.600098 128.6 0.600098 148.1 0.600098C156.1 0.600098 164.1 0.600098 172.1 0.600098C175.4 0.600098 176.8 1.4001 177 5.0001C177.7 17.4001 178.9 29.8001 179.7 42.2001C180.6 55.4001 181 68.7001 182 81.9001C182.7 91.9001 184 101.8 184.9 111.7C185.2 114.7 185.1 117.7 185.2 120.7C185.4 124.1 189 127.5 192.1 127.5C194.9 127.5 198.8 123.1 198.8 120C198.6 109.9 198.1 99.8001 198.2 89.7001C198.2 69.6001 198.7 49.5001 198.8 29.4001C198.8 21.1001 198.3 12.9001 198 4.6001C198 2.4001 198 0.600098 200.9 0.600098C220.4 0.600098 239.8 0.600098 260.1 0.600098V254.1H173.1C172.7 250.3 172.3 246.2 171.9 242.1C170.7 226.5 169.4 211 168.4 195.4C167.7 184.6 167.5 173.8 166.8 163C166.4 156.8 165.3 150.6 164.6 144.4C164.3 141.3 164.1 138.1 164.1 134.9C164.2 130.5 161.9 127.6 157.7 127.4C154 127.2 149.9 130.6 149.9 134.1C149.9 143.5 149.8 152.9 149.9 162.2C150.1 173.7 150.6 185.1 150.7 196.6C150.9 214.3 150.7 232.1 150.7 249.8C150.7 252.9 150.4 254.2 146.4 254.1C129.2 253.6 112 253 94.8 254C87.8 254.4 88.6 251.7 88.6 247.3C88.6 166.7 88.6 86.2001 88.6 5.6001V0.600098H88.9Z" fill="white"/>
<path d="M573 137.5C577.5 159.2 578.8 180.5 584.3 200.8C584.1 202.6 583.5 204.4 583.7 206.1C585.6 220.6 587.5 235 589.9 249.4C590.7 254.1 588.4 253.6 585.6 253.6C566.3 253.6 546.9 253.6 527.6 253.6C525.3 253.6 523.1 253.9 520.1 254.1C519.6 252.5 518.7 250.5 518.6 248.6C518 238.3 517.6 228.1 517 217.8C516.2 205.5 515.5 193.1 514.2 180.9C513.9 178.2 511.6 174.8 509.2 173.4C507.7 172.5 504.1 174.4 502 175.8C500.9 176.5 500.5 179 500.5 180.7C500.5 200.5 500.5 220.3 500.5 240.1C500.5 243.4 501 246.7 501 250.1C501 252.8 500.8 254.5 496.8 254C490.2 253.2 483.5 253.7 476.8 253.7C462.8 253.7 448.8 253.7 434.8 253.9C431.2 253.9 431.2 251.9 431.3 249.6C431.5 242.6 432.1 235.5 432.1 228.5C432.1 219.4 431.6 210.2 431.6 201.1C431.6 181.1 431.6 161 431.6 141C431.6 111.8 431.4 82.5002 431.4 53.3002C431.4 37.2002 431.4 21.2002 431.4 5.1002C431.4 1.4002 433 0.700195 436.2 0.700195C459.8 1.0002 483.4 1.6002 507 1.1002C518.1 0.900195 528.9 1.5002 539.1 5.8002C550.3 10.5002 559.7 17.8002 567.7 27.1002C574.4 34.9002 578.9 43.7002 582 53.2002C584.5 61.2002 585 69.4002 584.3 78.0002C583.2 91.7002 578 103.4 570.2 114.1C560.6 127.2 547.8 136.1 532.2 140.8C530.5 141.3 528.3 141.6 527.2 142.8C525.4 144.5 523.1 147 523.2 149.1C523.3 152.1 525.6 155.6 529.4 154.8C536.4 153.2 543.3 151.2 550 148.6C557.6 145.6 564.8 141.7 573.1 137.8L573 137.5ZM514.4 90.6002C514.4 83.4002 514.4 76.3002 514.4 69.1002C514.4 65.4002 511.2 61.7002 508.1 61.5002C505.1 61.4002 500.5 65.3002 500.5 68.7002C500.5 83.3002 500.7 97.9002 501.1 112.5C501.1 116.7 504.7 119.9 508.7 119.3C512.5 118.7 514.6 116.2 514.5 112C514.4 104.8 514.5 97.7002 514.5 90.5002L514.4 90.6002Z" fill="white"/>
<path d="M740.2 137.5C744.7 159.2 746 180.5 751.5 200.8C751.3 202.6 750.7 204.4 750.9 206.1C752.8 220.6 754.7 235 757.1 249.4C757.9 254.1 755.6 253.6 752.8 253.6C733.5 253.6 714.1 253.6 694.8 253.6C692.5 253.6 690.3 253.9 687.3 254.1C686.8 252.5 685.9 250.5 685.8 248.6C685.2 238.3 684.8 228.1 684.2 217.8C683.4 205.5 682.7 193.1 681.4 180.9C681.1 178.2 678.8 174.8 676.4 173.4C674.9 172.5 671.3 174.4 669.2 175.8C668.1 176.5 667.7 179 667.7 180.7C667.7 200.5 667.7 220.3 667.7 240.1C667.7 243.4 668.2 246.7 668.2 250.1C668.2 252.8 668 254.5 664 254C657.4 253.2 650.7 253.7 644 253.7C630 253.7 616 253.7 602 253.9C598.4 253.9 598.4 251.9 598.5 249.6C598.7 242.6 599.3 235.5 599.3 228.5C599.3 219.4 598.8 210.2 598.8 201.1C598.8 181.1 598.8 161 598.8 141C598.8 111.8 598.6 82.5002 598.6 53.3002C598.6 37.2002 598.6 21.2002 598.6 5.1002C598.6 1.4002 600.2 0.700195 603.4 0.700195C627 1.0002 650.6 1.6002 674.2 1.1002C685.3 0.900195 696.1 1.5002 706.3 5.8002C717.5 10.5002 726.9 17.8002 734.9 27.1002C741.6 34.9002 746.1 43.7002 749.2 53.2002C751.7 61.2002 752.2 69.4002 751.5 78.0002C750.4 91.7002 745.2 103.4 737.4 114.1C727.8 127.2 715 136.1 699.4 140.8C697.7 141.3 695.5 141.6 694.4 142.8C692.6 144.5 690.3 147 690.4 149.1C690.5 152.1 692.8 155.6 696.6 154.8C703.6 153.2 710.5 151.2 717.2 148.6C724.8 145.6 732 141.7 740.3 137.8L740.2 137.5ZM681.7 90.6002C681.7 83.4002 681.7 76.3002 681.7 69.1002C681.7 65.4002 678.5 61.7002 675.4 61.5002C672.4 61.4002 667.8 65.3002 667.8 68.7002C667.8 83.3002 668 97.9002 668.4 112.5C668.4 116.7 672 119.9 676 119.3C679.8 118.7 681.9 116.2 681.8 112C681.7 104.8 681.8 97.7002 681.8 90.5002L681.7 90.6002Z" fill="white"/>
<path d="M1373.6 0.200427C1391.2 0.200427 1408.9 0.200427 1426.7 0.200427C1436.3 0.200427 1445.8 0.200427 1455.4 0.100427C1469.7 -0.199573 1482.1 4.70043 1493.4 13.0004C1507.6 23.5004 1515.8 38.0004 1518.6 55.1004C1523.8 87.8004 1504.5 117 1473.9 127.6C1470.2 128.9 1466.2 129.4 1462.4 130C1458.9 130.6 1453.9 135.1 1454.2 137.6C1454.7 140.8 1459.1 144.4 1463.2 143.6C1470.8 142.2 1478.1 139.9 1485.6 138.2C1487.8 137.7 1490.7 137.2 1492.4 138.2C1511.4 150.1 1521.6 167 1522.5 189.8C1522.9 202 1520.5 213.4 1514 223.2C1509.1 230.6 1502.3 237 1495.5 242.8C1487.3 249.8 1476.7 251.9 1466.2 253.3C1462.8 253.8 1459.2 253.1 1455.7 253.3C1449.3 253.5 1442.9 254 1436.4 254.1C1417.9 254.2 1399.5 254.1 1381 254.1C1379.2 254.1 1377.3 254.7 1375.6 254.4C1374.7 254.2 1373.2 252.7 1373.2 251.9C1373.2 214.5 1373.2 177.2 1373.2 139.8C1373.2 93.7004 1373.2 47.6004 1373.1 1.40043C1373.1 1.10043 1373.4 0.800427 1373.6 0.200427ZM1441.2 64.7004C1441.2 72.2004 1441.2 79.7004 1441.2 87.2004C1441.2 91.0004 1445 94.3004 1448.7 94.1004C1452.3 93.9004 1455.3 90.6004 1455.2 86.9004C1455.2 82.2004 1455.1 77.5004 1455.1 72.8004C1455.1 63.3004 1455.1 53.9004 1455.1 44.4004C1455.1 40.0004 1452 36.1004 1448.4 36.1004C1444.2 36.1004 1441.1 39.6004 1441.1 44.2004C1441.1 51.0004 1441.1 57.8004 1441.1 64.7004H1441.2ZM1441.2 191.2C1441.2 198.4 1441.2 205.5 1441.2 212.7C1441.2 217.2 1444.3 220.2 1448.6 220.2C1453.1 220.2 1455.2 217.8 1455.2 212.8C1455.2 198.8 1455.2 184.8 1455.2 170.7C1455.2 166.3 1452.3 163.2 1448.5 163.2C1444.2 163.2 1441.2 166.2 1441.2 170.8C1441.2 177.6 1441.2 184.5 1441.2 191.3V191.2Z" fill="white"/>
<path d="M1041.8 92.4C1032.1 92.4 1022.6 92.4 1013.2 92.4C1001.5 92.4 989.9 92.3 978.2 92.4C974.2 92.4 973.5 90.7 973.7 87.3C974 81.2 974.3 75 974.2 68.9C974.2 64.3 970.7 61.2 966.7 61.3C963.3 61.4 960.5 64.8 960.3 69.3C960.2 73.6 960.4 78 960 82.3C959.3 89.6 962.9 94.2 968.9 97.1C975.1 100.2 981.6 102.6 987.7 105.7C1001.5 112.9 1016.5 118.4 1027.1 130.7C1033.8 138.5 1037.5 147.4 1039.8 157.4C1042.6 169.8 1042.8 182.2 1041.1 194.6C1040.2 201.1 1037.5 207.4 1035.2 213.6C1030.5 226.3 1021.7 235.9 1011.1 243.8C1002.4 250.3 992.6 254.6 982.1 256.8C963.9 260.6 946.3 257.8 930.3 248.6C912.6 238.4 900.3 224 894.7 203.5C891.7 192.5 892.1 181.7 891.6 170.7C891.5 167.9 890.7 164.4 892.1 162.6C893.2 161.2 897.1 162 899.7 161.9C911.5 161.7 923.2 161.4 935 161.3C941.7 161.3 948.5 161.4 955.2 161.2C958.9 161 960.6 161.4 960.2 166C959.6 172 960.2 178.2 960.3 184.2C960.3 188.3 963.3 191.7 967 192.1C970.3 192.4 974 189.2 974.2 185.2C974.5 178.7 974.9 172.1 974.1 165.7C973.3 159.6 967.8 156.7 962.8 154.1C951.8 148.5 940.9 142.9 929.6 137.9C908.9 128.7 896.3 113.5 893.1 90.8C890.3 71.3 890.4 52.1 900.6 34.4C913.4 12.4 932 -1.59996 958 -3.99996C972.8 -5.39996 987.3 -4.59996 1001 2.80004C1012.3 8.90004 1021.5 17.1 1028.7 27.3C1038.9 41.7 1043.3 58 1041.9 75.8C1041.5 80.9 1041.9 86 1041.9 92L1041.8 92.4Z" fill="white"/>
<path d="M1331.9 0.200195C1342.8 85.0002 1353.6 169.3 1364.5 253.9H1293.9C1293.9 236.7 1293.9 219.8 1293.9 203C1293.9 201 1293.1 199 1292.4 197C1291.1 193.4 1288.2 192.2 1284.8 193.4C1281.4 194.7 1279.7 197.5 1279.8 201.5C1280.1 218.5 1280.1 235.5 1280.2 252.5C1280.2 253 1279.8 253.4 1279.5 254.2C1260.1 254.2 1240.7 254.2 1221.2 254.2C1218.7 254.2 1216.1 254.7 1213.8 254C1212.3 253.6 1210.2 251.2 1210.3 250C1212.5 232 1215.2 214.1 1217.6 196.1C1219.9 178.5 1221.8 160.8 1224.1 143.2C1225.9 129.6 1228.1 116.2 1229.9 102.6C1231.7 88.4002 1233 74.2002 1234.8 60.0002C1237 43.1002 1239.5 26.1002 1242 9.2002C1243.3 0.200195 1243.5 0.200195 1252.7 0.200195C1277.4 0.200195 1302 0.200195 1326.7 0.200195C1328.2 0.200195 1329.7 0.200195 1332 0.200195H1331.9ZM1294 106.2C1294 99.0002 1294 91.9002 1294 84.7002C1294 80.5002 1294.2 76.4002 1294 72.2002C1293.7 67.0002 1290.8 64.0002 1286.5 64.2002C1282.5 64.4002 1280.1 67.4002 1280 72.4002C1280 77.8002 1280 83.2002 1280 88.6002C1280 105.6 1280 122.6 1280 139.6C1280 143 1284.1 148.5 1287 147.8C1289.4 147.2 1291.5 144.5 1293.2 142.3C1294.1 141.2 1294 139.2 1294 137.6C1294 127.1 1294 116.6 1294 106.2Z" fill="white"/>
<path d="M882.4 185.2V254.3H871.099C837.899 254.3 804.6 254.3 771.4 254.3C767.3 254.3 765.499 254.3 765.999 248.7C766.999 238.4 766.3 227.9 766.4 217.4C766.4 190.9 766.4 164.4 766.4 138C766.4 94.8003 766.4 51.5003 766.4 8.30029C766.4 0.500293 766.4 0.400293 774.2 0.300293C785.9 0.300293 797.5 0.300293 809.2 0.300293C824.2 0.300293 839.199 0.300293 854.299 0.300293C862.599 0.300293 870.799 0.300293 879.099 0.300293C882.299 0.300293 882.999 0.900293 882.799 4.60029C882.299 18.2003 882.599 31.7003 882.599 45.3003C882.599 53.1003 882.599 61.0003 882.599 69.4003C867.599 69.4003 853.3 69.3003 838.9 69.6003C837.4 69.6003 834.999 72.1003 834.799 73.7003C834.199 78.4003 834.499 83.3003 834.599 88.1003C834.599 90.6003 835.499 92.5003 838.599 92.6003C844.499 92.8003 850.5 93.3003 856.4 93.4003C862.2 93.5003 867.999 93.4003 874.499 93.4003C874.499 101.1 874.499 108.4 874.499 115.7C874.499 128.9 874.499 142.1 874.499 155.2C874.499 159.5 873.8 161.9 868.2 161.5C859.6 160.8 850.9 161.3 842.2 161.3C835.1 161.3 834.5 162 834.4 168.8C834.4 173.9 834.4 179 834.4 185.2H882.4Z" fill="white"/>
<path d="M1159.8 254.5H1092.2C1092 252.8 1091.7 250.8 1091.7 248.7C1091.7 191.4 1091.7 134 1091.7 76.7001C1091.7 69.2001 1091.5 69.1001 1084.2 69.1001C1073.2 69.1001 1062.3 69.1001 1051 69.1001C1050.9 67.6001 1050.8 66.5001 1050.8 65.4001C1050.8 45.4001 1050.9 25.4001 1050.7 5.40007C1050.7 0.700067 1052.6 -0.099933 1056.6 6.69593e-05C1069.6 0.200067 1082.6 6.69658e-05 1095.6 0.300067C1103.1 0.400067 1110.6 1.30007 1118.1 1.20007C1127.9 1.20007 1137.7 0.300067 1147.5 0.100067C1159.8 -0.099933 1172.1 0.100067 1184.4 0.100067C1188.9 0.100067 1193.4 0.100067 1197.9 0.100067C1200.7 0.100067 1201.8 1.10007 1201.8 3.90007C1201.6 19.2001 1201.6 34.5001 1201.5 49.8001C1201.5 56.2001 1201.5 62.6001 1201.5 69.1001C1191.2 69.1001 1181.3 69.1001 1171.4 69.1001C1169.3 69.1001 1167.1 69.7001 1165 69.8001C1160.9 70.1001 1160.4 72.2001 1160.5 76.1001C1160.8 86.0001 1160.1 96.0001 1159.9 105.9C1159.8 111.8 1159.9 117.7 1159.9 123.6C1160.1 134.1 1160.5 144.5 1160.6 155C1160.7 169.9 1160.8 184.9 1160.6 199.8C1160.5 211 1159.9 222.1 1159.8 233.3C1159.8 239.5 1160.2 245.7 1160.4 251.9C1160.4 252.8 1160 253.8 1159.8 254.6V254.5Z" fill="white"/>
<path d="M1608.8 253.9C1608.8 241.6 1608.8 230.1 1608.8 218.5C1608.8 206 1608.8 193.6 1608.8 181.1C1608.8 138.3 1608.8 95.5001 1608.8 52.6001C1608.8 46.1001 1609.1 39.5001 1608.8 33.0001C1608.3 23.3001 1610.2 13.5001 1609.1 3.8001C1609 2.9001 1611.5 0.800098 1612.7 0.800098C1626.2 0.600098 1639.8 0.700098 1653.3 0.700098C1653.6 1.9001 1653.9 2.9001 1654.4 4.6001C1654.9 2.8001 1655.2 1.8001 1655.5 0.800098C1662.7 0.300098 1669.9 3.3001 1677.4 0.100098C1677.4 8.1001 1677.4 15.1001 1677.4 22.1001C1677.4 35.8001 1677.8 49.6001 1677.7 63.3001C1677.7 72.9001 1677 82.6001 1677 92.2001C1677 99.5001 1677.6 106.8 1677.7 114.1C1677.7 124.7 1677.5 135.3 1677.5 145.8C1677.5 152.2 1677.3 158.7 1677.8 165.1C1678.7 177.5 1670.4 191.1 1658.6 195.7C1655.7 196.8 1653.7 201.8 1655.1 204.7C1656.7 208.3 1661.9 209.8 1666.2 207.8C1675.1 203.7 1682.6 198 1687.8 189.5C1689.5 186.7 1691.6 185.4 1695.1 185.5C1704.1 185.8 1713.1 185.8 1722 185.7C1724.6 185.7 1725.6 186.2 1725.5 188.9C1725.3 196.4 1725.1 204 1725.1 211.5C1725.1 221.9 1725.3 232.3 1725.7 242.7C1726.2 254.4 1725.8 254.5 1714.4 254.2C1699 253.7 1683.5 253.8 1668 253.8C1648.5 253.8 1629 253.8 1608.7 253.8L1608.8 253.9Z" fill="white"/>
<path d="M1803.6 0.400206V254.2C1781.7 254.2 1760.1 254.2 1738.4 254.2C1736.1 254.2 1734.5 254.2 1734.8 250.6C1735.4 243.6 1735.3 236.5 1735.3 229.5C1735.1 215.9 1734.7 202.4 1734.5 188.8C1734.4 177.6 1734.5 166.3 1734.5 155.1C1734.5 143.9 1734.6 132.7 1734.6 121.5C1734.6 110.4 1734.4 99.2002 1734.6 88.1002C1734.6 79.2002 1735.3 70.3002 1735.3 61.3002C1735.3 50.7002 1734.8 40.2002 1734.7 29.6002C1734.7 20.7002 1734.9 11.9002 1735.2 3.00021C1735.2 2.00021 1737 0.200206 1738 0.200206C1752.3 0.100206 1766.6 0.200206 1780.9 0.200206C1788.3 0.200206 1795.7 0.200206 1803.7 0.200206L1803.6 0.400206Z" fill="white"/>
<path d="M1600.1 0.400206V254.2C1578.2 254.2 1556.6 254.2 1534.9 254.2C1532.6 254.2 1531 254.2 1531.3 250.6C1531.9 243.6 1531.8 236.5 1531.8 229.5C1531.6 215.9 1531.2 202.4 1531 188.8C1530.9 177.6 1531 166.3 1531 155.1C1531 143.9 1531.1 132.7 1531.1 121.5C1531.1 110.4 1530.9 99.2002 1531.1 88.1002C1531.1 79.2002 1531.8 70.3002 1531.8 61.3002C1531.8 50.7002 1531.3 40.2002 1531.2 29.6002C1531.2 20.7002 1531.4 11.9002 1531.7 3.00021C1531.7 2.00021 1533.5 0.200206 1534.5 0.200206C1548.8 0.100206 1563.1 0.200206 1577.4 0.200206C1584.8 0.200206 1592.2 0.200206 1600.2 0.200206L1600.1 0.400206Z" fill="white"/>
<path d="M69.4003 0.400206V254.2C47.5003 254.2 25.9003 254.2 4.20031 254.2C1.90031 254.2 0.300305 254.2 0.600305 250.6C1.2003 243.6 1.1003 236.5 1.1003 229.5C0.900305 215.9 0.500304 202.4 0.300304 188.8C0.200304 177.6 0.300304 166.3 0.300304 155.1C0.300304 143.9 0.400304 132.7 0.400304 121.5C0.400304 110.4 0.200304 99.2002 0.400304 88.1002C0.400304 79.2002 1.1003 70.3002 1.1003 61.3002C1.1003 50.7002 0.600305 40.2002 0.500305 29.6002C0.500305 20.7002 0.700305 11.9002 1.0003 3.00021C1.0003 2.00021 2.8003 0.200206 3.8003 0.200206C18.1003 0.100206 32.4003 0.200206 46.7003 0.200206C54.1003 0.200206 61.5003 0.200206 69.5003 0.200206L69.4003 0.400206Z" fill="white"/>
<path d="M390.2 0.200195C401.1 85.0002 411.9 169.3 422.8 253.9H352.2C352.2 236.7 352.2 219.8 352.2 203C352.2 201 351.4 199 350.7 197C349.4 193.4 346.5 192.2 343.1 193.4C339.7 194.7 338 197.5 338.1 201.5C338.4 218.5 338.4 235.5 338.5 252.5C338.5 253 338.1 253.4 337.8 254.2C318.4 254.2 299 254.2 279.5 254.2C277 254.2 274.4 254.7 272.1 254C270.6 253.6 268.5 251.2 268.6 250C270.8 232 273.5 214.1 275.9 196.1C278.2 178.5 280.1 160.8 282.4 143.2C284.2 129.6 286.4 116.2 288.2 102.6C290 88.4002 291.3 74.2002 293.1 60.0002C295.3 43.1002 297.8 26.1002 300.3 9.2002C301.6 0.200195 301.8 0.200195 311 0.200195C335.7 0.200195 360.3 0.200195 385 0.200195C386.5 0.200195 388 0.200195 390.3 0.200195H390.2ZM352.3 106.2C352.3 99.0002 352.3 91.9002 352.3 84.7002C352.3 80.5002 352.5 76.4002 352.3 72.2002C352 67.0002 349.1 64.0002 344.8 64.2002C340.8 64.4002 338.4 67.4002 338.3 72.4002C338.3 77.8002 338.3 83.2002 338.3 88.6002C338.3 105.6 338.3 122.6 338.3 139.6C338.3 143 342.4 148.5 345.3 147.8C347.7 147.2 349.8 144.5 351.5 142.3C352.4 141.2 352.3 139.2 352.3 137.6C352.3 127.1 352.3 116.6 352.3 106.2Z" fill="white"/>
</g>
<defs>
<clipPath id="clip0_33_46">
<rect width="1804" height="254" fill="white"/>
</clipPath>
</defs>
</svg>
