<svg width="754" height="204" viewBox="0 0 754 204" fill="none" xmlns="http://www.w3.org/2000/svg">
<mask id="path-1-inside-1_31_107" fill="white">
<path d="M234.3 101.5C234.3 70.9999 234.3 40.4999 234.3 9.99992C234.3 0.999925 234.3 0.899924 243.6 0.899924C261.8 0.899924 279.9 0.699924 298.1 0.899924C325.5 1.29992 348.8 20.5999 354.8 47.1999C360.6 72.5999 344.6 101 319.2 110.6C316.9 111.5 314.5 112.2 312.1 113C308.8 114.2 306.3 116.1 307.5 120C308.8 124.1 312 124.7 315.6 123.5C320.8 121.7 325.9 119.7 331 117.6C334.7 116.1 338.2 114.2 341.9 112.5C345.6 110.7 347.4 111.8 348 115.9C351.3 139 354.8 162 358.2 185.1C358.8 189.2 359.4 193.3 360 197.5C360.5 200.8 359.5 202.6 355.9 202.6C340.4 202.6 324.9 202.6 309.4 202.6C305.8 202.6 304.4 200.6 304.1 197.3C303.2 184.7 302.2 172.1 301.3 159.4C301 154.8 300.6 150.1 300.2 145.5C299.9 141.7 298.8 138.2 294.2 138.4C289.9 138.6 289.1 142.2 289.1 145.7C289.1 161 289.1 176.4 289.1 191.7C289.1 198.967 285.4 202.6 278 202.6C267.2 202.6 256.3 202.6 245.5 202.6C238.1 202.6 234.4 198.833 234.4 191.3C234.4 161.3 234.4 131.3 234.4 101.3L234.3 101.5ZM300.2 73.0999C300.2 67.5999 300.2 62.0999 300.2 56.5999C300.2 53.2999 298.8 50.4999 295.2 50.2999C291.3 50.0999 289.4 52.8999 289.3 56.3999C289.1 67.3999 289.1 78.2999 289.3 89.2999C289.3 92.6999 291 95.5999 295 95.5999C299.1 95.5999 300.2 92.4999 300.3 89.0999C300.3 83.7999 300.3 78.4999 300.3 73.0999H300.2Z"/>
<path d="M27.5 129.4C34.4 129.4 41.4 129.4 48.3 129.4C51.9 129.4 53.7 131 53.6 134.6C53.6 138.5 53.6 142.4 53.6 146.2C53.6 149.5 54.6 152.6 58.6 152.7C62.6 152.7 64.1 149.8 64.3 146.2C64.5 142 65 137.7 64.1 133.7C63.5 130.9 61.5 127.6 59.2 126C54.3 122.6 48.9 120.1 43.6 117.4C38.4 114.8 33.1 112.4 27.9 109.9C14.4 103.4 5.79999 93 2.79999 78.1C-1.60001 56.9 1.09999 37.3 15.6 20.3C30.1 3.29998 57 -3.60002 78.5 4.29998C101.1 12.5 116.4 33.4 116.8 56.5C116.8 61.2 116.8 65.9 116.8 70.5C116.8 74.2 115.1 75.7 111.4 75.7C97.5 75.7 83.6 75.7 69.7 75.7C66 75.7 64.4 74 64.4 70.4C64.4 66.4 64.4 62.3 64.2 58.3C64 54.9 62.5 52.1 58.8 52.1C54.9 52.1 53.8 55 53.6 58.4C53.6 58.6 53.6 58.7 53.6 58.9C52.5 75.7 52.9 76.3 68.3 83.5C76.2 87.2 84 91 91.7 95.1C105.6 102.5 113.7 114.1 115.8 129.8C118.5 149.8 116.6 168.7 102.2 184.2C85.8 202 65.4 208 42.3 201.2C19.6 194.5 5.79999 178.7 1.69999 155.2C0.499993 148.6 0.899991 141.7 0.599991 134.9C0.399991 130.7 2.49999 129.2 6.49999 129.2C13.4 129.3 20.4 129.2 27.3 129.2L27.5 129.4Z"/>
<path d="M129.8 101.9C129.8 70.9001 129.8 39.9001 129.8 9.0001C129.8 1.5001 130.2 1.1001 137.8 1.1001C163.8 1.1001 189.8 1.1001 215.7 1.1001C222.7 1.1001 223.3 1.7001 223.3 8.4001C223.3 22.1001 223.2 35.7001 223.3 49.4001C223.3 54.1001 221.6 56.0001 216.8 55.9001C208.1 55.7001 199.5 55.9001 190.8 55.9001C186.4 55.9001 184.6 57.6001 184.4 62.1001C184 75.2001 183.9 75.2001 196.8 75.2001C201.6 75.2001 206.5 75.2001 211.3 75.2001C214.6 75.2001 216.2 76.8001 216.2 80.1001C216.2 95.1001 216.2 110.1 216.2 125.1C216.2 128.8 214 129.9 210.7 129.9C204 129.9 197.4 130 190.7 129.9C186.2 129.9 184.5 131.8 184.4 136.2C184 149 184 149.1 196.7 149.1C203.5 149.1 210.4 149.2 217.2 149.1C221.3 149.1 223.3 150.7 223.3 155C223.2 169.5 223.3 184 223.3 198.5C223.3 202.3 221.7 203.9 217.9 203.9C190.4 203.9 162.9 203.9 135.5 203.9C130.2 203.9 129.8 200.6 129.8 196.6C129.8 165.1 129.8 133.6 129.8 102.2V101.9Z"/>
<path d="M420.2 203.7C409.6 203.7 399.1 203.7 388.5 203.7C384.4 203.7 384.1 203.2 383.7 199.1C383.1 194.1 382.3 189.1 381.6 184.1C381 179.9 380.4 175.8 379.8 171.6C379.1 166.1 378.6 160.5 377.9 155C377.2 149.6 376.3 144.1 375.6 138.7C374.8 133.1 374.2 127.5 373.5 121.8C372.8 116.1 371.9 110.4 371.2 104.7C370.5 99.2999 370 93.7999 369.3 88.3999C368.6 82.9999 367.8 77.4999 367 72.0999C366.4 67.9999 365.8 63.9999 365.3 59.8999C364.6 54.3999 364.2 48.9999 363.5 43.4999C362.8 38.0999 362 32.7999 361.3 27.4999C360.5 21.5999 359.8 15.7999 359.1 9.8999C358.9 8.4999 358.8 7.1999 358.5 5.7999C357.7 1.6999 358.3 0.899902 362.6 0.899902C367.1 0.899902 371.5 0.899902 376 0.899902C386.7 0.899902 397.3 0.899902 408 0.899902C412.4 0.899902 413.2 1.6999 413.2 6.1999C413.3 18.2999 413.4 30.3999 413.7 42.5999C414 57.2999 414.5 71.9999 414.9 86.6999C415.4 106 415.9 125.3 416.5 144.7C416.5 146.4 417.3 148.4 418.4 149.8C420.3 152.1 423.2 151.4 424.3 148.5C424.8 147.1 425.1 145.5 425.1 144C425.4 131.1 425.5 118.2 425.8 105.3C426.3 84.2999 426.8 63.1999 427.4 42.1999C427.8 29.7999 428.3 17.2999 428.8 4.8999C428.9 1.6999 429.4 1.0999 432.6 1.0999C448.1 1.0999 463.5 1.0999 479 1.0999C482.2 1.0999 482.7 1.8999 482.3 5.0999C481.5 11.7999 480.8 18.5999 479.9 25.2999C478.7 34.0999 477.3 42.7999 476.1 51.4999C475.4 56.8999 474.9 62.3999 474.2 67.7999C473.3 74.8999 472.4 81.8999 471.4 88.9999C470.5 95.2999 469.6 101.6 468.7 107.8C468 113.2 467.6 118.5 466.9 123.9C466 130.9 465 137.8 464.1 144.8C463 153.6 462.1 162.5 460.9 171.4C459.6 181.1 458.2 190.7 456.9 200.4C456.5 203.1 455.7 203.9 452.5 203.9C441.8 203.9 431 203.9 420.3 203.9L420.2 203.7Z"/>
<path d="M566.4 55.3C566.4 53.9 566.2 52.8 566.2 51.8C566.2 36 566.2 20.1 566.2 4.29996C566.2 1.19996 567 -3.92888e-05 570.2 0.199961C577.5 0.599961 584.8 0.79996 592.1 0.89996C596.4 0.89996 600.8 0.39996 605.1 0.39996C619.3 0.49996 633.5 0.89996 647.7 0.89996C656.7 0.89996 665.7 0.399959 674.8 0.299959C678.7 0.299959 682.5 0.299959 686.6 0.299959C686.6 9.09996 686.6 17 686.6 24.8C686.5 34.9 686.6 45 685.9 55.1C685.7 58.2 683.4 61.3 681.7 64.1C671.3 81.4 660.7 98.6 650.2 115.9C643.4 127.2 636.8 138.7 630.1 150.1C628.2 153.2 626 156.2 624.2 159.3C622.7 161.8 621.6 164.7 624.4 167C627 169.1 631.3 168.3 633.3 165.2C636 161.2 638.3 156.9 640.7 152.7C642.2 150 644.1 148.6 647.6 148.7C659.2 149 670.8 148.8 682.3 148.7C685.2 148.7 686.7 148.6 686.4 152.9C685.7 163.4 686.4 174 686.5 184.6C686.5 190.4 686.6 196.2 686.5 201.9C686.5 202.4 685.1 203.4 684.4 203.4C672.2 203.5 660 203.6 647.7 203.5C634.9 203.5 622 203.2 609.2 203.1C596.2 203.1 583.2 203.1 570.2 203.1C569.1 203.1 567.9 203.4 566.2 203.7V199.3C566.2 183.7 566.5 168.1 566 152.6C565.8 147.3 568.7 143.9 570.9 140C576.8 129.9 583.1 120.1 589.2 110.1C597.2 96.9 605.2 83.7 613.1 70.4C619 60.5 625 50.7 630.6 40.6C631.5 38.9 631.3 35.9 630.4 34.1C629.8 32.9 626.9 32 625.4 32.4C623.7 32.8 622.1 34.6 621 36.2C617.3 41.8 613.9 47.7 610.2 53.4C609.7 54.2 608.8 55.2 608 55.2C594.2 55.3 580.4 55.2 566.4 55.2V55.3Z"/>
<path d="M551.7 1.19996V203.8C534.2 203.8 517 203.8 499.7 203.8C497.9 203.8 496.6 203.8 496.8 201C497.3 195.4 497.2 189.8 497.2 184.2C497.1 173.4 496.7 162.6 496.6 151.7C496.5 142.7 496.6 133.8 496.6 124.8C496.6 115.9 496.7 106.9 496.7 98C496.7 89.1 496.6 80.2 496.7 71.3C496.7 64.2 497.2 57.1 497.2 49.9C497.2 41.5 496.8 33 496.8 24.6C496.8 17.5 496.9 10.4 497.2 3.39996C497.2 2.59996 498.6 1.19996 499.4 1.19996C510.8 1.09996 522.2 1.19996 533.7 1.19996C539.6 1.19996 545.5 1.19996 551.9 1.19996H551.7Z"/>
<path d="M753.4 1.19996V203.8C735.9 203.8 718.7 203.8 701.4 203.8C699.6 203.8 698.3 203.8 698.5 201C699 195.4 698.9 189.8 698.9 184.2C698.8 173.4 698.4 162.6 698.3 151.7C698.2 142.7 698.3 133.8 698.3 124.8C698.3 115.9 698.4 106.9 698.4 98C698.4 89.1 698.3 80.2 698.4 71.3C698.4 64.2 698.9 57.1 698.9 49.9C698.9 41.5 698.5 33 698.5 24.6C698.5 17.5 698.6 10.4 698.9 3.39996C698.9 2.59996 700.3 1.19996 701.1 1.19996C712.5 1.09996 723.9 1.19996 735.4 1.19996C741.3 1.19996 747.2 1.19996 753.6 1.19996H753.4Z"/>
</mask>
<path d="M234.3 101.5C234.3 70.9999 234.3 40.4999 234.3 9.99992C234.3 0.999925 234.3 0.899924 243.6 0.899924C261.8 0.899924 279.9 0.699924 298.1 0.899924C325.5 1.29992 348.8 20.5999 354.8 47.1999C360.6 72.5999 344.6 101 319.2 110.6C316.9 111.5 314.5 112.2 312.1 113C308.8 114.2 306.3 116.1 307.5 120C308.8 124.1 312 124.7 315.6 123.5C320.8 121.7 325.9 119.7 331 117.6C334.7 116.1 338.2 114.2 341.9 112.5C345.6 110.7 347.4 111.8 348 115.9C351.3 139 354.8 162 358.2 185.1C358.8 189.2 359.4 193.3 360 197.5C360.5 200.8 359.5 202.6 355.9 202.6C340.4 202.6 324.9 202.6 309.4 202.6C305.8 202.6 304.4 200.6 304.1 197.3C303.2 184.7 302.2 172.1 301.3 159.4C301 154.8 300.6 150.1 300.2 145.5C299.9 141.7 298.8 138.2 294.2 138.4C289.9 138.6 289.1 142.2 289.1 145.7C289.1 161 289.1 176.4 289.1 191.7C289.1 198.967 285.4 202.6 278 202.6C267.2 202.6 256.3 202.6 245.5 202.6C238.1 202.6 234.4 198.833 234.4 191.3C234.4 161.3 234.4 131.3 234.4 101.3L234.3 101.5ZM300.2 73.0999C300.2 67.5999 300.2 62.0999 300.2 56.5999C300.2 53.2999 298.8 50.4999 295.2 50.2999C291.3 50.0999 289.4 52.8999 289.3 56.3999C289.1 67.3999 289.1 78.2999 289.3 89.2999C289.3 92.6999 291 95.5999 295 95.5999C299.1 95.5999 300.2 92.4999 300.3 89.0999C300.3 83.7999 300.3 78.4999 300.3 73.0999H300.2Z" stroke="white" mask="url(#path-1-inside-1_31_107)"/>
<path d="M27.5 129.4C34.4 129.4 41.4 129.4 48.3 129.4C51.9 129.4 53.7 131 53.6 134.6C53.6 138.5 53.6 142.4 53.6 146.2C53.6 149.5 54.6 152.6 58.6 152.7C62.6 152.7 64.1 149.8 64.3 146.2C64.5 142 65 137.7 64.1 133.7C63.5 130.9 61.5 127.6 59.2 126C54.3 122.6 48.9 120.1 43.6 117.4C38.4 114.8 33.1 112.4 27.9 109.9C14.4 103.4 5.79999 93 2.79999 78.1C-1.60001 56.9 1.09999 37.3 15.6 20.3C30.1 3.29998 57 -3.60002 78.5 4.29998C101.1 12.5 116.4 33.4 116.8 56.5C116.8 61.2 116.8 65.9 116.8 70.5C116.8 74.2 115.1 75.7 111.4 75.7C97.5 75.7 83.6 75.7 69.7 75.7C66 75.7 64.4 74 64.4 70.4C64.4 66.4 64.4 62.3 64.2 58.3C64 54.9 62.5 52.1 58.8 52.1C54.9 52.1 53.8 55 53.6 58.4C53.6 58.6 53.6 58.7 53.6 58.9C52.5 75.7 52.9 76.3 68.3 83.5C76.2 87.2 84 91 91.7 95.1C105.6 102.5 113.7 114.1 115.8 129.8C118.5 149.8 116.6 168.7 102.2 184.2C85.8 202 65.4 208 42.3 201.2C19.6 194.5 5.79999 178.7 1.69999 155.2C0.499993 148.6 0.899991 141.7 0.599991 134.9C0.399991 130.7 2.49999 129.2 6.49999 129.2C13.4 129.3 20.4 129.2 27.3 129.2L27.5 129.4Z" stroke="white" mask="url(#path-1-inside-1_31_107)"/>
<path d="M129.8 101.9C129.8 70.9001 129.8 39.9001 129.8 9.0001C129.8 1.5001 130.2 1.1001 137.8 1.1001C163.8 1.1001 189.8 1.1001 215.7 1.1001C222.7 1.1001 223.3 1.7001 223.3 8.4001C223.3 22.1001 223.2 35.7001 223.3 49.4001C223.3 54.1001 221.6 56.0001 216.8 55.9001C208.1 55.7001 199.5 55.9001 190.8 55.9001C186.4 55.9001 184.6 57.6001 184.4 62.1001C184 75.2001 183.9 75.2001 196.8 75.2001C201.6 75.2001 206.5 75.2001 211.3 75.2001C214.6 75.2001 216.2 76.8001 216.2 80.1001C216.2 95.1001 216.2 110.1 216.2 125.1C216.2 128.8 214 129.9 210.7 129.9C204 129.9 197.4 130 190.7 129.9C186.2 129.9 184.5 131.8 184.4 136.2C184 149 184 149.1 196.7 149.1C203.5 149.1 210.4 149.2 217.2 149.1C221.3 149.1 223.3 150.7 223.3 155C223.2 169.5 223.3 184 223.3 198.5C223.3 202.3 221.7 203.9 217.9 203.9C190.4 203.9 162.9 203.9 135.5 203.9C130.2 203.9 129.8 200.6 129.8 196.6C129.8 165.1 129.8 133.6 129.8 102.2V101.9Z" stroke="white" mask="url(#path-1-inside-1_31_107)"/>
<path d="M420.2 203.7C409.6 203.7 399.1 203.7 388.5 203.7C384.4 203.7 384.1 203.2 383.7 199.1C383.1 194.1 382.3 189.1 381.6 184.1C381 179.9 380.4 175.8 379.8 171.6C379.1 166.1 378.6 160.5 377.9 155C377.2 149.6 376.3 144.1 375.6 138.7C374.8 133.1 374.2 127.5 373.5 121.8C372.8 116.1 371.9 110.4 371.2 104.7C370.5 99.2999 370 93.7999 369.3 88.3999C368.6 82.9999 367.8 77.4999 367 72.0999C366.4 67.9999 365.8 63.9999 365.3 59.8999C364.6 54.3999 364.2 48.9999 363.5 43.4999C362.8 38.0999 362 32.7999 361.3 27.4999C360.5 21.5999 359.8 15.7999 359.1 9.8999C358.9 8.4999 358.8 7.1999 358.5 5.7999C357.7 1.6999 358.3 0.899902 362.6 0.899902C367.1 0.899902 371.5 0.899902 376 0.899902C386.7 0.899902 397.3 0.899902 408 0.899902C412.4 0.899902 413.2 1.6999 413.2 6.1999C413.3 18.2999 413.4 30.3999 413.7 42.5999C414 57.2999 414.5 71.9999 414.9 86.6999C415.4 106 415.9 125.3 416.5 144.7C416.5 146.4 417.3 148.4 418.4 149.8C420.3 152.1 423.2 151.4 424.3 148.5C424.8 147.1 425.1 145.5 425.1 144C425.4 131.1 425.5 118.2 425.8 105.3C426.3 84.2999 426.8 63.1999 427.4 42.1999C427.8 29.7999 428.3 17.2999 428.8 4.8999C428.9 1.6999 429.4 1.0999 432.6 1.0999C448.1 1.0999 463.5 1.0999 479 1.0999C482.2 1.0999 482.7 1.8999 482.3 5.0999C481.5 11.7999 480.8 18.5999 479.9 25.2999C478.7 34.0999 477.3 42.7999 476.1 51.4999C475.4 56.8999 474.9 62.3999 474.2 67.7999C473.3 74.8999 472.4 81.8999 471.4 88.9999C470.5 95.2999 469.6 101.6 468.7 107.8C468 113.2 467.6 118.5 466.9 123.9C466 130.9 465 137.8 464.1 144.8C463 153.6 462.1 162.5 460.9 171.4C459.6 181.1 458.2 190.7 456.9 200.4C456.5 203.1 455.7 203.9 452.5 203.9C441.8 203.9 431 203.9 420.3 203.9L420.2 203.7Z" stroke="white" mask="url(#path-1-inside-1_31_107)"/>
<path d="M566.4 55.3C566.4 53.9 566.2 52.8 566.2 51.8C566.2 36 566.2 20.1 566.2 4.29996C566.2 1.19996 567 -3.92888e-05 570.2 0.199961C577.5 0.599961 584.8 0.79996 592.1 0.89996C596.4 0.89996 600.8 0.39996 605.1 0.39996C619.3 0.49996 633.5 0.89996 647.7 0.89996C656.7 0.89996 665.7 0.399959 674.8 0.299959C678.7 0.299959 682.5 0.299959 686.6 0.299959C686.6 9.09996 686.6 17 686.6 24.8C686.5 34.9 686.6 45 685.9 55.1C685.7 58.2 683.4 61.3 681.7 64.1C671.3 81.4 660.7 98.6 650.2 115.9C643.4 127.2 636.8 138.7 630.1 150.1C628.2 153.2 626 156.2 624.2 159.3C622.7 161.8 621.6 164.7 624.4 167C627 169.1 631.3 168.3 633.3 165.2C636 161.2 638.3 156.9 640.7 152.7C642.2 150 644.1 148.6 647.6 148.7C659.2 149 670.8 148.8 682.3 148.7C685.2 148.7 686.7 148.6 686.4 152.9C685.7 163.4 686.4 174 686.5 184.6C686.5 190.4 686.6 196.2 686.5 201.9C686.5 202.4 685.1 203.4 684.4 203.4C672.2 203.5 660 203.6 647.7 203.5C634.9 203.5 622 203.2 609.2 203.1C596.2 203.1 583.2 203.1 570.2 203.1C569.1 203.1 567.9 203.4 566.2 203.7V199.3C566.2 183.7 566.5 168.1 566 152.6C565.8 147.3 568.7 143.9 570.9 140C576.8 129.9 583.1 120.1 589.2 110.1C597.2 96.9 605.2 83.7 613.1 70.4C619 60.5 625 50.7 630.6 40.6C631.5 38.9 631.3 35.9 630.4 34.1C629.8 32.9 626.9 32 625.4 32.4C623.7 32.8 622.1 34.6 621 36.2C617.3 41.8 613.9 47.7 610.2 53.4C609.7 54.2 608.8 55.2 608 55.2C594.2 55.3 580.4 55.2 566.4 55.2V55.3Z" stroke="white" mask="url(#path-1-inside-1_31_107)"/>
<path d="M551.7 1.19996V203.8C534.2 203.8 517 203.8 499.7 203.8C497.9 203.8 496.6 203.8 496.8 201C497.3 195.4 497.2 189.8 497.2 184.2C497.1 173.4 496.7 162.6 496.6 151.7C496.5 142.7 496.6 133.8 496.6 124.8C496.6 115.9 496.7 106.9 496.7 98C496.7 89.1 496.6 80.2 496.7 71.3C496.7 64.2 497.2 57.1 497.2 49.9C497.2 41.5 496.8 33 496.8 24.6C496.8 17.5 496.9 10.4 497.2 3.39996C497.2 2.59996 498.6 1.19996 499.4 1.19996C510.8 1.09996 522.2 1.19996 533.7 1.19996C539.6 1.19996 545.5 1.19996 551.9 1.19996H551.7Z" stroke="white" mask="url(#path-1-inside-1_31_107)"/>
<path d="M753.4 1.19996V203.8C735.9 203.8 718.7 203.8 701.4 203.8C699.6 203.8 698.3 203.8 698.5 201C699 195.4 698.9 189.8 698.9 184.2C698.8 173.4 698.4 162.6 698.3 151.7C698.2 142.7 698.3 133.8 698.3 124.8C698.3 115.9 698.4 106.9 698.4 98C698.4 89.1 698.3 80.2 698.4 71.3C698.4 64.2 698.9 57.1 698.9 49.9C698.9 41.5 698.5 33 698.5 24.6C698.5 17.5 698.6 10.4 698.9 3.39996C698.9 2.59996 700.3 1.19996 701.1 1.19996C712.5 1.09996 723.9 1.19996 735.4 1.19996C741.3 1.19996 747.2 1.19996 753.6 1.19996H753.4Z" stroke="white" mask="url(#path-1-inside-1_31_107)"/>
</svg>
