<svg width="753" height="204" viewBox="0 0 753 204" fill="none" xmlns="http://www.w3.org/2000/svg">
<g clip-path="url(#clip0_31_41)">
<path d="M233.3 101.5C233.3 70.9999 233.3 40.4999 233.3 9.99992C233.3 0.999925 233.3 0.899924 242.6 0.899924C260.8 0.899924 278.9 0.699924 297.1 0.899924C324.5 1.29992 347.8 20.5999 353.8 47.1999C359.6 72.5999 343.6 101 318.2 110.6C315.9 111.5 313.5 112.2 311.1 113C307.8 114.2 305.3 116.1 306.5 120C307.8 124.1 311 124.7 314.6 123.5C319.8 121.7 324.9 119.7 330 117.6C333.7 116.1 337.2 114.2 340.9 112.5C344.6 110.7 346.4 111.8 347 115.9C350.3 139 353.8 162 357.2 185.1C357.8 189.2 358.4 193.3 359 197.5C359.5 200.8 358.5 202.6 354.9 202.6C339.4 202.6 323.9 202.6 308.4 202.6C304.8 202.6 303.4 200.6 303.1 197.3C302.2 184.7 301.2 172.1 300.3 159.4C300 154.8 299.6 150.1 299.2 145.5C298.9 141.7 297.8 138.2 293.2 138.4C288.9 138.6 288.1 142.2 288.1 145.7C288.1 161 288.1 176.4 288.1 191.7C288.1 198.967 284.4 202.6 277 202.6C266.2 202.6 255.3 202.6 244.5 202.6C237.1 202.6 233.4 198.833 233.4 191.3C233.4 161.3 233.4 131.3 233.4 101.3L233.3 101.5ZM299.2 73.0999C299.2 67.5999 299.2 62.0999 299.2 56.5999C299.2 53.2999 297.8 50.4999 294.2 50.2999C290.3 50.0999 288.4 52.8999 288.3 56.3999C288.1 67.3999 288.1 78.2999 288.3 89.2999C288.3 92.6999 290 95.5999 294 95.5999C298.1 95.5999 299.2 92.4999 299.3 89.0999C299.3 83.7999 299.3 78.4999 299.3 73.0999H299.2Z" fill="white"/>
<path d="M26.5 129.4C33.4 129.4 40.4 129.4 47.3 129.4C50.9 129.4 52.7 131 52.6 134.6C52.6 138.5 52.6 142.4 52.6 146.2C52.6 149.5 53.6 152.6 57.6 152.7C61.6 152.7 63.1 149.8 63.3 146.2C63.5 142 64 137.7 63.1 133.7C62.5 130.9 60.5 127.6 58.2 126C53.3 122.6 47.9 120.1 42.6 117.4C37.4 114.8 32.1 112.4 26.9 109.9C13.4 103.4 4.79999 93 1.79999 78.1C-2.60001 56.9 0.0999908 37.3 14.6 20.3C29.1 3.29998 56 -3.60002 77.5 4.29998C100.1 12.5 115.4 33.4 115.8 56.5C115.8 61.2 115.8 65.9 115.8 70.5C115.8 74.2 114.1 75.7 110.4 75.7C96.5 75.7 82.6 75.7 68.7 75.7C65 75.7 63.4 74 63.4 70.4C63.4 66.4 63.4 62.3 63.2 58.3C63 54.9 61.5 52.1 57.8 52.1C53.9 52.1 52.8 55 52.6 58.4C52.6 58.6 52.6 58.7 52.6 58.9C51.5 75.7 51.9 76.3 67.3 83.5C75.2 87.2 83 91 90.7 95.1C104.6 102.5 112.7 114.1 114.8 129.8C117.5 149.8 115.6 168.7 101.2 184.2C84.8 202 64.4 208 41.3 201.2C18.6 194.5 4.79999 178.7 0.699993 155.2C-0.500007 148.6 -0.100009 141.7 -0.400009 134.9C-0.600009 130.7 1.49999 129.2 5.49999 129.2C12.4 129.3 19.4 129.2 26.3 129.2L26.5 129.4Z" fill="white"/>
<path d="M128.8 101.9C128.8 70.9001 128.8 39.9001 128.8 9.0001C128.8 1.5001 129.2 1.1001 136.8 1.1001C162.8 1.1001 188.8 1.1001 214.7 1.1001C221.7 1.1001 222.3 1.7001 222.3 8.4001C222.3 22.1001 222.2 35.7001 222.3 49.4001C222.3 54.1001 220.6 56.0001 215.8 55.9001C207.1 55.7001 198.5 55.9001 189.8 55.9001C185.4 55.9001 183.6 57.6001 183.4 62.1001C183 75.2001 182.9 75.2001 195.8 75.2001C200.6 75.2001 205.5 75.2001 210.3 75.2001C213.6 75.2001 215.2 76.8001 215.2 80.1001C215.2 95.1001 215.2 110.1 215.2 125.1C215.2 128.8 213 129.9 209.7 129.9C203 129.9 196.4 130 189.7 129.9C185.2 129.9 183.5 131.8 183.4 136.2C183 149 183 149.1 195.7 149.1C202.5 149.1 209.4 149.2 216.2 149.1C220.3 149.1 222.3 150.7 222.3 155C222.2 169.5 222.3 184 222.3 198.5C222.3 202.3 220.7 203.9 216.9 203.9C189.4 203.9 161.9 203.9 134.5 203.9C129.2 203.9 128.8 200.6 128.8 196.6C128.8 165.1 128.8 133.6 128.8 102.2V101.9Z" fill="white"/>
<path d="M419.2 203.7C429.9 203.7 440.7 203.7 451.4 203.7C454.6 203.7 455.4 203 455.8 200.2C457.1 190.5 458.5 180.9 459.8 171.2C460.9 162.4 461.9 153.5 463 144.6C463.9 137.6 464.9 130.7 465.8 123.7C466.5 118.3 466.9 113 467.6 107.6C468.4 101.3 469.4 95 470.3 88.8C471.3 81.7 472.2 74.6999 473.1 67.5999C473.8 62.1999 474.2 56.7 475 51.3C476.2 42.5 477.6 33.7999 478.8 25.0999C479.7 18.3999 480.4 11.7 481.2 4.89995C481.6 1.69995 481.1 0.89995 477.9 0.89995C462.4 0.89995 447 0.89995 431.5 0.89995C428.3 0.89995 427.9 1.49995 427.7 4.69995C427.2 17.1 426.7 29.6 426.3 42C425.7 63 425.2 84.1 424.7 105.1C424.4 118 424.3 130.9 424 143.8C424 145.3 423.7 146.9 423.2 148.3C422.2 151.1 419.2 151.9 417.3 149.6C416.2 148.3 415.5 146.3 415.4 144.5C414.8 125.2 414.3 105.9 413.8 86.5C413.4 71.8 412.9 57.1 412.6 42.4C412.3 30.3 412.3 18.2 412.1 5.99995C412.1 1.49995 411.3 0.699951 406.9 0.699951C396.2 0.699951 385.6 0.699951 374.9 0.699951C370.4 0.699951 366 0.699951 361.5 0.699951C357.2 0.699951 356.6 1.49995 357.4 5.59995C357.7 6.89995 357.8 8.29995 358 9.69995C358.7 15.6 359.4 21.4999 360.2 27.2999C360.9 32.5999 361.8 38 362.4 43.3C363.1 48.7 363.6 54.1999 364.2 59.6999C364.7 63.7999 365.3 67.8999 365.9 71.8999C366.7 77.2999 367.5 82.7 368.2 88.2C368.9 93.6 369.4 99.1 370.1 104.5C370.8 110.2 371.7 115.9 372.4 121.6C373.1 127.2 373.8 132.8 374.5 138.5C375.2 143.9 376.1 149.4 376.8 154.8C377.5 160.3 378 165.9 378.7 171.4C379.2 175.6 379.9 179.7 380.5 183.9C381.2 188.9 382.1 193.9 382.6 198.9C383 203 383.3 203.5 387.4 203.5C398 203.5 408.5 203.5 419.1 203.5L419.2 203.7Z" fill="white"/>
<path d="M419.2 203.7C408.6 203.7 398.1 203.7 387.5 203.7C383.4 203.7 383.1 203.2 382.7 199.1C382.1 194.1 381.3 189.1 380.6 184.1C380 179.9 379.4 175.8 378.8 171.6C378.1 166.1 377.6 160.5 376.9 155C376.2 149.6 375.3 144.1 374.6 138.7C373.8 133.1 373.2 127.5 372.5 121.8C371.8 116.1 370.9 110.4 370.2 104.7C369.5 99.2999 369 93.7999 368.3 88.3999C367.6 82.9999 366.8 77.4999 366 72.0999C365.4 67.9999 364.8 63.9999 364.3 59.8999C363.6 54.3999 363.2 48.9999 362.5 43.4999C361.8 38.0999 361 32.7999 360.3 27.4999C359.5 21.5999 358.8 15.7999 358.1 9.8999C357.9 8.4999 357.8 7.1999 357.5 5.7999C356.7 1.6999 357.3 0.899902 361.6 0.899902C366.1 0.899902 370.5 0.899902 375 0.899902C385.7 0.899902 396.3 0.899902 407 0.899902C411.4 0.899902 412.2 1.6999 412.2 6.1999C412.3 18.2999 412.4 30.3999 412.7 42.5999C413 57.2999 413.5 71.9999 413.9 86.6999C414.4 106 414.9 125.3 415.5 144.7C415.5 146.4 416.3 148.4 417.4 149.8C419.3 152.1 422.2 151.4 423.3 148.5C423.8 147.1 424.1 145.5 424.1 144C424.4 131.1 424.5 118.2 424.8 105.3C425.3 84.2999 425.8 63.1999 426.4 42.1999C426.8 29.7999 427.3 17.2999 427.8 4.8999C427.9 1.6999 428.4 1.0999 431.6 1.0999C447.1 1.0999 462.5 1.0999 478 1.0999C481.2 1.0999 481.7 1.8999 481.3 5.0999C480.5 11.7999 479.8 18.5999 478.9 25.2999C477.7 34.0999 476.3 42.7999 475.1 51.4999C474.4 56.8999 473.9 62.3999 473.2 67.7999C472.3 74.8999 471.4 81.8999 470.4 88.9999C469.5 95.2999 468.6 101.6 467.7 107.8C467 113.2 466.6 118.5 465.9 123.9C465 130.9 464 137.8 463.1 144.8C462 153.6 461.1 162.5 459.9 171.4C458.6 181.1 457.2 190.7 455.9 200.4C455.5 203.1 454.7 203.9 451.5 203.9C440.8 203.9 430 203.9 419.3 203.9L419.2 203.7Z" fill="white"/>
<path d="M565.4 55.3C565.4 53.9 565.2 52.8 565.2 51.8C565.2 36 565.2 20.1 565.2 4.29996C565.2 1.19996 566 -3.92888e-05 569.2 0.199961C576.5 0.599961 583.8 0.79996 591.1 0.89996C595.4 0.89996 599.8 0.39996 604.1 0.39996C618.3 0.49996 632.5 0.89996 646.7 0.89996C655.7 0.89996 664.7 0.399959 673.8 0.299959C677.7 0.299959 681.5 0.299959 685.6 0.299959C685.6 9.09996 685.6 17 685.6 24.8C685.5 34.9 685.6 45 684.9 55.1C684.7 58.2 682.4 61.3 680.7 64.1C670.3 81.4 659.7 98.6 649.2 115.9C642.4 127.2 635.8 138.7 629.1 150.1C627.2 153.2 625 156.2 623.2 159.3C621.7 161.8 620.6 164.7 623.4 167C626 169.1 630.3 168.3 632.3 165.2C635 161.2 637.3 156.9 639.7 152.7C641.2 150 643.1 148.6 646.6 148.7C658.2 149 669.8 148.8 681.3 148.7C684.2 148.7 685.7 148.6 685.4 152.9C684.7 163.4 685.4 174 685.5 184.6C685.5 190.4 685.6 196.2 685.5 201.9C685.5 202.4 684.1 203.4 683.4 203.4C671.2 203.5 659 203.6 646.7 203.5C633.9 203.5 621 203.2 608.2 203.1C595.2 203.1 582.2 203.1 569.2 203.1C568.1 203.1 566.9 203.4 565.2 203.7V199.3C565.2 183.7 565.5 168.1 565 152.6C564.8 147.3 567.7 143.9 569.9 140C575.8 129.9 582.1 120.1 588.2 110.1C596.2 96.9 604.2 83.7 612.1 70.4C618 60.5 624 50.7 629.6 40.6C630.5 38.9 630.3 35.9 629.4 34.1C628.8 32.9 625.9 32 624.4 32.4C622.7 32.8 621.1 34.6 620 36.2C616.3 41.8 612.9 47.7 609.2 53.4C608.7 54.2 607.8 55.2 607 55.2C593.2 55.3 579.4 55.2 565.4 55.2V55.3Z" fill="white"/>
<path d="M550.7 1.19996V203.8C533.2 203.8 516 203.8 498.7 203.8C496.9 203.8 495.6 203.8 495.8 201C496.3 195.4 496.2 189.8 496.2 184.2C496.1 173.4 495.7 162.6 495.6 151.7C495.5 142.7 495.6 133.8 495.6 124.8C495.6 115.9 495.7 106.9 495.7 98C495.7 89.1 495.6 80.2 495.7 71.3C495.7 64.2 496.2 57.1 496.2 49.9C496.2 41.5 495.8 33 495.8 24.6C495.8 17.5 495.9 10.4 496.2 3.39996C496.2 2.59996 497.6 1.19996 498.4 1.19996C509.8 1.09996 521.2 1.19996 532.7 1.19996C538.6 1.19996 544.5 1.19996 550.9 1.19996H550.7Z" fill="white"/>
<path d="M752.4 1.19996V203.8C734.9 203.8 717.7 203.8 700.4 203.8C698.6 203.8 697.3 203.8 697.5 201C698 195.4 697.9 189.8 697.9 184.2C697.8 173.4 697.4 162.6 697.3 151.7C697.2 142.7 697.3 133.8 697.3 124.8C697.3 115.9 697.4 106.9 697.4 98C697.4 89.1 697.3 80.2 697.4 71.3C697.4 64.2 697.9 57.1 697.9 49.9C697.9 41.5 697.5 33 697.5 24.6C697.5 17.5 697.6 10.4 697.9 3.39996C697.9 2.59996 699.3 1.19996 700.1 1.19996C711.5 1.09996 722.9 1.19996 734.4 1.19996C740.3 1.19996 746.2 1.19996 752.6 1.19996H752.4Z" fill="white"/>
</g>
<defs>
<clipPath id="clip0_31_41">
<rect width="753" height="204" fill="white"/>
</clipPath>
</defs>
</svg>
