<svg xmlns="http://www.w3.org/2000/svg" width="991" height="204" viewBox="0 0 991 204" fill="#1a1717"><svg x="0.0" y="0.0" width="123.4" height="204.0" viewBox="229.4 0.0 123.4 204.0" overflow="hidden"><g><g transform="translate(0,0)"><path d="M603.3 109.9C606.9 127.3 611.7 163.3 611.9 164.7C613.5 176.3 614.9 187.8 616.9 199.3C617.5 203.1 615.7 202.7 613.5 202.7C598 202.7 582.6 202.7 567.1 202.7C565.3 202.7 563.5 202.9 561.1 203.1C560.7 201.8 560 200.3 559.9 198.7C559.4 190.5 559.1 182.3 558.6 174.1C558 164.2 557.4 154.4 556.3 144.6C556.1 142.4 554.2 139.7 552.3 138.6C551.1 137.9 548.2 139.4 546.5 140.5C545.6 141.1 545.3 143.1 545.3 144.4C545.3 160.2 545.3 176.1 545.3 191.9C545.3 194.6 545.7 197.2 545.7 199.9C545.7 202.1 545.5 203.4 542.3 203C537 202.4 531.7 202.7 526.3 202.7C515.1 202.7 503.9 202.7 492.7 202.8C489.9 202.8 489.8 201.2 489.9 199.3C490.1 193.7 490.5 188.1 490.5 182.4C490.5 175.1 490.1 167.8 490.1 160.5C490.1 144.5 490.1 128.5 490.1 112.4C490.1 89 490 65.7 489.9 42.3C489.9 29.5 489.9 16.6 489.9 3.79996C489.9 0.799959 491.2 0.199959 493.8 0.299959C512.7 0.499959 531.6 0.99996 550.4 0.69996C559.3 0.49996 567.9 0.999959 576 4.39996C585 8.09996 592.4 14 598.8 21.4C604.2 27.6 607.8 34.6 610.2 42.3C612.2 48.7 612.6 55.2 612.1 62.1C611.2 73 607 82.4 600.8 90.9C593.1 101.4 582.9 108.5 570.4 112.3C569 112.7 567.3 112.9 566.4 113.9C565 115.3 563.2 117.3 563.2 118.9C563.3 121.3 565.1 124.1 568.1 123.4C573.7 122.1 579.2 120.5 584.5 118.4C590.5 116 596.3 112.9 603 109.8L603.3 109.9ZM556.5 72.5C556.5 66.8 556.5 61 556.5 55.3C556.5 52.4 553.9 49.4 551.4 49.3C549 49.2 545.3 52.4 545.3 55C545.3 66.7 545.5 78.4 545.8 90C545.8 93.4 548.7 95.9 551.9 95.5C555 95.1 556.6 93 556.5 89.7C556.4 84 556.5 78.2 556.5 72.5Z" fill="#1a1717"/><path d="M469.1 177.7C460 190.7 448.1 199.8 432.5 202.8C413.9 206.4 396.6 202.5 382 189.9C370.7 180.1 363.5 167.8 362.3 152.6C361.8 145.7 361.9 138.7 361.9 131.7C361.9 120.2 362.1 108.7 362.1 97.2001C362.1 85.1001 362.7 73.0001 362 60.9001C361.4 51.1001 363.2 42.0001 367.5 33.5001C377 14.7001 392.3 3.60008 413.4 1.30008C428.2 -0.299919 442 2.20008 454.3 11.3001C463.6 18.1001 470.6 27.0001 474.7 37.5001C477.9 45.8001 478.9 54.8001 478.4 64.0001C477.9 73.0001 478.3 82.0001 478.3 91.1001C478.3 104.4 478.3 117.6 478.3 130.9C478.3 139.3 478.3 147.7 477.5 156C476.9 161 474.5 165.9 473 170.8C472.7 171.8 470.4 176.3 469.3 177.9L469.1 177.7ZM415 147.9C415.5 149.8 417.7 151.8 419.6 152.5C420.7 152.9 423.3 151.2 424.3 149.8C425.3 148.4 425.3 146.2 425.4 144.3C425.5 132.8 425.6 121.2 425.6 109.7C425.6 99.5001 425.3 89.2001 425.2 79.0001C425.2 72.1001 425 65.2001 425.2 58.3001C425.2 54.6001 423.4 51.8001 420.2 51.6001C417.5 51.4001 414.9 54.4001 414.9 57.8001C414.7 72.4001 414.5 87.0001 414.4 101.6C414.4 113.7 414.4 144.8 415.1 148L415 147.9Z" fill="#1a1717"/><path d="M203.3 0.800049C212 68.3 220.6 135.4 229.3 202.7H173.1C173.1 189 173.1 175.6 173.1 162.2C173.1 160.6 172.4 159 171.9 157.4C170.9 154.5 168.5 153.5 165.9 154.6C163.2 155.6 161.9 157.9 161.9 161.1C162.1 174.6 162.1 188.2 162.2 201.7C162.2 202.1 161.9 202.4 161.6 203C146.2 203 130.7 203 115.2 203C113.2 203 111.1 203.4 109.3 202.9C108.1 202.5 106.4 200.7 106.5 199.7C108.3 185.4 110.4 171.1 112.3 156.8C114.1 142.8 115.6 128.7 117.5 114.7C118.9 103.9 120.7 93.2001 122.1 82.4001C123.5 71.1001 124.5 59.8 126 48.5C127.8 35 129.7 21.5 131.7 8.10005C132.8 0.800048 133 0.900049 140.3 0.900049C159.9 0.900049 179.6 0.900049 199.2 0.900049C200.4 0.900049 201.6 0.900049 203.4 0.900049L203.3 0.800049ZM173.1 85.2C173.1 79.5 173.1 73.8001 173.1 68.1001C173.1 64.8001 173.2 61.5 173.1 58.2C172.9 54.1 170.5 51.7001 167.2 51.8001C164 51.9001 162.1 54.4001 162 58.3001C162 62.6001 162 66.9 162 71.2C162 84.7 162 98.3 162 111.8C162 114.5 165.3 118.9 167.5 118.4C169.4 117.9 171.1 115.8 172.4 114C173.1 113.1 173 111.5 173.1 110.3C173.1 102 173.1 93.6 173.1 85.3V85.2Z" fill="#1a1717"/><path d="M326.6 202.7C318.7 202.7 312 202.7 305.3 202.7C300.3 202.7 295.3 202.6 290.4 202.6C283.1 202.6 275.8 202.8 268.5 203C264.9 203 261.3 203.2 257.6 203C256.8 203 255.6 201.7 255.4 200.9C253.9 190.7 252.7 180.5 251.3 170.3C249.9 160.1 248.5 149.9 247.2 139.8C245.2 123.9 243.3 108 241.3 92.0999C239.7 79.3999 238 66.7 236.3 54C234.1 37.6 232 21.2999 229.8 4.89995C229.6 3.59995 229.5 2.19995 229.4 0.199951C236 0.199951 242.3 0.199951 248.6 0.199951C258.7 0.199951 268.7 0.199951 278.8 0.199951C281.5 0.199951 282.5 0.799951 282.5 3.69995C282.7 18.6 283.1 33.6 283.4 48.5C283.6 59.4 283.7 70.3 284.1 81.2C284.4 89 285.2 96.8 285.5 104.6C285.8 112.8 285.5 121 285.7 129.2C285.7 135.1 286 140.9 286.4 146.8C286.6 149.9 288.5 151.3 291.6 151.4C294.8 151.4 296.9 149.8 297 146.9C297.2 139.6 297 132.2 297 124.8C297 120.3 297.6 115.7 297.7 111.2C297.8 106.4 297.7 101.5 297.7 96.7C297.7 95.1 297.8 93.4999 297.9 91.8999C298.2 87.3999 298.6 82.8999 298.8 78.3999C299.1 70.2999 299.4 62.1999 299.4 54.1999C299.4 46.5999 299 39 299.3 31.4C299.6 21.2 300.4 11.1 301 0.599951H352.8C344.1 68.1999 335.3 135.7 326.7 202.6L326.6 202.7Z" fill="#1a1717"/><path d="M0.699997 202.7C0.699997 192.9 0.699997 183.7 0.699997 174.5C0.699997 164.6 0.699997 154.7 0.699997 144.8C0.699997 110.7 0.699997 76.6001 0.699997 42.5001C0.699997 37.3001 0.899997 32.1001 0.699997 26.9001C0.299997 19.1001 1.8 11.4001 0.900002 3.6001C0.900002 2.9001 2.8 1.2001 3.8 1.2001C14.6 1.0001 55.3 0.600098 55.3 0.600098C55.3 6.9001 55.3 12.5001 55.3 18.1001C55.3 29.0001 55.6 40.0001 55.5 50.9001C55.5 58.6001 55 66.3001 54.9 73.9001C54.9 79.7001 55.4 85.5001 55.5 91.3001C55.5 99.7001 55.4 108.1 55.4 116.6C55.4 121.7 55.3 126.9 55.6 132C56.4 141.8 49.7 152.7 40.3 156.4C38 157.3 36.4 161.3 37.5 163.6C38.8 166.5 42.9 167.6 46.3 166.1C53.4 162.9 59.4 158.3 63.5 151.6C64.9 149.4 66.5 148.3 69.3 148.4C76.4 148.6 83.6 148.7 90.8 148.6C92.9 148.6 93.7 149 93.6 151.2C93.4 157.2 93.3 163.2 93.3 169.2C93.3 177.5 93.4 185.8 93.7 194C94.1 203.3 93.7 203.4 84.7 203.1C72.4 202.7 60.1 202.8 47.8 202.8C32.3 202.8 16.7 202.8 0.5 202.8L0.699997 202.7Z" fill="#1a1717"/><path d="M683.4 0.90006V204.2C665.9 204.2 648.5 204.2 631.2 204.2C629.4 204.2 628.1 204.2 628.3 201.3C628.8 195.7 628.7 190 628.7 184.4C628.6 173.5 628.2 162.7 628.1 151.8C628 142.8 628.1 133.8 628.1 124.8C628.1 115.8 628.2 106.9 628.2 97.9001C628.2 89.0001 628.1 80.1001 628.2 71.1001C628.2 64.0001 628.7 56.8001 628.7 49.7001C628.7 41.2001 628.3 32.8001 628.3 24.3001C628.3 17.2001 628.4 10.1001 628.7 3.00006C628.7 2.20006 630.1 0.80006 630.9 0.80006C642.4 0.70006 653.8 0.80006 665.3 0.80006C671.2 0.80006 677.1 0.80006 683.5 0.80006L683.4 0.90006Z" fill="#1a1717"/></g></g></svg><svg x="68.4" y="0.0" width="123.4" height="204.0" viewBox="229.4 0.0 123.4 204.0" overflow="hidden"><g><g transform="translate(0,0)"><path d="M603.3 109.9C606.9 127.3 611.7 163.3 611.9 164.7C613.5 176.3 614.9 187.8 616.9 199.3C617.5 203.1 615.7 202.7 613.5 202.7C598 202.7 582.6 202.7 567.1 202.7C565.3 202.7 563.5 202.9 561.1 203.1C560.7 201.8 560 200.3 559.9 198.7C559.4 190.5 559.1 182.3 558.6 174.1C558 164.2 557.4 154.4 556.3 144.6C556.1 142.4 554.2 139.7 552.3 138.6C551.1 137.9 548.2 139.4 546.5 140.5C545.6 141.1 545.3 143.1 545.3 144.4C545.3 160.2 545.3 176.1 545.3 191.9C545.3 194.6 545.7 197.2 545.7 199.9C545.7 202.1 545.5 203.4 542.3 203C537 202.4 531.7 202.7 526.3 202.7C515.1 202.7 503.9 202.7 492.7 202.8C489.9 202.8 489.8 201.2 489.9 199.3C490.1 193.7 490.5 188.1 490.5 182.4C490.5 175.1 490.1 167.8 490.1 160.5C490.1 144.5 490.1 128.5 490.1 112.4C490.1 89 490 65.7 489.9 42.3C489.9 29.5 489.9 16.6 489.9 3.79996C489.9 0.799959 491.2 0.199959 493.8 0.299959C512.7 0.499959 531.6 0.99996 550.4 0.69996C559.3 0.49996 567.9 0.999959 576 4.39996C585 8.09996 592.4 14 598.8 21.4C604.2 27.6 607.8 34.6 610.2 42.3C612.2 48.7 612.6 55.2 612.1 62.1C611.2 73 607 82.4 600.8 90.9C593.1 101.4 582.9 108.5 570.4 112.3C569 112.7 567.3 112.9 566.4 113.9C565 115.3 563.2 117.3 563.2 118.9C563.3 121.3 565.1 124.1 568.1 123.4C573.7 122.1 579.2 120.5 584.5 118.4C590.5 116 596.3 112.9 603 109.8L603.3 109.9ZM556.5 72.5C556.5 66.8 556.5 61 556.5 55.3C556.5 52.4 553.9 49.4 551.4 49.3C549 49.2 545.3 52.4 545.3 55C545.3 66.7 545.5 78.4 545.8 90C545.8 93.4 548.7 95.9 551.9 95.5C555 95.1 556.6 93 556.5 89.7C556.4 84 556.5 78.2 556.5 72.5Z" fill="#1a1717"/><path d="M469.1 177.7C460 190.7 448.1 199.8 432.5 202.8C413.9 206.4 396.6 202.5 382 189.9C370.7 180.1 363.5 167.8 362.3 152.6C361.8 145.7 361.9 138.7 361.9 131.7C361.9 120.2 362.1 108.7 362.1 97.2001C362.1 85.1001 362.7 73.0001 362 60.9001C361.4 51.1001 363.2 42.0001 367.5 33.5001C377 14.7001 392.3 3.60008 413.4 1.30008C428.2 -0.299919 442 2.20008 454.3 11.3001C463.6 18.1001 470.6 27.0001 474.7 37.5001C477.9 45.8001 478.9 54.8001 478.4 64.0001C477.9 73.0001 478.3 82.0001 478.3 91.1001C478.3 104.4 478.3 117.6 478.3 130.9C478.3 139.3 478.3 147.7 477.5 156C476.9 161 474.5 165.9 473 170.8C472.7 171.8 470.4 176.3 469.3 177.9L469.1 177.7ZM415 147.9C415.5 149.8 417.7 151.8 419.6 152.5C420.7 152.9 423.3 151.2 424.3 149.8C425.3 148.4 425.3 146.2 425.4 144.3C425.5 132.8 425.6 121.2 425.6 109.7C425.6 99.5001 425.3 89.2001 425.2 79.0001C425.2 72.1001 425 65.2001 425.2 58.3001C425.2 54.6001 423.4 51.8001 420.2 51.6001C417.5 51.4001 414.9 54.4001 414.9 57.8001C414.7 72.4001 414.5 87.0001 414.4 101.6C414.4 113.7 414.4 144.8 415.1 148L415 147.9Z" fill="#1a1717"/><path d="M203.3 0.800049C212 68.3 220.6 135.4 229.3 202.7H173.1C173.1 189 173.1 175.6 173.1 162.2C173.1 160.6 172.4 159 171.9 157.4C170.9 154.5 168.5 153.5 165.9 154.6C163.2 155.6 161.9 157.9 161.9 161.1C162.1 174.6 162.1 188.2 162.2 201.7C162.2 202.1 161.9 202.4 161.6 203C146.2 203 130.7 203 115.2 203C113.2 203 111.1 203.4 109.3 202.9C108.1 202.5 106.4 200.7 106.5 199.7C108.3 185.4 110.4 171.1 112.3 156.8C114.1 142.8 115.6 128.7 117.5 114.7C118.9 103.9 120.7 93.2001 122.1 82.4001C123.5 71.1001 124.5 59.8 126 48.5C127.8 35 129.7 21.5 131.7 8.10005C132.8 0.800048 133 0.900049 140.3 0.900049C159.9 0.900049 179.6 0.900049 199.2 0.900049C200.4 0.900049 201.6 0.900049 203.4 0.900049L203.3 0.800049ZM173.1 85.2C173.1 79.5 173.1 73.8001 173.1 68.1001C173.1 64.8001 173.2 61.5 173.1 58.2C172.9 54.1 170.5 51.7001 167.2 51.8001C164 51.9001 162.1 54.4001 162 58.3001C162 62.6001 162 66.9 162 71.2C162 84.7 162 98.3 162 111.8C162 114.5 165.3 118.9 167.5 118.4C169.4 117.9 171.1 115.8 172.4 114C173.1 113.1 173 111.5 173.1 110.3C173.1 102 173.1 93.6 173.1 85.3V85.2Z" fill="#1a1717"/><path d="M326.6 202.7C318.7 202.7 312 202.7 305.3 202.7C300.3 202.7 295.3 202.6 290.4 202.6C283.1 202.6 275.8 202.8 268.5 203C264.9 203 261.3 203.2 257.6 203C256.8 203 255.6 201.7 255.4 200.9C253.9 190.7 252.7 180.5 251.3 170.3C249.9 160.1 248.5 149.9 247.2 139.8C245.2 123.9 243.3 108 241.3 92.0999C239.7 79.3999 238 66.7 236.3 54C234.1 37.6 232 21.2999 229.8 4.89995C229.6 3.59995 229.5 2.19995 229.4 0.199951C236 0.199951 242.3 0.199951 248.6 0.199951C258.7 0.199951 268.7 0.199951 278.8 0.199951C281.5 0.199951 282.5 0.799951 282.5 3.69995C282.7 18.6 283.1 33.6 283.4 48.5C283.6 59.4 283.7 70.3 284.1 81.2C284.4 89 285.2 96.8 285.5 104.6C285.8 112.8 285.5 121 285.7 129.2C285.7 135.1 286 140.9 286.4 146.8C286.6 149.9 288.5 151.3 291.6 151.4C294.8 151.4 296.9 149.8 297 146.9C297.2 139.6 297 132.2 297 124.8C297 120.3 297.6 115.7 297.7 111.2C297.8 106.4 297.7 101.5 297.7 96.7C297.7 95.1 297.8 93.4999 297.9 91.8999C298.2 87.3999 298.6 82.8999 298.8 78.3999C299.1 70.2999 299.4 62.1999 299.4 54.1999C299.4 46.5999 299 39 299.3 31.4C299.6 21.2 300.4 11.1 301 0.599951H352.8C344.1 68.1999 335.3 135.7 326.7 202.6L326.6 202.7Z" fill="#1a1717"/><path d="M0.699997 202.7C0.699997 192.9 0.699997 183.7 0.699997 174.5C0.699997 164.6 0.699997 154.7 0.699997 144.8C0.699997 110.7 0.699997 76.6001 0.699997 42.5001C0.699997 37.3001 0.899997 32.1001 0.699997 26.9001C0.299997 19.1001 1.8 11.4001 0.900002 3.6001C0.900002 2.9001 2.8 1.2001 3.8 1.2001C14.6 1.0001 55.3 0.600098 55.3 0.600098C55.3 6.9001 55.3 12.5001 55.3 18.1001C55.3 29.0001 55.6 40.0001 55.5 50.9001C55.5 58.6001 55 66.3001 54.9 73.9001C54.9 79.7001 55.4 85.5001 55.5 91.3001C55.5 99.7001 55.4 108.1 55.4 116.6C55.4 121.7 55.3 126.9 55.6 132C56.4 141.8 49.7 152.7 40.3 156.4C38 157.3 36.4 161.3 37.5 163.6C38.8 166.5 42.9 167.6 46.3 166.1C53.4 162.9 59.4 158.3 63.5 151.6C64.9 149.4 66.5 148.3 69.3 148.4C76.4 148.6 83.6 148.7 90.8 148.6C92.9 148.6 93.7 149 93.6 151.2C93.4 157.2 93.3 163.2 93.3 169.2C93.3 177.5 93.4 185.8 93.7 194C94.1 203.3 93.7 203.4 84.7 203.1C72.4 202.7 60.1 202.8 47.8 202.8C32.3 202.8 16.7 202.8 0.5 202.8L0.699997 202.7Z" fill="#1a1717"/><path d="M683.4 0.90006V204.2C665.9 204.2 648.5 204.2 631.2 204.2C629.4 204.2 628.1 204.2 628.3 201.3C628.8 195.7 628.7 190 628.7 184.4C628.6 173.5 628.2 162.7 628.1 151.8C628 142.8 628.1 133.8 628.1 124.8C628.1 115.8 628.2 106.9 628.2 97.9001C628.2 89.0001 628.1 80.1001 628.2 71.1001C628.2 64.0001 628.7 56.8001 628.7 49.7001C628.7 41.2001 628.3 32.8001 628.3 24.3001C628.3 17.2001 628.4 10.1001 628.7 3.00006C628.7 2.20006 630.1 0.80006 630.9 0.80006C642.4 0.70006 653.8 0.80006 665.3 0.80006C671.2 0.80006 677.1 0.80006 683.5 0.80006L683.4 0.90006Z" fill="#1a1717"/></g></g></svg><svg x="202.8" y="0.0" width="93.5" height="204.0" viewBox="128.8 0.0 93.5 204.0" overflow="hidden"><g><g transform="translate(0,0)"><path d="M233.3 101.5C233.3 70.9999 233.3 40.4999 233.3 9.99992C233.3 0.999925 233.3 0.899924 242.6 0.899924C260.8 0.899924 278.9 0.699924 297.1 0.899924C324.5 1.29992 347.8 20.5999 353.8 47.1999C359.6 72.5999 343.6 101 318.2 110.6C315.9 111.5 313.5 112.2 311.1 113C307.8 114.2 305.3 116.1 306.5 120C307.8 124.1 311 124.7 314.6 123.5C319.8 121.7 324.9 119.7 330 117.6C333.7 116.1 337.2 114.2 340.9 112.5C344.6 110.7 346.4 111.8 347 115.9C350.3 139 353.8 162 357.2 185.1C357.8 189.2 358.4 193.3 359 197.5C359.5 200.8 358.5 202.6 354.9 202.6C339.4 202.6 323.9 202.6 308.4 202.6C304.8 202.6 303.4 200.6 303.1 197.3C302.2 184.7 301.2 172.1 300.3 159.4C300 154.8 299.6 150.1 299.2 145.5C298.9 141.7 297.8 138.2 293.2 138.4C288.9 138.6 288.1 142.2 288.1 145.7C288.1 161 288.1 176.4 288.1 191.7C288.1 198.967 284.4 202.6 277 202.6C266.2 202.6 255.3 202.6 244.5 202.6C237.1 202.6 233.4 198.833 233.4 191.3C233.4 161.3 233.4 131.3 233.4 101.3L233.3 101.5ZM299.2 73.0999C299.2 67.5999 299.2 62.0999 299.2 56.5999C299.2 53.2999 297.8 50.4999 294.2 50.2999C290.3 50.0999 288.4 52.8999 288.3 56.3999C288.1 67.3999 288.1 78.2999 288.3 89.2999C288.3 92.6999 290 95.5999 294 95.5999C298.1 95.5999 299.2 92.4999 299.3 89.0999C299.3 83.7999 299.3 78.4999 299.3 73.0999H299.2Z" fill="#1a1717"/><path d="M26.5 129.4C33.4 129.4 40.4 129.4 47.3 129.4C50.9 129.4 52.7 131 52.6 134.6C52.6 138.5 52.6 142.4 52.6 146.2C52.6 149.5 53.6 152.6 57.6 152.7C61.6 152.7 63.1 149.8 63.3 146.2C63.5 142 64 137.7 63.1 133.7C62.5 130.9 60.5 127.6 58.2 126C53.3 122.6 47.9 120.1 42.6 117.4C37.4 114.8 32.1 112.4 26.9 109.9C13.4 103.4 4.79999 93 1.79999 78.1C-2.60001 56.9 0.0999908 37.3 14.6 20.3C29.1 3.29998 56 -3.60002 77.5 4.29998C100.1 12.5 115.4 33.4 115.8 56.5C115.8 61.2 115.8 65.9 115.8 70.5C115.8 74.2 114.1 75.7 110.4 75.7C96.5 75.7 82.6 75.7 68.7 75.7C65 75.7 63.4 74 63.4 70.4C63.4 66.4 63.4 62.3 63.2 58.3C63 54.9 61.5 52.1 57.8 52.1C53.9 52.1 52.8 55 52.6 58.4C52.6 58.6 52.6 58.7 52.6 58.9C51.5 75.7 51.9 76.3 67.3 83.5C75.2 87.2 83 91 90.7 95.1C104.6 102.5 112.7 114.1 114.8 129.8C117.5 149.8 115.6 168.7 101.2 184.2C84.8 202 64.4 208 41.3 201.2C18.6 194.5 4.79999 178.7 0.699993 155.2C-0.500007 148.6 -0.100009 141.7 -0.400009 134.9C-0.600009 130.7 1.49999 129.2 5.49999 129.2C12.4 129.3 19.4 129.2 26.3 129.2L26.5 129.4Z" fill="#1a1717"/><path d="M128.8 101.9C128.8 70.9001 128.8 39.9001 128.8 9.0001C128.8 1.5001 129.2 1.1001 136.8 1.1001C162.8 1.1001 188.8 1.1001 214.7 1.1001C221.7 1.1001 222.3 1.7001 222.3 8.4001C222.3 22.1001 222.2 35.7001 222.3 49.4001C222.3 54.1001 220.6 56.0001 215.8 55.9001C207.1 55.7001 198.5 55.9001 189.8 55.9001C185.4 55.9001 183.6 57.6001 183.4 62.1001C183 75.2001 182.9 75.2001 195.8 75.2001C200.6 75.2001 205.5 75.2001 210.3 75.2001C213.6 75.2001 215.2 76.8001 215.2 80.1001C215.2 95.1001 215.2 110.1 215.2 125.1C215.2 128.8 213 129.9 209.7 129.9C203 129.9 196.4 130 189.7 129.9C185.2 129.9 183.5 131.8 183.4 136.2C183 149 183 149.1 195.7 149.1C202.5 149.1 209.4 149.2 216.2 149.1C220.3 149.1 222.3 150.7 222.3 155C222.2 169.5 222.3 184 222.3 198.5C222.3 202.3 220.7 203.9 216.9 203.9C189.4 203.9 161.9 203.9 134.5 203.9C129.2 203.9 128.8 200.6 128.8 196.6C128.8 165.1 128.8 133.6 128.8 102.2V101.9Z" fill="#1a1717"/><path d="M419.2 203.7C429.9 203.7 440.7 203.7 451.4 203.7C454.6 203.7 455.4 203 455.8 200.2C457.1 190.5 458.5 180.9 459.8 171.2C460.9 162.4 461.9 153.5 463 144.6C463.9 137.6 464.9 130.7 465.8 123.7C466.5 118.3 466.9 113 467.6 107.6C468.4 101.3 469.4 95 470.3 88.8C471.3 81.7 472.2 74.6999 473.1 67.5999C473.8 62.1999 474.2 56.7 475 51.3C476.2 42.5 477.6 33.7999 478.8 25.0999C479.7 18.3999 480.4 11.7 481.2 4.89995C481.6 1.69995 481.1 0.89995 477.9 0.89995C462.4 0.89995 447 0.89995 431.5 0.89995C428.3 0.89995 427.9 1.49995 427.7 4.69995C427.2 17.1 426.7 29.6 426.3 42C425.7 63 425.2 84.1 424.7 105.1C424.4 118 424.3 130.9 424 143.8C424 145.3 423.7 146.9 423.2 148.3C422.2 151.1 419.2 151.9 417.3 149.6C416.2 148.3 415.5 146.3 415.4 144.5C414.8 125.2 414.3 105.9 413.8 86.5C413.4 71.8 412.9 57.1 412.6 42.4C412.3 30.3 412.3 18.2 412.1 5.99995C412.1 1.49995 411.3 0.699951 406.9 0.699951C396.2 0.699951 385.6 0.699951 374.9 0.699951C370.4 0.699951 366 0.699951 361.5 0.699951C357.2 0.699951 356.6 1.49995 357.4 5.59995C357.7 6.89995 357.8 8.29995 358 9.69995C358.7 15.6 359.4 21.4999 360.2 27.2999C360.9 32.5999 361.8 38 362.4 43.3C363.1 48.7 363.6 54.1999 364.2 59.6999C364.7 63.7999 365.3 67.8999 365.9 71.8999C366.7 77.2999 367.5 82.7 368.2 88.2C368.9 93.6 369.4 99.1 370.1 104.5C370.8 110.2 371.7 115.9 372.4 121.6C373.1 127.2 373.8 132.8 374.5 138.5C375.2 143.9 376.1 149.4 376.8 154.8C377.5 160.3 378 165.9 378.7 171.4C379.2 175.6 379.9 179.7 380.5 183.9C381.2 188.9 382.1 193.9 382.6 198.9C383 203 383.3 203.5 387.4 203.5C398 203.5 408.5 203.5 419.1 203.5L419.2 203.7Z" fill="#1a1717"/><path d="M419.2 203.7C408.6 203.7 398.1 203.7 387.5 203.7C383.4 203.7 383.1 203.2 382.7 199.1C382.1 194.1 381.3 189.1 380.6 184.1C380 179.9 379.4 175.8 378.8 171.6C378.1 166.1 377.6 160.5 376.9 155C376.2 149.6 375.3 144.1 374.6 138.7C373.8 133.1 373.2 127.5 372.5 121.8C371.8 116.1 370.9 110.4 370.2 104.7C369.5 99.2999 369 93.7999 368.3 88.3999C367.6 82.9999 366.8 77.4999 366 72.0999C365.4 67.9999 364.8 63.9999 364.3 59.8999C363.6 54.3999 363.2 48.9999 362.5 43.4999C361.8 38.0999 361 32.7999 360.3 27.4999C359.5 21.5999 358.8 15.7999 358.1 9.8999C357.9 8.4999 357.8 7.1999 357.5 5.7999C356.7 1.6999 357.3 0.899902 361.6 0.899902C366.1 0.899902 370.5 0.899902 375 0.899902C385.7 0.899902 396.3 0.899902 407 0.899902C411.4 0.899902 412.2 1.6999 412.2 6.1999C412.3 18.2999 412.4 30.3999 412.7 42.5999C413 57.2999 413.5 71.9999 413.9 86.6999C414.4 106 414.9 125.3 415.5 144.7C415.5 146.4 416.3 148.4 417.4 149.8C419.3 152.1 422.2 151.4 423.3 148.5C423.8 147.1 424.1 145.5 424.1 144C424.4 131.1 424.5 118.2 424.8 105.3C425.3 84.2999 425.8 63.1999 426.4 42.1999C426.8 29.7999 427.3 17.2999 427.8 4.8999C427.9 1.6999 428.4 1.0999 431.6 1.0999C447.1 1.0999 462.5 1.0999 478 1.0999C481.2 1.0999 481.7 1.8999 481.3 5.0999C480.5 11.7999 479.8 18.5999 478.9 25.2999C477.7 34.0999 476.3 42.7999 475.1 51.4999C474.4 56.8999 473.9 62.3999 473.2 67.7999C472.3 74.8999 471.4 81.8999 470.4 88.9999C469.5 95.2999 468.6 101.6 467.7 107.8C467 113.2 466.6 118.5 465.9 123.9C465 130.9 464 137.8 463.1 144.8C462 153.6 461.1 162.5 459.9 171.4C458.6 181.1 457.2 190.7 455.9 200.4C455.5 203.1 454.7 203.9 451.5 203.9C440.8 203.9 430 203.9 419.3 203.9L419.2 203.7Z" fill="#1a1717"/><path d="M565.4 55.3C565.4 53.9 565.2 52.8 565.2 51.8C565.2 36 565.2 20.1 565.2 4.29996C565.2 1.19996 566 -3.92888e-05 569.2 0.199961C576.5 0.599961 583.8 0.79996 591.1 0.89996C595.4 0.89996 599.8 0.39996 604.1 0.39996C618.3 0.49996 632.5 0.89996 646.7 0.89996C655.7 0.89996 664.7 0.399959 673.8 0.299959C677.7 0.299959 681.5 0.299959 685.6 0.299959C685.6 9.09996 685.6 17 685.6 24.8C685.5 34.9 685.6 45 684.9 55.1C684.7 58.2 682.4 61.3 680.7 64.1C670.3 81.4 659.7 98.6 649.2 115.9C642.4 127.2 635.8 138.7 629.1 150.1C627.2 153.2 625 156.2 623.2 159.3C621.7 161.8 620.6 164.7 623.4 167C626 169.1 630.3 168.3 632.3 165.2C635 161.2 637.3 156.9 639.7 152.7C641.2 150 643.1 148.6 646.6 148.7C658.2 149 669.8 148.8 681.3 148.7C684.2 148.7 685.7 148.6 685.4 152.9C684.7 163.4 685.4 174 685.5 184.6C685.5 190.4 685.6 196.2 685.5 201.9C685.5 202.4 684.1 203.4 683.4 203.4C671.2 203.5 659 203.6 646.7 203.5C633.9 203.5 621 203.2 608.2 203.1C595.2 203.1 582.2 203.1 569.2 203.1C568.1 203.1 566.9 203.4 565.2 203.7V199.3C565.2 183.7 565.5 168.1 565 152.6C564.8 147.3 567.7 143.9 569.9 140C575.8 129.9 582.1 120.1 588.2 110.1C596.2 96.9 604.2 83.7 612.1 70.4C618 60.5 624 50.7 629.6 40.6C630.5 38.9 630.3 35.9 629.4 34.1C628.8 32.9 625.9 32 624.4 32.4C622.7 32.8 621.1 34.6 620 36.2C616.3 41.8 612.9 47.7 609.2 53.4C608.7 54.2 607.8 55.2 607 55.2C593.2 55.3 579.4 55.2 565.4 55.2V55.3Z" fill="#1a1717"/><path d="M550.7 1.19996V203.8C533.2 203.8 516 203.8 498.7 203.8C496.9 203.8 495.6 203.8 495.8 201C496.3 195.4 496.2 189.8 496.2 184.2C496.1 173.4 495.7 162.6 495.6 151.7C495.5 142.7 495.6 133.8 495.6 124.8C495.6 115.9 495.7 106.9 495.7 98C495.7 89.1 495.6 80.2 495.7 71.3C495.7 64.2 496.2 57.1 496.2 49.9C496.2 41.5 495.8 33 495.8 24.6C495.8 17.5 495.9 10.4 496.2 3.39996C496.2 2.59996 497.6 1.19996 498.4 1.19996C509.8 1.09996 521.2 1.19996 532.7 1.19996C538.6 1.19996 544.5 1.19996 550.9 1.19996H550.7Z" fill="#1a1717"/><path d="M752.4 1.19996V203.8C734.9 203.8 717.7 203.8 700.4 203.8C698.6 203.8 697.3 203.8 697.5 201C698 195.4 697.9 189.8 697.9 184.2C697.8 173.4 697.4 162.6 697.3 151.7C697.2 142.7 697.3 133.8 697.3 124.8C697.3 115.9 697.4 106.9 697.4 98C697.4 89.1 697.3 80.2 697.4 71.3C697.4 64.2 697.9 57.1 697.9 49.9C697.9 41.5 697.5 33 697.5 24.6C697.5 17.5 697.6 10.4 697.9 3.39996C697.9 2.59996 699.3 1.19996 700.1 1.19996C711.5 1.09996 722.9 1.19996 734.4 1.19996C740.3 1.19996 746.2 1.19996 752.6 1.19996H752.4Z" fill="#1a1717"/></g></g></svg><svg x="307.3" y="0.0" width="127.1" height="104.0" viewBox="489.9 0.0 127.1 104.0" overflow="hidden"><g><g transform="translate(0,0)"><path d="M603.3 109.9C606.9 127.3 611.7 163.3 611.9 164.7C613.5 176.3 614.9 187.8 616.9 199.3C617.5 203.1 615.7 202.7 613.5 202.7C598 202.7 582.6 202.7 567.1 202.7C565.3 202.7 563.5 202.9 561.1 203.1C560.7 201.8 560 200.3 559.9 198.7C559.4 190.5 559.1 182.3 558.6 174.1C558 164.2 557.4 154.4 556.3 144.6C556.1 142.4 554.2 139.7 552.3 138.6C551.1 137.9 548.2 139.4 546.5 140.5C545.6 141.1 545.3 143.1 545.3 144.4C545.3 160.2 545.3 176.1 545.3 191.9C545.3 194.6 545.7 197.2 545.7 199.9C545.7 202.1 545.5 203.4 542.3 203C537 202.4 531.7 202.7 526.3 202.7C515.1 202.7 503.9 202.7 492.7 202.8C489.9 202.8 489.8 201.2 489.9 199.3C490.1 193.7 490.5 188.1 490.5 182.4C490.5 175.1 490.1 167.8 490.1 160.5C490.1 144.5 490.1 128.5 490.1 112.4C490.1 89 490 65.7 489.9 42.3C489.9 29.5 489.9 16.6 489.9 3.79996C489.9 0.799959 491.2 0.199959 493.8 0.299959C512.7 0.499959 531.6 0.99996 550.4 0.69996C559.3 0.49996 567.9 0.999959 576 4.39996C585 8.09996 592.4 14 598.8 21.4C604.2 27.6 607.8 34.6 610.2 42.3C612.2 48.7 612.6 55.2 612.1 62.1C611.2 73 607 82.4 600.8 90.9C593.1 101.4 582.9 108.5 570.4 112.3C569 112.7 567.3 112.9 566.4 113.9C565 115.3 563.2 117.3 563.2 118.9C563.3 121.3 565.1 124.1 568.1 123.4C573.7 122.1 579.2 120.5 584.5 118.4C590.5 116 596.3 112.9 603 109.8L603.3 109.9ZM556.5 72.5C556.5 66.8 556.5 61 556.5 55.3C556.5 52.4 553.9 49.4 551.4 49.3C549 49.2 545.3 52.4 545.3 55C545.3 66.7 545.5 78.4 545.8 90C545.8 93.4 548.7 95.9 551.9 95.5C555 95.1 556.6 93 556.5 89.7C556.4 84 556.5 78.2 556.5 72.5Z" fill="#1a1717"/><path d="M469.1 177.7C460 190.7 448.1 199.8 432.5 202.8C413.9 206.4 396.6 202.5 382 189.9C370.7 180.1 363.5 167.8 362.3 152.6C361.8 145.7 361.9 138.7 361.9 131.7C361.9 120.2 362.1 108.7 362.1 97.2001C362.1 85.1001 362.7 73.0001 362 60.9001C361.4 51.1001 363.2 42.0001 367.5 33.5001C377 14.7001 392.3 3.60008 413.4 1.30008C428.2 -0.299919 442 2.20008 454.3 11.3001C463.6 18.1001 470.6 27.0001 474.7 37.5001C477.9 45.8001 478.9 54.8001 478.4 64.0001C477.9 73.0001 478.3 82.0001 478.3 91.1001C478.3 104.4 478.3 117.6 478.3 130.9C478.3 139.3 478.3 147.7 477.5 156C476.9 161 474.5 165.9 473 170.8C472.7 171.8 470.4 176.3 469.3 177.9L469.1 177.7ZM415 147.9C415.5 149.8 417.7 151.8 419.6 152.5C420.7 152.9 423.3 151.2 424.3 149.8C425.3 148.4 425.3 146.2 425.4 144.3C425.5 132.8 425.6 121.2 425.6 109.7C425.6 99.5001 425.3 89.2001 425.2 79.0001C425.2 72.1001 425 65.2001 425.2 58.3001C425.2 54.6001 423.4 51.8001 420.2 51.6001C417.5 51.4001 414.9 54.4001 414.9 57.8001C414.7 72.4001 414.5 87.0001 414.4 101.6C414.4 113.7 414.4 144.8 415.1 148L415 147.9Z" fill="#1a1717"/><path d="M203.3 0.800049C212 68.3 220.6 135.4 229.3 202.7H173.1C173.1 189 173.1 175.6 173.1 162.2C173.1 160.6 172.4 159 171.9 157.4C170.9 154.5 168.5 153.5 165.9 154.6C163.2 155.6 161.9 157.9 161.9 161.1C162.1 174.6 162.1 188.2 162.2 201.7C162.2 202.1 161.9 202.4 161.6 203C146.2 203 130.7 203 115.2 203C113.2 203 111.1 203.4 109.3 202.9C108.1 202.5 106.4 200.7 106.5 199.7C108.3 185.4 110.4 171.1 112.3 156.8C114.1 142.8 115.6 128.7 117.5 114.7C118.9 103.9 120.7 93.2001 122.1 82.4001C123.5 71.1001 124.5 59.8 126 48.5C127.8 35 129.7 21.5 131.7 8.10005C132.8 0.800048 133 0.900049 140.3 0.900049C159.9 0.900049 179.6 0.900049 199.2 0.900049C200.4 0.900049 201.6 0.900049 203.4 0.900049L203.3 0.800049ZM173.1 85.2C173.1 79.5 173.1 73.8001 173.1 68.1001C173.1 64.8001 173.2 61.5 173.1 58.2C172.9 54.1 170.5 51.7001 167.2 51.8001C164 51.9001 162.1 54.4001 162 58.3001C162 62.6001 162 66.9 162 71.2C162 84.7 162 98.3 162 111.8C162 114.5 165.3 118.9 167.5 118.4C169.4 117.9 171.1 115.8 172.4 114C173.1 113.1 173 111.5 173.1 110.3C173.1 102 173.1 93.6 173.1 85.3V85.2Z" fill="#1a1717"/><path d="M326.6 202.7C318.7 202.7 312 202.7 305.3 202.7C300.3 202.7 295.3 202.6 290.4 202.6C283.1 202.6 275.8 202.8 268.5 203C264.9 203 261.3 203.2 257.6 203C256.8 203 255.6 201.7 255.4 200.9C253.9 190.7 252.7 180.5 251.3 170.3C249.9 160.1 248.5 149.9 247.2 139.8C245.2 123.9 243.3 108 241.3 92.0999C239.7 79.3999 238 66.7 236.3 54C234.1 37.6 232 21.2999 229.8 4.89995C229.6 3.59995 229.5 2.19995 229.4 0.199951C236 0.199951 242.3 0.199951 248.6 0.199951C258.7 0.199951 268.7 0.199951 278.8 0.199951C281.5 0.199951 282.5 0.799951 282.5 3.69995C282.7 18.6 283.1 33.6 283.4 48.5C283.6 59.4 283.7 70.3 284.1 81.2C284.4 89 285.2 96.8 285.5 104.6C285.8 112.8 285.5 121 285.7 129.2C285.7 135.1 286 140.9 286.4 146.8C286.6 149.9 288.5 151.3 291.6 151.4C294.8 151.4 296.9 149.8 297 146.9C297.2 139.6 297 132.2 297 124.8C297 120.3 297.6 115.7 297.7 111.2C297.8 106.4 297.7 101.5 297.7 96.7C297.7 95.1 297.8 93.4999 297.9 91.8999C298.2 87.3999 298.6 82.8999 298.8 78.3999C299.1 70.2999 299.4 62.1999 299.4 54.1999C299.4 46.5999 299 39 299.3 31.4C299.6 21.2 300.4 11.1 301 0.599951H352.8C344.1 68.1999 335.3 135.7 326.7 202.6L326.6 202.7Z" fill="#1a1717"/><path d="M0.699997 202.7C0.699997 192.9 0.699997 183.7 0.699997 174.5C0.699997 164.6 0.699997 154.7 0.699997 144.8C0.699997 110.7 0.699997 76.6001 0.699997 42.5001C0.699997 37.3001 0.899997 32.1001 0.699997 26.9001C0.299997 19.1001 1.8 11.4001 0.900002 3.6001C0.900002 2.9001 2.8 1.2001 3.8 1.2001C14.6 1.0001 55.3 0.600098 55.3 0.600098C55.3 6.9001 55.3 12.5001 55.3 18.1001C55.3 29.0001 55.6 40.0001 55.5 50.9001C55.5 58.6001 55 66.3001 54.9 73.9001C54.9 79.7001 55.4 85.5001 55.5 91.3001C55.5 99.7001 55.4 108.1 55.4 116.6C55.4 121.7 55.3 126.9 55.6 132C56.4 141.8 49.7 152.7 40.3 156.4C38 157.3 36.4 161.3 37.5 163.6C38.8 166.5 42.9 167.6 46.3 166.1C53.4 162.9 59.4 158.3 63.5 151.6C64.9 149.4 66.5 148.3 69.3 148.4C76.4 148.6 83.6 148.7 90.8 148.6C92.9 148.6 93.7 149 93.6 151.2C93.4 157.2 93.3 163.2 93.3 169.2C93.3 177.5 93.4 185.8 93.7 194C94.1 203.3 93.7 203.4 84.7 203.1C72.4 202.7 60.1 202.8 47.8 202.8C32.3 202.8 16.7 202.8 0.5 202.8L0.699997 202.7Z" fill="#1a1717"/><path d="M683.4 0.90006V204.2C665.9 204.2 648.5 204.2 631.2 204.2C629.4 204.2 628.1 204.2 628.3 201.3C628.8 195.7 628.7 190 628.7 184.4C628.6 173.5 628.2 162.7 628.1 151.8C628 142.8 628.1 133.8 628.1 124.8C628.1 115.8 628.2 106.9 628.2 97.9001C628.2 89.0001 628.1 80.1001 628.2 71.1001C628.2 64.0001 628.7 56.8001 628.7 49.7001C628.7 41.2001 628.3 32.8001 628.3 24.3001C628.3 17.2001 628.4 10.1001 628.7 3.00006C628.7 2.20006 630.1 0.80006 630.9 0.80006C642.4 0.70006 653.8 0.80006 665.3 0.80006C671.2 0.80006 677.1 0.80006 683.5 0.80006L683.4 0.90006Z" fill="#1a1717"/></g></g></svg><svg x="307.3" y="100.0" width="127.1" height="104.0" viewBox="489.9 0.0 127.1 104.0" overflow="hidden"><g transform="translate(0,104.0) scale(1,-1)"><g transform="translate(0,0)"><path d="M603.3 109.9C606.9 127.3 611.7 163.3 611.9 164.7C613.5 176.3 614.9 187.8 616.9 199.3C617.5 203.1 615.7 202.7 613.5 202.7C598 202.7 582.6 202.7 567.1 202.7C565.3 202.7 563.5 202.9 561.1 203.1C560.7 201.8 560 200.3 559.9 198.7C559.4 190.5 559.1 182.3 558.6 174.1C558 164.2 557.4 154.4 556.3 144.6C556.1 142.4 554.2 139.7 552.3 138.6C551.1 137.9 548.2 139.4 546.5 140.5C545.6 141.1 545.3 143.1 545.3 144.4C545.3 160.2 545.3 176.1 545.3 191.9C545.3 194.6 545.7 197.2 545.7 199.9C545.7 202.1 545.5 203.4 542.3 203C537 202.4 531.7 202.7 526.3 202.7C515.1 202.7 503.9 202.7 492.7 202.8C489.9 202.8 489.8 201.2 489.9 199.3C490.1 193.7 490.5 188.1 490.5 182.4C490.5 175.1 490.1 167.8 490.1 160.5C490.1 144.5 490.1 128.5 490.1 112.4C490.1 89 490 65.7 489.9 42.3C489.9 29.5 489.9 16.6 489.9 3.79996C489.9 0.799959 491.2 0.199959 493.8 0.299959C512.7 0.499959 531.6 0.99996 550.4 0.69996C559.3 0.49996 567.9 0.999959 576 4.39996C585 8.09996 592.4 14 598.8 21.4C604.2 27.6 607.8 34.6 610.2 42.3C612.2 48.7 612.6 55.2 612.1 62.1C611.2 73 607 82.4 600.8 90.9C593.1 101.4 582.9 108.5 570.4 112.3C569 112.7 567.3 112.9 566.4 113.9C565 115.3 563.2 117.3 563.2 118.9C563.3 121.3 565.1 124.1 568.1 123.4C573.7 122.1 579.2 120.5 584.5 118.4C590.5 116 596.3 112.9 603 109.8L603.3 109.9ZM556.5 72.5C556.5 66.8 556.5 61 556.5 55.3C556.5 52.4 553.9 49.4 551.4 49.3C549 49.2 545.3 52.4 545.3 55C545.3 66.7 545.5 78.4 545.8 90C545.8 93.4 548.7 95.9 551.9 95.5C555 95.1 556.6 93 556.5 89.7C556.4 84 556.5 78.2 556.5 72.5Z" fill="#1a1717"/><path d="M469.1 177.7C460 190.7 448.1 199.8 432.5 202.8C413.9 206.4 396.6 202.5 382 189.9C370.7 180.1 363.5 167.8 362.3 152.6C361.8 145.7 361.9 138.7 361.9 131.7C361.9 120.2 362.1 108.7 362.1 97.2001C362.1 85.1001 362.7 73.0001 362 60.9001C361.4 51.1001 363.2 42.0001 367.5 33.5001C377 14.7001 392.3 3.60008 413.4 1.30008C428.2 -0.299919 442 2.20008 454.3 11.3001C463.6 18.1001 470.6 27.0001 474.7 37.5001C477.9 45.8001 478.9 54.8001 478.4 64.0001C477.9 73.0001 478.3 82.0001 478.3 91.1001C478.3 104.4 478.3 117.6 478.3 130.9C478.3 139.3 478.3 147.7 477.5 156C476.9 161 474.5 165.9 473 170.8C472.7 171.8 470.4 176.3 469.3 177.9L469.1 177.7ZM415 147.9C415.5 149.8 417.7 151.8 419.6 152.5C420.7 152.9 423.3 151.2 424.3 149.8C425.3 148.4 425.3 146.2 425.4 144.3C425.5 132.8 425.6 121.2 425.6 109.7C425.6 99.5001 425.3 89.2001 425.2 79.0001C425.2 72.1001 425 65.2001 425.2 58.3001C425.2 54.6001 423.4 51.8001 420.2 51.6001C417.5 51.4001 414.9 54.4001 414.9 57.8001C414.7 72.4001 414.5 87.0001 414.4 101.6C414.4 113.7 414.4 144.8 415.1 148L415 147.9Z" fill="#1a1717"/><path d="M203.3 0.800049C212 68.3 220.6 135.4 229.3 202.7H173.1C173.1 189 173.1 175.6 173.1 162.2C173.1 160.6 172.4 159 171.9 157.4C170.9 154.5 168.5 153.5 165.9 154.6C163.2 155.6 161.9 157.9 161.9 161.1C162.1 174.6 162.1 188.2 162.2 201.7C162.2 202.1 161.9 202.4 161.6 203C146.2 203 130.7 203 115.2 203C113.2 203 111.1 203.4 109.3 202.9C108.1 202.5 106.4 200.7 106.5 199.7C108.3 185.4 110.4 171.1 112.3 156.8C114.1 142.8 115.6 128.7 117.5 114.7C118.9 103.9 120.7 93.2001 122.1 82.4001C123.5 71.1001 124.5 59.8 126 48.5C127.8 35 129.7 21.5 131.7 8.10005C132.8 0.800048 133 0.900049 140.3 0.900049C159.9 0.900049 179.6 0.900049 199.2 0.900049C200.4 0.900049 201.6 0.900049 203.4 0.900049L203.3 0.800049ZM173.1 85.2C173.1 79.5 173.1 73.8001 173.1 68.1001C173.1 64.8001 173.2 61.5 173.1 58.2C172.9 54.1 170.5 51.7001 167.2 51.8001C164 51.9001 162.1 54.4001 162 58.3001C162 62.6001 162 66.9 162 71.2C162 84.7 162 98.3 162 111.8C162 114.5 165.3 118.9 167.5 118.4C169.4 117.9 171.1 115.8 172.4 114C173.1 113.1 173 111.5 173.1 110.3C173.1 102 173.1 93.6 173.1 85.3V85.2Z" fill="#1a1717"/><path d="M326.6 202.7C318.7 202.7 312 202.7 305.3 202.7C300.3 202.7 295.3 202.6 290.4 202.6C283.1 202.6 275.8 202.8 268.5 203C264.9 203 261.3 203.2 257.6 203C256.8 203 255.6 201.7 255.4 200.9C253.9 190.7 252.7 180.5 251.3 170.3C249.9 160.1 248.5 149.9 247.2 139.8C245.2 123.9 243.3 108 241.3 92.0999C239.7 79.3999 238 66.7 236.3 54C234.1 37.6 232 21.2999 229.8 4.89995C229.6 3.59995 229.5 2.19995 229.4 0.199951C236 0.199951 242.3 0.199951 248.6 0.199951C258.7 0.199951 268.7 0.199951 278.8 0.199951C281.5 0.199951 282.5 0.799951 282.5 3.69995C282.7 18.6 283.1 33.6 283.4 48.5C283.6 59.4 283.7 70.3 284.1 81.2C284.4 89 285.2 96.8 285.5 104.6C285.8 112.8 285.5 121 285.7 129.2C285.7 135.1 286 140.9 286.4 146.8C286.6 149.9 288.5 151.3 291.6 151.4C294.8 151.4 296.9 149.8 297 146.9C297.2 139.6 297 132.2 297 124.8C297 120.3 297.6 115.7 297.7 111.2C297.8 106.4 297.7 101.5 297.7 96.7C297.7 95.1 297.8 93.4999 297.9 91.8999C298.2 87.3999 298.6 82.8999 298.8 78.3999C299.1 70.2999 299.4 62.1999 299.4 54.1999C299.4 46.5999 299 39 299.3 31.4C299.6 21.2 300.4 11.1 301 0.599951H352.8C344.1 68.1999 335.3 135.7 326.7 202.6L326.6 202.7Z" fill="#1a1717"/><path d="M0.699997 202.7C0.699997 192.9 0.699997 183.7 0.699997 174.5C0.699997 164.6 0.699997 154.7 0.699997 144.8C0.699997 110.7 0.699997 76.6001 0.699997 42.5001C0.699997 37.3001 0.899997 32.1001 0.699997 26.9001C0.299997 19.1001 1.8 11.4001 0.900002 3.6001C0.900002 2.9001 2.8 1.2001 3.8 1.2001C14.6 1.0001 55.3 0.600098 55.3 0.600098C55.3 6.9001 55.3 12.5001 55.3 18.1001C55.3 29.0001 55.6 40.0001 55.5 50.9001C55.5 58.6001 55 66.3001 54.9 73.9001C54.9 79.7001 55.4 85.5001 55.5 91.3001C55.5 99.7001 55.4 108.1 55.4 116.6C55.4 121.7 55.3 126.9 55.6 132C56.4 141.8 49.7 152.7 40.3 156.4C38 157.3 36.4 161.3 37.5 163.6C38.8 166.5 42.9 167.6 46.3 166.1C53.4 162.9 59.4 158.3 63.5 151.6C64.9 149.4 66.5 148.3 69.3 148.4C76.4 148.6 83.6 148.7 90.8 148.6C92.9 148.6 93.7 149 93.6 151.2C93.4 157.2 93.3 163.2 93.3 169.2C93.3 177.5 93.4 185.8 93.7 194C94.1 203.3 93.7 203.4 84.7 203.1C72.4 202.7 60.1 202.8 47.8 202.8C32.3 202.8 16.7 202.8 0.5 202.8L0.699997 202.7Z" fill="#1a1717"/><path d="M683.4 0.90006V204.2C665.9 204.2 648.5 204.2 631.2 204.2C629.4 204.2 628.1 204.2 628.3 201.3C628.8 195.7 628.7 190 628.7 184.4C628.6 173.5 628.2 162.7 628.1 151.8C628 142.8 628.1 133.8 628.1 124.8C628.1 115.8 628.2 106.9 628.2 97.9001C628.2 89.0001 628.1 80.1001 628.2 71.1001C628.2 64.0001 628.7 56.8001 628.7 49.7001C628.7 41.2001 628.3 32.8001 628.3 24.3001C628.3 17.2001 628.4 10.1001 628.7 3.00006C628.7 2.20006 630.1 0.80006 630.9 0.80006C642.4 0.70006 653.8 0.80006 665.3 0.80006C671.2 0.80006 677.1 0.80006 683.5 0.80006L683.4 0.90006Z" fill="#1a1717"/></g></g></svg><svg x="445.4" y="0.0" width="116.3" height="204.0" viewBox="-0.4 0.0 116.3 204.0" overflow="hidden"><g><g transform="translate(0,0)"><path d="M233.3 101.5C233.3 70.9999 233.3 40.4999 233.3 9.99992C233.3 0.999925 233.3 0.899924 242.6 0.899924C260.8 0.899924 278.9 0.699924 297.1 0.899924C324.5 1.29992 347.8 20.5999 353.8 47.1999C359.6 72.5999 343.6 101 318.2 110.6C315.9 111.5 313.5 112.2 311.1 113C307.8 114.2 305.3 116.1 306.5 120C307.8 124.1 311 124.7 314.6 123.5C319.8 121.7 324.9 119.7 330 117.6C333.7 116.1 337.2 114.2 340.9 112.5C344.6 110.7 346.4 111.8 347 115.9C350.3 139 353.8 162 357.2 185.1C357.8 189.2 358.4 193.3 359 197.5C359.5 200.8 358.5 202.6 354.9 202.6C339.4 202.6 323.9 202.6 308.4 202.6C304.8 202.6 303.4 200.6 303.1 197.3C302.2 184.7 301.2 172.1 300.3 159.4C300 154.8 299.6 150.1 299.2 145.5C298.9 141.7 297.8 138.2 293.2 138.4C288.9 138.6 288.1 142.2 288.1 145.7C288.1 161 288.1 176.4 288.1 191.7C288.1 198.967 284.4 202.6 277 202.6C266.2 202.6 255.3 202.6 244.5 202.6C237.1 202.6 233.4 198.833 233.4 191.3C233.4 161.3 233.4 131.3 233.4 101.3L233.3 101.5ZM299.2 73.0999C299.2 67.5999 299.2 62.0999 299.2 56.5999C299.2 53.2999 297.8 50.4999 294.2 50.2999C290.3 50.0999 288.4 52.8999 288.3 56.3999C288.1 67.3999 288.1 78.2999 288.3 89.2999C288.3 92.6999 290 95.5999 294 95.5999C298.1 95.5999 299.2 92.4999 299.3 89.0999C299.3 83.7999 299.3 78.4999 299.3 73.0999H299.2Z" fill="#1a1717"/><path d="M26.5 129.4C33.4 129.4 40.4 129.4 47.3 129.4C50.9 129.4 52.7 131 52.6 134.6C52.6 138.5 52.6 142.4 52.6 146.2C52.6 149.5 53.6 152.6 57.6 152.7C61.6 152.7 63.1 149.8 63.3 146.2C63.5 142 64 137.7 63.1 133.7C62.5 130.9 60.5 127.6 58.2 126C53.3 122.6 47.9 120.1 42.6 117.4C37.4 114.8 32.1 112.4 26.9 109.9C13.4 103.4 4.79999 93 1.79999 78.1C-2.60001 56.9 0.0999908 37.3 14.6 20.3C29.1 3.29998 56 -3.60002 77.5 4.29998C100.1 12.5 115.4 33.4 115.8 56.5C115.8 61.2 115.8 65.9 115.8 70.5C115.8 74.2 114.1 75.7 110.4 75.7C96.5 75.7 82.6 75.7 68.7 75.7C65 75.7 63.4 74 63.4 70.4C63.4 66.4 63.4 62.3 63.2 58.3C63 54.9 61.5 52.1 57.8 52.1C53.9 52.1 52.8 55 52.6 58.4C52.6 58.6 52.6 58.7 52.6 58.9C51.5 75.7 51.9 76.3 67.3 83.5C75.2 87.2 83 91 90.7 95.1C104.6 102.5 112.7 114.1 114.8 129.8C117.5 149.8 115.6 168.7 101.2 184.2C84.8 202 64.4 208 41.3 201.2C18.6 194.5 4.79999 178.7 0.699993 155.2C-0.500007 148.6 -0.100009 141.7 -0.400009 134.9C-0.600009 130.7 1.49999 129.2 5.49999 129.2C12.4 129.3 19.4 129.2 26.3 129.2L26.5 129.4Z" fill="#1a1717"/><path d="M128.8 101.9C128.8 70.9001 128.8 39.9001 128.8 9.0001C128.8 1.5001 129.2 1.1001 136.8 1.1001C162.8 1.1001 188.8 1.1001 214.7 1.1001C221.7 1.1001 222.3 1.7001 222.3 8.4001C222.3 22.1001 222.2 35.7001 222.3 49.4001C222.3 54.1001 220.6 56.0001 215.8 55.9001C207.1 55.7001 198.5 55.9001 189.8 55.9001C185.4 55.9001 183.6 57.6001 183.4 62.1001C183 75.2001 182.9 75.2001 195.8 75.2001C200.6 75.2001 205.5 75.2001 210.3 75.2001C213.6 75.2001 215.2 76.8001 215.2 80.1001C215.2 95.1001 215.2 110.1 215.2 125.1C215.2 128.8 213 129.9 209.7 129.9C203 129.9 196.4 130 189.7 129.9C185.2 129.9 183.5 131.8 183.4 136.2C183 149 183 149.1 195.7 149.1C202.5 149.1 209.4 149.2 216.2 149.1C220.3 149.1 222.3 150.7 222.3 155C222.2 169.5 222.3 184 222.3 198.5C222.3 202.3 220.7 203.9 216.9 203.9C189.4 203.9 161.9 203.9 134.5 203.9C129.2 203.9 128.8 200.6 128.8 196.6C128.8 165.1 128.8 133.6 128.8 102.2V101.9Z" fill="#1a1717"/><path d="M419.2 203.7C429.9 203.7 440.7 203.7 451.4 203.7C454.6 203.7 455.4 203 455.8 200.2C457.1 190.5 458.5 180.9 459.8 171.2C460.9 162.4 461.9 153.5 463 144.6C463.9 137.6 464.9 130.7 465.8 123.7C466.5 118.3 466.9 113 467.6 107.6C468.4 101.3 469.4 95 470.3 88.8C471.3 81.7 472.2 74.6999 473.1 67.5999C473.8 62.1999 474.2 56.7 475 51.3C476.2 42.5 477.6 33.7999 478.8 25.0999C479.7 18.3999 480.4 11.7 481.2 4.89995C481.6 1.69995 481.1 0.89995 477.9 0.89995C462.4 0.89995 447 0.89995 431.5 0.89995C428.3 0.89995 427.9 1.49995 427.7 4.69995C427.2 17.1 426.7 29.6 426.3 42C425.7 63 425.2 84.1 424.7 105.1C424.4 118 424.3 130.9 424 143.8C424 145.3 423.7 146.9 423.2 148.3C422.2 151.1 419.2 151.9 417.3 149.6C416.2 148.3 415.5 146.3 415.4 144.5C414.8 125.2 414.3 105.9 413.8 86.5C413.4 71.8 412.9 57.1 412.6 42.4C412.3 30.3 412.3 18.2 412.1 5.99995C412.1 1.49995 411.3 0.699951 406.9 0.699951C396.2 0.699951 385.6 0.699951 374.9 0.699951C370.4 0.699951 366 0.699951 361.5 0.699951C357.2 0.699951 356.6 1.49995 357.4 5.59995C357.7 6.89995 357.8 8.29995 358 9.69995C358.7 15.6 359.4 21.4999 360.2 27.2999C360.9 32.5999 361.8 38 362.4 43.3C363.1 48.7 363.6 54.1999 364.2 59.6999C364.7 63.7999 365.3 67.8999 365.9 71.8999C366.7 77.2999 367.5 82.7 368.2 88.2C368.9 93.6 369.4 99.1 370.1 104.5C370.8 110.2 371.7 115.9 372.4 121.6C373.1 127.2 373.8 132.8 374.5 138.5C375.2 143.9 376.1 149.4 376.8 154.8C377.5 160.3 378 165.9 378.7 171.4C379.2 175.6 379.9 179.7 380.5 183.9C381.2 188.9 382.1 193.9 382.6 198.9C383 203 383.3 203.5 387.4 203.5C398 203.5 408.5 203.5 419.1 203.5L419.2 203.7Z" fill="#1a1717"/><path d="M419.2 203.7C408.6 203.7 398.1 203.7 387.5 203.7C383.4 203.7 383.1 203.2 382.7 199.1C382.1 194.1 381.3 189.1 380.6 184.1C380 179.9 379.4 175.8 378.8 171.6C378.1 166.1 377.6 160.5 376.9 155C376.2 149.6 375.3 144.1 374.6 138.7C373.8 133.1 373.2 127.5 372.5 121.8C371.8 116.1 370.9 110.4 370.2 104.7C369.5 99.2999 369 93.7999 368.3 88.3999C367.6 82.9999 366.8 77.4999 366 72.0999C365.4 67.9999 364.8 63.9999 364.3 59.8999C363.6 54.3999 363.2 48.9999 362.5 43.4999C361.8 38.0999 361 32.7999 360.3 27.4999C359.5 21.5999 358.8 15.7999 358.1 9.8999C357.9 8.4999 357.8 7.1999 357.5 5.7999C356.7 1.6999 357.3 0.899902 361.6 0.899902C366.1 0.899902 370.5 0.899902 375 0.899902C385.7 0.899902 396.3 0.899902 407 0.899902C411.4 0.899902 412.2 1.6999 412.2 6.1999C412.3 18.2999 412.4 30.3999 412.7 42.5999C413 57.2999 413.5 71.9999 413.9 86.6999C414.4 106 414.9 125.3 415.5 144.7C415.5 146.4 416.3 148.4 417.4 149.8C419.3 152.1 422.2 151.4 423.3 148.5C423.8 147.1 424.1 145.5 424.1 144C424.4 131.1 424.5 118.2 424.8 105.3C425.3 84.2999 425.8 63.1999 426.4 42.1999C426.8 29.7999 427.3 17.2999 427.8 4.8999C427.9 1.6999 428.4 1.0999 431.6 1.0999C447.1 1.0999 462.5 1.0999 478 1.0999C481.2 1.0999 481.7 1.8999 481.3 5.0999C480.5 11.7999 479.8 18.5999 478.9 25.2999C477.7 34.0999 476.3 42.7999 475.1 51.4999C474.4 56.8999 473.9 62.3999 473.2 67.7999C472.3 74.8999 471.4 81.8999 470.4 88.9999C469.5 95.2999 468.6 101.6 467.7 107.8C467 113.2 466.6 118.5 465.9 123.9C465 130.9 464 137.8 463.1 144.8C462 153.6 461.1 162.5 459.9 171.4C458.6 181.1 457.2 190.7 455.9 200.4C455.5 203.1 454.7 203.9 451.5 203.9C440.8 203.9 430 203.9 419.3 203.9L419.2 203.7Z" fill="#1a1717"/><path d="M565.4 55.3C565.4 53.9 565.2 52.8 565.2 51.8C565.2 36 565.2 20.1 565.2 4.29996C565.2 1.19996 566 -3.92888e-05 569.2 0.199961C576.5 0.599961 583.8 0.79996 591.1 0.89996C595.4 0.89996 599.8 0.39996 604.1 0.39996C618.3 0.49996 632.5 0.89996 646.7 0.89996C655.7 0.89996 664.7 0.399959 673.8 0.299959C677.7 0.299959 681.5 0.299959 685.6 0.299959C685.6 9.09996 685.6 17 685.6 24.8C685.5 34.9 685.6 45 684.9 55.1C684.7 58.2 682.4 61.3 680.7 64.1C670.3 81.4 659.7 98.6 649.2 115.9C642.4 127.2 635.8 138.7 629.1 150.1C627.2 153.2 625 156.2 623.2 159.3C621.7 161.8 620.6 164.7 623.4 167C626 169.1 630.3 168.3 632.3 165.2C635 161.2 637.3 156.9 639.7 152.7C641.2 150 643.1 148.6 646.6 148.7C658.2 149 669.8 148.8 681.3 148.7C684.2 148.7 685.7 148.6 685.4 152.9C684.7 163.4 685.4 174 685.5 184.6C685.5 190.4 685.6 196.2 685.5 201.9C685.5 202.4 684.1 203.4 683.4 203.4C671.2 203.5 659 203.6 646.7 203.5C633.9 203.5 621 203.2 608.2 203.1C595.2 203.1 582.2 203.1 569.2 203.1C568.1 203.1 566.9 203.4 565.2 203.7V199.3C565.2 183.7 565.5 168.1 565 152.6C564.8 147.3 567.7 143.9 569.9 140C575.8 129.9 582.1 120.1 588.2 110.1C596.2 96.9 604.2 83.7 612.1 70.4C618 60.5 624 50.7 629.6 40.6C630.5 38.9 630.3 35.9 629.4 34.1C628.8 32.9 625.9 32 624.4 32.4C622.7 32.8 621.1 34.6 620 36.2C616.3 41.8 612.9 47.7 609.2 53.4C608.7 54.2 607.8 55.2 607 55.2C593.2 55.3 579.4 55.2 565.4 55.2V55.3Z" fill="#1a1717"/><path d="M550.7 1.19996V203.8C533.2 203.8 516 203.8 498.7 203.8C496.9 203.8 495.6 203.8 495.8 201C496.3 195.4 496.2 189.8 496.2 184.2C496.1 173.4 495.7 162.6 495.6 151.7C495.5 142.7 495.6 133.8 495.6 124.8C495.6 115.9 495.7 106.9 495.7 98C495.7 89.1 495.6 80.2 495.7 71.3C495.7 64.2 496.2 57.1 496.2 49.9C496.2 41.5 495.8 33 495.8 24.6C495.8 17.5 495.9 10.4 496.2 3.39996C496.2 2.59996 497.6 1.19996 498.4 1.19996C509.8 1.09996 521.2 1.19996 532.7 1.19996C538.6 1.19996 544.5 1.19996 550.9 1.19996H550.7Z" fill="#1a1717"/><path d="M752.4 1.19996V203.8C734.9 203.8 717.7 203.8 700.4 203.8C698.6 203.8 697.3 203.8 697.5 201C698 195.4 697.9 189.8 697.9 184.2C697.8 173.4 697.4 162.6 697.3 151.7C697.2 142.7 697.3 133.8 697.3 124.8C697.3 115.9 697.4 106.9 697.4 98C697.4 89.1 697.3 80.2 697.4 71.3C697.4 64.2 697.9 57.1 697.9 49.9C697.9 41.5 697.5 33 697.5 24.6C697.5 17.5 697.6 10.4 697.9 3.39996C697.9 2.59996 699.3 1.19996 700.1 1.19996C711.5 1.09996 722.9 1.19996 734.4 1.19996C740.3 1.19996 746.2 1.19996 752.6 1.19996H752.4Z" fill="#1a1717"/></g></g></svg><svg x="572.7" y="0.0" width="55.3" height="204.0" viewBox="495.6 0.0 55.3 204.0" overflow="hidden"><g><g transform="translate(0,0)"><path d="M233.3 101.5C233.3 70.9999 233.3 40.4999 233.3 9.99992C233.3 0.999925 233.3 0.899924 242.6 0.899924C260.8 0.899924 278.9 0.699924 297.1 0.899924C324.5 1.29992 347.8 20.5999 353.8 47.1999C359.6 72.5999 343.6 101 318.2 110.6C315.9 111.5 313.5 112.2 311.1 113C307.8 114.2 305.3 116.1 306.5 120C307.8 124.1 311 124.7 314.6 123.5C319.8 121.7 324.9 119.7 330 117.6C333.7 116.1 337.2 114.2 340.9 112.5C344.6 110.7 346.4 111.8 347 115.9C350.3 139 353.8 162 357.2 185.1C357.8 189.2 358.4 193.3 359 197.5C359.5 200.8 358.5 202.6 354.9 202.6C339.4 202.6 323.9 202.6 308.4 202.6C304.8 202.6 303.4 200.6 303.1 197.3C302.2 184.7 301.2 172.1 300.3 159.4C300 154.8 299.6 150.1 299.2 145.5C298.9 141.7 297.8 138.2 293.2 138.4C288.9 138.6 288.1 142.2 288.1 145.7C288.1 161 288.1 176.4 288.1 191.7C288.1 198.967 284.4 202.6 277 202.6C266.2 202.6 255.3 202.6 244.5 202.6C237.1 202.6 233.4 198.833 233.4 191.3C233.4 161.3 233.4 131.3 233.4 101.3L233.3 101.5ZM299.2 73.0999C299.2 67.5999 299.2 62.0999 299.2 56.5999C299.2 53.2999 297.8 50.4999 294.2 50.2999C290.3 50.0999 288.4 52.8999 288.3 56.3999C288.1 67.3999 288.1 78.2999 288.3 89.2999C288.3 92.6999 290 95.5999 294 95.5999C298.1 95.5999 299.2 92.4999 299.3 89.0999C299.3 83.7999 299.3 78.4999 299.3 73.0999H299.2Z" fill="#1a1717"/><path d="M26.5 129.4C33.4 129.4 40.4 129.4 47.3 129.4C50.9 129.4 52.7 131 52.6 134.6C52.6 138.5 52.6 142.4 52.6 146.2C52.6 149.5 53.6 152.6 57.6 152.7C61.6 152.7 63.1 149.8 63.3 146.2C63.5 142 64 137.7 63.1 133.7C62.5 130.9 60.5 127.6 58.2 126C53.3 122.6 47.9 120.1 42.6 117.4C37.4 114.8 32.1 112.4 26.9 109.9C13.4 103.4 4.79999 93 1.79999 78.1C-2.60001 56.9 0.0999908 37.3 14.6 20.3C29.1 3.29998 56 -3.60002 77.5 4.29998C100.1 12.5 115.4 33.4 115.8 56.5C115.8 61.2 115.8 65.9 115.8 70.5C115.8 74.2 114.1 75.7 110.4 75.7C96.5 75.7 82.6 75.7 68.7 75.7C65 75.7 63.4 74 63.4 70.4C63.4 66.4 63.4 62.3 63.2 58.3C63 54.9 61.5 52.1 57.8 52.1C53.9 52.1 52.8 55 52.6 58.4C52.6 58.6 52.6 58.7 52.6 58.9C51.5 75.7 51.9 76.3 67.3 83.5C75.2 87.2 83 91 90.7 95.1C104.6 102.5 112.7 114.1 114.8 129.8C117.5 149.8 115.6 168.7 101.2 184.2C84.8 202 64.4 208 41.3 201.2C18.6 194.5 4.79999 178.7 0.699993 155.2C-0.500007 148.6 -0.100009 141.7 -0.400009 134.9C-0.600009 130.7 1.49999 129.2 5.49999 129.2C12.4 129.3 19.4 129.2 26.3 129.2L26.5 129.4Z" fill="#1a1717"/><path d="M128.8 101.9C128.8 70.9001 128.8 39.9001 128.8 9.0001C128.8 1.5001 129.2 1.1001 136.8 1.1001C162.8 1.1001 188.8 1.1001 214.7 1.1001C221.7 1.1001 222.3 1.7001 222.3 8.4001C222.3 22.1001 222.2 35.7001 222.3 49.4001C222.3 54.1001 220.6 56.0001 215.8 55.9001C207.1 55.7001 198.5 55.9001 189.8 55.9001C185.4 55.9001 183.6 57.6001 183.4 62.1001C183 75.2001 182.9 75.2001 195.8 75.2001C200.6 75.2001 205.5 75.2001 210.3 75.2001C213.6 75.2001 215.2 76.8001 215.2 80.1001C215.2 95.1001 215.2 110.1 215.2 125.1C215.2 128.8 213 129.9 209.7 129.9C203 129.9 196.4 130 189.7 129.9C185.2 129.9 183.5 131.8 183.4 136.2C183 149 183 149.1 195.7 149.1C202.5 149.1 209.4 149.2 216.2 149.1C220.3 149.1 222.3 150.7 222.3 155C222.2 169.5 222.3 184 222.3 198.5C222.3 202.3 220.7 203.9 216.9 203.9C189.4 203.9 161.9 203.9 134.5 203.9C129.2 203.9 128.8 200.6 128.8 196.6C128.8 165.1 128.8 133.6 128.8 102.2V101.9Z" fill="#1a1717"/><path d="M419.2 203.7C429.9 203.7 440.7 203.7 451.4 203.7C454.6 203.7 455.4 203 455.8 200.2C457.1 190.5 458.5 180.9 459.8 171.2C460.9 162.4 461.9 153.5 463 144.6C463.9 137.6 464.9 130.7 465.8 123.7C466.5 118.3 466.9 113 467.6 107.6C468.4 101.3 469.4 95 470.3 88.8C471.3 81.7 472.2 74.6999 473.1 67.5999C473.8 62.1999 474.2 56.7 475 51.3C476.2 42.5 477.6 33.7999 478.8 25.0999C479.7 18.3999 480.4 11.7 481.2 4.89995C481.6 1.69995 481.1 0.89995 477.9 0.89995C462.4 0.89995 447 0.89995 431.5 0.89995C428.3 0.89995 427.9 1.49995 427.7 4.69995C427.2 17.1 426.7 29.6 426.3 42C425.7 63 425.2 84.1 424.7 105.1C424.4 118 424.3 130.9 424 143.8C424 145.3 423.7 146.9 423.2 148.3C422.2 151.1 419.2 151.9 417.3 149.6C416.2 148.3 415.5 146.3 415.4 144.5C414.8 125.2 414.3 105.9 413.8 86.5C413.4 71.8 412.9 57.1 412.6 42.4C412.3 30.3 412.3 18.2 412.1 5.99995C412.1 1.49995 411.3 0.699951 406.9 0.699951C396.2 0.699951 385.6 0.699951 374.9 0.699951C370.4 0.699951 366 0.699951 361.5 0.699951C357.2 0.699951 356.6 1.49995 357.4 5.59995C357.7 6.89995 357.8 8.29995 358 9.69995C358.7 15.6 359.4 21.4999 360.2 27.2999C360.9 32.5999 361.8 38 362.4 43.3C363.1 48.7 363.6 54.1999 364.2 59.6999C364.7 63.7999 365.3 67.8999 365.9 71.8999C366.7 77.2999 367.5 82.7 368.2 88.2C368.9 93.6 369.4 99.1 370.1 104.5C370.8 110.2 371.7 115.9 372.4 121.6C373.1 127.2 373.8 132.8 374.5 138.5C375.2 143.9 376.1 149.4 376.8 154.8C377.5 160.3 378 165.9 378.7 171.4C379.2 175.6 379.9 179.7 380.5 183.9C381.2 188.9 382.1 193.9 382.6 198.9C383 203 383.3 203.5 387.4 203.5C398 203.5 408.5 203.5 419.1 203.5L419.2 203.7Z" fill="#1a1717"/><path d="M419.2 203.7C408.6 203.7 398.1 203.7 387.5 203.7C383.4 203.7 383.1 203.2 382.7 199.1C382.1 194.1 381.3 189.1 380.6 184.1C380 179.9 379.4 175.8 378.8 171.6C378.1 166.1 377.6 160.5 376.9 155C376.2 149.6 375.3 144.1 374.6 138.7C373.8 133.1 373.2 127.5 372.5 121.8C371.8 116.1 370.9 110.4 370.2 104.7C369.5 99.2999 369 93.7999 368.3 88.3999C367.6 82.9999 366.8 77.4999 366 72.0999C365.4 67.9999 364.8 63.9999 364.3 59.8999C363.6 54.3999 363.2 48.9999 362.5 43.4999C361.8 38.0999 361 32.7999 360.3 27.4999C359.5 21.5999 358.8 15.7999 358.1 9.8999C357.9 8.4999 357.8 7.1999 357.5 5.7999C356.7 1.6999 357.3 0.899902 361.6 0.899902C366.1 0.899902 370.5 0.899902 375 0.899902C385.7 0.899902 396.3 0.899902 407 0.899902C411.4 0.899902 412.2 1.6999 412.2 6.1999C412.3 18.2999 412.4 30.3999 412.7 42.5999C413 57.2999 413.5 71.9999 413.9 86.6999C414.4 106 414.9 125.3 415.5 144.7C415.5 146.4 416.3 148.4 417.4 149.8C419.3 152.1 422.2 151.4 423.3 148.5C423.8 147.1 424.1 145.5 424.1 144C424.4 131.1 424.5 118.2 424.8 105.3C425.3 84.2999 425.8 63.1999 426.4 42.1999C426.8 29.7999 427.3 17.2999 427.8 4.8999C427.9 1.6999 428.4 1.0999 431.6 1.0999C447.1 1.0999 462.5 1.0999 478 1.0999C481.2 1.0999 481.7 1.8999 481.3 5.0999C480.5 11.7999 479.8 18.5999 478.9 25.2999C477.7 34.0999 476.3 42.7999 475.1 51.4999C474.4 56.8999 473.9 62.3999 473.2 67.7999C472.3 74.8999 471.4 81.8999 470.4 88.9999C469.5 95.2999 468.6 101.6 467.7 107.8C467 113.2 466.6 118.5 465.9 123.9C465 130.9 464 137.8 463.1 144.8C462 153.6 461.1 162.5 459.9 171.4C458.6 181.1 457.2 190.7 455.9 200.4C455.5 203.1 454.7 203.9 451.5 203.9C440.8 203.9 430 203.9 419.3 203.9L419.2 203.7Z" fill="#1a1717"/><path d="M565.4 55.3C565.4 53.9 565.2 52.8 565.2 51.8C565.2 36 565.2 20.1 565.2 4.29996C565.2 1.19996 566 -3.92888e-05 569.2 0.199961C576.5 0.599961 583.8 0.79996 591.1 0.89996C595.4 0.89996 599.8 0.39996 604.1 0.39996C618.3 0.49996 632.5 0.89996 646.7 0.89996C655.7 0.89996 664.7 0.399959 673.8 0.299959C677.7 0.299959 681.5 0.299959 685.6 0.299959C685.6 9.09996 685.6 17 685.6 24.8C685.5 34.9 685.6 45 684.9 55.1C684.7 58.2 682.4 61.3 680.7 64.1C670.3 81.4 659.7 98.6 649.2 115.9C642.4 127.2 635.8 138.7 629.1 150.1C627.2 153.2 625 156.2 623.2 159.3C621.7 161.8 620.6 164.7 623.4 167C626 169.1 630.3 168.3 632.3 165.2C635 161.2 637.3 156.9 639.7 152.7C641.2 150 643.1 148.6 646.6 148.7C658.2 149 669.8 148.8 681.3 148.7C684.2 148.7 685.7 148.6 685.4 152.9C684.7 163.4 685.4 174 685.5 184.6C685.5 190.4 685.6 196.2 685.5 201.9C685.5 202.4 684.1 203.4 683.4 203.4C671.2 203.5 659 203.6 646.7 203.5C633.9 203.5 621 203.2 608.2 203.1C595.2 203.1 582.2 203.1 569.2 203.1C568.1 203.1 566.9 203.4 565.2 203.7V199.3C565.2 183.7 565.5 168.1 565 152.6C564.8 147.3 567.7 143.9 569.9 140C575.8 129.9 582.1 120.1 588.2 110.1C596.2 96.9 604.2 83.7 612.1 70.4C618 60.5 624 50.7 629.6 40.6C630.5 38.9 630.3 35.9 629.4 34.1C628.8 32.9 625.9 32 624.4 32.4C622.7 32.8 621.1 34.6 620 36.2C616.3 41.8 612.9 47.7 609.2 53.4C608.7 54.2 607.8 55.2 607 55.2C593.2 55.3 579.4 55.2 565.4 55.2V55.3Z" fill="#1a1717"/><path d="M550.7 1.19996V203.8C533.2 203.8 516 203.8 498.7 203.8C496.9 203.8 495.6 203.8 495.8 201C496.3 195.4 496.2 189.8 496.2 184.2C496.1 173.4 495.7 162.6 495.6 151.7C495.5 142.7 495.6 133.8 495.6 124.8C495.6 115.9 495.7 106.9 495.7 98C495.7 89.1 495.6 80.2 495.7 71.3C495.7 64.2 496.2 57.1 496.2 49.9C496.2 41.5 495.8 33 495.8 24.6C495.8 17.5 495.9 10.4 496.2 3.39996C496.2 2.59996 497.6 1.19996 498.4 1.19996C509.8 1.09996 521.2 1.19996 532.7 1.19996C538.6 1.19996 544.5 1.19996 550.9 1.19996H550.7Z" fill="#1a1717"/><path d="M752.4 1.19996V203.8C734.9 203.8 717.7 203.8 700.4 203.8C698.6 203.8 697.3 203.8 697.5 201C698 195.4 697.9 189.8 697.9 184.2C697.8 173.4 697.4 162.6 697.3 151.7C697.2 142.7 697.3 133.8 697.3 124.8C697.3 115.9 697.4 106.9 697.4 98C697.4 89.1 697.3 80.2 697.4 71.3C697.4 64.2 697.9 57.1 697.9 49.9C697.9 41.5 697.5 33 697.5 24.6C697.5 17.5 697.6 10.4 697.9 3.39996C697.9 2.59996 699.3 1.19996 700.1 1.19996C711.5 1.09996 722.9 1.19996 734.4 1.19996C740.3 1.19996 746.2 1.19996 752.6 1.19996H752.4Z" fill="#1a1717"/></g></g></svg><svg x="639.0" y="0.0" width="120.2" height="204.0" viewBox="401.3 0.0 120.2 204.0" overflow="hidden"><g><g transform="translate(0,0)"><path d="M254.5 1.3999C270.6 1.3999 286.1 1.3999 301.6 1.3999C308 1.3999 314.3 1.3999 320.7 1.3999C323.3 1.3999 324.4 2.0999 324.6 4.8999C325.2 14.7999 326.1 24.5999 326.8 34.4999C327.5 44.9999 327.8 55.4999 328.6 66.0999C329.2 73.9999 330.2 81.8999 330.9 89.7999C331.1 92.1999 331 94.5999 331.2 96.8999C331.3 99.5999 334.2 102.3 336.7 102.3C338.9 102.3 342.1 98.7999 342 96.2999C341.8 88.2999 341.5 80.1999 341.5 72.1999C341.5 56.1999 341.9 40.2999 342 24.2999C342 17.6999 341.6 11.0999 341.4 4.5999C341.4 2.8999 341.4 1.3999 343.7 1.3999C359.2 1.3999 374.7 1.3999 390.7 1.3999V202.9H321.5C321.2 199.9 320.8 196.6 320.6 193.4C319.6 181 318.7 168.6 317.8 156.3C317.2 147.7 317.1 139.1 316.5 130.6C316.2 125.7 315.3 120.7 314.8 115.8C314.5 113.3 314.4 110.8 314.4 108.3C314.4 104.8 312.6 102.5 309.3 102.4C306.4 102.3 303.1 104.9 303.1 107.7C303.1 115.2 303 122.6 303.1 130.1C303.2 139.2 303.7 148.3 303.8 157.5C303.9 171.6 303.8 185.7 303.8 199.8C303.8 202.3 303.6 203.3 300.4 203.2C286.7 202.8 273 202.3 259.4 203.2C253.8 203.5 254.4 201.4 254.4 197.9C254.4 133.9 254.4 69.7999 254.4 5.7999V1.7999L254.5 1.3999Z" fill="#1a1717"/><path d="M232.7 177.9C223.6 190.9 211.7 200 196.1 203C177.5 206.6 160.2 202.7 145.6 190.1C134.3 180.3 127.1 168 125.9 152.8C125.4 145.9 125.5 138.9 125.5 131.9C125.5 120.4 125.7 108.9 125.7 97.4C125.7 85.3 126.3 73.2 125.6 61.1C125 51.3 126.8 42.2 131.1 33.7C140.6 14.9 155.9 3.80003 177 1.50003C191.8 -0.0999673 205.6 2.40003 217.9 11.5C227.2 18.3 234.2 27.2 238.3 37.7C241.5 46 242.5 55 242 64.2C241.5 73.2 241.9 82.2 241.9 91.3C241.9 104.6 241.9 117.8 241.9 131.1C241.9 139.5 241.9 147.9 241.1 156.2C240.5 161.2 238.1 166.1 236.6 171C236.3 172 234 176.5 232.9 178.1L232.7 177.9ZM178.6 148C179.1 149.9 181.3 151.9 183.2 152.6C184.3 153 186.9 151.3 187.9 149.9C188.9 148.5 188.9 146.3 189 144.4C189.1 132.9 189.2 121.3 189.2 109.8C189.2 99.6 188.9 89.3 188.8 79.1C188.8 72.2 188.6 65.3 188.8 58.4C188.8 54.7 187 51.9 183.8 51.7C181.1 51.5 178.5 54.5 178.5 57.9C178.3 72.5 178.1 87.1 178 101.7C178 113.8 178 144.9 178.7 148.1L178.6 148Z" fill="#1a1717"/><path d="M115.4 96.8001C106.5 96.8001 97.9999 96.8001 89.5999 96.8001C85.1999 96.8001 80.7999 96.8001 76.3999 96.8001C73.3999 96.8001 70.2999 96.8001 67.2999 97.2001C64.0999 97.7001 62.8999 96.8001 62.9999 93.4001C63.1999 81.7001 62.9999 70.0001 62.9999 58.3001C62.9999 54.4001 61.3999 52.5001 58.0999 52.5001C54.5999 52.5001 52.7999 54.6001 52.7999 58.6001C52.6999 66.4001 52.2999 74.1001 52.2999 81.9001C52.2999 94.0001 52.4999 106.2 52.5999 118.3C52.5999 127.1 52.3999 135.9 52.5999 144.6C52.5999 147.1 51.4999 150.4 54.7999 151.8C56.5999 152.5 59.0999 153.2 60.4999 152.5C61.8999 151.8 62.9999 149.2 63.0999 147.5C63.2999 135.9 63.0999 124.3 63.1999 112.7C63.1999 111 63.5999 109.3 63.7999 108H115.8C115.8 113.9 115.8 119.4 115.8 125C115.9 133.2 116.6 141.5 116.2 149.6C115.6 159.5 112.7 169 107.1 177.3C102 184.9 95.6999 191.4 87.7999 196.2C78.8999 201.5 69.2999 203.9 58.6999 204.1C41.2999 204.4 26.9999 198 15.2999 185.7C5.59993 175.6 -6.63102e-05 163.1 -0.200066 149C-0.500066 118.3 -0.500065 87.6001 -0.300065 56.9001C-0.300065 45.3001 3.99993 34.9001 10.7999 25.3001C19.1999 13.4001 30.4999 6.0001 44.4999 2.7001C53.1999 0.600105 61.9999 0.500104 70.9999 2.5001C83.6999 5.2001 93.9999 11.5001 102.1 21.0001C109.4 29.6001 114.6 39.7001 115.5 51.2001C116.2 60.1001 115.5 69.0001 115.7 77.9001C115.7 83.6001 116.1 89.2001 116.1 94.9001C116.1 95.7001 115.6 96.5001 115.5 96.7001L115.4 96.8001Z" fill="#1a1717"/><path d="M609.2 0.100098C617.9 67.8001 626.6 135 635.2 202.6H578.9C578.9 188.9 578.9 175.4 578.9 162C578.9 160.4 578.2 158.8 577.7 157.2C576.7 154.3 574.3 153.3 571.7 154.4C569 155.4 567.6 157.7 567.7 160.9C567.9 174.5 567.9 188 568 201.6C568 202 567.7 202.3 567.4 202.9C551.9 202.9 536.4 202.9 520.9 202.9C518.9 202.9 516.8 203.3 515 202.8C513.8 202.4 512.1 200.6 512.2 199.6C514 185.2 516.1 170.9 518 156.6C519.8 142.5 521.4 128.4 523.2 114.4C524.6 103.6 526.4 92.8001 527.8 82.0001C529.2 70.7001 530.3 59.3001 531.7 48.0001C533.5 34.5001 535.4 21.0001 537.4 7.5001C538.5 0.200097 538.7 0.200098 546 0.200098C565.7 0.200098 585.399 0.200098 605.099 0.200098C606.299 0.200098 607.5 0.200098 609.3 0.200098L609.2 0.100098ZM578.9 84.7001C578.9 79.0001 578.9 73.3001 578.9 67.6001C578.9 64.3001 579 61.0001 578.9 57.6001C578.7 53.5001 576.3 51.1001 572.9 51.2001C569.7 51.3001 567.8 53.8001 567.7 57.7001C567.7 62.0001 567.7 66.3001 567.7 70.6001C567.7 84.2001 567.7 97.7001 567.7 111.3C567.7 114 571 118.4 573.3 117.9C575.2 117.4 576.9 115.2 578.2 113.5C578.9 112.6 578.8 111 578.9 109.7C578.9 101.3 578.9 93.0001 578.9 84.6001V84.7001Z" fill="#1a1717"/><path d="M488 202.9H434.3C434.2 201.5 433.9 199.9 433.9 198.3C433.9 152.7 433.9 107.2 433.9 61.6001C433.9 55.7001 433.8 55.5001 427.9 55.5001C419.2 55.5001 410.5 55.5001 401.5 55.5001C401.5 54.3001 401.3 53.4001 401.3 52.6001C401.3 36.7001 401.4 20.8001 401.3 4.9001C401.3 1.1001 402.8 0.600098 406 0.600098C416.3 0.800098 426.7 0.600097 437 0.800097C443 0.800097 448.9 1.6001 454.9 1.5001C462.7 1.5001 470.5 0.800098 478.3 0.700098C488.1 0.600098 497.9 0.700098 507.7 0.700098C511.3 0.700098 514.9 0.700098 518.4 0.700098C520.6 0.700098 521.5 1.5001 521.5 3.7001C521.4 15.9001 521.3 28.0001 521.2 40.2001C521.2 45.3001 521.2 50.4001 521.2 55.6001C513 55.6001 505.1 55.6001 497.2 55.6001C495.5 55.6001 493.8 56.0001 492.1 56.2001C488.9 56.5001 488.5 58.1001 488.5 61.2001C488.7 69.1001 488.2 77.0001 488 84.9001C488 89.6001 488 94.3001 488 99.0001C488.2 107.3 488.5 115.6 488.6 124C488.7 135.9 488.7 147.7 488.6 159.6C488.6 168.5 488 177.3 487.9 186.2C487.9 191.1 488.2 196 488.4 201C488.4 201.7 488.1 202.5 487.9 203.1L488 202.9Z" fill="#1a1717"/><path d="M710.9 202.9H657.2C657.1 201.5 656.8 199.9 656.8 198.3C656.8 152.7 656.8 107.2 656.8 61.6001C656.8 55.7001 656.7 55.5001 650.8 55.5001C642.1 55.5001 633.4 55.5001 624.4 55.5001C624.4 54.3001 624.2 53.4001 624.2 52.6001C624.2 36.7001 624.3 20.8001 624.2 4.9001C624.2 1.1001 625.7 0.600098 628.9 0.600098C639.2 0.800098 649.6 0.600097 659.9 0.800097C665.9 0.800097 671.8 1.6001 677.8 1.5001C685.6 1.5001 693.4 0.800098 701.2 0.700098C711 0.600098 720.8 0.700098 730.6 0.700098C734.2 0.700098 737.8 0.700098 741.3 0.700098C743.5 0.700098 744.4 1.5001 744.4 3.7001C744.3 15.9001 744.2 28.0001 744.1 40.2001C744.1 45.3001 744.1 50.4001 744.1 55.6001C735.9 55.6001 728 55.6001 720.1 55.6001C718.4 55.6001 716.7 56.0001 715 56.2001C711.8 56.5001 711.4 58.1001 711.4 61.2001C711.6 69.1001 711.1 77.0001 710.9 84.9001C710.9 89.6001 710.9 94.3001 710.9 99.0001C711.1 107.3 711.4 115.6 711.5 124C711.6 135.9 711.6 147.7 711.5 159.6C711.5 168.5 710.9 177.3 710.8 186.2C710.8 191.1 711.1 196 711.3 201C711.3 201.7 711 202.5 710.8 203.1L710.9 202.9Z" fill="#1a1717"/><path d="M839.6 202.9H785.9C785.8 201.5 785.5 199.9 785.5 198.3C785.5 152.7 785.5 107.2 785.5 61.6001C785.5 55.7001 785.4 55.5001 779.5 55.5001C770.8 55.5001 762.1 55.5001 753.1 55.5001C753.1 54.3001 752.9 53.4001 752.9 52.6001C752.9 36.7001 753 20.8001 752.9 4.9001C752.9 1.1001 754.4 0.600098 757.6 0.600098C767.9 0.800098 778.3 0.600097 788.6 0.800097C794.6 0.800097 800.5 1.6001 806.5 1.5001C814.3 1.5001 822.1 0.800098 829.9 0.700098C839.7 0.600098 849.5 0.700098 859.3 0.700098C862.9 0.700098 866.5 0.700098 870 0.700098C872.2 0.700098 873.1 1.5001 873.1 3.7001C873 15.9001 872.9 28.0001 872.8 40.2001C872.8 45.3001 872.8 50.4001 872.8 55.6001C864.6 55.6001 856.7 55.6001 848.8 55.6001C847.1 55.6001 845.4 56.0001 843.7 56.2001C840.5 56.5001 840.1 58.1001 840.1 61.2001C840.3 69.1001 839.8 77.0001 839.6 84.9001C839.6 89.6001 839.6 94.3001 839.6 99.0001C839.8 107.3 840.1 115.6 840.2 124C840.3 135.9 840.3 147.7 840.2 159.6C840.2 168.5 839.6 177.3 839.5 186.2C839.5 191.1 839.8 196 840 201C840 201.7 839.7 202.5 839.5 203.1L839.6 202.9Z" fill="#1a1717"/><path d="M943.6 0.600109V202.6C926.2 202.6 909 202.6 891.7 202.6C889.9 202.6 888.6 202.6 888.8 199.8C889.3 194.2 889.2 188.6 889.2 183C889.1 172.2 888.7 161.4 888.6 150.6C888.5 141.7 888.6 132.7 888.6 123.8C888.6 114.9 888.7 106 888.7 97.1001C888.7 88.2001 888.6 79.4001 888.7 70.5001C888.7 63.4001 889.2 56.3001 889.2 49.2001C889.2 40.8001 888.8 32.4001 888.8 24.0001C888.8 16.9001 888.9 9.90011 889.2 2.80011C889.2 2.00011 890.6 0.600109 891.4 0.600109C902.8 0.500109 914.2 0.600109 925.6 0.600109C931.5 0.600109 937.3 0.600109 943.7 0.600109H943.6Z" fill="#1a1717"/></g></g></svg><svg x="770.2" y="0.0" width="93.5" height="204.0" viewBox="128.8 0.0 93.5 204.0" overflow="hidden"><g><g transform="translate(0,0)"><path d="M233.3 101.5C233.3 70.9999 233.3 40.4999 233.3 9.99992C233.3 0.999925 233.3 0.899924 242.6 0.899924C260.8 0.899924 278.9 0.699924 297.1 0.899924C324.5 1.29992 347.8 20.5999 353.8 47.1999C359.6 72.5999 343.6 101 318.2 110.6C315.9 111.5 313.5 112.2 311.1 113C307.8 114.2 305.3 116.1 306.5 120C307.8 124.1 311 124.7 314.6 123.5C319.8 121.7 324.9 119.7 330 117.6C333.7 116.1 337.2 114.2 340.9 112.5C344.6 110.7 346.4 111.8 347 115.9C350.3 139 353.8 162 357.2 185.1C357.8 189.2 358.4 193.3 359 197.5C359.5 200.8 358.5 202.6 354.9 202.6C339.4 202.6 323.9 202.6 308.4 202.6C304.8 202.6 303.4 200.6 303.1 197.3C302.2 184.7 301.2 172.1 300.3 159.4C300 154.8 299.6 150.1 299.2 145.5C298.9 141.7 297.8 138.2 293.2 138.4C288.9 138.6 288.1 142.2 288.1 145.7C288.1 161 288.1 176.4 288.1 191.7C288.1 198.967 284.4 202.6 277 202.6C266.2 202.6 255.3 202.6 244.5 202.6C237.1 202.6 233.4 198.833 233.4 191.3C233.4 161.3 233.4 131.3 233.4 101.3L233.3 101.5ZM299.2 73.0999C299.2 67.5999 299.2 62.0999 299.2 56.5999C299.2 53.2999 297.8 50.4999 294.2 50.2999C290.3 50.0999 288.4 52.8999 288.3 56.3999C288.1 67.3999 288.1 78.2999 288.3 89.2999C288.3 92.6999 290 95.5999 294 95.5999C298.1 95.5999 299.2 92.4999 299.3 89.0999C299.3 83.7999 299.3 78.4999 299.3 73.0999H299.2Z" fill="#1a1717"/><path d="M26.5 129.4C33.4 129.4 40.4 129.4 47.3 129.4C50.9 129.4 52.7 131 52.6 134.6C52.6 138.5 52.6 142.4 52.6 146.2C52.6 149.5 53.6 152.6 57.6 152.7C61.6 152.7 63.1 149.8 63.3 146.2C63.5 142 64 137.7 63.1 133.7C62.5 130.9 60.5 127.6 58.2 126C53.3 122.6 47.9 120.1 42.6 117.4C37.4 114.8 32.1 112.4 26.9 109.9C13.4 103.4 4.79999 93 1.79999 78.1C-2.60001 56.9 0.0999908 37.3 14.6 20.3C29.1 3.29998 56 -3.60002 77.5 4.29998C100.1 12.5 115.4 33.4 115.8 56.5C115.8 61.2 115.8 65.9 115.8 70.5C115.8 74.2 114.1 75.7 110.4 75.7C96.5 75.7 82.6 75.7 68.7 75.7C65 75.7 63.4 74 63.4 70.4C63.4 66.4 63.4 62.3 63.2 58.3C63 54.9 61.5 52.1 57.8 52.1C53.9 52.1 52.8 55 52.6 58.4C52.6 58.6 52.6 58.7 52.6 58.9C51.5 75.7 51.9 76.3 67.3 83.5C75.2 87.2 83 91 90.7 95.1C104.6 102.5 112.7 114.1 114.8 129.8C117.5 149.8 115.6 168.7 101.2 184.2C84.8 202 64.4 208 41.3 201.2C18.6 194.5 4.79999 178.7 0.699993 155.2C-0.500007 148.6 -0.100009 141.7 -0.400009 134.9C-0.600009 130.7 1.49999 129.2 5.49999 129.2C12.4 129.3 19.4 129.2 26.3 129.2L26.5 129.4Z" fill="#1a1717"/><path d="M128.8 101.9C128.8 70.9001 128.8 39.9001 128.8 9.0001C128.8 1.5001 129.2 1.1001 136.8 1.1001C162.8 1.1001 188.8 1.1001 214.7 1.1001C221.7 1.1001 222.3 1.7001 222.3 8.4001C222.3 22.1001 222.2 35.7001 222.3 49.4001C222.3 54.1001 220.6 56.0001 215.8 55.9001C207.1 55.7001 198.5 55.9001 189.8 55.9001C185.4 55.9001 183.6 57.6001 183.4 62.1001C183 75.2001 182.9 75.2001 195.8 75.2001C200.6 75.2001 205.5 75.2001 210.3 75.2001C213.6 75.2001 215.2 76.8001 215.2 80.1001C215.2 95.1001 215.2 110.1 215.2 125.1C215.2 128.8 213 129.9 209.7 129.9C203 129.9 196.4 130 189.7 129.9C185.2 129.9 183.5 131.8 183.4 136.2C183 149 183 149.1 195.7 149.1C202.5 149.1 209.4 149.2 216.2 149.1C220.3 149.1 222.3 150.7 222.3 155C222.2 169.5 222.3 184 222.3 198.5C222.3 202.3 220.7 203.9 216.9 203.9C189.4 203.9 161.9 203.9 134.5 203.9C129.2 203.9 128.8 200.6 128.8 196.6C128.8 165.1 128.8 133.6 128.8 102.2V101.9Z" fill="#1a1717"/><path d="M419.2 203.7C429.9 203.7 440.7 203.7 451.4 203.7C454.6 203.7 455.4 203 455.8 200.2C457.1 190.5 458.5 180.9 459.8 171.2C460.9 162.4 461.9 153.5 463 144.6C463.9 137.6 464.9 130.7 465.8 123.7C466.5 118.3 466.9 113 467.6 107.6C468.4 101.3 469.4 95 470.3 88.8C471.3 81.7 472.2 74.6999 473.1 67.5999C473.8 62.1999 474.2 56.7 475 51.3C476.2 42.5 477.6 33.7999 478.8 25.0999C479.7 18.3999 480.4 11.7 481.2 4.89995C481.6 1.69995 481.1 0.89995 477.9 0.89995C462.4 0.89995 447 0.89995 431.5 0.89995C428.3 0.89995 427.9 1.49995 427.7 4.69995C427.2 17.1 426.7 29.6 426.3 42C425.7 63 425.2 84.1 424.7 105.1C424.4 118 424.3 130.9 424 143.8C424 145.3 423.7 146.9 423.2 148.3C422.2 151.1 419.2 151.9 417.3 149.6C416.2 148.3 415.5 146.3 415.4 144.5C414.8 125.2 414.3 105.9 413.8 86.5C413.4 71.8 412.9 57.1 412.6 42.4C412.3 30.3 412.3 18.2 412.1 5.99995C412.1 1.49995 411.3 0.699951 406.9 0.699951C396.2 0.699951 385.6 0.699951 374.9 0.699951C370.4 0.699951 366 0.699951 361.5 0.699951C357.2 0.699951 356.6 1.49995 357.4 5.59995C357.7 6.89995 357.8 8.29995 358 9.69995C358.7 15.6 359.4 21.4999 360.2 27.2999C360.9 32.5999 361.8 38 362.4 43.3C363.1 48.7 363.6 54.1999 364.2 59.6999C364.7 63.7999 365.3 67.8999 365.9 71.8999C366.7 77.2999 367.5 82.7 368.2 88.2C368.9 93.6 369.4 99.1 370.1 104.5C370.8 110.2 371.7 115.9 372.4 121.6C373.1 127.2 373.8 132.8 374.5 138.5C375.2 143.9 376.1 149.4 376.8 154.8C377.5 160.3 378 165.9 378.7 171.4C379.2 175.6 379.9 179.7 380.5 183.9C381.2 188.9 382.1 193.9 382.6 198.9C383 203 383.3 203.5 387.4 203.5C398 203.5 408.5 203.5 419.1 203.5L419.2 203.7Z" fill="#1a1717"/><path d="M419.2 203.7C408.6 203.7 398.1 203.7 387.5 203.7C383.4 203.7 383.1 203.2 382.7 199.1C382.1 194.1 381.3 189.1 380.6 184.1C380 179.9 379.4 175.8 378.8 171.6C378.1 166.1 377.6 160.5 376.9 155C376.2 149.6 375.3 144.1 374.6 138.7C373.8 133.1 373.2 127.5 372.5 121.8C371.8 116.1 370.9 110.4 370.2 104.7C369.5 99.2999 369 93.7999 368.3 88.3999C367.6 82.9999 366.8 77.4999 366 72.0999C365.4 67.9999 364.8 63.9999 364.3 59.8999C363.6 54.3999 363.2 48.9999 362.5 43.4999C361.8 38.0999 361 32.7999 360.3 27.4999C359.5 21.5999 358.8 15.7999 358.1 9.8999C357.9 8.4999 357.8 7.1999 357.5 5.7999C356.7 1.6999 357.3 0.899902 361.6 0.899902C366.1 0.899902 370.5 0.899902 375 0.899902C385.7 0.899902 396.3 0.899902 407 0.899902C411.4 0.899902 412.2 1.6999 412.2 6.1999C412.3 18.2999 412.4 30.3999 412.7 42.5999C413 57.2999 413.5 71.9999 413.9 86.6999C414.4 106 414.9 125.3 415.5 144.7C415.5 146.4 416.3 148.4 417.4 149.8C419.3 152.1 422.2 151.4 423.3 148.5C423.8 147.1 424.1 145.5 424.1 144C424.4 131.1 424.5 118.2 424.8 105.3C425.3 84.2999 425.8 63.1999 426.4 42.1999C426.8 29.7999 427.3 17.2999 427.8 4.8999C427.9 1.6999 428.4 1.0999 431.6 1.0999C447.1 1.0999 462.5 1.0999 478 1.0999C481.2 1.0999 481.7 1.8999 481.3 5.0999C480.5 11.7999 479.8 18.5999 478.9 25.2999C477.7 34.0999 476.3 42.7999 475.1 51.4999C474.4 56.8999 473.9 62.3999 473.2 67.7999C472.3 74.8999 471.4 81.8999 470.4 88.9999C469.5 95.2999 468.6 101.6 467.7 107.8C467 113.2 466.6 118.5 465.9 123.9C465 130.9 464 137.8 463.1 144.8C462 153.6 461.1 162.5 459.9 171.4C458.6 181.1 457.2 190.7 455.9 200.4C455.5 203.1 454.7 203.9 451.5 203.9C440.8 203.9 430 203.9 419.3 203.9L419.2 203.7Z" fill="#1a1717"/><path d="M565.4 55.3C565.4 53.9 565.2 52.8 565.2 51.8C565.2 36 565.2 20.1 565.2 4.29996C565.2 1.19996 566 -3.92888e-05 569.2 0.199961C576.5 0.599961 583.8 0.79996 591.1 0.89996C595.4 0.89996 599.8 0.39996 604.1 0.39996C618.3 0.49996 632.5 0.89996 646.7 0.89996C655.7 0.89996 664.7 0.399959 673.8 0.299959C677.7 0.299959 681.5 0.299959 685.6 0.299959C685.6 9.09996 685.6 17 685.6 24.8C685.5 34.9 685.6 45 684.9 55.1C684.7 58.2 682.4 61.3 680.7 64.1C670.3 81.4 659.7 98.6 649.2 115.9C642.4 127.2 635.8 138.7 629.1 150.1C627.2 153.2 625 156.2 623.2 159.3C621.7 161.8 620.6 164.7 623.4 167C626 169.1 630.3 168.3 632.3 165.2C635 161.2 637.3 156.9 639.7 152.7C641.2 150 643.1 148.6 646.6 148.7C658.2 149 669.8 148.8 681.3 148.7C684.2 148.7 685.7 148.6 685.4 152.9C684.7 163.4 685.4 174 685.5 184.6C685.5 190.4 685.6 196.2 685.5 201.9C685.5 202.4 684.1 203.4 683.4 203.4C671.2 203.5 659 203.6 646.7 203.5C633.9 203.5 621 203.2 608.2 203.1C595.2 203.1 582.2 203.1 569.2 203.1C568.1 203.1 566.9 203.4 565.2 203.7V199.3C565.2 183.7 565.5 168.1 565 152.6C564.8 147.3 567.7 143.9 569.9 140C575.8 129.9 582.1 120.1 588.2 110.1C596.2 96.9 604.2 83.7 612.1 70.4C618 60.5 624 50.7 629.6 40.6C630.5 38.9 630.3 35.9 629.4 34.1C628.8 32.9 625.9 32 624.4 32.4C622.7 32.8 621.1 34.6 620 36.2C616.3 41.8 612.9 47.7 609.2 53.4C608.7 54.2 607.8 55.2 607 55.2C593.2 55.3 579.4 55.2 565.4 55.2V55.3Z" fill="#1a1717"/><path d="M550.7 1.19996V203.8C533.2 203.8 516 203.8 498.7 203.8C496.9 203.8 495.6 203.8 495.8 201C496.3 195.4 496.2 189.8 496.2 184.2C496.1 173.4 495.7 162.6 495.6 151.7C495.5 142.7 495.6 133.8 495.6 124.8C495.6 115.9 495.7 106.9 495.7 98C495.7 89.1 495.6 80.2 495.7 71.3C495.7 64.2 496.2 57.1 496.2 49.9C496.2 41.5 495.8 33 495.8 24.6C495.8 17.5 495.9 10.4 496.2 3.39996C496.2 2.59996 497.6 1.19996 498.4 1.19996C509.8 1.09996 521.2 1.19996 532.7 1.19996C538.6 1.19996 544.5 1.19996 550.9 1.19996H550.7Z" fill="#1a1717"/><path d="M752.4 1.19996V203.8C734.9 203.8 717.7 203.8 700.4 203.8C698.6 203.8 697.3 203.8 697.5 201C698 195.4 697.9 189.8 697.9 184.2C697.8 173.4 697.4 162.6 697.3 151.7C697.2 142.7 697.3 133.8 697.3 124.8C697.3 115.9 697.4 106.9 697.4 98C697.4 89.1 697.3 80.2 697.4 71.3C697.4 64.2 697.9 57.1 697.9 49.9C697.9 41.5 697.5 33 697.5 24.6C697.5 17.5 697.6 10.4 697.9 3.39996C697.9 2.59996 699.3 1.19996 700.1 1.19996C711.5 1.09996 722.9 1.19996 734.4 1.19996C740.3 1.19996 746.2 1.19996 752.6 1.19996H752.4Z" fill="#1a1717"/></g></g></svg><svg x="874.7" y="0.0" width="116.3" height="204.0" viewBox="-0.4 0.0 116.3 204.0" overflow="hidden"><g><g transform="translate(0,0)"><path d="M233.3 101.5C233.3 70.9999 233.3 40.4999 233.3 9.99992C233.3 0.999925 233.3 0.899924 242.6 0.899924C260.8 0.899924 278.9 0.699924 297.1 0.899924C324.5 1.29992 347.8 20.5999 353.8 47.1999C359.6 72.5999 343.6 101 318.2 110.6C315.9 111.5 313.5 112.2 311.1 113C307.8 114.2 305.3 116.1 306.5 120C307.8 124.1 311 124.7 314.6 123.5C319.8 121.7 324.9 119.7 330 117.6C333.7 116.1 337.2 114.2 340.9 112.5C344.6 110.7 346.4 111.8 347 115.9C350.3 139 353.8 162 357.2 185.1C357.8 189.2 358.4 193.3 359 197.5C359.5 200.8 358.5 202.6 354.9 202.6C339.4 202.6 323.9 202.6 308.4 202.6C304.8 202.6 303.4 200.6 303.1 197.3C302.2 184.7 301.2 172.1 300.3 159.4C300 154.8 299.6 150.1 299.2 145.5C298.9 141.7 297.8 138.2 293.2 138.4C288.9 138.6 288.1 142.2 288.1 145.7C288.1 161 288.1 176.4 288.1 191.7C288.1 198.967 284.4 202.6 277 202.6C266.2 202.6 255.3 202.6 244.5 202.6C237.1 202.6 233.4 198.833 233.4 191.3C233.4 161.3 233.4 131.3 233.4 101.3L233.3 101.5ZM299.2 73.0999C299.2 67.5999 299.2 62.0999 299.2 56.5999C299.2 53.2999 297.8 50.4999 294.2 50.2999C290.3 50.0999 288.4 52.8999 288.3 56.3999C288.1 67.3999 288.1 78.2999 288.3 89.2999C288.3 92.6999 290 95.5999 294 95.5999C298.1 95.5999 299.2 92.4999 299.3 89.0999C299.3 83.7999 299.3 78.4999 299.3 73.0999H299.2Z" fill="#1a1717"/><path d="M26.5 129.4C33.4 129.4 40.4 129.4 47.3 129.4C50.9 129.4 52.7 131 52.6 134.6C52.6 138.5 52.6 142.4 52.6 146.2C52.6 149.5 53.6 152.6 57.6 152.7C61.6 152.7 63.1 149.8 63.3 146.2C63.5 142 64 137.7 63.1 133.7C62.5 130.9 60.5 127.6 58.2 126C53.3 122.6 47.9 120.1 42.6 117.4C37.4 114.8 32.1 112.4 26.9 109.9C13.4 103.4 4.79999 93 1.79999 78.1C-2.60001 56.9 0.0999908 37.3 14.6 20.3C29.1 3.29998 56 -3.60002 77.5 4.29998C100.1 12.5 115.4 33.4 115.8 56.5C115.8 61.2 115.8 65.9 115.8 70.5C115.8 74.2 114.1 75.7 110.4 75.7C96.5 75.7 82.6 75.7 68.7 75.7C65 75.7 63.4 74 63.4 70.4C63.4 66.4 63.4 62.3 63.2 58.3C63 54.9 61.5 52.1 57.8 52.1C53.9 52.1 52.8 55 52.6 58.4C52.6 58.6 52.6 58.7 52.6 58.9C51.5 75.7 51.9 76.3 67.3 83.5C75.2 87.2 83 91 90.7 95.1C104.6 102.5 112.7 114.1 114.8 129.8C117.5 149.8 115.6 168.7 101.2 184.2C84.8 202 64.4 208 41.3 201.2C18.6 194.5 4.79999 178.7 0.699993 155.2C-0.500007 148.6 -0.100009 141.7 -0.400009 134.9C-0.600009 130.7 1.49999 129.2 5.49999 129.2C12.4 129.3 19.4 129.2 26.3 129.2L26.5 129.4Z" fill="#1a1717"/><path d="M128.8 101.9C128.8 70.9001 128.8 39.9001 128.8 9.0001C128.8 1.5001 129.2 1.1001 136.8 1.1001C162.8 1.1001 188.8 1.1001 214.7 1.1001C221.7 1.1001 222.3 1.7001 222.3 8.4001C222.3 22.1001 222.2 35.7001 222.3 49.4001C222.3 54.1001 220.6 56.0001 215.8 55.9001C207.1 55.7001 198.5 55.9001 189.8 55.9001C185.4 55.9001 183.6 57.6001 183.4 62.1001C183 75.2001 182.9 75.2001 195.8 75.2001C200.6 75.2001 205.5 75.2001 210.3 75.2001C213.6 75.2001 215.2 76.8001 215.2 80.1001C215.2 95.1001 215.2 110.1 215.2 125.1C215.2 128.8 213 129.9 209.7 129.9C203 129.9 196.4 130 189.7 129.9C185.2 129.9 183.5 131.8 183.4 136.2C183 149 183 149.1 195.7 149.1C202.5 149.1 209.4 149.2 216.2 149.1C220.3 149.1 222.3 150.7 222.3 155C222.2 169.5 222.3 184 222.3 198.5C222.3 202.3 220.7 203.9 216.9 203.9C189.4 203.9 161.9 203.9 134.5 203.9C129.2 203.9 128.8 200.6 128.8 196.6C128.8 165.1 128.8 133.6 128.8 102.2V101.9Z" fill="#1a1717"/><path d="M419.2 203.7C429.9 203.7 440.7 203.7 451.4 203.7C454.6 203.7 455.4 203 455.8 200.2C457.1 190.5 458.5 180.9 459.8 171.2C460.9 162.4 461.9 153.5 463 144.6C463.9 137.6 464.9 130.7 465.8 123.7C466.5 118.3 466.9 113 467.6 107.6C468.4 101.3 469.4 95 470.3 88.8C471.3 81.7 472.2 74.6999 473.1 67.5999C473.8 62.1999 474.2 56.7 475 51.3C476.2 42.5 477.6 33.7999 478.8 25.0999C479.7 18.3999 480.4 11.7 481.2 4.89995C481.6 1.69995 481.1 0.89995 477.9 0.89995C462.4 0.89995 447 0.89995 431.5 0.89995C428.3 0.89995 427.9 1.49995 427.7 4.69995C427.2 17.1 426.7 29.6 426.3 42C425.7 63 425.2 84.1 424.7 105.1C424.4 118 424.3 130.9 424 143.8C424 145.3 423.7 146.9 423.2 148.3C422.2 151.1 419.2 151.9 417.3 149.6C416.2 148.3 415.5 146.3 415.4 144.5C414.8 125.2 414.3 105.9 413.8 86.5C413.4 71.8 412.9 57.1 412.6 42.4C412.3 30.3 412.3 18.2 412.1 5.99995C412.1 1.49995 411.3 0.699951 406.9 0.699951C396.2 0.699951 385.6 0.699951 374.9 0.699951C370.4 0.699951 366 0.699951 361.5 0.699951C357.2 0.699951 356.6 1.49995 357.4 5.59995C357.7 6.89995 357.8 8.29995 358 9.69995C358.7 15.6 359.4 21.4999 360.2 27.2999C360.9 32.5999 361.8 38 362.4 43.3C363.1 48.7 363.6 54.1999 364.2 59.6999C364.7 63.7999 365.3 67.8999 365.9 71.8999C366.7 77.2999 367.5 82.7 368.2 88.2C368.9 93.6 369.4 99.1 370.1 104.5C370.8 110.2 371.7 115.9 372.4 121.6C373.1 127.2 373.8 132.8 374.5 138.5C375.2 143.9 376.1 149.4 376.8 154.8C377.5 160.3 378 165.9 378.7 171.4C379.2 175.6 379.9 179.7 380.5 183.9C381.2 188.9 382.1 193.9 382.6 198.9C383 203 383.3 203.5 387.4 203.5C398 203.5 408.5 203.5 419.1 203.5L419.2 203.7Z" fill="#1a1717"/><path d="M419.2 203.7C408.6 203.7 398.1 203.7 387.5 203.7C383.4 203.7 383.1 203.2 382.7 199.1C382.1 194.1 381.3 189.1 380.6 184.1C380 179.9 379.4 175.8 378.8 171.6C378.1 166.1 377.6 160.5 376.9 155C376.2 149.6 375.3 144.1 374.6 138.7C373.8 133.1 373.2 127.5 372.5 121.8C371.8 116.1 370.9 110.4 370.2 104.7C369.5 99.2999 369 93.7999 368.3 88.3999C367.6 82.9999 366.8 77.4999 366 72.0999C365.4 67.9999 364.8 63.9999 364.3 59.8999C363.6 54.3999 363.2 48.9999 362.5 43.4999C361.8 38.0999 361 32.7999 360.3 27.4999C359.5 21.5999 358.8 15.7999 358.1 9.8999C357.9 8.4999 357.8 7.1999 357.5 5.7999C356.7 1.6999 357.3 0.899902 361.6 0.899902C366.1 0.899902 370.5 0.899902 375 0.899902C385.7 0.899902 396.3 0.899902 407 0.899902C411.4 0.899902 412.2 1.6999 412.2 6.1999C412.3 18.2999 412.4 30.3999 412.7 42.5999C413 57.2999 413.5 71.9999 413.9 86.6999C414.4 106 414.9 125.3 415.5 144.7C415.5 146.4 416.3 148.4 417.4 149.8C419.3 152.1 422.2 151.4 423.3 148.5C423.8 147.1 424.1 145.5 424.1 144C424.4 131.1 424.5 118.2 424.8 105.3C425.3 84.2999 425.8 63.1999 426.4 42.1999C426.8 29.7999 427.3 17.2999 427.8 4.8999C427.9 1.6999 428.4 1.0999 431.6 1.0999C447.1 1.0999 462.5 1.0999 478 1.0999C481.2 1.0999 481.7 1.8999 481.3 5.0999C480.5 11.7999 479.8 18.5999 478.9 25.2999C477.7 34.0999 476.3 42.7999 475.1 51.4999C474.4 56.8999 473.9 62.3999 473.2 67.7999C472.3 74.8999 471.4 81.8999 470.4 88.9999C469.5 95.2999 468.6 101.6 467.7 107.8C467 113.2 466.6 118.5 465.9 123.9C465 130.9 464 137.8 463.1 144.8C462 153.6 461.1 162.5 459.9 171.4C458.6 181.1 457.2 190.7 455.9 200.4C455.5 203.1 454.7 203.9 451.5 203.9C440.8 203.9 430 203.9 419.3 203.9L419.2 203.7Z" fill="#1a1717"/><path d="M565.4 55.3C565.4 53.9 565.2 52.8 565.2 51.8C565.2 36 565.2 20.1 565.2 4.29996C565.2 1.19996 566 -3.92888e-05 569.2 0.199961C576.5 0.599961 583.8 0.79996 591.1 0.89996C595.4 0.89996 599.8 0.39996 604.1 0.39996C618.3 0.49996 632.5 0.89996 646.7 0.89996C655.7 0.89996 664.7 0.399959 673.8 0.299959C677.7 0.299959 681.5 0.299959 685.6 0.299959C685.6 9.09996 685.6 17 685.6 24.8C685.5 34.9 685.6 45 684.9 55.1C684.7 58.2 682.4 61.3 680.7 64.1C670.3 81.4 659.7 98.6 649.2 115.9C642.4 127.2 635.8 138.7 629.1 150.1C627.2 153.2 625 156.2 623.2 159.3C621.7 161.8 620.6 164.7 623.4 167C626 169.1 630.3 168.3 632.3 165.2C635 161.2 637.3 156.9 639.7 152.7C641.2 150 643.1 148.6 646.6 148.7C658.2 149 669.8 148.8 681.3 148.7C684.2 148.7 685.7 148.6 685.4 152.9C684.7 163.4 685.4 174 685.5 184.6C685.5 190.4 685.6 196.2 685.5 201.9C685.5 202.4 684.1 203.4 683.4 203.4C671.2 203.5 659 203.6 646.7 203.5C633.9 203.5 621 203.2 608.2 203.1C595.2 203.1 582.2 203.1 569.2 203.1C568.1 203.1 566.9 203.4 565.2 203.7V199.3C565.2 183.7 565.5 168.1 565 152.6C564.8 147.3 567.7 143.9 569.9 140C575.8 129.9 582.1 120.1 588.2 110.1C596.2 96.9 604.2 83.7 612.1 70.4C618 60.5 624 50.7 629.6 40.6C630.5 38.9 630.3 35.9 629.4 34.1C628.8 32.9 625.9 32 624.4 32.4C622.7 32.8 621.1 34.6 620 36.2C616.3 41.8 612.9 47.7 609.2 53.4C608.7 54.2 607.8 55.2 607 55.2C593.2 55.3 579.4 55.2 565.4 55.2V55.3Z" fill="#1a1717"/><path d="M550.7 1.19996V203.8C533.2 203.8 516 203.8 498.7 203.8C496.9 203.8 495.6 203.8 495.8 201C496.3 195.4 496.2 189.8 496.2 184.2C496.1 173.4 495.7 162.6 495.6 151.7C495.5 142.7 495.6 133.8 495.6 124.8C495.6 115.9 495.7 106.9 495.7 98C495.7 89.1 495.6 80.2 495.7 71.3C495.7 64.2 496.2 57.1 496.2 49.9C496.2 41.5 495.8 33 495.8 24.6C495.8 17.5 495.9 10.4 496.2 3.39996C496.2 2.59996 497.6 1.19996 498.4 1.19996C509.8 1.09996 521.2 1.19996 532.7 1.19996C538.6 1.19996 544.5 1.19996 550.9 1.19996H550.7Z" fill="#1a1717"/><path d="M752.4 1.19996V203.8C734.9 203.8 717.7 203.8 700.4 203.8C698.6 203.8 697.3 203.8 697.5 201C698 195.4 697.9 189.8 697.9 184.2C697.8 173.4 697.4 162.6 697.3 151.7C697.2 142.7 697.3 133.8 697.3 124.8C697.3 115.9 697.4 106.9 697.4 98C697.4 89.1 697.3 80.2 697.4 71.3C697.4 64.2 697.9 57.1 697.9 49.9C697.9 41.5 697.5 33 697.5 24.6C697.5 17.5 697.6 10.4 697.9 3.39996C697.9 2.59996 699.3 1.19996 700.1 1.19996C711.5 1.09996 722.9 1.19996 734.4 1.19996C740.3 1.19996 746.2 1.19996 752.6 1.19996H752.4Z" fill="#1a1717"/></g></g></svg></svg>